<?xml version="1.0" ?><svg viewBox="0 0 24 24" xmlns="http://www.w3.org/2000/svg"><defs><style>.cls-1{fill:#231f20;}</style></defs><g id="rewind"><path class="cls-1" d="M21.79,10.48a10,10,0,0,0-4-6.54,9.74,9.74,0,0,0-7.4-1.78A9.93,9.93,0,0,0,6.65,3.6l0-.19a1,1,0,0,0-2-.43L4,6.22v.07s0,0,0,.08,0,.06,0,.09v.13l0,.1a.94.94,0,0,0,.06.15.49.49,0,0,0,0,.11L4.21,7l.11.12.06.07h0l.09,0,.16.08.11,0h.17l2.55.18h.07a1,1,0,0,0,1-.93,1,1,0,0,0-.93-1.07l-.33,0a7.81,7.81,0,0,1,9.32,0A8.08,8.08,0,0,1,13.3,20a8,8,0,0,1-9.12-6.67,8.22,8.22,0,0,1,0-2.8,1,1,0,0,0-2-.36,10.16,10.16,0,0,0,0,3.48A10,10,0,0,0,12,22.13,9.44,9.44,0,0,0,13.62,22,10,10,0,0,0,21.79,10.48Z"/></g></svg>