<svg xmlns="http://www.w3.org/2000/svg" version="1.1" height="30" width="30" viewBox="0 0 32 32" style="display: inline; overflow: auto; background: none; padding: 0px; float: none; line-height: inherit; height: auto; margin-bottom: inherit; fill: black; width: auto;"><path d="M0 16c0-8.837 7.163-16 16-16s16 7.163 16 16c0 8.837-7.163 16-16 16s-16-7.163-16-16zM16 26.080c5.567 0 10.080-4.513 10.080-10.080s-4.513-10.080-10.080-10.080c-5.567 0-10.080 4.513-10.080 10.080s4.513 10.080 10.080 10.080zM20.25 19.114c-1.466 2.17-3.52 4.16-6.246 4.16-2.899 0-4.589-1.818-4.589-4.749 0-4.749 3.52-9.402 8.448-9.402 1.658-0.016 3.898 0.653 3.898 2.662 0 3.6-5.642 4.8-8.416 5.514-0.105 0.536-0.174 1.163-0.192 1.802-0 1.258 0.668 2.406 2.038 2.406 1.786 0 3.219-1.722 4.272-2.995zM18.72 11.37c0-0.733-0.413-1.306-1.178-1.306-2.294 0-3.475 4.461-3.92 6.214 2.131-0.637 5.098-2.39 5.098-4.909z"/></svg>