<svg xmlns="http://www.w3.org/2000/svg" width="100%" height="100%" viewBox="0 0 22 11" fit="" preserveAspectRatio="xMidYMid meet" focusable="false" data-di-res-id="cfbef47b-72d4efe1" data-di-rand="1618419068479"><path fill-rule="evenodd" d="M21.969 1.496c.234.677-.872 1.445-2.268 1.928-.696.242-3.198 1.108-5.68 1.966-.28.391-.773 1.076-.995 1.373-.22.296-.53.589-.89.713-.363.127-1.733.6-1.733.6l.719-1.682c-1.282.442-2.294.794-2.652.917-1.024.354-3.516.383-4.523.432-1.009.051-1.204-.22-1.534-.634C2.083 6.694 0 3.835 0 3.835l2.205-.357S5.027 4.81 5.537 5.002c.51.193.73.124 1.172-.05 1.58-.62 9.198-3.947 10.634-4.444 2.05-.71 4.39.311 4.626.988zm-6.411 8.223a.367.367 0 1 1 0 .734H8.394a.367.367 0 1 1 0-.734h7.164z"/></svg>