<svg xmlns="http://www.w3.org/2000/svg" width="100%" height="100%" viewBox="0 0 21 10" fit="" preserveAspectRatio="xMidYMid meet" focusable="false" data-di-res-id="cf8519c5-53ab1a33" data-di-rand="1618419068480"><path d="M16.739 3.053c2.016 0 3.761 1.607 3.761 2.273 0 .666-1.203 1.005-2.575 1.005h-.993a.643.643 0 1 1-.909 0H12.34c-.365.258-1.006.71-1.292.905-.283.191-.644.355-.999.355H8.346l1.142-1.26H6.881c-1.007 0-3.204-.732-4.103-.995-.9-.262-.989-.559-1.154-1.023C1.46 3.85.5.705.5.705l2.046.357s2.071 2.026 2.462 2.351c.389.325.601.33 1.043.312 1.576-.064 9.277-.672 10.688-.672zm-2.913 6.058a.34.34 0 1 1 0 .683H7.17a.341.341 0 1 1 0-.683h6.656z"/></svg>