<svg xmlns="http://www.w3.org/2000/svg" xmlns:xlink="http://www.w3.org/1999/xlink" version="1.1" width="52" height="45" enable-background="new 0 0 700 100" xml:space="preserve" style=""><rect id="backgroundrect" width="100%" height="100%" x="0" y="0" fill="none" stroke="none" class="" style=""/>






























































































































































































































































































































































































































































































<g class="currentLayer" style=""><title>Layer 1</title><path fill="#FFFFFF" d="M25.960999366760234,1.4759994220733645 c-13.73,0 -24.861,8.076 -24.861,18.038 c0,5.513 3.4130000000000003,10.445 8.784,13.753 l-3.9,11.281 l11.464,-8.082 c2.656,0.7000000000000002 5.523,1.086 8.515,1.086 c13.73,0 24.861,-8.076 24.861,-18.04 C50.82199936676028,9.551999422073365 39.69099936676025,1.4759994220733645 25.960999366760234,1.4759994220733645 " id="svg_316" class="" opacity="1"/><path fill="#FF5A5D" d="M48.54699936676025,11.845999422073362 c0.4760000000000001,0 0.8590000000000002,-0.3850000000000001 0.8590000000000002,-0.8600000000000002 c0,-0.4760000000000001 -0.3850000000000001,-0.8610000000000002 -0.8590000000000002,-0.8610000000000002 c-0.4760000000000001,0 -0.8590000000000002,0.3850000000000001 -0.8590000000000002,0.8610000000000002 C47.68599936676026,11.460999422073364 48.07099936676025,11.845999422073362 48.54699936676025,11.845999422073362 " id="svg_317" class="" opacity="1"/><path fill="#FF5A5D" d="M48.54699936676025,14.857999422073362 c0.4760000000000001,0 0.8590000000000002,-0.3850000000000001 0.8590000000000002,-0.8600000000000002 c0,-0.4760000000000001 -0.3850000000000001,-0.8610000000000002 -0.8590000000000002,-0.8610000000000002 c-0.4760000000000001,0 -0.8590000000000002,0.3850000000000001 -0.8590000000000002,0.8610000000000002 C47.68599936676026,14.471999422073367 48.07099936676025,14.857999422073362 48.54699936676025,14.857999422073362 " id="svg_318" class="" opacity="1"/><path fill="#FF5A5D" d="M48.54699936676025,17.868999422073365 c0.4760000000000001,0 0.8590000000000002,-0.3850000000000001 0.8590000000000002,-0.8600000000000002 c0,-0.4760000000000001 -0.3850000000000001,-0.8610000000000002 -0.8590000000000002,-0.8610000000000002 c-0.4760000000000001,0 -0.8590000000000002,0.3850000000000001 -0.8590000000000002,0.8610000000000002 C47.68599936676026,17.483999422073367 48.07099936676025,17.868999422073365 48.54699936676025,17.868999422073365 " id="svg_319" class="" opacity="1"/><path fill="#FF5A5D" d="M48.54699936676025,20.880999422073366 c0.4760000000000001,0 0.8590000000000002,-0.3860000000000001 0.8590000000000002,-0.8600000000000002 c0,-0.4760000000000001 -0.3850000000000001,-0.8610000000000002 -0.8590000000000002,-0.8610000000000002 c-0.4760000000000001,0 -0.8590000000000002,0.3850000000000001 -0.8590000000000002,0.8610000000000002 C47.68599936676026,20.494999422073363 48.07099936676025,20.880999422073366 48.54699936676025,20.880999422073366 " id="svg_320" class="" opacity="1"/><path fill="#FF5A5D" d="M48.54699936676025,23.89199942207336 c0.4760000000000001,0 0.8590000000000002,-0.3850000000000001 0.8590000000000002,-0.8610000000000002 c0,-0.4760000000000001 -0.3850000000000001,-0.8600000000000002 -0.8590000000000002,-0.8600000000000002 c-0.4760000000000001,0 -0.8590000000000002,0.3850000000000001 -0.8590000000000002,0.8600000000000002 C47.68599936676026,23.50799942207336 48.07099936676025,23.89199942207336 48.54699936676025,23.89199942207336 " id="svg_321" class="" opacity="1"/><path fill="#FF5A5D" d="M48.54699936676025,26.903999422073362 c0.4760000000000001,0 0.8590000000000002,-0.3870000000000001 0.8590000000000002,-0.8610000000000002 c0,-0.4740000000000001 -0.3850000000000001,-0.8610000000000002 -0.8590000000000002,-0.8610000000000002 c-0.4760000000000001,0 -0.8590000000000002,0.3880000000000001 -0.8590000000000002,0.8610000000000002 C47.68699936676023,26.51699942207336 48.07099936676025,26.903999422073362 48.54699936676025,26.903999422073362 " id="svg_322" class="" opacity="1"/><path fill="#FF5A5D" d="M45.534999366760246,13.351999422073362 c0.4760000000000001,0 0.8600000000000002,-0.3850000000000001 0.8600000000000002,-0.8600000000000002 c0,-0.4760000000000001 -0.3870000000000001,-0.8610000000000002 -0.8600000000000002,-0.8610000000000002 s-0.8600000000000002,0.3850000000000001 -0.8600000000000002,0.8610000000000002 C44.67499936676023,12.966999422073364 45.05999936676028,13.351999422073362 45.534999366760246,13.351999422073362 " id="svg_323" class="" opacity="1"/><path fill="#FF5A5D" d="M45.534999366760246,16.363999422073363 c0.4760000000000001,0 0.8600000000000002,-0.3850000000000001 0.8600000000000002,-0.8600000000000002 c0,-0.4760000000000001 -0.3870000000000001,-0.8610000000000002 -0.8600000000000002,-0.8610000000000002 s-0.8600000000000002,0.3850000000000001 -0.8600000000000002,0.8610000000000002 C44.67499936676023,15.977999422073367 45.05999936676028,16.363999422073363 45.534999366760246,16.363999422073363 " id="svg_324" class="" opacity="1"/><path fill="#FF5A5D" d="M45.534999366760246,19.374999422073365 c0.4760000000000001,0 0.8600000000000002,-0.3850000000000001 0.8600000000000002,-0.8600000000000002 c0,-0.4760000000000001 -0.3870000000000001,-0.8610000000000002 -0.8600000000000002,-0.8610000000000002 s-0.8600000000000002,0.3850000000000001 -0.8600000000000002,0.8610000000000002 C44.67499936676023,18.989999422073367 45.05999936676028,19.374999422073365 45.534999366760246,19.374999422073365 " id="svg_325" class="" opacity="1"/><path fill="#FF5A5D" d="M45.534999366760246,22.386999422073366 c0.4760000000000001,0 0.8600000000000002,-0.3860000000000001 0.8600000000000002,-0.8610000000000002 s-0.3870000000000001,-0.8600000000000002 -0.8600000000000002,-0.8600000000000002 s-0.8600000000000002,0.3850000000000001 -0.8600000000000002,0.8600000000000002 S45.05999936676028,22.386999422073366 45.534999366760246,22.386999422073366 " id="svg_326" class="" opacity="1"/><path fill="#FF5A5D" d="M45.534999366760246,10.340999422073367 c0.4760000000000001,0 0.8600000000000002,-0.3850000000000001 0.8600000000000002,-0.8600000000000002 c0,-0.4760000000000001 -0.3870000000000001,-0.8610000000000002 -0.8600000000000002,-0.8610000000000002 s-0.8600000000000002,0.3850000000000001 -0.8600000000000002,0.8610000000000002 C44.67499936676023,9.954999422073364 45.05999936676028,10.340999422073367 45.534999366760246,10.340999422073367 " id="svg_327" class="" opacity="1"/><path fill="#FF5A5D" d="M45.534999366760246,25.39799942207336 c0.4760000000000001,0 0.8600000000000002,-0.3850000000000001 0.8600000000000002,-0.8610000000000002 c0,-0.4750000000000001 -0.3870000000000001,-0.8590000000000002 -0.8600000000000002,-0.8590000000000002 s-0.8600000000000002,0.3860000000000001 -0.8600000000000002,0.8590000000000002 C44.67499936676023,25.012999422073364 45.05999936676028,25.39799942207336 45.534999366760246,25.39799942207336 " id="svg_328" class="" opacity="1"/><path fill="#FF5A5D" d="M45.534999366760246,28.409999422073362 c0.4760000000000001,0 0.8600000000000002,-0.3870000000000001 0.8600000000000002,-0.8610000000000002 c0,-0.4740000000000001 -0.3870000000000001,-0.8600000000000002 -0.8600000000000002,-0.8600000000000002 s-0.8600000000000002,0.3870000000000001 -0.8600000000000002,0.8600000000000002 C44.67499936676023,28.02299942207336 45.05999936676028,28.409999422073362 45.534999366760246,28.409999422073362 " id="svg_329" class="" opacity="1"/><path fill="#FF5A5D" d="M42.522999366760246,11.845999422073362 c0.4760000000000001,0 0.8590000000000002,-0.3850000000000001 0.8590000000000002,-0.8600000000000002 c0,-0.4760000000000001 -0.3850000000000001,-0.8610000000000002 -0.8590000000000002,-0.8610000000000002 c-0.4760000000000001,0 -0.8590000000000002,0.3850000000000001 -0.8590000000000002,0.8610000000000002 C41.663999366760265,11.460999422073364 42.048999366760256,11.845999422073362 42.522999366760246,11.845999422073362 " id="svg_330" class="" opacity="1"/><path fill="#FF5A5D" d="M42.522999366760246,14.857999422073362 c0.4760000000000001,0 0.8590000000000002,-0.3850000000000001 0.8590000000000002,-0.8600000000000002 c0,-0.4760000000000001 -0.3850000000000001,-0.8610000000000002 -0.8590000000000002,-0.8610000000000002 c-0.4760000000000001,0 -0.8590000000000002,0.3850000000000001 -0.8590000000000002,0.8610000000000002 C41.663999366760265,14.471999422073367 42.048999366760256,14.857999422073362 42.522999366760246,14.857999422073362 " id="svg_331" class="" opacity="1"/><path fill="#FF5A5D" d="M42.522999366760246,17.868999422073365 c0.4760000000000001,0 0.8590000000000002,-0.3850000000000001 0.8590000000000002,-0.8600000000000002 c0,-0.4760000000000001 -0.3850000000000001,-0.8610000000000002 -0.8590000000000002,-0.8610000000000002 c-0.4760000000000001,0 -0.8590000000000002,0.3850000000000001 -0.8590000000000002,0.8610000000000002 C41.663999366760265,17.483999422073367 42.048999366760256,17.868999422073365 42.522999366760246,17.868999422073365 " id="svg_332" class="" opacity="1"/><path fill="#FF5A5D" d="M42.522999366760246,20.880999422073366 c0.4760000000000001,0 0.8590000000000002,-0.3860000000000001 0.8590000000000002,-0.8600000000000002 c0,-0.4760000000000001 -0.3850000000000001,-0.8610000000000002 -0.8590000000000002,-0.8610000000000002 c-0.4760000000000001,0 -0.8590000000000002,0.3850000000000001 -0.8590000000000002,0.8610000000000002 C41.663999366760265,20.494999422073363 42.048999366760256,20.880999422073366 42.522999366760246,20.880999422073366 " id="svg_333" class="" opacity="1"/><path fill="#FF5A5D" d="M42.522999366760246,8.834999422073366 c0.4760000000000001,0 0.8590000000000002,-0.3850000000000001 0.8590000000000002,-0.8600000000000002 c0,-0.4760000000000001 -0.3850000000000001,-0.8610000000000002 -0.8590000000000002,-0.8610000000000002 c-0.4760000000000001,0 -0.8590000000000002,0.3850000000000001 -0.8590000000000002,0.8610000000000002 C41.663999366760265,8.448999422073364 42.048999366760256,8.834999422073366 42.522999366760246,8.834999422073366 " id="svg_334" class="" opacity="1"/><path fill="#FF5A5D" d="M42.522999366760246,29.913999422073367 c0.4760000000000001,0 0.8590000000000002,-0.3850000000000001 0.8590000000000002,-0.8590000000000002 c0,-0.4770000000000001 -0.3850000000000001,-0.8600000000000002 -0.8590000000000002,-0.8600000000000002 c-0.4760000000000001,0 -0.8590000000000002,0.3850000000000001 -0.8590000000000002,0.8600000000000002 C41.663999366760265,29.528999422073362 42.048999366760256,29.913999422073367 42.522999366760246,29.913999422073367 " id="svg_335" class="" opacity="1"/><path fill="#FF5A5D" d="M42.522999366760246,23.89199942207336 c0.4760000000000001,0 0.8590000000000002,-0.3850000000000001 0.8590000000000002,-0.8610000000000002 c0,-0.4760000000000001 -0.3850000000000001,-0.8600000000000002 -0.8590000000000002,-0.8600000000000002 c-0.4760000000000001,0 -0.8590000000000002,0.3850000000000001 -0.8590000000000002,0.8600000000000002 C41.663999366760265,23.50799942207336 42.048999366760256,23.89199942207336 42.522999366760246,23.89199942207336 " id="svg_336" class="" opacity="1"/><path fill="#FF5A5D" d="M42.522999366760246,26.903999422073362 c0.4760000000000001,0 0.8590000000000002,-0.3870000000000001 0.8590000000000002,-0.8610000000000002 c0,-0.4740000000000001 -0.3850000000000001,-0.8610000000000002 -0.8590000000000002,-0.8610000000000002 c-0.4760000000000001,0 -0.8590000000000002,0.3880000000000001 -0.8590000000000002,0.8610000000000002 C41.663999366760265,26.51699942207336 42.048999366760256,26.903999422073362 42.522999366760246,26.903999422073362 " id="svg_337" class="" opacity="1"/><path fill="#FF5A5D" d="M39.51199936676028,13.351999422073362 c0.4750000000000001,0 0.8580000000000002,-0.3850000000000001 0.8580000000000002,-0.8600000000000002 c0,-0.4760000000000001 -0.3850000000000001,-0.8610000000000002 -0.8580000000000002,-0.8610000000000002 c-0.4770000000000001,0 -0.8600000000000002,0.3850000000000001 -0.8600000000000002,0.8610000000000002 C38.651999366760265,12.966999422073364 39.036999366760256,13.351999422073362 39.51199936676028,13.351999422073362 " id="svg_338" class="" opacity="1"/><path fill="#FF5A5D" d="M39.51199936676028,16.363999422073363 c0.4750000000000001,0 0.8580000000000002,-0.3850000000000001 0.8580000000000002,-0.8600000000000002 c0,-0.4760000000000001 -0.3850000000000001,-0.8610000000000002 -0.8580000000000002,-0.8610000000000002 c-0.4770000000000001,0 -0.8600000000000002,0.3850000000000001 -0.8600000000000002,0.8610000000000002 C38.651999366760265,15.977999422073367 39.036999366760256,16.363999422073363 39.51199936676028,16.363999422073363 " id="svg_339" class="" opacity="1"/><path fill="#FF5A5D" d="M39.51199936676028,19.374999422073365 c0.4750000000000001,0 0.8580000000000002,-0.3850000000000001 0.8580000000000002,-0.8600000000000002 c0,-0.4760000000000001 -0.3850000000000001,-0.8610000000000002 -0.8580000000000002,-0.8610000000000002 c-0.4770000000000001,0 -0.8600000000000002,0.3850000000000001 -0.8600000000000002,0.8610000000000002 C38.651999366760265,18.989999422073367 39.036999366760256,19.374999422073365 39.51199936676028,19.374999422073365 " id="svg_340" class="" opacity="1"/><path fill="#FF5A5D" d="M39.51199936676028,22.386999422073366 c0.4750000000000001,0 0.8580000000000002,-0.3860000000000001 0.8580000000000002,-0.8610000000000002 s-0.3850000000000001,-0.8600000000000002 -0.8580000000000002,-0.8600000000000002 c-0.4770000000000001,0 -0.8600000000000002,0.3850000000000001 -0.8600000000000002,0.8600000000000002 S39.036999366760256,22.386999422073366 39.51199936676028,22.386999422073366 " id="svg_341" class="" opacity="1"/><path fill="#FF5A5D" d="M39.51199936676028,7.328999422073366 c0.4750000000000001,0 0.8580000000000002,-0.3850000000000001 0.8580000000000002,-0.8600000000000002 c0,-0.4760000000000001 -0.3850000000000001,-0.8610000000000002 -0.8580000000000002,-0.8610000000000002 c-0.4770000000000001,0 -0.8600000000000002,0.3850000000000001 -0.8600000000000002,0.8610000000000002 C38.651999366760265,6.943999422073361 39.036999366760256,7.328999422073366 39.51199936676028,7.328999422073366 " id="svg_342" class="" opacity="1"/><path fill="#FF5A5D" d="M39.51199936676028,10.340999422073367 c0.4750000000000001,0 0.8580000000000002,-0.3850000000000001 0.8580000000000002,-0.8600000000000002 c0,-0.4760000000000001 -0.3850000000000001,-0.8610000000000002 -0.8580000000000002,-0.8610000000000002 c-0.4770000000000001,0 -0.8600000000000002,0.3850000000000001 -0.8600000000000002,0.8610000000000002 C38.651999366760265,9.954999422073364 39.036999366760256,10.340999422073367 39.51199936676028,10.340999422073367 " id="svg_343" class="" opacity="1"/><path fill="#FF5A5D" d="M39.51199936676028,31.419999422073367 c0.4750000000000001,0 0.8580000000000002,-0.3850000000000001 0.8580000000000002,-0.8590000000000002 c0,-0.4770000000000001 -0.3850000000000001,-0.8600000000000002 -0.8580000000000002,-0.8600000000000002 c-0.4770000000000001,0 -0.8600000000000002,0.3860000000000001 -0.8600000000000002,0.8600000000000002 S39.036999366760256,31.419999422073367 39.51199936676028,31.419999422073367 " id="svg_344" class="" opacity="1"/><path fill="#FF5A5D" d="M39.51199936676028,25.39799942207336 c0.4750000000000001,0 0.8580000000000002,-0.3850000000000001 0.8580000000000002,-0.8610000000000002 c0,-0.4750000000000001 -0.3850000000000001,-0.8590000000000002 -0.8580000000000002,-0.8590000000000002 c-0.4770000000000001,0 -0.8600000000000002,0.3860000000000001 -0.8600000000000002,0.8590000000000002 C38.651999366760265,25.012999422073364 39.036999366760256,25.39799942207336 39.51199936676028,25.39799942207336 " id="svg_345" class="" opacity="1"/><path fill="#FF5A5D" d="M39.51199936676028,28.409999422073362 c0.4750000000000001,0 0.8580000000000002,-0.3870000000000001 0.8580000000000002,-0.8610000000000002 c0,-0.4740000000000001 -0.3850000000000001,-0.8600000000000002 -0.8580000000000002,-0.8600000000000002 c-0.4770000000000001,0 -0.8600000000000002,0.3870000000000001 -0.8600000000000002,0.8600000000000002 C38.651999366760265,28.02299942207336 39.036999366760256,28.409999422073362 39.51199936676028,28.409999422073362 " id="svg_346" class="" opacity="1"/><path fill="#FF5A5D" d="M36.500999366760254,11.845999422073362 c0.4760000000000001,0 0.8600000000000002,-0.3850000000000001 0.8600000000000002,-0.8600000000000002 c0,-0.4760000000000001 -0.3860000000000001,-0.8610000000000002 -0.8600000000000002,-0.8610000000000002 c-0.4760000000000001,0 -0.8590000000000002,0.3850000000000001 -0.8590000000000002,0.8610000000000002 C35.639999366760264,11.460999422073364 36.024999366760255,11.845999422073362 36.500999366760254,11.845999422073362 " id="svg_347" class="" opacity="1"/><path fill="#FF5A5D" d="M36.500999366760254,14.857999422073362 c0.4760000000000001,0 0.8600000000000002,-0.3850000000000001 0.8600000000000002,-0.8600000000000002 c0,-0.4760000000000001 -0.3860000000000001,-0.8610000000000002 -0.8600000000000002,-0.8610000000000002 c-0.4760000000000001,0 -0.8590000000000002,0.3850000000000001 -0.8590000000000002,0.8610000000000002 C35.639999366760264,14.471999422073367 36.024999366760255,14.857999422073362 36.500999366760254,14.857999422073362 " id="svg_348" class="" opacity="1"/><path fill="#FF5A5D" d="M36.500999366760254,17.868999422073365 c0.4760000000000001,0 0.8600000000000002,-0.3850000000000001 0.8600000000000002,-0.8600000000000002 c0,-0.4760000000000001 -0.3860000000000001,-0.8610000000000002 -0.8600000000000002,-0.8610000000000002 c-0.4760000000000001,0 -0.8590000000000002,0.3850000000000001 -0.8590000000000002,0.8610000000000002 C35.639999366760264,17.483999422073367 36.024999366760255,17.868999422073365 36.500999366760254,17.868999422073365 " id="svg_349" class="" opacity="1"/><path fill="#FF5A5D" d="M36.500999366760254,20.880999422073366 c0.4760000000000001,0 0.8600000000000002,-0.3860000000000001 0.8600000000000002,-0.8600000000000002 c0,-0.4760000000000001 -0.3860000000000001,-0.8610000000000002 -0.8600000000000002,-0.8610000000000002 c-0.4760000000000001,0 -0.8590000000000002,0.3850000000000001 -0.8590000000000002,0.8610000000000002 C35.639999366760264,20.494999422073363 36.024999366760255,20.880999422073366 36.500999366760254,20.880999422073366 " id="svg_350" class="" opacity="1"/><path fill="#FF5A5D" d="M36.500999366760254,5.822999422073366 c0.4760000000000001,0 0.8600000000000002,-0.3850000000000001 0.8600000000000002,-0.8600000000000002 c0,-0.4760000000000001 -0.3860000000000001,-0.8610000000000002 -0.8600000000000002,-0.8610000000000002 c-0.4760000000000001,0 -0.8590000000000002,0.3850000000000001 -0.8590000000000002,0.8610000000000002 C35.639999366760264,5.437999422073361 36.024999366760255,5.822999422073366 36.500999366760254,5.822999422073366 " id="svg_351" class="" opacity="1"/><path fill="#FF5A5D" d="M36.500999366760254,8.834999422073366 c0.4760000000000001,0 0.8600000000000002,-0.3850000000000001 0.8600000000000002,-0.8600000000000002 c0,-0.4760000000000001 -0.3860000000000001,-0.8610000000000002 -0.8600000000000002,-0.8610000000000002 c-0.4760000000000001,0 -0.8590000000000002,0.3850000000000001 -0.8590000000000002,0.8610000000000002 C35.639999366760264,8.448999422073364 36.024999366760255,8.834999422073366 36.500999366760254,8.834999422073366 " id="svg_352" class="" opacity="1"/><path fill="#FF5A5D" d="M36.500999366760254,29.913999422073367 c0.4760000000000001,0 0.8600000000000002,-0.3850000000000001 0.8600000000000002,-0.8590000000000002 c0,-0.4770000000000001 -0.3860000000000001,-0.8600000000000002 -0.8600000000000002,-0.8600000000000002 c-0.4760000000000001,0 -0.8590000000000002,0.3850000000000001 -0.8590000000000002,0.8600000000000002 C35.639999366760264,29.528999422073362 36.024999366760255,29.913999422073367 36.500999366760254,29.913999422073367 " id="svg_353" class="" opacity="1"/><path fill="#FF5A5D" d="M36.500999366760254,32.92599942207337 c0.4760000000000001,0 0.8600000000000002,-0.3850000000000001 0.8600000000000002,-0.8580000000000002 c0,-0.4780000000000001 -0.3860000000000001,-0.8610000000000002 -0.8600000000000002,-0.8610000000000002 c-0.4760000000000001,0 -0.8590000000000002,0.3860000000000001 -0.8590000000000002,0.8610000000000002 C35.639999366760264,32.54099942207336 36.024999366760255,32.92599942207337 36.500999366760254,32.92599942207337 " id="svg_354" class="" opacity="1"/><path fill="#FF5A5D" d="M36.500999366760254,23.89199942207336 c0.4760000000000001,0 0.8600000000000002,-0.3850000000000001 0.8600000000000002,-0.8610000000000002 c0,-0.4760000000000001 -0.3860000000000001,-0.8600000000000002 -0.8600000000000002,-0.8600000000000002 c-0.4760000000000001,0 -0.8590000000000002,0.3850000000000001 -0.8590000000000002,0.8600000000000002 C35.639999366760264,23.50799942207336 36.024999366760255,23.89199942207336 36.500999366760254,23.89199942207336 " id="svg_355" class="" opacity="1"/><path fill="#FF5A5D" d="M36.500999366760254,26.903999422073362 c0.4760000000000001,0 0.8600000000000002,-0.3870000000000001 0.8600000000000002,-0.8610000000000002 c0,-0.4740000000000001 -0.3860000000000001,-0.8610000000000002 -0.8600000000000002,-0.8610000000000002 c-0.4760000000000001,0 -0.8590000000000002,0.3880000000000001 -0.8590000000000002,0.8610000000000002 C35.64099936676024,26.51699942207336 36.024999366760255,26.903999422073362 36.500999366760254,26.903999422073362 " id="svg_356" class="" opacity="1"/><path fill="#FF5A5D" d="M33.488999366760254,13.351999422073362 c0.4760000000000001,0 0.8600000000000002,-0.3850000000000001 0.8600000000000002,-0.8600000000000002 c0,-0.4760000000000001 -0.3860000000000001,-0.8610000000000002 -0.8600000000000002,-0.8610000000000002 s-0.8600000000000002,0.3850000000000001 -0.8600000000000002,0.8610000000000002 C32.62899936676024,12.966999422073364 33.01399936676023,13.351999422073362 33.488999366760254,13.351999422073362 " id="svg_357" class="" opacity="1"/><path fill="#FF5A5D" d="M33.488999366760254,16.363999422073363 c0.4760000000000001,0 0.8600000000000002,-0.3850000000000001 0.8600000000000002,-0.8600000000000002 c0,-0.4760000000000001 -0.3860000000000001,-0.8610000000000002 -0.8600000000000002,-0.8610000000000002 s-0.8600000000000002,0.3850000000000001 -0.8600000000000002,0.8610000000000002 C32.62899936676024,15.977999422073367 33.01399936676023,16.363999422073363 33.488999366760254,16.363999422073363 " id="svg_358" class="" opacity="1"/><path fill="#FF5A5D" d="M33.488999366760254,19.374999422073365 c0.4760000000000001,0 0.8600000000000002,-0.3850000000000001 0.8600000000000002,-0.8600000000000002 c0,-0.4760000000000001 -0.3860000000000001,-0.8610000000000002 -0.8600000000000002,-0.8610000000000002 s-0.8600000000000002,0.3850000000000001 -0.8600000000000002,0.8610000000000002 C32.62899936676024,18.989999422073367 33.01399936676023,19.374999422073365 33.488999366760254,19.374999422073365 " id="svg_359" class="" opacity="1"/><path fill="#FF5A5D" d="M33.488999366760254,22.386999422073366 c0.4760000000000001,0 0.8600000000000002,-0.3860000000000001 0.8600000000000002,-0.8610000000000002 s-0.3860000000000001,-0.8600000000000002 -0.8600000000000002,-0.8600000000000002 s-0.8600000000000002,0.3850000000000001 -0.8600000000000002,0.8600000000000002 S33.01399936676023,22.386999422073366 33.488999366760254,22.386999422073366 " id="svg_360" class="" opacity="1"/><path fill="#FF5A5D" d="M33.488999366760254,4.317999422073363 c0.4760000000000001,0 0.8600000000000002,-0.3850000000000001 0.8600000000000002,-0.8600000000000002 c0,-0.4760000000000001 -0.3860000000000001,-0.8610000000000002 -0.8600000000000002,-0.8610000000000002 s-0.8600000000000002,0.3850000000000001 -0.8600000000000002,0.8610000000000002 C32.62899936676024,3.931999422073364 33.01399936676023,4.317999422073363 33.488999366760254,4.317999422073363 " id="svg_361" class="" opacity="1"/><path fill="#FF5A5D" d="M33.488999366760254,7.328999422073366 c0.4760000000000001,0 0.8600000000000002,-0.3850000000000001 0.8600000000000002,-0.8600000000000002 c0,-0.4760000000000001 -0.3860000000000001,-0.8610000000000002 -0.8600000000000002,-0.8610000000000002 s-0.8600000000000002,0.3850000000000001 -0.8600000000000002,0.8610000000000002 C32.62899936676024,6.943999422073361 33.01399936676023,7.328999422073366 33.488999366760254,7.328999422073366 " id="svg_362" class="" opacity="1"/><path fill="#FF5A5D" d="M33.488999366760254,10.340999422073367 c0.4760000000000001,0 0.8600000000000002,-0.3850000000000001 0.8600000000000002,-0.8600000000000002 c0,-0.4760000000000001 -0.3860000000000001,-0.8610000000000002 -0.8600000000000002,-0.8610000000000002 s-0.8600000000000002,0.3850000000000001 -0.8600000000000002,0.8610000000000002 C32.62899936676024,9.954999422073364 33.01399936676023,10.340999422073367 33.488999366760254,10.340999422073367 " id="svg_363" class="" opacity="1"/><path fill="#FF5A5D" d="M33.488999366760254,31.419999422073367 c0.4760000000000001,0 0.8600000000000002,-0.3850000000000001 0.8600000000000002,-0.8590000000000002 c0,-0.4770000000000001 -0.3860000000000001,-0.8600000000000002 -0.8600000000000002,-0.8600000000000002 s-0.8600000000000002,0.3860000000000001 -0.8600000000000002,0.8600000000000002 S33.01399936676023,31.419999422073367 33.488999366760254,31.419999422073367 " id="svg_364" class="" opacity="1"/><path fill="#FF5A5D" d="M33.488999366760254,34.43099942207336 c0.4760000000000001,0 0.8600000000000002,-0.3850000000000001 0.8600000000000002,-0.8590000000000002 c0,-0.4770000000000001 -0.3860000000000001,-0.8610000000000002 -0.8600000000000002,-0.8610000000000002 s-0.8600000000000002,0.3850000000000001 -0.8600000000000002,0.8610000000000002 C32.62899936676024,34.04699942207336 33.01399936676023,34.43099942207336 33.488999366760254,34.43099942207336 " id="svg_365" class="" opacity="1"/><path fill="#FF5A5D" d="M33.488999366760254,25.39799942207336 c0.4760000000000001,0 0.8600000000000002,-0.3850000000000001 0.8600000000000002,-0.8610000000000002 c0,-0.4750000000000001 -0.3860000000000001,-0.8590000000000002 -0.8600000000000002,-0.8590000000000002 s-0.8600000000000002,0.3860000000000001 -0.8600000000000002,0.8590000000000002 C32.62899936676024,25.012999422073364 33.01399936676023,25.39799942207336 33.488999366760254,25.39799942207336 " id="svg_366" class="" opacity="1"/><path fill="#FF5A5D" d="M33.488999366760254,28.409999422073362 c0.4760000000000001,0 0.8600000000000002,-0.3870000000000001 0.8600000000000002,-0.8610000000000002 c0,-0.4740000000000001 -0.3860000000000001,-0.8600000000000002 -0.8600000000000002,-0.8600000000000002 s-0.8600000000000002,0.3870000000000001 -0.8600000000000002,0.8600000000000002 C32.62899936676024,28.02299942207336 33.01399936676023,28.409999422073362 33.488999366760254,28.409999422073362 " id="svg_367" class="" opacity="1"/><path fill="#FF5A5D" d="M30.476999366760253,11.845999422073362 c0.4760000000000001,0 0.8590000000000002,-0.3850000000000001 0.8590000000000002,-0.8600000000000002 c0,-0.4760000000000001 -0.3850000000000001,-0.8610000000000002 -0.8590000000000002,-0.8610000000000002 c-0.4760000000000001,0 -0.8600000000000002,0.3850000000000001 -0.8600000000000002,0.8610000000000002 C29.61699936676024,11.460999422073364 30.002999366760264,11.845999422073362 30.476999366760253,11.845999422073362 " id="svg_368" class="" opacity="1"/><path fill="#FF5A5D" d="M30.476999366760253,14.857999422073362 c0.4760000000000001,0 0.8590000000000002,-0.3850000000000001 0.8590000000000002,-0.8600000000000002 c0,-0.4760000000000001 -0.3850000000000001,-0.8610000000000002 -0.8590000000000002,-0.8610000000000002 c-0.4760000000000001,0 -0.8600000000000002,0.3850000000000001 -0.8600000000000002,0.8610000000000002 C29.61699936676024,14.471999422073367 30.002999366760264,14.857999422073362 30.476999366760253,14.857999422073362 " id="svg_369" class="" opacity="1"/><path fill="#FF5A5D" d="M30.476999366760253,17.868999422073365 c0.4760000000000001,0 0.8590000000000002,-0.3850000000000001 0.8590000000000002,-0.8600000000000002 c0,-0.4760000000000001 -0.3850000000000001,-0.8610000000000002 -0.8590000000000002,-0.8610000000000002 c-0.4760000000000001,0 -0.8600000000000002,0.3850000000000001 -0.8600000000000002,0.8610000000000002 C29.61699936676024,17.483999422073367 30.002999366760264,17.868999422073365 30.476999366760253,17.868999422073365 " id="svg_370" class="" opacity="1"/><path fill="#FF5A5D" d="M30.476999366760253,20.880999422073366 c0.4760000000000001,0 0.8590000000000002,-0.3860000000000001 0.8590000000000002,-0.8600000000000002 c0,-0.4760000000000001 -0.3850000000000001,-0.8610000000000002 -0.8590000000000002,-0.8610000000000002 c-0.4760000000000001,0 -0.8600000000000002,0.3850000000000001 -0.8600000000000002,0.8610000000000002 C29.61699936676024,20.494999422073363 30.002999366760264,20.880999422073366 30.476999366760253,20.880999422073366 " id="svg_371" class="" opacity="1"/><path fill="#FF5A5D" d="M30.476999366760253,2.811999422073363 c0.4760000000000001,0 0.8590000000000002,-0.3850000000000001 0.8590000000000002,-0.8600000000000002 c0,-0.4760000000000001 -0.3850000000000001,-0.8610000000000002 -0.8590000000000002,-0.8610000000000002 c-0.4760000000000001,0 -0.8600000000000002,0.3850000000000001 -0.8600000000000002,0.8610000000000002 C29.61699936676024,2.426999422073365 30.002999366760264,2.811999422073363 30.476999366760253,2.811999422073363 " id="svg_372" class="" opacity="1"/><path fill="#FF5A5D" d="M30.476999366760253,5.822999422073366 c0.4760000000000001,0 0.8590000000000002,-0.3850000000000001 0.8590000000000002,-0.8600000000000002 c0,-0.4760000000000001 -0.3850000000000001,-0.8610000000000002 -0.8590000000000002,-0.8610000000000002 c-0.4760000000000001,0 -0.8600000000000002,0.3850000000000001 -0.8600000000000002,0.8610000000000002 C29.61699936676024,5.437999422073361 30.002999366760264,5.822999422073366 30.476999366760253,5.822999422073366 " id="svg_373" class="" opacity="1"/><path fill="#FF5A5D" d="M30.476999366760253,8.834999422073366 c0.4760000000000001,0 0.8590000000000002,-0.3850000000000001 0.8590000000000002,-0.8600000000000002 c0,-0.4760000000000001 -0.3850000000000001,-0.8610000000000002 -0.8590000000000002,-0.8610000000000002 c-0.4760000000000001,0 -0.8600000000000002,0.3850000000000001 -0.8600000000000002,0.8610000000000002 C29.61699936676024,8.448999422073364 30.002999366760264,8.834999422073366 30.476999366760253,8.834999422073366 " id="svg_374" class="" opacity="1"/><path fill="#FF5A5D" d="M30.476999366760253,29.913999422073367 c0.4760000000000001,0 0.8590000000000002,-0.3850000000000001 0.8590000000000002,-0.8590000000000002 c0,-0.4770000000000001 -0.3850000000000001,-0.8600000000000002 -0.8590000000000002,-0.8600000000000002 c-0.4760000000000001,0 -0.8600000000000002,0.3850000000000001 -0.8600000000000002,0.8600000000000002 C29.61699936676024,29.528999422073362 30.002999366760264,29.913999422073367 30.476999366760253,29.913999422073367 " id="svg_375" class="" opacity="1"/><path fill="#FF5A5D" d="M30.476999366760253,32.92599942207337 c0.4760000000000001,0 0.8590000000000002,-0.3850000000000001 0.8590000000000002,-0.8580000000000002 c0,-0.4780000000000001 -0.3850000000000001,-0.8610000000000002 -0.8590000000000002,-0.8610000000000002 c-0.4760000000000001,0 -0.8600000000000002,0.3860000000000001 -0.8600000000000002,0.8610000000000002 C29.61699936676024,32.54099942207336 30.002999366760264,32.92599942207337 30.476999366760253,32.92599942207337 " id="svg_376" class="" opacity="1"/><path fill="#FF5A5D" d="M30.476999366760253,35.93699942207336 c0.4760000000000001,0 0.8590000000000002,-0.3850000000000001 0.8590000000000002,-0.8590000000000002 c0,-0.4770000000000001 -0.3850000000000001,-0.8610000000000002 -0.8590000000000002,-0.8610000000000002 c-0.4760000000000001,0 -0.8600000000000002,0.3850000000000001 -0.8600000000000002,0.8610000000000002 C29.61699936676024,35.551999422073365 30.002999366760264,35.93699942207336 30.476999366760253,35.93699942207336 " id="svg_377" class="" opacity="1"/><path fill="#FF5A5D" d="M30.476999366760253,23.89199942207336 c0.4760000000000001,0 0.8590000000000002,-0.3850000000000001 0.8590000000000002,-0.8610000000000002 c0,-0.4760000000000001 -0.3850000000000001,-0.8600000000000002 -0.8590000000000002,-0.8600000000000002 c-0.4760000000000001,0 -0.8600000000000002,0.3850000000000001 -0.8600000000000002,0.8600000000000002 C29.61699936676024,23.50799942207336 30.002999366760264,23.89199942207336 30.476999366760253,23.89199942207336 " id="svg_378" class="" opacity="1"/><path fill="#FF5A5D" d="M30.476999366760253,26.903999422073362 c0.4760000000000001,0 0.8590000000000002,-0.3870000000000001 0.8590000000000002,-0.8610000000000002 c0,-0.4740000000000001 -0.3850000000000001,-0.8610000000000002 -0.8590000000000002,-0.8610000000000002 c-0.4760000000000001,0 -0.8600000000000002,0.3880000000000001 -0.8600000000000002,0.8610000000000002 C29.61699936676024,26.51699942207336 30.002999366760264,26.903999422073362 30.476999366760253,26.903999422073362 " id="svg_379" class="" opacity="1"/><path fill="#FF5A5D" d="M27.466999366760263,13.351999422073362 c0.4760000000000001,0 0.8590000000000002,-0.3850000000000001 0.8590000000000002,-0.8600000000000002 c0,-0.4760000000000001 -0.3850000000000001,-0.8610000000000002 -0.8590000000000002,-0.8610000000000002 c-0.4760000000000001,0 -0.8590000000000002,0.3850000000000001 -0.8590000000000002,0.8610000000000002 C26.605999366760273,12.966999422073364 26.990999366760263,13.351999422073362 27.466999366760263,13.351999422073362 " id="svg_380" class="" opacity="1"/><path fill="#FF5A5D" d="M27.466999366760263,16.363999422073363 c0.4760000000000001,0 0.8590000000000002,-0.3850000000000001 0.8590000000000002,-0.8600000000000002 c0,-0.4760000000000001 -0.3850000000000001,-0.8610000000000002 -0.8590000000000002,-0.8610000000000002 c-0.4760000000000001,0 -0.8590000000000002,0.3850000000000001 -0.8590000000000002,0.8610000000000002 C26.605999366760273,15.977999422073367 26.990999366760263,16.363999422073363 27.466999366760263,16.363999422073363 " id="svg_381" class="" opacity="1"/><path fill="#FF5A5D" d="M27.466999366760263,19.374999422073365 c0.4760000000000001,0 0.8590000000000002,-0.3850000000000001 0.8590000000000002,-0.8600000000000002 c0,-0.4760000000000001 -0.3850000000000001,-0.8610000000000002 -0.8590000000000002,-0.8610000000000002 c-0.4760000000000001,0 -0.8590000000000002,0.3850000000000001 -0.8590000000000002,0.8610000000000002 C26.605999366760273,18.989999422073367 26.990999366760263,19.374999422073365 27.466999366760263,19.374999422073365 " id="svg_382" class="" opacity="1"/><path fill="#FF5A5D" d="M27.466999366760263,22.386999422073366 c0.4760000000000001,0 0.8590000000000002,-0.3860000000000001 0.8590000000000002,-0.8610000000000002 s-0.3850000000000001,-0.8600000000000002 -0.8590000000000002,-0.8600000000000002 c-0.4760000000000001,0 -0.8590000000000002,0.3850000000000001 -0.8590000000000002,0.8600000000000002 S26.990999366760263,22.386999422073366 27.466999366760263,22.386999422073366 " id="svg_383" class="" opacity="1"/><path fill="#FF5A5D" d="M27.466999366760263,4.317999422073363 c0.4760000000000001,0 0.8590000000000002,-0.3850000000000001 0.8590000000000002,-0.8600000000000002 c0,-0.4760000000000001 -0.3850000000000001,-0.8610000000000002 -0.8590000000000002,-0.8610000000000002 c-0.4760000000000001,0 -0.8590000000000002,0.3850000000000001 -0.8590000000000002,0.8610000000000002 C26.605999366760273,3.931999422073364 26.990999366760263,4.317999422073363 27.466999366760263,4.317999422073363 " id="svg_384" class="" opacity="1"/><path fill="#FF5A5D" d="M27.466999366760263,7.328999422073366 c0.4760000000000001,0 0.8590000000000002,-0.3850000000000001 0.8590000000000002,-0.8600000000000002 c0,-0.4760000000000001 -0.3850000000000001,-0.8610000000000002 -0.8590000000000002,-0.8610000000000002 c-0.4760000000000001,0 -0.8590000000000002,0.3850000000000001 -0.8590000000000002,0.8610000000000002 C26.605999366760273,6.943999422073361 26.990999366760263,7.328999422073366 27.466999366760263,7.328999422073366 " id="svg_385" class="" opacity="1"/><path fill="#FF5A5D" d="M27.466999366760263,10.340999422073367 c0.4760000000000001,0 0.8590000000000002,-0.3850000000000001 0.8590000000000002,-0.8600000000000002 c0,-0.4760000000000001 -0.3850000000000001,-0.8610000000000002 -0.8590000000000002,-0.8610000000000002 c-0.4760000000000001,0 -0.8590000000000002,0.3850000000000001 -0.8590000000000002,0.8610000000000002 C26.605999366760273,9.954999422073364 26.990999366760263,10.340999422073367 27.466999366760263,10.340999422073367 " id="svg_386" class="" opacity="1"/><path fill="#FF5A5D" d="M27.466999366760263,31.419999422073367 c0.4760000000000001,0 0.8590000000000002,-0.3850000000000001 0.8590000000000002,-0.8590000000000002 c0,-0.4770000000000001 -0.3850000000000001,-0.8600000000000002 -0.8590000000000002,-0.8600000000000002 c-0.4760000000000001,0 -0.8590000000000002,0.3860000000000001 -0.8590000000000002,0.8600000000000002 C26.605999366760273,31.034999422073362 26.990999366760263,31.419999422073367 27.466999366760263,31.419999422073367 " id="svg_387" class="" opacity="1"/><path fill="#FF5A5D" d="M27.466999366760263,34.43099942207336 c0.4760000000000001,0 0.8590000000000002,-0.3850000000000001 0.8590000000000002,-0.8590000000000002 c0,-0.4770000000000001 -0.3850000000000001,-0.8610000000000002 -0.8590000000000002,-0.8610000000000002 c-0.4760000000000001,0 -0.8590000000000002,0.3850000000000001 -0.8590000000000002,0.8610000000000002 C26.605999366760273,34.04699942207336 26.990999366760263,34.43099942207336 27.466999366760263,34.43099942207336 " id="svg_388" class="" opacity="1"/><path fill="#FF5A5D" d="M27.466999366760263,25.39799942207336 c0.4760000000000001,0 0.8590000000000002,-0.3850000000000001 0.8590000000000002,-0.8610000000000002 c0,-0.4750000000000001 -0.3850000000000001,-0.8590000000000002 -0.8590000000000002,-0.8590000000000002 c-0.4760000000000001,0 -0.8590000000000002,0.3860000000000001 -0.8590000000000002,0.8590000000000002 C26.605999366760273,25.012999422073364 26.990999366760263,25.39799942207336 27.466999366760263,25.39799942207336 " id="svg_389" class="" opacity="1"/><path fill="#FF5A5D" d="M27.466999366760263,28.409999422073362 c0.4760000000000001,0 0.8590000000000002,-0.3870000000000001 0.8590000000000002,-0.8610000000000002 c0,-0.4740000000000001 -0.3850000000000001,-0.8600000000000002 -0.8590000000000002,-0.8600000000000002 c-0.4760000000000001,0 -0.8590000000000002,0.3870000000000001 -0.8590000000000002,0.8600000000000002 C26.60699936676025,28.02299942207336 26.990999366760263,28.409999422073362 27.466999366760263,28.409999422073362 " id="svg_390" class="" opacity="1"/><path fill="#FF5A5D" d="M24.454999366760262,11.845999422073362 c0.4760000000000001,0 0.8590000000000002,-0.3850000000000001 0.8590000000000002,-0.8600000000000002 c0,-0.4760000000000001 -0.3850000000000001,-0.8610000000000002 -0.8590000000000002,-0.8610000000000002 c-0.4760000000000001,0 -0.8590000000000002,0.3850000000000001 -0.8590000000000002,0.8610000000000002 C23.593999366760272,11.460999422073364 23.978999366760263,11.845999422073362 24.454999366760262,11.845999422073362 " id="svg_391" class="" opacity="1"/><path fill="#FF5A5D" d="M24.454999366760262,14.857999422073362 c0.4760000000000001,0 0.8590000000000002,-0.3850000000000001 0.8590000000000002,-0.8600000000000002 c0,-0.4760000000000001 -0.3850000000000001,-0.8610000000000002 -0.8590000000000002,-0.8610000000000002 c-0.4760000000000001,0 -0.8590000000000002,0.3850000000000001 -0.8590000000000002,0.8610000000000002 C23.593999366760272,14.471999422073367 23.978999366760263,14.857999422073362 24.454999366760262,14.857999422073362 " id="svg_392" class="" opacity="1"/><path fill="#FF5A5D" d="M24.454999366760262,17.868999422073365 c0.4760000000000001,0 0.8590000000000002,-0.3850000000000001 0.8590000000000002,-0.8600000000000002 c0,-0.4760000000000001 -0.3850000000000001,-0.8610000000000002 -0.8590000000000002,-0.8610000000000002 c-0.4760000000000001,0 -0.8590000000000002,0.3850000000000001 -0.8590000000000002,0.8610000000000002 C23.593999366760272,17.483999422073367 23.978999366760263,17.868999422073365 24.454999366760262,17.868999422073365 " id="svg_393" class="" opacity="1"/><path fill="#FF5A5D" d="M24.454999366760262,20.880999422073366 c0.4760000000000001,0 0.8590000000000002,-0.3860000000000001 0.8590000000000002,-0.8600000000000002 c0,-0.4760000000000001 -0.3850000000000001,-0.8610000000000002 -0.8590000000000002,-0.8610000000000002 c-0.4760000000000001,0 -0.8590000000000002,0.3850000000000001 -0.8590000000000002,0.8610000000000002 C23.593999366760272,20.494999422073363 23.978999366760263,20.880999422073366 24.454999366760262,20.880999422073366 " id="svg_394" class="" opacity="1"/><path fill="#FF5A5D" d="M24.454999366760262,2.811999422073363 c0.4760000000000001,0 0.8590000000000002,-0.3850000000000001 0.8590000000000002,-0.8600000000000002 c0,-0.4760000000000001 -0.3850000000000001,-0.8610000000000002 -0.8590000000000002,-0.8610000000000002 c-0.4760000000000001,0 -0.8590000000000002,0.3850000000000001 -0.8590000000000002,0.8610000000000002 C23.593999366760272,2.426999422073365 23.978999366760263,2.811999422073363 24.454999366760262,2.811999422073363 " id="svg_395" class="" opacity="1"/><path fill="#FF5A5D" d="M24.454999366760262,5.822999422073366 c0.4760000000000001,0 0.8590000000000002,-0.3850000000000001 0.8590000000000002,-0.8600000000000002 c0,-0.4760000000000001 -0.3850000000000001,-0.8610000000000002 -0.8590000000000002,-0.8610000000000002 c-0.4760000000000001,0 -0.8590000000000002,0.3850000000000001 -0.8590000000000002,0.8610000000000002 C23.593999366760272,5.437999422073361 23.978999366760263,5.822999422073366 24.454999366760262,5.822999422073366 " id="svg_396" class="" opacity="1"/><path fill="#FF5A5D" d="M24.454999366760262,8.834999422073366 c0.4760000000000001,0 0.8590000000000002,-0.3850000000000001 0.8590000000000002,-0.8600000000000002 c0,-0.4760000000000001 -0.3850000000000001,-0.8610000000000002 -0.8590000000000002,-0.8610000000000002 c-0.4760000000000001,0 -0.8590000000000002,0.3850000000000001 -0.8590000000000002,0.8610000000000002 C23.593999366760272,8.448999422073364 23.978999366760263,8.834999422073366 24.454999366760262,8.834999422073366 " id="svg_397" class="" opacity="1"/><path fill="#FF5A5D" d="M24.454999366760262,29.913999422073367 c0.4760000000000001,0 0.8590000000000002,-0.3850000000000001 0.8590000000000002,-0.8590000000000002 c0,-0.4770000000000001 -0.3850000000000001,-0.8600000000000002 -0.8590000000000002,-0.8600000000000002 c-0.4760000000000001,0 -0.8590000000000002,0.3850000000000001 -0.8590000000000002,0.8600000000000002 C23.593999366760272,29.528999422073362 23.978999366760263,29.913999422073367 24.454999366760262,29.913999422073367 " id="svg_398" class="" opacity="1"/><path fill="#FF5A5D" d="M24.454999366760262,32.92599942207337 c0.4760000000000001,0 0.8590000000000002,-0.3850000000000001 0.8590000000000002,-0.8580000000000002 c0,-0.4780000000000001 -0.3850000000000001,-0.8610000000000002 -0.8590000000000002,-0.8610000000000002 c-0.4760000000000001,0 -0.8590000000000002,0.3860000000000001 -0.8590000000000002,0.8610000000000002 C23.593999366760272,32.54099942207336 23.978999366760263,32.92599942207337 24.454999366760262,32.92599942207337 " id="svg_399" class="" opacity="1"/><path fill="#FF5A5D" d="M24.454999366760262,35.93699942207336 c0.4760000000000001,0 0.8590000000000002,-0.3850000000000001 0.8590000000000002,-0.8590000000000002 c0,-0.4770000000000001 -0.3850000000000001,-0.8610000000000002 -0.8590000000000002,-0.8610000000000002 c-0.4760000000000001,0 -0.8590000000000002,0.3850000000000001 -0.8590000000000002,0.8610000000000002 C23.593999366760272,35.551999422073365 23.978999366760263,35.93699942207336 24.454999366760262,35.93699942207336 " id="svg_400" class="" opacity="1"/><path fill="#FF5A5D" d="M24.454999366760262,23.89199942207336 c0.4760000000000001,0 0.8590000000000002,-0.3850000000000001 0.8590000000000002,-0.8610000000000002 c0,-0.4760000000000001 -0.3850000000000001,-0.8600000000000002 -0.8590000000000002,-0.8600000000000002 c-0.4760000000000001,0 -0.8590000000000002,0.3850000000000001 -0.8590000000000002,0.8600000000000002 C23.593999366760272,23.50799942207336 23.978999366760263,23.89199942207336 24.454999366760262,23.89199942207336 " id="svg_401" class="" opacity="1"/><path fill="#FF5A5D" d="M24.454999366760262,26.903999422073362 c0.4760000000000001,0 0.8590000000000002,-0.3870000000000001 0.8590000000000002,-0.8610000000000002 c0,-0.4740000000000001 -0.3850000000000001,-0.8610000000000002 -0.8590000000000002,-0.8610000000000002 c-0.4760000000000001,0 -0.8590000000000002,0.3880000000000001 -0.8590000000000002,0.8610000000000002 C23.59499936676025,26.51699942207336 23.978999366760263,26.903999422073362 24.454999366760262,26.903999422073362 " id="svg_402" class="" opacity="1"/><path fill="#FF5A5D" d="M21.44299936676026,13.351999422073362 c0.4750000000000001,0 0.8600000000000002,-0.3850000000000001 0.8600000000000002,-0.8600000000000002 c0,-0.4760000000000001 -0.3870000000000001,-0.8610000000000002 -0.8600000000000002,-0.8610000000000002 s-0.8600000000000002,0.3850000000000001 -0.8600000000000002,0.8610000000000002 C20.582999366760248,12.966999422073364 20.96799936676024,13.351999422073362 21.44299936676026,13.351999422073362 " id="svg_403" class="" opacity="1"/><path fill="#FF5A5D" d="M21.44299936676026,16.363999422073363 c0.4750000000000001,0 0.8600000000000002,-0.3850000000000001 0.8600000000000002,-0.8600000000000002 c0,-0.4760000000000001 -0.3870000000000001,-0.8610000000000002 -0.8600000000000002,-0.8610000000000002 s-0.8600000000000002,0.3850000000000001 -0.8600000000000002,0.8610000000000002 C20.582999366760248,15.977999422073367 20.96799936676024,16.363999422073363 21.44299936676026,16.363999422073363 " id="svg_404" class="" opacity="1"/><path fill="#FF5A5D" d="M21.44299936676026,19.374999422073365 c0.4750000000000001,0 0.8600000000000002,-0.3850000000000001 0.8600000000000002,-0.8600000000000002 c0,-0.4760000000000001 -0.3870000000000001,-0.8610000000000002 -0.8600000000000002,-0.8610000000000002 s-0.8600000000000002,0.3850000000000001 -0.8600000000000002,0.8610000000000002 C20.582999366760248,18.989999422073367 20.96799936676024,19.374999422073365 21.44299936676026,19.374999422073365 " id="svg_405" class="" opacity="1"/><path fill="#FF5A5D" d="M21.44299936676026,22.386999422073366 c0.4750000000000001,0 0.8600000000000002,-0.3860000000000001 0.8600000000000002,-0.8610000000000002 s-0.3870000000000001,-0.8600000000000002 -0.8600000000000002,-0.8600000000000002 s-0.8600000000000002,0.3850000000000001 -0.8600000000000002,0.8600000000000002 S20.96799936676024,22.386999422073366 21.44299936676026,22.386999422073366 " id="svg_406" class="" opacity="1"/><path fill="#FF5A5D" d="M21.44299936676026,4.317999422073363 c0.4750000000000001,0 0.8600000000000002,-0.3850000000000001 0.8600000000000002,-0.8600000000000002 c0,-0.4760000000000001 -0.3870000000000001,-0.8610000000000002 -0.8600000000000002,-0.8610000000000002 s-0.8600000000000002,0.3850000000000001 -0.8600000000000002,0.8610000000000002 C20.582999366760248,3.931999422073364 20.96799936676024,4.317999422073363 21.44299936676026,4.317999422073363 " id="svg_407" class="" opacity="1"/><path fill="#FF5A5D" d="M21.44299936676026,7.328999422073366 c0.4750000000000001,0 0.8600000000000002,-0.3850000000000001 0.8600000000000002,-0.8600000000000002 c0,-0.4760000000000001 -0.3870000000000001,-0.8610000000000002 -0.8600000000000002,-0.8610000000000002 s-0.8600000000000002,0.3850000000000001 -0.8600000000000002,0.8610000000000002 C20.582999366760248,6.943999422073361 20.96799936676024,7.328999422073366 21.44299936676026,7.328999422073366 " id="svg_408" class="" opacity="1"/><path fill="#FF5A5D" d="M21.44299936676026,10.340999422073367 c0.4750000000000001,0 0.8600000000000002,-0.3850000000000001 0.8600000000000002,-0.8600000000000002 c0,-0.4760000000000001 -0.3870000000000001,-0.8610000000000002 -0.8600000000000002,-0.8610000000000002 s-0.8600000000000002,0.3850000000000001 -0.8600000000000002,0.8610000000000002 C20.582999366760248,9.954999422073364 20.96799936676024,10.340999422073367 21.44299936676026,10.340999422073367 " id="svg_409" class="" opacity="1"/><path fill="#FF5A5D" d="M21.44299936676026,31.419999422073367 c0.4750000000000001,0 0.8600000000000002,-0.3850000000000001 0.8600000000000002,-0.8590000000000002 c0,-0.4770000000000001 -0.3870000000000001,-0.8600000000000002 -0.8600000000000002,-0.8600000000000002 s-0.8600000000000002,0.3860000000000001 -0.8600000000000002,0.8600000000000002 S20.96799936676024,31.419999422073367 21.44299936676026,31.419999422073367 " id="svg_410" class="" opacity="1"/><path fill="#FF5A5D" d="M21.44299936676026,34.43099942207336 c0.4750000000000001,0 0.8600000000000002,-0.3850000000000001 0.8600000000000002,-0.8590000000000002 c0,-0.4770000000000001 -0.3870000000000001,-0.8610000000000002 -0.8600000000000002,-0.8610000000000002 s-0.8600000000000002,0.3850000000000001 -0.8600000000000002,0.8610000000000002 C20.582999366760248,34.04699942207336 20.96799936676024,34.43099942207336 21.44299936676026,34.43099942207336 " id="svg_411" class="" opacity="1"/><path fill="#FF5A5D" d="M21.44299936676026,25.39799942207336 c0.4750000000000001,0 0.8600000000000002,-0.3850000000000001 0.8600000000000002,-0.8610000000000002 c0,-0.4750000000000001 -0.3870000000000001,-0.8590000000000002 -0.8600000000000002,-0.8590000000000002 s-0.8600000000000002,0.3860000000000001 -0.8600000000000002,0.8590000000000002 C20.582999366760248,25.012999422073364 20.96799936676024,25.39799942207336 21.44299936676026,25.39799942207336 " id="svg_412" class="" opacity="1"/><path fill="#FF5A5D" d="M21.44299936676026,28.409999422073362 c0.4750000000000001,0 0.8600000000000002,-0.3870000000000001 0.8600000000000002,-0.8610000000000002 c0,-0.4740000000000001 -0.3870000000000001,-0.8600000000000002 -0.8600000000000002,-0.8600000000000002 s-0.8600000000000002,0.3870000000000001 -0.8600000000000002,0.8600000000000002 C20.582999366760248,28.02299942207336 20.96799936676024,28.409999422073362 21.44299936676026,28.409999422073362 " id="svg_413" class="" opacity="1"/><path fill="#FF5A5D" d="M18.43099936676026,11.845999422073362 c0.4760000000000001,0 0.8590000000000002,-0.3850000000000001 0.8590000000000002,-0.8600000000000002 c0,-0.4760000000000001 -0.3850000000000001,-0.8610000000000002 -0.8590000000000002,-0.8610000000000002 c-0.4760000000000001,0 -0.8590000000000002,0.3850000000000001 -0.8590000000000002,0.8610000000000002 C17.57199936676028,11.460999422073364 17.95699936676027,11.845999422073362 18.43099936676026,11.845999422073362 " id="svg_414" class="" opacity="1"/><path fill="#FF5A5D" d="M18.43099936676026,14.857999422073362 c0.4760000000000001,0 0.8590000000000002,-0.3850000000000001 0.8590000000000002,-0.8600000000000002 c0,-0.4760000000000001 -0.3850000000000001,-0.8610000000000002 -0.8590000000000002,-0.8610000000000002 c-0.4760000000000001,0 -0.8590000000000002,0.3850000000000001 -0.8590000000000002,0.8610000000000002 C17.57199936676028,14.471999422073367 17.95699936676027,14.857999422073362 18.43099936676026,14.857999422073362 " id="svg_415" class="" opacity="1"/><path fill="#FF5A5D" d="M18.43099936676026,17.868999422073365 c0.4760000000000001,0 0.8590000000000002,-0.3850000000000001 0.8590000000000002,-0.8600000000000002 c0,-0.4760000000000001 -0.3850000000000001,-0.8610000000000002 -0.8590000000000002,-0.8610000000000002 c-0.4760000000000001,0 -0.8590000000000002,0.3850000000000001 -0.8590000000000002,0.8610000000000002 C17.57199936676028,17.483999422073367 17.95699936676027,17.868999422073365 18.43099936676026,17.868999422073365 " id="svg_416" class="" opacity="1"/><path fill="#FF5A5D" d="M18.43099936676026,20.880999422073366 c0.4760000000000001,0 0.8590000000000002,-0.3860000000000001 0.8590000000000002,-0.8600000000000002 c0,-0.4760000000000001 -0.3850000000000001,-0.8610000000000002 -0.8590000000000002,-0.8610000000000002 c-0.4760000000000001,0 -0.8590000000000002,0.3850000000000001 -0.8590000000000002,0.8610000000000002 C17.57199936676028,20.494999422073363 17.95699936676027,20.880999422073366 18.43099936676026,20.880999422073366 " id="svg_417" class="" opacity="1"/><path fill="#FF5A5D" d="M18.43099936676026,2.811999422073363 c0.4760000000000001,0 0.8590000000000002,-0.3850000000000001 0.8590000000000002,-0.8600000000000002 c0,-0.4760000000000001 -0.3850000000000001,-0.8610000000000002 -0.8590000000000002,-0.8610000000000002 c-0.4760000000000001,0 -0.8590000000000002,0.3850000000000001 -0.8590000000000002,0.8610000000000002 C17.57199936676028,2.426999422073365 17.95699936676027,2.811999422073363 18.43099936676026,2.811999422073363 " id="svg_418" class="" opacity="1"/><path fill="#FF5A5D" d="M18.43099936676026,5.822999422073366 c0.4760000000000001,0 0.8590000000000002,-0.3850000000000001 0.8590000000000002,-0.8600000000000002 c0,-0.4760000000000001 -0.3850000000000001,-0.8610000000000002 -0.8590000000000002,-0.8610000000000002 c-0.4760000000000001,0 -0.8590000000000002,0.3850000000000001 -0.8590000000000002,0.8610000000000002 C17.57199936676028,5.437999422073361 17.95699936676027,5.822999422073366 18.43099936676026,5.822999422073366 " id="svg_419" class="" opacity="1"/><path fill="#FF5A5D" d="M18.43099936676026,8.834999422073366 c0.4760000000000001,0 0.8590000000000002,-0.3850000000000001 0.8590000000000002,-0.8600000000000002 c0,-0.4760000000000001 -0.3850000000000001,-0.8610000000000002 -0.8590000000000002,-0.8610000000000002 c-0.4760000000000001,0 -0.8590000000000002,0.3850000000000001 -0.8590000000000002,0.8610000000000002 C17.57199936676028,8.448999422073364 17.95699936676027,8.834999422073366 18.43099936676026,8.834999422073366 " id="svg_420" class="" opacity="1"/><path fill="#FF5A5D" d="M18.43099936676026,29.913999422073367 c0.4760000000000001,0 0.8590000000000002,-0.3850000000000001 0.8590000000000002,-0.8590000000000002 c0,-0.4770000000000001 -0.3850000000000001,-0.8600000000000002 -0.8590000000000002,-0.8600000000000002 c-0.4760000000000001,0 -0.8590000000000002,0.3850000000000001 -0.8590000000000002,0.8600000000000002 C17.57199936676028,29.528999422073362 17.95699936676027,29.913999422073367 18.43099936676026,29.913999422073367 " id="svg_421" class="" opacity="1"/><path fill="#FF5A5D" d="M18.43099936676026,32.92599942207337 c0.4760000000000001,0 0.8590000000000002,-0.3850000000000001 0.8590000000000002,-0.8580000000000002 c0,-0.4780000000000001 -0.3850000000000001,-0.8610000000000002 -0.8590000000000002,-0.8610000000000002 c-0.4760000000000001,0 -0.8590000000000002,0.3860000000000001 -0.8590000000000002,0.8610000000000002 C17.57199936676028,32.54099942207336 17.95699936676027,32.92599942207337 18.43099936676026,32.92599942207337 " id="svg_422" class="" opacity="1"/><path fill="#FF5A5D" d="M18.43099936676026,35.93699942207336 c0.4760000000000001,0 0.8590000000000002,-0.3850000000000001 0.8590000000000002,-0.8590000000000002 c0,-0.4770000000000001 -0.3850000000000001,-0.8610000000000002 -0.8590000000000002,-0.8610000000000002 c-0.4760000000000001,0 -0.8590000000000002,0.3850000000000001 -0.8590000000000002,0.8610000000000002 C17.57199936676028,35.551999422073365 17.95699936676027,35.93699942207336 18.43099936676026,35.93699942207336 " id="svg_423" class="" opacity="1"/><path fill="#FF5A5D" d="M18.43099936676026,23.89199942207336 c0.4760000000000001,0 0.8590000000000002,-0.3850000000000001 0.8590000000000002,-0.8610000000000002 c0,-0.4760000000000001 -0.3850000000000001,-0.8600000000000002 -0.8590000000000002,-0.8600000000000002 c-0.4760000000000001,0 -0.8590000000000002,0.3850000000000001 -0.8590000000000002,0.8600000000000002 C17.57199936676028,23.50799942207336 17.95699936676027,23.89199942207336 18.43099936676026,23.89199942207336 " id="svg_424" class="" opacity="1"/><path fill="#FF5A5D" d="M18.43099936676026,26.903999422073362 c0.4760000000000001,0 0.8590000000000002,-0.3870000000000001 0.8590000000000002,-0.8610000000000002 c0,-0.4740000000000001 -0.3850000000000001,-0.8610000000000002 -0.8590000000000002,-0.8610000000000002 c-0.4760000000000001,0 -0.8590000000000002,0.3880000000000001 -0.8590000000000002,0.8610000000000002 C17.57199936676028,26.51699942207336 17.95699936676027,26.903999422073362 18.43099936676026,26.903999422073362 " id="svg_425" class="" opacity="1"/><path fill="#FF5A5D" d="M15.419999366760237,13.351999422073362 c0.4770000000000001,0 0.8600000000000002,-0.3850000000000001 0.8600000000000002,-0.8600000000000002 c0,-0.4760000000000001 -0.3850000000000001,-0.8610000000000002 -0.8600000000000002,-0.8610000000000002 c-0.4750000000000001,0 -0.8580000000000002,0.3850000000000001 -0.8580000000000002,0.8610000000000002 C14.55999936676028,12.966999422073364 14.944999366760271,13.351999422073362 15.419999366760237,13.351999422073362 " id="svg_426" class="" opacity="1"/><path fill="#FF5A5D" d="M15.419999366760237,16.363999422073363 c0.4770000000000001,0 0.8600000000000002,-0.3850000000000001 0.8600000000000002,-0.8600000000000002 c0,-0.4760000000000001 -0.3850000000000001,-0.8610000000000002 -0.8600000000000002,-0.8610000000000002 c-0.4750000000000001,0 -0.8580000000000002,0.3850000000000001 -0.8580000000000002,0.8610000000000002 C14.55999936676028,15.977999422073367 14.944999366760271,16.363999422073363 15.419999366760237,16.363999422073363 " id="svg_427" class="" opacity="1"/><path fill="#FF5A5D" d="M15.419999366760237,19.374999422073365 c0.4770000000000001,0 0.8600000000000002,-0.3850000000000001 0.8600000000000002,-0.8600000000000002 c0,-0.4760000000000001 -0.3850000000000001,-0.8610000000000002 -0.8600000000000002,-0.8610000000000002 c-0.4750000000000001,0 -0.8580000000000002,0.3850000000000001 -0.8580000000000002,0.8610000000000002 C14.55999936676028,18.989999422073367 14.944999366760271,19.374999422073365 15.419999366760237,19.374999422073365 " id="svg_428" class="" opacity="1"/><path fill="#FF5A5D" d="M15.419999366760237,22.386999422073366 c0.4770000000000001,0 0.8600000000000002,-0.3860000000000001 0.8600000000000002,-0.8610000000000002 s-0.3850000000000001,-0.8600000000000002 -0.8600000000000002,-0.8600000000000002 c-0.4750000000000001,0 -0.8580000000000002,0.3850000000000001 -0.8580000000000002,0.8600000000000002 S14.944999366760271,22.386999422073366 15.419999366760237,22.386999422073366 " id="svg_429" class="" opacity="1"/><path fill="#FF5A5D" d="M15.419999366760237,4.317999422073363 c0.4770000000000001,0 0.8600000000000002,-0.3850000000000001 0.8600000000000002,-0.8600000000000002 c0,-0.4760000000000001 -0.3850000000000001,-0.8610000000000002 -0.8600000000000002,-0.8610000000000002 c-0.4750000000000001,0 -0.8580000000000002,0.3850000000000001 -0.8580000000000002,0.8610000000000002 C14.55999936676028,3.931999422073364 14.944999366760271,4.317999422073363 15.419999366760237,4.317999422073363 " id="svg_430" class="" opacity="1"/><path fill="#FF5A5D" d="M15.419999366760237,7.328999422073366 c0.4770000000000001,0 0.8600000000000002,-0.3850000000000001 0.8600000000000002,-0.8600000000000002 c0,-0.4760000000000001 -0.3850000000000001,-0.8610000000000002 -0.8600000000000002,-0.8610000000000002 c-0.4750000000000001,0 -0.8580000000000002,0.3850000000000001 -0.8580000000000002,0.8610000000000002 C14.55999936676028,6.943999422073361 14.944999366760271,7.328999422073366 15.419999366760237,7.328999422073366 " id="svg_431" class="" opacity="1"/><path fill="#FF5A5D" d="M15.419999366760237,10.340999422073367 c0.4770000000000001,0 0.8600000000000002,-0.3850000000000001 0.8600000000000002,-0.8600000000000002 c0,-0.4760000000000001 -0.3850000000000001,-0.8610000000000002 -0.8600000000000002,-0.8610000000000002 c-0.4750000000000001,0 -0.8580000000000002,0.3850000000000001 -0.8580000000000002,0.8610000000000002 C14.55999936676028,9.954999422073364 14.944999366760271,10.340999422073367 15.419999366760237,10.340999422073367 " id="svg_432" class="" opacity="1"/><path fill="#FF5A5D" d="M15.419999366760237,31.419999422073367 c0.4770000000000001,0 0.8600000000000002,-0.3850000000000001 0.8600000000000002,-0.8590000000000002 c0,-0.4770000000000001 -0.3850000000000001,-0.8600000000000002 -0.8600000000000002,-0.8600000000000002 c-0.4750000000000001,0 -0.8580000000000002,0.3860000000000001 -0.8580000000000002,0.8600000000000002 C14.55999936676028,31.034999422073362 14.944999366760271,31.419999422073367 15.419999366760237,31.419999422073367 " id="svg_433" class="" opacity="1"/><path fill="#FF5A5D" d="M15.419999366760237,34.43099942207336 c0.4770000000000001,0 0.8600000000000002,-0.3850000000000001 0.8600000000000002,-0.8590000000000002 c0,-0.4770000000000001 -0.3850000000000001,-0.8610000000000002 -0.8600000000000002,-0.8610000000000002 c-0.4750000000000001,0 -0.8580000000000002,0.3850000000000001 -0.8580000000000002,0.8610000000000002 C14.55999936676028,34.04699942207336 14.944999366760271,34.43099942207336 15.419999366760237,34.43099942207336 " id="svg_434" class="" opacity="1"/><path fill="#FF5A5D" d="M15.419999366760237,37.44299942207337 c0.4770000000000001,0 0.8600000000000002,-0.3850000000000001 0.8600000000000002,-0.8590000000000002 c0,-0.4770000000000001 -0.3850000000000001,-0.8610000000000002 -0.8600000000000002,-0.8610000000000002 c-0.4750000000000001,0 -0.8580000000000002,0.3860000000000001 -0.8580000000000002,0.8610000000000002 C14.55999936676028,37.057999422073365 14.944999366760271,37.44299942207337 15.419999366760237,37.44299942207337 " id="svg_435" class="" opacity="1"/><path fill="#FF5A5D" d="M15.419999366760237,25.39799942207336 c0.4770000000000001,0 0.8600000000000002,-0.3850000000000001 0.8600000000000002,-0.8610000000000002 c0,-0.4750000000000001 -0.3850000000000001,-0.8590000000000002 -0.8600000000000002,-0.8590000000000002 c-0.4750000000000001,0 -0.8580000000000002,0.3860000000000001 -0.8580000000000002,0.8590000000000002 C14.55999936676028,25.012999422073364 14.944999366760271,25.39799942207336 15.419999366760237,25.39799942207336 " id="svg_436" class="" opacity="1"/><path fill="#FF5A5D" d="M15.419999366760237,28.409999422073362 c0.4770000000000001,0 0.8600000000000002,-0.3870000000000001 0.8600000000000002,-0.8610000000000002 c0,-0.4740000000000001 -0.3850000000000001,-0.8600000000000002 -0.8600000000000002,-0.8600000000000002 c-0.4750000000000001,0 -0.8580000000000002,0.3870000000000001 -0.8580000000000002,0.8600000000000002 C14.560999366760257,28.02299942207336 14.944999366760271,28.409999422073362 15.419999366760237,28.409999422073362 " id="svg_437" class="" opacity="1"/><path fill="#FF5A5D" d="M12.40899936676027,11.845999422073362 c0.4750000000000001,0 0.8590000000000002,-0.3850000000000001 0.8590000000000002,-0.8600000000000002 c0,-0.4760000000000001 -0.3860000000000001,-0.8610000000000002 -0.8590000000000002,-0.8610000000000002 c-0.4760000000000001,0 -0.8600000000000002,0.3850000000000001 -0.8600000000000002,0.8610000000000002 C11.548999366760256,11.460999422073364 11.93299936676027,11.845999422073362 12.40899936676027,11.845999422073362 " id="svg_438" class="" opacity="1"/><path fill="#FF5A5D" d="M12.40899936676027,14.857999422073362 c0.4750000000000001,0 0.8590000000000002,-0.3850000000000001 0.8590000000000002,-0.8600000000000002 c0,-0.4760000000000001 -0.3860000000000001,-0.8610000000000002 -0.8590000000000002,-0.8610000000000002 c-0.4760000000000001,0 -0.8600000000000002,0.3850000000000001 -0.8600000000000002,0.8610000000000002 C11.548999366760256,14.471999422073367 11.93299936676027,14.857999422073362 12.40899936676027,14.857999422073362 " id="svg_439" class="" opacity="1"/><path fill="#FF5A5D" d="M12.40899936676027,17.868999422073365 c0.4750000000000001,0 0.8590000000000002,-0.3850000000000001 0.8590000000000002,-0.8600000000000002 c0,-0.4760000000000001 -0.3860000000000001,-0.8610000000000002 -0.8590000000000002,-0.8610000000000002 c-0.4760000000000001,0 -0.8600000000000002,0.3850000000000001 -0.8600000000000002,0.8610000000000002 C11.548999366760256,17.483999422073367 11.93299936676027,17.868999422073365 12.40899936676027,17.868999422073365 " id="svg_440" class="" opacity="1"/><path fill="#FF5A5D" d="M12.40899936676027,20.880999422073366 c0.4750000000000001,0 0.8590000000000002,-0.3860000000000001 0.8590000000000002,-0.8600000000000002 c0,-0.4760000000000001 -0.3860000000000001,-0.8610000000000002 -0.8590000000000002,-0.8610000000000002 c-0.4760000000000001,0 -0.8600000000000002,0.3850000000000001 -0.8600000000000002,0.8610000000000002 C11.548999366760256,20.494999422073363 11.93299936676027,20.880999422073366 12.40899936676027,20.880999422073366 " id="svg_441" class="" opacity="1"/><path fill="#FF5A5D" d="M12.40899936676027,5.822999422073366 c0.4750000000000001,0 0.8590000000000002,-0.3850000000000001 0.8590000000000002,-0.8600000000000002 c0,-0.4760000000000001 -0.3860000000000001,-0.8610000000000002 -0.8590000000000002,-0.8610000000000002 c-0.4760000000000001,0 -0.8600000000000002,0.3850000000000001 -0.8600000000000002,0.8610000000000002 C11.548999366760256,5.437999422073361 11.93299936676027,5.822999422073366 12.40899936676027,5.822999422073366 " id="svg_442" class="" opacity="1"/><path fill="#FF5A5D" d="M12.40899936676027,8.834999422073366 c0.4750000000000001,0 0.8590000000000002,-0.3850000000000001 0.8590000000000002,-0.8600000000000002 c0,-0.4760000000000001 -0.3860000000000001,-0.8610000000000002 -0.8590000000000002,-0.8610000000000002 c-0.4760000000000001,0 -0.8600000000000002,0.3850000000000001 -0.8600000000000002,0.8610000000000002 C11.548999366760256,8.448999422073364 11.93299936676027,8.834999422073366 12.40899936676027,8.834999422073366 " id="svg_443" class="" opacity="1"/><path fill="#FF5A5D" d="M12.40899936676027,29.913999422073367 c0.4750000000000001,0 0.8590000000000002,-0.3850000000000001 0.8590000000000002,-0.8590000000000002 c0,-0.4770000000000001 -0.3860000000000001,-0.8600000000000002 -0.8590000000000002,-0.8600000000000002 c-0.4760000000000001,0 -0.8600000000000002,0.3850000000000001 -0.8600000000000002,0.8600000000000002 C11.548999366760256,29.528999422073362 11.93299936676027,29.913999422073367 12.40899936676027,29.913999422073367 " id="svg_444" class="" opacity="1"/><path fill="#FF5A5D" d="M12.40899936676027,32.92599942207337 c0.4750000000000001,0 0.8590000000000002,-0.3850000000000001 0.8590000000000002,-0.8580000000000002 c0,-0.4780000000000001 -0.3860000000000001,-0.8610000000000002 -0.8590000000000002,-0.8610000000000002 c-0.4760000000000001,0 -0.8600000000000002,0.3860000000000001 -0.8600000000000002,0.8610000000000002 C11.548999366760256,32.54099942207336 11.93299936676027,32.92599942207337 12.40899936676027,32.92599942207337 " id="svg_445" class="" opacity="1"/><path fill="#FF5A5D" d="M12.40899936676027,35.93699942207336 c0.4750000000000001,0 0.8590000000000002,-0.3850000000000001 0.8590000000000002,-0.8590000000000002 c0,-0.4770000000000001 -0.3860000000000001,-0.8610000000000002 -0.8590000000000002,-0.8610000000000002 c-0.4760000000000001,0 -0.8600000000000002,0.3850000000000001 -0.8600000000000002,0.8610000000000002 C11.548999366760256,35.551999422073365 11.93299936676027,35.93699942207336 12.40899936676027,35.93699942207336 " id="svg_446" class="" opacity="1"/><path fill="#FF5A5D" d="M12.40899936676027,38.94899942207337 c0.4750000000000001,0 0.8590000000000002,-0.3850000000000001 0.8590000000000002,-0.8590000000000002 c0,-0.4770000000000001 -0.3860000000000001,-0.8600000000000002 -0.8590000000000002,-0.8600000000000002 c-0.4760000000000001,0 -0.8600000000000002,0.3850000000000001 -0.8600000000000002,0.8600000000000002 C11.548999366760256,38.563999422073366 11.93299936676027,38.94899942207337 12.40899936676027,38.94899942207337 " id="svg_447" class="" opacity="1"/><path fill="#FF5A5D" d="M12.40899936676027,23.89199942207336 c0.4750000000000001,0 0.8590000000000002,-0.3850000000000001 0.8590000000000002,-0.8610000000000002 c0,-0.4760000000000001 -0.3860000000000001,-0.8600000000000002 -0.8590000000000002,-0.8600000000000002 c-0.4760000000000001,0 -0.8600000000000002,0.3850000000000001 -0.8600000000000002,0.8600000000000002 C11.548999366760256,23.50799942207336 11.93299936676027,23.89199942207336 12.40899936676027,23.89199942207336 " id="svg_448" class="" opacity="1"/><path fill="#FF5A5D" d="M12.40899936676027,26.903999422073362 c0.4750000000000001,0 0.8590000000000002,-0.3870000000000001 0.8590000000000002,-0.8610000000000002 c0,-0.4740000000000001 -0.3860000000000001,-0.8610000000000002 -0.8590000000000002,-0.8610000000000002 c-0.4760000000000001,0 -0.8600000000000002,0.3880000000000001 -0.8600000000000002,0.8610000000000002 C11.548999366760256,26.51699942207336 11.93299936676027,26.903999422073362 12.40899936676027,26.903999422073362 " id="svg_449" class="" opacity="1"/><path fill="#FF5A5D" d="M9.39699936676027,13.351999422073362 c0.4750000000000001,0 0.8590000000000002,-0.3850000000000001 0.8590000000000002,-0.8600000000000002 c0,-0.4760000000000001 -0.3860000000000001,-0.8610000000000002 -0.8590000000000002,-0.8610000000000002 c-0.4770000000000001,0 -0.8600000000000002,0.3850000000000001 -0.8600000000000002,0.8610000000000002 C8.536999366760256,12.966999422073364 8.921999366760303,13.351999422073362 9.39699936676027,13.351999422073362 " id="svg_450" class="" opacity="1"/><path fill="#FF5A5D" d="M9.39699936676027,16.363999422073363 c0.4750000000000001,0 0.8590000000000002,-0.3850000000000001 0.8590000000000002,-0.8600000000000002 c0,-0.4760000000000001 -0.3860000000000001,-0.8610000000000002 -0.8590000000000002,-0.8610000000000002 c-0.4770000000000001,0 -0.8600000000000002,0.3850000000000001 -0.8600000000000002,0.8610000000000002 C8.536999366760256,15.977999422073367 8.921999366760303,16.363999422073363 9.39699936676027,16.363999422073363 " id="svg_451" class="" opacity="1"/><path fill="#FF5A5D" d="M9.39699936676027,19.374999422073365 c0.4750000000000001,0 0.8590000000000002,-0.3850000000000001 0.8590000000000002,-0.8600000000000002 c0,-0.4760000000000001 -0.3860000000000001,-0.8610000000000002 -0.8590000000000002,-0.8610000000000002 c-0.4770000000000001,0 -0.8600000000000002,0.3850000000000001 -0.8600000000000002,0.8610000000000002 C8.536999366760256,18.989999422073367 8.921999366760303,19.374999422073365 9.39699936676027,19.374999422073365 " id="svg_452" class="" opacity="1"/><path fill="#FF5A5D" d="M9.39699936676027,22.386999422073366 c0.4750000000000001,0 0.8590000000000002,-0.3860000000000001 0.8590000000000002,-0.8610000000000002 s-0.3860000000000001,-0.8600000000000002 -0.8590000000000002,-0.8600000000000002 c-0.4770000000000001,0 -0.8600000000000002,0.3850000000000001 -0.8600000000000002,0.8600000000000002 S8.921999366760303,22.386999422073366 9.39699936676027,22.386999422073366 " id="svg_453" class="" opacity="1"/><path fill="#FF5A5D" d="M9.39699936676027,7.328999422073366 c0.4750000000000001,0 0.8590000000000002,-0.3850000000000001 0.8590000000000002,-0.8600000000000002 c0,-0.4760000000000001 -0.3860000000000001,-0.8610000000000002 -0.8590000000000002,-0.8610000000000002 c-0.4770000000000001,0 -0.8600000000000002,0.3850000000000001 -0.8600000000000002,0.8610000000000002 C8.536999366760256,6.943999422073361 8.921999366760303,7.328999422073366 9.39699936676027,7.328999422073366 " id="svg_454" class="" opacity="1"/><path fill="#FF5A5D" d="M9.39699936676027,10.340999422073367 c0.4750000000000001,0 0.8590000000000002,-0.3850000000000001 0.8590000000000002,-0.8600000000000002 c0,-0.4760000000000001 -0.3860000000000001,-0.8610000000000002 -0.8590000000000002,-0.8610000000000002 c-0.4770000000000001,0 -0.8600000000000002,0.3850000000000001 -0.8600000000000002,0.8610000000000002 C8.536999366760256,9.954999422073364 8.921999366760303,10.340999422073367 9.39699936676027,10.340999422073367 " id="svg_455" class="" opacity="1"/><path fill="#FF5A5D" d="M9.39699936676027,31.419999422073367 c0.4750000000000001,0 0.8590000000000002,-0.3850000000000001 0.8590000000000002,-0.8590000000000002 c0,-0.4770000000000001 -0.3860000000000001,-0.8600000000000002 -0.8590000000000002,-0.8600000000000002 c-0.4770000000000001,0 -0.8600000000000002,0.3860000000000001 -0.8600000000000002,0.8600000000000002 S8.921999366760303,31.419999422073367 9.39699936676027,31.419999422073367 " id="svg_456" class="" opacity="1"/><path fill="#FF5A5D" d="M9.39699936676027,34.43099942207336 c0.4750000000000001,0 0.8590000000000002,-0.3850000000000001 0.8590000000000002,-0.8590000000000002 c0,-0.4770000000000001 -0.3860000000000001,-0.8610000000000002 -0.8590000000000002,-0.8610000000000002 c-0.4770000000000001,0 -0.8600000000000002,0.3850000000000001 -0.8600000000000002,0.8610000000000002 C8.536999366760256,34.04699942207336 8.921999366760303,34.43099942207336 9.39699936676027,34.43099942207336 " id="svg_457" class="" opacity="1"/><path fill="#FF5A5D" d="M9.39699936676027,37.44299942207337 c0.4750000000000001,0 0.8590000000000002,-0.3850000000000001 0.8590000000000002,-0.8590000000000002 c0,-0.4770000000000001 -0.3860000000000001,-0.8610000000000002 -0.8590000000000002,-0.8610000000000002 c-0.4770000000000001,0 -0.8600000000000002,0.3860000000000001 -0.8600000000000002,0.8610000000000002 C8.536999366760256,37.057999422073365 8.921999366760303,37.44299942207337 9.39699936676027,37.44299942207337 " id="svg_458" class="" opacity="1"/><path fill="#FF5A5D" d="M9.39699936676027,40.45499942207337 c0.4750000000000001,0 0.8590000000000002,-0.3850000000000001 0.8590000000000002,-0.8590000000000002 c0,-0.4770000000000001 -0.3860000000000001,-0.8600000000000002 -0.8590000000000002,-0.8600000000000002 c-0.4770000000000001,0 -0.8600000000000002,0.3850000000000001 -0.8600000000000002,0.8600000000000002 C8.536999366760256,40.069999422073366 8.921999366760303,40.45499942207337 9.39699936676027,40.45499942207337 " id="svg_459" class="" opacity="1"/><path fill="#FF5A5D" d="M9.39699936676027,25.39799942207336 c0.4750000000000001,0 0.8590000000000002,-0.3850000000000001 0.8590000000000002,-0.8610000000000002 c0,-0.4750000000000001 -0.3860000000000001,-0.8590000000000002 -0.8590000000000002,-0.8590000000000002 c-0.4770000000000001,0 -0.8600000000000002,0.3860000000000001 -0.8600000000000002,0.8590000000000002 C8.536999366760256,25.012999422073364 8.921999366760303,25.39799942207336 9.39699936676027,25.39799942207336 " id="svg_460" class="" opacity="1"/><path fill="#FF5A5D" d="M9.39699936676027,28.409999422073362 c0.4750000000000001,0 0.8590000000000002,-0.3870000000000001 0.8590000000000002,-0.8610000000000002 c0,-0.4740000000000001 -0.3860000000000001,-0.8600000000000002 -0.8590000000000002,-0.8600000000000002 c-0.4770000000000001,0 -0.8600000000000002,0.3870000000000001 -0.8600000000000002,0.8600000000000002 C8.536999366760256,28.02299942207336 8.921999366760303,28.409999422073362 9.39699936676027,28.409999422073362 " id="svg_461" class="" opacity="1"/><path fill="#FF5A5D" d="M6.384999366760269,11.845999422073362 c0.4760000000000001,0 0.8590000000000002,-0.3850000000000001 0.8590000000000002,-0.8600000000000002 c0,-0.4760000000000001 -0.3850000000000001,-0.8610000000000002 -0.8590000000000002,-0.8610000000000002 c-0.4760000000000001,0 -0.8600000000000002,0.3850000000000001 -0.8600000000000002,0.8610000000000002 C5.524999366760255,11.460999422073364 5.910999366760279,11.845999422073362 6.384999366760269,11.845999422073362 " id="svg_462" class="" opacity="1"/><path fill="#FF5A5D" d="M6.384999366760269,14.857999422073362 c0.4760000000000001,0 0.8590000000000002,-0.3850000000000001 0.8590000000000002,-0.8600000000000002 c0,-0.4760000000000001 -0.3850000000000001,-0.8610000000000002 -0.8590000000000002,-0.8610000000000002 c-0.4760000000000001,0 -0.8600000000000002,0.3850000000000001 -0.8600000000000002,0.8610000000000002 C5.524999366760255,14.471999422073367 5.910999366760279,14.857999422073362 6.384999366760269,14.857999422073362 " id="svg_463" class="" opacity="1"/><path fill="#FF5A5D" d="M6.384999366760269,17.868999422073365 c0.4760000000000001,0 0.8590000000000002,-0.3850000000000001 0.8590000000000002,-0.8600000000000002 c0,-0.4760000000000001 -0.3850000000000001,-0.8610000000000002 -0.8590000000000002,-0.8610000000000002 c-0.4760000000000001,0 -0.8600000000000002,0.3850000000000001 -0.8600000000000002,0.8610000000000002 C5.524999366760255,17.483999422073367 5.910999366760279,17.868999422073365 6.384999366760269,17.868999422073365 " id="svg_464" class="" opacity="1"/><path fill="#FF5A5D" d="M6.384999366760269,20.880999422073366 c0.4760000000000001,0 0.8590000000000002,-0.3860000000000001 0.8590000000000002,-0.8600000000000002 c0,-0.4760000000000001 -0.3850000000000001,-0.8610000000000002 -0.8590000000000002,-0.8610000000000002 c-0.4760000000000001,0 -0.8600000000000002,0.3850000000000001 -0.8600000000000002,0.8610000000000002 C5.524999366760255,20.494999422073363 5.910999366760279,20.880999422073366 6.384999366760269,20.880999422073366 " id="svg_465" class="" opacity="1"/><path fill="#FF5A5D" d="M6.384999366760269,8.834999422073366 c0.4760000000000001,0 0.8590000000000002,-0.3850000000000001 0.8590000000000002,-0.8600000000000002 c0,-0.4760000000000001 -0.3850000000000001,-0.8610000000000002 -0.8590000000000002,-0.8610000000000002 c-0.4760000000000001,0 -0.8600000000000002,0.3850000000000001 -0.8600000000000002,0.8610000000000002 C5.524999366760255,8.448999422073364 5.910999366760279,8.834999422073366 6.384999366760269,8.834999422073366 " id="svg_466" class="" opacity="1"/><path fill="#FF5A5D" d="M6.384999366760269,29.913999422073367 c0.4760000000000001,0 0.8590000000000002,-0.3850000000000001 0.8590000000000002,-0.8590000000000002 c0,-0.4770000000000001 -0.3850000000000001,-0.8600000000000002 -0.8590000000000002,-0.8600000000000002 c-0.4760000000000001,0 -0.8600000000000002,0.3850000000000001 -0.8600000000000002,0.8600000000000002 C5.524999366760255,29.528999422073362 5.910999366760279,29.913999422073367 6.384999366760269,29.913999422073367 " id="svg_467" class="" opacity="1"/><path fill="#FF5A5D" d="M6.384999366760269,23.89199942207336 c0.4760000000000001,0 0.8590000000000002,-0.3850000000000001 0.8590000000000002,-0.8610000000000002 c0,-0.4760000000000001 -0.3850000000000001,-0.8600000000000002 -0.8590000000000002,-0.8600000000000002 c-0.4760000000000001,0 -0.8600000000000002,0.3850000000000001 -0.8600000000000002,0.8600000000000002 C5.524999366760255,23.50799942207336 5.910999366760279,23.89199942207336 6.384999366760269,23.89199942207336 " id="svg_468" class="" opacity="1"/><path fill="#FF5A5D" d="M6.384999366760269,26.903999422073362 c0.4760000000000001,0 0.8590000000000002,-0.3870000000000001 0.8590000000000002,-0.8610000000000002 c0,-0.4740000000000001 -0.3850000000000001,-0.8610000000000002 -0.8590000000000002,-0.8610000000000002 c-0.4760000000000001,0 -0.8600000000000002,0.3880000000000001 -0.8600000000000002,0.8610000000000002 C5.524999366760255,26.51699942207336 5.910999366760279,26.903999422073362 6.384999366760269,26.903999422073362 " id="svg_469" class="" opacity="1"/><path fill="#FF5A5D" d="M3.374999366760278,13.351999422073362 c0.4760000000000001,0 0.8590000000000002,-0.3850000000000001 0.8590000000000002,-0.8600000000000002 c0,-0.4760000000000001 -0.3850000000000001,-0.8610000000000002 -0.8590000000000002,-0.8610000000000002 c-0.4760000000000001,0 -0.8590000000000002,0.3850000000000001 -0.8590000000000002,0.8610000000000002 C2.513999366760231,12.966999422073364 2.898999366760279,13.351999422073362 3.374999366760278,13.351999422073362 " id="svg_470" class="" opacity="1"/><path fill="#FF5A5D" d="M3.374999366760278,16.363999422073363 c0.4760000000000001,0 0.8590000000000002,-0.3850000000000001 0.8590000000000002,-0.8600000000000002 c0,-0.4760000000000001 -0.3850000000000001,-0.8610000000000002 -0.8590000000000002,-0.8610000000000002 c-0.4760000000000001,0 -0.8590000000000002,0.3850000000000001 -0.8590000000000002,0.8610000000000002 C2.513999366760231,15.977999422073367 2.898999366760279,16.363999422073363 3.374999366760278,16.363999422073363 " id="svg_471" class="" opacity="1"/><path fill="#FF5A5D" d="M3.374999366760278,19.374999422073365 c0.4760000000000001,0 0.8590000000000002,-0.3850000000000001 0.8590000000000002,-0.8600000000000002 c0,-0.4760000000000001 -0.3850000000000001,-0.8610000000000002 -0.8590000000000002,-0.8610000000000002 c-0.4760000000000001,0 -0.8590000000000002,0.3850000000000001 -0.8590000000000002,0.8610000000000002 C2.513999366760231,18.989999422073367 2.898999366760279,19.374999422073365 3.374999366760278,19.374999422073365 " id="svg_472" class="" opacity="1"/><path fill="#FF5A5D" d="M3.374999366760278,22.386999422073366 c0.4760000000000001,0 0.8590000000000002,-0.3860000000000001 0.8590000000000002,-0.8610000000000002 s-0.3850000000000001,-0.8600000000000002 -0.8590000000000002,-0.8600000000000002 c-0.4760000000000001,0 -0.8590000000000002,0.3850000000000001 -0.8590000000000002,0.8600000000000002 S2.898999366760279,22.386999422073366 3.374999366760278,22.386999422073366 " id="svg_473" class="" opacity="1"/><path fill="#FF5A5D" d="M3.374999366760278,25.39799942207336 c0.4760000000000001,0 0.8590000000000002,-0.3850000000000001 0.8590000000000002,-0.8610000000000002 c0,-0.4750000000000001 -0.3850000000000001,-0.8590000000000002 -0.8590000000000002,-0.8590000000000002 c-0.4760000000000001,0 -0.8590000000000002,0.3860000000000001 -0.8590000000000002,0.8590000000000002 C2.513999366760231,25.012999422073364 2.898999366760279,25.39799942207336 3.374999366760278,25.39799942207336 " id="svg_474" class="" opacity="1"/><path fill="#2B2622" d="M26.061999366760233,-5.779266345484757e-7 c-14.371,0 -26.062,8.631 -26.062,19.24 c0,5.462 3.1,10.611 8.541,14.253 l-3.592,10.388 c-0.171,0.4930000000000001 -0.004000000000000002,1.041 0.4120000000000001,1.354 c0.21500000000000005,0.16200000000000006 0.4700000000000001,0.24000000000000005 0.7240000000000002,0.24000000000000005 c0.24100000000000005,0 0.4830000000000001,-0.07 0.6910000000000004,-0.21900000000000006 l11.013,-7.763 c2.6580000000000004,0.6540000000000002 5.439,0.986 8.273,0.986 c14.372,0 26.063,-8.632 26.063,-19.24 C52.125999366760254,8.629999422073361 40.43399936676025,-5.779266345484757e-7 26.061999366760233,-5.779266345484757e-7 M26.061999366760233,36.075999422073366 c-2.822,0 -5.583,-0.3520000000000001 -8.207,-1.045 c-0.3410000000000002,-0.09000000000000004 -0.7080000000000002,-0.02500000000000001 -0.999,0.18000000000000005 l-8.419,5.937 l2.684,-7.761 c0.18500000000000005,-0.53 -0.02500000000000001,-1.121 -0.506,-1.416 c-5.22,-3.215 -8.213,-7.854 -8.213,-12.729 c0,-9.284 10.614,-16.837 23.66,-16.837 c13.047,0 23.661,7.553 23.661,16.837 S39.10899936676026,36.075999422073366 26.061999366760233,36.075999422073366 " id="svg_475" class="" opacity="1"/><path fill="#2B2622" d="M36.60199936676025,13.573999422073364 h-21.08 c-0.6630000000000003,0 -1.202,0.3360000000000002 -1.202,1 s0.539,1 1.202,1 h21.08 c0.6640000000000003,0 1.202,-0.3360000000000002 1.202,-1 S37.26599936676024,13.573999422073364 36.60199936676025,13.573999422073364 " id="svg_476" class="" opacity="1"/><path fill="#2B2622" d="M36.60199936676025,21.573999422073364 h-21.08 c-0.6630000000000003,0 -1.202,0.3370000000000002 -1.202,1 s0.539,1 1.202,1 h21.08 c0.6640000000000003,0 1.202,-0.3360000000000002 1.202,-1 S37.26599936676024,21.573999422073364 36.60199936676025,21.573999422073364 " id="svg_477" class="" opacity="1"/></g></svg>