<svg width="78" height="78" viewBox="0 0 78 78" fill="none" xmlns="http://www.w3.org/2000/svg">
<path d="M77.75 39C77.75 60.4058 60.3995 77.75 39 77.75C17.6005 77.75 0.25 60.4058 0.25 39C0.25 17.6067 17.6005 0.25 39 0.25C60.3995 0.25 77.75 17.6067 77.75 39ZM40.0398 13.0625C31.5247 13.0625 26.0938 16.6495 21.8291 23.0247C21.2766 23.8506 21.4614 24.9645 22.2533 25.565L27.675 29.6759C28.4883 30.2927 29.647 30.1459 30.2789 29.3444C33.0702 25.8041 34.9841 23.7511 39.2325 23.7511C42.4245 23.7511 46.3728 25.8055 46.3728 28.9008C46.3728 31.2408 44.4411 32.4425 41.2894 34.2095C37.6138 36.27 32.75 38.8345 32.75 45.25V45.875C32.75 46.9105 33.5895 47.75 34.625 47.75H43.375C44.4105 47.75 45.25 46.9105 45.25 45.875V45.6667C45.25 41.2195 58.2478 41.0344 58.2478 29C58.2478 19.9372 48.847 13.0625 40.0398 13.0625V13.0625ZM39 51.8125C35.0367 51.8125 31.8125 55.0367 31.8125 59C31.8125 62.9631 35.0367 66.1875 39 66.1875C42.9633 66.1875 46.1875 62.9631 46.1875 59C46.1875 55.0367 42.9633 51.8125 39 51.8125Z" fill="#00A3FF"/>
</svg>
