<svg width="100" height="100" viewBox="0 0 100 100" fill="none" xmlns="http://www.w3.org/2000/svg">
<path d="M14.6525 14.6525C34.1878 -4.88281 65.8093 -4.88555 85.3474 14.6525C104.883 34.1879 104.886 65.8093 85.3474 85.3474C65.812 104.883 34.1906 104.886 14.6525 85.3474C-4.88269 65.8122 -4.88563 34.1908 14.6525 14.6525ZM54.2364 64.599C54.2364 66.8667 56.0747 68.705 58.3424 68.705C60.6101 68.705 62.4484 66.8667 62.4484 64.599V35.4009C62.4484 33.1332 60.6101 31.2949 58.3424 31.2949C56.0747 31.2949 54.2364 33.1332 54.2364 35.4009V64.599ZM37.5518 64.599C37.5518 66.8667 39.3901 68.705 41.6578 68.705C43.9255 68.705 45.7638 66.8667 45.7638 64.599V35.4009C45.7638 33.1332 43.9255 31.2949 41.6578 31.2949C39.3901 31.2949 37.5518 33.1332 37.5518 35.4009V64.599Z" fill="white"/>
</svg>
