<svg width="200" height="270" viewBox="0 0 200 277" fill="none" xmlns="http://www.w3.org/2000/svg">
<path fill-rule="evenodd" clip-rule="evenodd" d="M99.8837 99.1905C96.5979 98.3479 92.8207 98.446 89.4495 98.6614C86.026 98.8804 82.3524 99.256 79.14 100.44C76.3473 101.47 73.9923 103.201 72.5573 105.682C71.3776 107.721 70.8243 109.957 70.4776 112.229C70.3358 113.159 70.2171 114.091 70.1041 115.023L69.872 116.964C69.7811 117.706 69.7018 118.262 69.5424 119.09C69.1016 121.38 68.4877 123.293 67.117 124.959C63.7977 128.992 58.3776 130.342 53.4488 132.064C50.2947 133.165 47.7972 135.147 47.1043 138.331C46.4357 141.403 21.0169 167.173 18.5215 169.345L18.4529 169.404C16.5172 171.018 16.7451 174.054 16.4742 176.269C16.184 178.645 15.9077 181.023 15.6454 183.401C15.1128 188.233 14.6383 193.071 14.2219 197.912C12.5939 216.847 11.8553 235.848 12.0123 254.842L12.0221 255.917C12.0463 258.328 12.027 260.749 12.1436 263.157C12.2559 265.471 13.0119 267.788 15.3268 268.997C17.4714 270.117 20.1834 270.018 22.5802 270.13L22.7236 270.137C25.2955 270.268 27.8683 270.374 30.4424 270.463C40.9035 270.821 51.3742 270.86 61.8414 270.816C82.6067 270.727 103.393 270.304 124.139 271.381C129.427 271.656 146.286 269.987 151.558 270.463C156.596 270.917 152.273 273.206 155.386 273.055C165.622 272.559 175.332 270.443 185.14 267.894C186.365 267.576 187.302 266.475 187.287 265.284C187.105 252.206 186.706 239.131 186.083 226.064C185.529 214.425 184.798 202.793 183.891 191.172C183.497 186.121 183.069 181.072 182.609 176.026L182.409 173.863C182.149 171.075 181.999 168.235 181.407 165.485C180.822 162.765 179.494 160.406 177.567 158.299C175.839 156.408 156.271 141.607 151.558 138.805C147.047 136.122 142.31 133.859 137.679 131.374C135.752 130.339 133.902 130.711 132.256 129.442C131.388 128.773 118.797 124.263 115.4 122.775L115.3 122.731C112.7 121.576 110.307 120.323 108.511 118.324C107.908 117.654 106.727 113.434 106.725 112.086C106.721 109.677 106.918 107.14 106.134 104.807C105.196 102.016 102.935 99.9729 99.8837 99.1905ZM94.3128 161.297L114.432 197.595H101.349L110.727 217.763H90.1332L97.4385 246.012L55.6615 197.595H71.3384L55.6615 178.532H66.5347L55.6615 162.389L94.3128 161.297Z" fill="#D08B5B"/>
<path fill-rule="evenodd" clip-rule="evenodd" d="M47.8441 159.169L55.6614 241.643L120.773 243.138V155.125L47.8441 159.169Z" fill="#EA3636"/>
<path fill-rule="evenodd" clip-rule="evenodd" d="M26.7292 181.709C26.7756 181.752 26.8245 181.795 26.871 181.84C26.8172 181.77 26.7707 181.698 26.7292 181.625V181.709ZM65.8288 171.135C67.6357 173.274 69.5477 177.625 71.3032 179.802C71.555 180.114 71.8019 180.427 72.0464 180.742C72.7751 181.686 71.8019 183.131 70.6039 183.07C68.2103 182.952 65.8191 182.787 63.4279 182.62C68.3398 187.691 72.4181 193.99 76.9291 199.363C77.2347 199.723 77.5354 200.086 77.8362 200.448C78.978 201.828 77.8337 202.453 76.2738 202.081C75.9511 202.004 75.6284 201.927 75.3056 201.853C73.0367 201.314 70.7702 200.774 68.5012 200.238C67.2469 199.938 65.9853 199.569 64.7139 199.341C64.1907 199.248 63.6895 199.325 63.1956 199.35C63.4328 199.685 63.7653 200.29 63.8313 200.382C64.5721 201.452 65.3178 202.516 66.0684 203.576C67.5306 205.638 69 207.696 70.5232 209.719C76.4645 217.606 82.8729 225.136 89.2249 232.735C90.824 234.647 92.445 236.538 94.0929 238.411C94.0856 238.4 94.0807 238.389 94.0733 238.377C92.5892 235.7 91.1051 233.025 89.621 230.347C86.7995 225.26 84.0049 220.159 81.154 215.085C81.0073 214.82 80.8582 214.558 80.709 214.293C80.1173 213.241 81.088 212.15 82.3032 212.372C88.2313 213.454 94.1019 214.783 99.8997 216.358C100.161 216.615 100.544 216.691 100.887 216.628C101.12 216.693 101.354 216.755 101.587 216.82C101.516 216.685 101.443 216.55 101.372 216.415C101.609 216.225 101.727 215.929 101.573 215.561C98.2364 207.586 93.6623 199.887 88.2428 192.836C88.4609 192.84 88.6785 192.843 88.8973 192.849C94.846 192.998 100.682 193.789 106.416 195.29C106.443 194.799 106.122 194.038 105.949 193.676C105.254 192.228 104.457 190.815 103.711 189.39C102.186 186.463 100.66 183.539 99.1345 180.613C97.643 177.754 96.1638 174.887 94.7604 171.987C94.0244 170.467 93.2885 168.945 92.555 167.423C91.956 166.184 91.4841 164.936 90.9878 163.668C89.5306 164.064 70.8191 164.15 66.2714 164.442C65.1565 164.515 64.0391 164.58 62.9218 164.637C62.0318 164.685 60.7775 164.866 60.1638 164.121L59.9315 164.302C61.9511 166.539 63.8875 168.839 65.8288 171.135V171.135ZM138.883 129.556C138.79 129.518 138.7 129.479 138.609 129.441C138.563 129.502 138.506 129.558 138.448 129.615C138.301 129.753 138.157 129.903 138.005 130.039C138.299 129.88 138.592 129.719 138.883 129.556V129.556ZM8.11546 256.854C8.28416 253.553 8.47244 250.253 8.67293 246.953C9.06901 240.502 9.47732 234.051 10.0225 227.609C11.1301 214.555 12.1619 201.506 13.8221 188.499C14.5189 183.047 15.492 177.636 16.4675 172.222C16.3429 172.118 16.2157 172.014 16.091 171.912C16.2255 173.393 14.0543 174.331 12.9785 172.854C12.8979 172.744 12.8196 172.633 12.7414 172.517C11.8098 171.122 9.66314 164.276 9.81228 163.697C10.0812 162.652 10.8294 161.724 11.4137 160.804C11.9247 160 12.4406 159.196 12.9639 158.399C14.0079 156.802 15.0837 155.221 16.2108 153.673C18.5458 150.471 21.0984 147.395 24.1057 144.706C27.2182 141.92 30.7903 139.63 34.4798 137.553C36.2524 136.556 38.0812 135.653 39.9443 134.81C41.7829 133.981 43.7952 133.063 45.7756 132.592C45.8881 132.565 46.003 132.71 45.9003 132.787C45.3746 133.172 44.8245 133.534 44.2646 133.883C45.7805 133.397 47.3428 133.045 48.9174 132.921C51.9663 131.928 55.0519 131.02 58.0861 129.985C61.069 128.966 64.0079 127.82 65.9908 125.405C67.6851 123.341 68.756 120.816 69.58 118.356C70.4847 115.645 70.8441 112.827 71.6803 110.111C71.7463 109.891 72.135 109.866 72.1864 110.111C72.7829 112.961 72.756 116.164 72.4162 119.04C72.0592 122.057 71.1424 125.018 69.1472 127.471C66.8294 130.323 63.6851 131.91 60.1472 133.177C57.2939 134.201 54.404 135.242 51.4822 136.157C51.8636 136.389 52.2499 136.62 52.6485 136.839C54.2328 137.712 55.8807 138.486 57.5653 139.182C60.6411 140.452 63.8807 141.404 67.1399 142.176C73.2059 143.607 79.426 144.335 85.6803 144.43C98.1937 144.622 110.847 142.194 122.291 137.505C125.514 136.185 128.661 134.733 131.776 133.209C132.749 132.733 133.727 132.252 134.7 131.759C134.619 131.754 134.536 131.748 134.455 131.74C132.282 131.55 130.135 131.163 128.032 130.615C123.727 129.489 119.6 127.734 115.546 126.005C112.108 124.54 108.568 122.87 106.468 119.817C105.345 118.184 104.829 116.268 104.411 114.392C103.944 112.304 103.394 110.206 103.054 108.098C102.935 107.359 103.113 106.36 103.969 106.011C104.311 105.873 104.592 105.76 104.976 105.76C105.825 105.76 106.695 106.331 106.898 107.115C107.399 109.069 107.702 111.078 108.096 113.053C108.436 114.761 108.746 116.544 109.741 118.046C111.48 120.676 114.888 122.021 117.768 123.301C121.419 124.923 125.071 126.504 128.864 127.82C130.534 128.399 132.233 128.925 133.957 129.355C133.888 128.964 133.947 128.551 134.196 128.241C134.612 127.729 135.084 127.389 135.619 126.998C136.201 126.572 136.983 126.35 137.67 126.538C137.67 126.54 137.673 126.538 137.673 126.538C137.952 126.481 138.26 126.504 138.578 126.637C139.56 127.054 140.541 127.475 141.521 127.904C155.626 134.051 169.331 141.272 179.71 152.269C181.206 153.855 182.607 155.522 183.92 157.241C185.196 158.911 186.776 160.723 187.128 162.793C187.157 162.965 186.886 163.044 186.839 162.868C186.756 162.548 186.644 162.236 186.504 161.932C186.795 162.875 186.778 163.876 186.367 164.861C185.881 166.021 184.988 166.789 183.861 167.094C184.993 171.69 185.754 176.347 186.365 181.056C187.243 187.84 187.866 194.64 188.336 201.458C189.274 215.065 189.692 228.739 189.389 242.371C189.304 246.223 189.162 250.076 188.947 253.927C188.839 255.852 188.722 257.775 188.587 259.701C188.455 261.595 188.563 263.681 186.78 264.68C186.758 264.754 186.734 264.827 186.712 264.901C186.279 266.299 184.35 265.851 184.169 264.582C184.167 264.569 184.164 264.553 184.162 264.539C182.705 263.509 182.925 261.792 183.032 260.145C183.147 258.367 183.269 256.591 183.372 254.815C183.568 251.408 183.734 248.002 183.883 244.592C184.174 237.852 184.338 231.102 184.392 224.356C184.499 210.863 183.658 197.39 182.661 183.935C182.243 178.306 181.754 172.703 181.604 167.076C180.824 166.7 180.585 165.631 180.976 164.911C171.739 170.75 163.167 177.731 156.284 185.845C155.135 187.199 154.037 188.595 152.986 190.015C152.644 190.477 152.318 190.957 151.991 191.437C152.309 192.776 152.556 194.137 152.878 195.422C153.543 198.074 153.824 200.826 154.206 203.522C154.981 208.997 155.526 214.521 155.988 220.025C156.898 230.895 157.573 241.764 157.785 252.665C157.903 258.831 158.059 265.035 157.766 271.199C157.983 272.403 156.812 273.581 155.587 273.733C154.514 273.867 153.512 273.35 153.042 272.519C149.697 272.904 146.265 273.081 142.942 273.103C138.465 273.133 133.988 273.128 129.512 273.04C120.556 272.859 111.602 272.646 102.648 272.399C84.7414 271.91 66.8343 271.418 48.9248 270.927C43.959 270.791 38.9932 270.655 34.0274 270.519C31.7878 270.458 28.9957 271.056 27.2304 269.454C26.9272 269.178 26.6925 268.854 26.5262 268.507C25.9981 268.63 25.3502 268.51 25.003 268.131C24.3551 267.422 23.8783 266.766 23.9027 265.783C23.9248 264.863 24.1986 263.894 24.3404 262.983C24.6094 261.273 24.8685 259.563 25.1155 257.85C25.602 254.466 26.0568 251.078 26.4749 247.687C27.3306 240.753 28.1081 233.804 28.7145 226.848C29.9174 213.092 30.2573 199.263 30.2157 185.464C30.2108 184.23 30.2035 182.995 30.1961 181.761C30.1399 181.827 30.0788 181.888 30.0128 181.94C29.959 181.983 29.9052 182.026 29.8514 182.071C29.2255 182.581 28.1839 182.844 27.4333 182.361C26.5115 181.808 25.8759 180.979 25.157 180.23C24.4015 179.444 23.624 178.678 22.8392 177.917C21.3184 176.445 19.7463 175.033 18.1424 173.638C18.0128 173.527 17.8832 173.414 17.7536 173.305C17.7438 177.697 17.7487 182.087 17.6216 186.477C17.4309 192.998 17.0495 199.513 16.6998 206.025C16.0054 218.92 15.2866 231.81 14.5947 244.703C14.4015 248.303 14.2182 251.904 14.025 255.503C13.9272 257.304 13.8318 259.105 13.7389 260.906C13.69 261.88 13.6411 262.856 13.5922 263.83C13.5384 264.877 13.6094 265.995 13.2279 266.99C12.36 269.264 8.60935 269.586 7.88808 266.99C7.43576 265.361 7.78295 263.477 7.86363 261.805C7.94676 260.156 8.02989 258.505 8.11546 256.854V256.854Z" fill="black"/>
<path fill-rule="evenodd" clip-rule="evenodd" d="M48.0761 46.3412C56.1212 35.762 76.3381 34.5703 89.1152 34.6373C114.348 34.4422 119.632 61.3686 120.949 80.2369C123.641 80.6619 126.258 81.533 128.034 83.4966C130.197 85.8877 130.944 89.9918 128.916 92.666C127.569 94.4416 125.443 95.0351 123.219 95.1339C115.853 94.4813 114.342 100.577 110.715 105.148C101.405 116.823 85.2781 120.611 70.4865 120.669C65.4624 120.793 59.4101 121.143 56.1926 116.754C46.0303 100.401 45.8089 78.7125 45.1825 60.1804C45.0963 55.4359 45.1182 50.4133 48.0761 46.3412V46.3412Z" fill="#D08B5B"/>
<path fill-rule="evenodd" clip-rule="evenodd" d="M30.7127 55.5177C30.6107 55.6969 30.5353 55.8953 30.4936 56.1112C30.3611 56.7964 30.6331 57.3203 30.9901 57.829C30.9432 58.1837 30.9171 58.5276 30.8969 58.83C30.7832 60.5279 31.2023 62.8553 32.8148 63.5484C32.8399 63.5765 32.8656 63.6044 32.8922 63.6322C33.0166 63.8202 33.2064 63.9829 33.456 64.1016C33.518 64.1416 33.5807 64.1797 33.6441 64.2123C33.6686 64.2319 33.6957 64.2484 33.7216 64.2664C33.7259 64.2694 33.7302 64.2724 33.7344 64.2755C33.7212 64.2626 33.7082 64.2495 33.6952 64.2364C33.6751 64.216 33.6552 64.1954 33.6348 64.1752C34.5268 64.5054 35.3883 64.5736 36.3079 64.4733C36.8764 64.664 37.4461 64.8065 37.927 64.9168C39.4277 65.2608 41.363 65.5363 42.8257 64.9496C43.2519 64.7788 43.6055 64.5525 43.8711 64.2828C43.8492 65.3338 43.816 66.3846 43.767 67.4356C43.6669 70.0925 43.6718 72.7472 43.6938 75.4065C43.7182 78.3987 43.8084 81.3931 43.9817 84.3831C44.0622 85.8848 44.1915 87.3843 44.3647 88.8793C44.5111 90.3357 44.6819 91.7899 44.8795 93.2396C45.3455 96.2205 46.1141 99.224 47.051 102.105C47.4584 103.356 47.9049 104.622 48.4124 105.858C48.6271 106.427 48.854 106.989 49.1004 107.546C50.4009 110.466 52.0209 113.284 54.2094 115.716C55.405 117.044 56.7249 118.237 58.1986 119.241C59.3819 120.097 60.6628 120.822 62.0706 121.393C65.096 122.62 68.4727 122.897 71.7445 122.851C72.9926 122.836 74.3157 122.631 75.553 122.439L75.6287 122.428C76.5949 122.28 77.5732 122.083 78.5419 121.852C79.4007 121.667 80.2497 121.451 81.0866 121.2C82.0943 120.953 83.0604 120.598 83.9802 120.138L85.61 119.569C86.2908 119.331 86.952 119.048 87.5936 118.724L89.3649 117.956C90.0993 117.628 90.8142 117.268 91.512 116.871C91.5852 116.835 91.6681 116.774 91.6999 116.706C91.7753 116.667 91.8511 116.629 91.927 116.591C92.0328 116.538 92.1388 116.485 92.2439 116.43C92.2732 116.416 92.2513 116.337 92.2122 116.26C92.2439 116.199 92.2391 116.131 92.1512 116.07C92.0854 116.022 91.9804 116.036 91.8706 116.067C91.8804 116.061 91.8877 116.054 91.8951 116.047C92.017 115.986 92.1366 115.927 92.2561 115.866C92.3781 115.805 92.3977 115.646 92.283 115.562C92.2513 115.54 92.2147 115.528 92.1781 115.526C92.1805 115.526 92.1829 115.524 92.1854 115.524C92.2073 115.51 92.1903 115.447 92.1586 115.376C92.2195 115.304 92.2391 115.216 92.1317 115.139C91.9846 115.031 91.6547 115.207 91.5006 115.289C91.4887 115.295 91.4778 115.301 91.4681 115.306C91.3724 115.356 91.2757 115.403 91.1793 115.451C91.1209 115.479 91.0625 115.508 91.0045 115.537C90.9948 115.517 90.9752 115.499 90.9435 115.481C91.1698 115.37 91.3937 115.257 91.6175 115.144L91.6193 115.143C91.7584 115.075 91.939 114.932 91.756 114.799C91.6096 114.69 91.2314 114.876 91.0509 114.971C91.0289 114.955 91.0045 114.948 90.9752 114.944C91.0067 114.927 91.0389 114.911 91.0713 114.895C91.1193 114.871 91.1677 114.847 91.2143 114.822C91.4339 114.708 91.2851 114.355 91.0582 114.473C91.0313 114.489 91.0045 114.502 90.9777 114.518C90.8223 114.505 90.6075 114.617 90.4965 114.675L90.4799 114.683C89.7163 115.13 88.9209 115.519 88.0962 115.854C87.54 116.099 86.9812 116.341 86.4201 116.577C85.8687 116.831 85.3002 117.05 84.7171 117.236C83.2507 117.766 81.7698 118.26 80.2741 118.717C78.1783 119.25 76.0093 119.678 73.833 119.846C73.55 119.866 73.267 119.884 72.9839 119.893C72.6745 119.891 72.365 119.889 72.0558 119.887C71.7459 119.886 71.4362 119.884 71.1272 119.882C70.032 119.777 68.9368 119.673 67.8434 119.57L67.5211 119.54C67.1015 119.485 66.6916 119.417 66.2866 119.338C66.0743 119.291 65.8621 119.241 65.6522 119.184C65.5986 119.177 65.5451 119.168 65.4915 119.16C65.4719 119.156 65.4523 119.153 65.4327 119.15C64.9178 119.023 64.4128 118.872 63.9078 118.695C63.5906 118.575 63.2758 118.448 62.9635 118.314C61.9315 117.868 60.9165 117.279 59.9601 116.604C59.3621 116.051 58.764 115.499 58.166 114.946C57.5661 114.392 56.9662 113.838 56.3662 113.284L55.2708 111.897C53.8557 110.019 52.7358 107.927 51.8062 105.791L50.3277 101.836C50.174 101.36 50.0276 100.884 49.8885 100.406C49.6079 99.3373 49.3273 98.2681 49.0468 97.2013C48.954 96.8094 48.8638 96.4198 48.7759 96.0302C48.2367 93.6043 47.9391 91.1421 47.6829 88.68C47.2144 84.1996 47.0876 79.7056 47.0534 75.2071C47.0315 72.5184 47.0559 69.8298 47.1144 67.1434C47.1486 65.585 47.173 64.0266 47.1974 62.4682C47.2291 60.8147 47.2632 59.1589 47.3096 57.5053C47.312 57.4691 47.2974 57.4374 47.2779 57.4102C47.2828 57.2154 47.2852 57.0206 47.2876 56.8236C47.2901 56.6944 47.2364 56.6378 47.1583 56.6265C47.173 55.4464 47.1827 54.2685 47.1852 53.0907C47.1852 53.0136 47.1461 52.9638 47.0949 52.9344V52.6354C47.3072 51.8154 47.5951 51.0113 47.9684 50.2457C48.0952 49.9693 48.2367 49.6998 48.3929 49.437C48.5856 49.0429 48.8369 48.685 49.1444 48.3566C49.4005 47.9557 49.7153 47.6001 50.0813 47.2829C50.1558 47.233 50.2309 47.1832 50.306 47.1333C50.3809 47.0835 50.4558 47.0337 50.5302 46.9839C50.6546 46.9228 50.8376 46.8163 50.9986 46.694C51.1437 46.6114 51.2882 46.5282 51.4327 46.445C51.5773 46.3617 51.722 46.2784 51.8672 46.1957C52.0355 46.1141 51.9258 45.9103 51.8062 45.8559V45.8491C51.833 45.8378 51.8623 45.8242 51.894 45.7993C52.2454 45.4912 52.6114 45.2013 52.992 44.9295C53.0603 44.9544 53.1408 44.9454 53.2018 44.8978C53.4263 44.703 53.6556 44.515 53.8898 44.3338C54.4144 44.0144 54.9633 43.7222 55.5367 43.464C56.4565 43.0608 57.3983 42.7142 58.3645 42.4198C58.5522 42.3624 58.7412 42.3106 58.9294 42.2589L58.9913 42.242C59.1051 42.2369 59.2188 42.2316 59.3325 42.2263C59.5157 42.2178 59.6988 42.2093 59.882 42.2019C70.9376 41.7516 82.0223 41.9407 93.0527 42.7668C95.7702 42.9704 98.4843 43.213 101.194 43.4941C101.705 43.5471 102.237 43.5884 102.78 43.6305C104.772 43.7849 106.905 43.9503 108.627 44.7469C108.72 44.79 108.808 44.8355 108.895 44.8824C108.746 45.766 108.39 46.6315 108.043 47.4723C107.991 47.6001 107.938 47.7273 107.887 47.854C107.286 49.3344 106.747 50.8435 106.801 52.4467C106.838 53.5647 107.097 54.6398 107.47 55.6903C107.661 57.1882 108.164 58.635 108.698 60.0563C111.325 67.0496 112.755 74.2096 112.608 81.633C112.604 81.8319 112.653 82.0054 112.738 82.1531L112.734 82.1823C112.687 82.4971 112.64 82.8122 112.586 83.1262C112.366 84.3772 114.143 84.9994 114.756 84.1701C114.798 84.208 114.855 84.234 114.908 84.2381C115.064 84.2517 115.32 84.0138 115.393 83.9051C115.488 83.742 115.588 83.5835 115.696 83.4317C115.71 83.4249 115.722 83.4204 115.735 83.4159C115.703 83.4776 115.67 83.54 115.637 83.6018C115.603 83.6669 115.57 83.7314 115.537 83.7941C115.43 83.9935 115.842 84.0909 115.964 83.9074C116.074 83.7466 116.184 83.5925 116.293 83.4453C116.357 83.4883 116.428 83.4997 116.474 83.4294C116.867 82.8269 117.321 82.3105 117.818 81.8711C118.601 81.2776 119.458 80.9174 120.431 80.7068C121.197 80.6049 121.983 80.6003 122.742 80.6819C123.613 80.777 124.53 80.9786 125.318 81.3478C125.959 81.7572 126.602 82.1665 127.245 82.5759L127.248 82.5778C127.407 82.7318 127.558 82.8926 127.7 83.0602C128.146 83.5971 128.505 84.1701 128.8 84.7794C128.812 84.818 128.824 84.8565 128.837 84.8927C129.017 85.4046 129.134 85.9301 129.185 86.4692C129.189 86.8101 129.192 87.1505 129.195 87.4908C129.198 87.8311 129.201 88.1714 129.205 88.5123C129.107 89.398 128.863 90.2587 128.49 91.0764C128.314 91.5589 128.039 91.9893 127.665 92.3698C127.465 92.6915 127.238 92.9837 126.985 93.2555C126.47 93.5726 125.909 93.8421 125.311 94.055C125.165 94.0913 125.018 94.1275 124.869 94.1547C124.101 94.4288 123.305 94.576 122.483 94.5964C121.444 94.6621 120.426 94.5783 119.431 94.345C118.816 94.243 118.221 94.0777 117.645 93.8489C117.094 93.5907 116.574 93.2804 116.088 92.918C116.035 92.8863 115.954 92.9044 115.866 92.9451C115.848 92.9325 115.829 92.9199 115.81 92.9073C115.722 92.8478 115.633 92.7886 115.547 92.7232C115.498 92.6915 115.454 92.73 115.432 92.7707L115.403 92.7503C115.21 92.628 114.681 93.0108 114.92 93.2373C114.817 93.2962 114.715 93.3664 114.622 93.4389C114.198 93.4548 113.341 94.1796 113.502 94.2929C113.741 94.4854 113.993 94.6621 114.249 94.8297C114.022 94.986 113.724 95.2284 113.863 95.3258C114.112 95.5455 114.383 95.7357 114.671 95.8988C114.866 96.037 115.066 96.1684 115.276 96.2884C115.503 96.413 115.735 96.5195 115.974 96.6191C115.557 97.3689 115.159 98.1254 114.788 98.8956C114.542 99.4415 114.256 99.9692 113.927 100.477C113.507 101.249 113.004 101.974 112.416 102.649C111.938 103.396 111.377 104.083 110.735 104.71C109.942 105.548 109.091 106.336 108.186 107.066C107.825 107.304 107.456 107.535 107.073 107.748C106.095 108.432 105.053 109.018 103.948 109.508C103.818 109.573 103.716 109.718 103.867 109.831C103.87 109.833 103.872 109.833 103.874 109.834C103.877 109.835 103.879 109.836 103.882 109.838C103.521 110.029 103.157 110.217 102.791 110.402L102.779 110.408C102.632 110.483 102.358 110.62 102.572 110.781C102.713 110.889 103.15 110.694 103.411 110.568C103.374 110.586 103.335 110.606 103.296 110.627C103.293 110.628 103.288 110.631 103.283 110.633C103.175 110.687 102.765 110.891 103.038 111.023C103.182 111.046 103.318 111.023 103.45 110.957C103.587 110.91 103.723 110.858 103.858 110.803C103.853 110.844 103.877 110.882 103.948 110.914C104.004 110.923 104.058 110.923 104.111 110.919C103.814 111.075 103.516 111.229 103.216 111.381C103.128 111.424 102.713 111.637 102.987 111.768C103.121 111.793 103.25 111.773 103.374 111.709C103.601 111.63 103.826 111.537 104.043 111.435C104.069 111.422 104.094 111.409 104.12 111.396C104.145 111.383 104.171 111.369 104.197 111.356C104.236 111.356 104.275 111.351 104.314 111.345C104.075 111.465 103.833 111.58 103.589 111.693C103.445 111.766 103.204 111.913 103.411 112.063C103.555 112.165 103.943 111.981 104.172 111.861C104.183 111.872 104.195 111.885 104.21 111.898C104.215 111.903 104.222 111.908 104.228 111.913C104.378 112.018 104.734 111.828 104.913 111.732C104.938 111.718 104.96 111.707 104.977 111.698C106.188 111.095 107.356 110.473 108.481 109.759C109.169 109.349 109.84 108.919 110.496 108.45C111.753 107.548 112.895 106.5 113.941 105.394C114.656 104.638 115.044 104.212 115.737 103.294C116.85 101.818 117.689 100.277 118.497 98.6441C118.509 98.6192 118.484 98.5558 118.448 98.4924C118.614 98.1141 118.775 97.7313 118.936 97.3349C119.355 97.387 119.777 97.4232 120.195 97.4459C121.178 97.498 122.132 97.4165 123.057 97.2285C124.176 97.0948 125.284 96.8004 126.265 96.3383C126.853 96.0642 127.419 95.772 127.956 95.4458C128.436 95.208 128.9 94.9362 129.344 94.619C131.235 93.2781 132.262 91.1965 132.513 89.0356C132.706 88.0842 132.748 87.1057 132.633 86.1612C132.55 85.4748 132.384 84.7953 132.142 84.1407C131.696 82.6888 130.864 81.3456 129.659 80.3285C129.456 80.136 129.244 79.9525 129.017 79.7804C128.346 79.2707 127.585 78.8607 126.775 78.5617C126.619 78.4915 126.46 78.4258 126.302 78.3647L126.494 77.9524C126.563 77.9706 126.799 77.9343 126.829 77.8573C126.876 77.7363 126.923 77.6137 126.968 77.4914C126.997 77.4145 127.026 77.3377 127.055 77.2616C127.099 77.2865 127.155 77.3001 127.216 77.3023V77.5311C127.214 77.5968 127.348 78.0045 127.421 77.7916C127.468 77.6726 127.511 77.5518 127.555 77.4309C127.582 77.354 127.61 77.277 127.639 77.2004C127.7 77.1642 127.746 77.1211 127.763 77.0713C127.77 77.0509 127.778 77.0305 127.787 77.0101C127.79 77.009 127.793 77.0085 127.796 77.0079C127.799 77.0073 127.802 77.0067 127.804 77.0056V77.0758C127.802 77.1189 127.924 77.445 127.946 77.3816C128.368 76.3034 128.712 75.2026 128.98 74.0836C129.163 73.4675 129.307 72.8446 129.417 72.2127C129.537 71.6441 129.642 71.0733 129.732 70.498L129.754 70.3553C129.755 70.3496 129.756 70.3445 129.758 70.3394C129.759 70.3343 129.76 70.3292 129.761 70.3236L129.763 70.3069C129.77 70.2509 129.777 70.1934 129.786 70.1378C129.883 69.4877 129.964 68.8354 130.025 68.1785C130.154 66.8285 130.205 65.4717 130.191 64.1172C130.21 64.1243 130.229 64.1331 130.248 64.1421C130.26 64.1474 130.271 64.1529 130.283 64.158C130.917 64.4085 131.587 64.6132 132.268 64.7763C133.441 66.3492 135.312 67.4136 137.555 67.5255C138.315 67.5635 139.111 67.4777 139.848 67.2786C139.925 67.2949 140.004 67.308 140.086 67.318C140.471 67.3647 140.781 67.2882 141.102 67.2089C141.282 67.1646 141.465 67.1193 141.667 67.0944C141.74 67.0855 141.812 67.0769 141.883 67.0684C142.689 66.9723 143.376 66.8903 143.911 66.4446C144.091 66.4484 144.263 66.4242 144.426 66.3789C145.97 66.7225 147.61 65.965 148.153 64.3777C149.079 63.8739 149.817 63.1266 150.313 62.2596C151.268 61.1225 152.032 59.7283 152.506 58.2635C152.509 58.258 152.512 58.2525 152.515 58.2471C152.519 58.2388 152.524 58.2306 152.528 58.222C152.769 57.7382 152.883 57.2193 152.893 56.6987C153.148 55.216 153.081 53.7315 152.595 52.4265C152.615 51.7191 152.436 50.9818 152.108 50.313C151.711 49.5018 151.105 48.5693 150.318 48.0284C150.317 47.1971 149.932 46.282 149.427 45.6618C148.421 44.423 146.962 43.7682 145.382 43.6735C144.579 41.762 142.145 41.3155 140.046 41.9518C139.174 41.1246 137.897 40.7295 136.622 40.8702C135.544 40.9891 134.623 41.4677 133.86 42.1273C133.659 42.1806 133.459 42.2361 133.258 42.2938C132.591 42.0218 131.812 41.9602 131.099 42.1307C129.864 42.4263 129.058 43.2952 128.5 44.2919C128.322 44.4056 128.149 44.5229 127.979 44.6455C127.793 44.7229 127.624 44.8264 127.47 44.9483C127.247 45.0586 127.058 45.24 126.943 45.5032C126.628 45.8045 126.335 46.1232 126.076 46.465C125.882 46.0485 125.682 45.6348 125.475 45.2242C125.139 45.3182 124.732 45.1965 124.563 44.7793L124.52 44.6731C123.438 42.0069 121.511 37.26 119.694 35.0568C121.843 36.4152 124.467 37.1312 127.073 37.0592C127.185 37.056 127.297 37.0517 127.41 37.046C128.811 37.2703 130.235 37.2911 131.541 37.0478C132.421 36.7513 133.278 36.398 134.109 35.9982C134.311 35.9008 134.511 35.7984 134.711 35.6951C134.773 35.6462 134.833 35.5932 134.892 35.5402C134.915 35.5194 134.938 35.4985 134.962 35.4779C135.134 35.4895 135.314 35.477 135.505 35.4299C136.224 35.2534 136.889 34.8092 137.306 34.2384C137.384 34.1322 137.446 34.0228 137.502 33.9125C137.955 33.5016 138.347 33.0361 138.635 32.4918C138.974 31.8553 139.181 31.1395 139.203 30.4238C139.345 29.7216 139.335 28.999 139.072 28.3286C139.053 28.2829 139.033 28.2381 139.012 28.1931C139 28.1667 138.988 28.1402 138.976 28.1134C138.97 28.0948 138.965 28.0759 138.96 28.0569C138.953 28.0295 138.945 28.002 138.935 27.9752C138.858 27.7362 138.76 27.5233 138.641 27.3217C138.597 27.1145 138.524 26.909 138.422 26.709C138.411 26.6123 138.397 26.5156 138.38 26.4193C139.155 25.0614 138.881 23.2855 137.72 22.1817C137.88 21.4682 137.717 20.7117 137.249 20.0786C136.906 19.6133 136.428 19.2462 135.887 18.9914C135.831 18.9648 135.682 18.9193 135.503 18.867C135.303 18.7028 135.092 18.5474 134.861 18.4106C134.806 17.0832 133.379 16.3176 132.143 15.6547C132.083 15.6226 132.024 15.5909 131.966 15.5593C131.563 15.3424 131.271 15.0307 130.979 14.7189C130.672 14.3914 130.365 14.0638 129.93 13.8455C129.169 13.4639 128.233 13.3761 127.355 13.2938C127.161 13.2756 126.97 13.2576 126.784 13.2369C124.362 12.966 121.782 12.7567 119.348 13.0015C117.997 13.1374 116.878 13.7433 116.415 14.7359C115.252 14.8634 114.216 15.6422 113.396 16.4431C112.373 17.4427 111.502 18.5068 111.201 19.8204C111.001 19.9207 110.82 20.0435 110.655 20.1821C110.661 21.1058 110.791 22.0311 111.066 22.903C110.985 23.4242 111.154 23.9218 111.44 24.373C111.397 24.8002 111.428 25.2208 111.524 25.6401C110.968 26.5563 111.489 27.941 112.268 28.8495L112.274 29.3619C112.227 29.3395 112.182 29.313 112.14 29.2797C109.899 27.5089 107.617 27.0208 105.153 26.4936C103.731 26.1891 102.247 25.8716 100.674 25.2865C96.8003 24.5923 92.8463 24.1504 88.8782 24.0033C88.9005 24.0003 88.9229 23.9975 88.9452 23.9948C88.9753 23.9912 89.0054 23.9875 89.0353 23.983C91.035 23.679 92.9556 22.9154 94.6074 21.8184C95.0446 21.7156 95.4592 21.5323 95.8302 21.2259C96.1909 20.9282 96.4405 20.5849 96.5839 20.2165C96.6493 20.1515 96.714 20.0861 96.7776 20.0195C98.0176 19.7368 98.9618 18.7408 98.8037 17.4316C99.5888 16.5688 99.8777 15.5035 99.612 14.3943C100.051 13.7064 100.089 12.8391 99.7615 12.1127C100.451 11.3353 100.505 10.2317 99.9641 9.35221C100.458 8.70099 100.567 7.83799 99.9577 7.06672C99.6703 6.70249 99.2721 6.47281 98.8383 6.36182C98.7158 5.94209 98.4667 5.55227 98.0754 5.25124C97.8741 5.09653 97.6633 4.98169 97.4479 4.89607C97.3669 4.46276 97.1031 4.05187 96.5956 3.72864C96.3653 3.58208 96.1296 3.4874 95.8954 3.43485C95.6736 2.9252 95.2867 2.4783 94.7423 2.18814C94.085 1.83818 93.3206 1.79175 92.6241 1.97522C91.7145 0.699061 89.7187 0.204363 88.3351 1.15095C87.183 0.489086 85.7337 0.628617 84.6983 1.43341C83.4462 0.746402 81.8913 1.02365 80.9092 1.98156C79.3358 1.18334 77.259 1.77295 76.4165 3.28536C74.8287 3.12182 73.3323 4.08675 72.909 5.48341C72.8403 5.53517 72.7724 5.58844 72.7045 5.64167L72.6863 5.65601C71.735 5.69837 70.831 6.04448 70.2979 6.8658C70.0315 7.27601 69.9085 7.75803 69.9266 8.2303C69.3579 8.5157 68.8984 8.9839 68.7015 9.59072C68.5171 10.1597 68.5866 10.7226 68.8291 11.213C68.0372 11.9951 67.8278 13.2142 68.389 14.1966C68.1567 14.5662 68.036 15.0032 68.055 15.4573C68.083 16.1298 68.419 16.6719 68.876 17.1346C68.3014 18.0973 68.5254 19.3322 69.4594 20.0072C69.9959 21.7731 71.3539 22.948 73.4346 23.6688C74.4795 24.0308 75.5728 24.3096 76.6871 24.5144C72.2283 25.0713 67.8417 26.0503 63.6282 27.5099C63.3988 27.5895 63.2044 27.5584 63.0558 27.4658C63.0153 27.4857 62.9745 27.5049 62.9336 27.5242C62.8816 27.5487 62.8295 27.5732 62.7781 27.5992C61.6168 28.1904 60.4798 28.8314 59.3721 29.5177C59.3721 29.4045 59.3697 29.2912 59.3648 29.1757C59.3863 28.2436 59.2806 27.3256 59.014 26.4406C59.3628 25.9991 59.6239 25.4958 59.7659 24.9771C60.1204 23.6828 59.446 21.8411 58.2347 21.3989C57.8101 20.3058 56.8447 19.5148 55.6614 19.2036C55.5675 19.125 55.4677 19.0487 55.3562 18.9778C55.1071 18.8188 54.8345 18.7103 54.5544 18.6473C54.4088 18.055 54.0528 17.5097 53.4624 17.1272C52.6292 16.5869 51.6437 16.5283 50.7781 16.823C50.6134 16.7716 50.4462 16.7269 50.2777 16.6882C48.884 15.5869 46.7118 15.668 45.4856 16.9566C44.6438 16.5994 43.6518 16.5835 42.7901 17.0642C42.1006 17.4488 41.6714 18.069 41.5035 18.7497C40.1982 18.7868 39.0042 19.5909 38.6277 20.791C37.4249 20.9174 36.4409 21.7912 36.232 22.8912C35.4647 22.9904 34.7559 23.3252 34.3248 23.9909C34.1255 24.2987 34.0174 24.6355 33.9893 24.9728C33.6014 25.1456 33.2535 25.4073 32.9907 25.7491C32.5306 26.348 32.4418 27.0472 32.6108 27.7052C32.595 27.735 32.5786 27.7645 32.5621 27.7941C32.5384 27.8368 32.5146 27.8795 32.4925 27.9231C32.3674 28.1705 32.2668 28.4357 32.1773 28.705C31.7728 29.2466 31.5859 29.9087 31.623 30.5737C31.5371 30.8551 31.4539 31.1371 31.3848 31.4204C31.1116 32.5326 31.0091 33.7172 31.197 34.8498C31.2897 35.3979 31.4239 35.937 31.6142 36.4603C31.6337 36.5599 31.6654 36.6528 31.702 36.7411C31.8069 37.1534 31.9411 37.5588 32.1119 37.9552C32.5218 38.4604 32.9512 38.9519 33.4026 39.4276C33.7832 39.9576 34.2175 40.4469 34.7079 40.8953C35.0617 41.2193 35.4496 41.5205 35.8619 41.7923C36.6805 42.4014 37.5964 42.8764 38.5735 43.1854C38.748 43.1514 38.9234 43.1249 39.0991 43.0988C40.2087 43.666 41.9547 43.7301 43.0223 43.7263C44.1988 43.7222 45.2762 43.4463 46.1722 42.9251C46.0682 43.117 45.9645 43.309 45.8608 43.5016C45.8678 43.5053 45.8749 43.5089 45.882 43.5126C45.9013 43.5224 45.9206 43.5322 45.937 43.5439C46.1307 43.2461 46.3468 42.9815 46.6016 42.7912C46.9492 42.531 47.5099 42.5076 47.751 42.9287C47.7552 42.9358 47.7593 42.9431 47.7633 42.9504L47.7636 42.9509C47.8922 43.1754 47.8742 43.3908 47.7761 43.5666C47.7479 43.6042 47.7198 43.6421 47.6917 43.6799L47.669 43.7106C47.6654 43.7145 47.6619 43.7184 47.6583 43.7223C47.6493 43.7323 47.6402 43.7423 47.6302 43.7514L47.6365 43.7521C47.3035 44.001 46.9756 44.6108 46.6647 45.2036C46.4544 45.5499 46.2544 45.9012 46.0667 46.2587C45.9572 46.4086 45.7627 46.5402 45.5559 46.5785C45.5964 46.8639 45.4548 47.159 45.2226 47.3054C45.1616 47.1912 45.0874 47.0743 44.992 46.9538C43.9434 45.6315 41.8832 45.0609 40.3317 45.6652C40.0223 45.6167 39.7115 45.5766 39.3977 45.5538C38.3735 45.491 37.3353 45.5658 36.3238 45.7626C36.0098 45.9375 35.7097 46.1343 35.4301 46.3588C35.1934 46.549 34.9738 46.7484 34.7689 46.9545C34.6103 47.0648 34.4544 47.1817 34.3014 47.3035C33.6812 47.6132 33.2257 48.2071 32.8431 48.7983C32.5396 49.1967 32.2744 49.6201 32.0448 50.0686C30.981 51.7583 29.7536 53.8563 30.7127 55.5177ZM116.027 88.1727C115.636 88.5918 115.331 89.0584 115.112 89.5726C115.024 89.7379 115.131 89.8376 115.312 89.8082C115.392 89.7968 115.502 89.7425 115.614 89.67C115.597 89.7085 115.578 89.7425 115.561 89.781C115.466 89.9554 115.546 90.08 115.763 90.0143C115.775 90.0075 115.788 90.0007 115.797 89.9939C115.685 90.1796 115.583 90.3699 115.495 90.5692C115.4 90.7459 115.485 90.8682 115.7 90.8003C115.812 90.7414 115.919 90.6734 116.022 90.5987C116.009 90.6245 115.996 90.6501 115.984 90.6757C115.949 90.7445 115.915 90.8131 115.885 90.8841C115.788 91.063 115.9 91.1559 116.09 91.1151C116.254 91.0313 116.405 90.9316 116.546 90.8161C116.561 90.8057 116.574 90.7943 116.587 90.7832C116.594 90.7774 116.601 90.7717 116.607 90.7663C116.544 90.9135 116.663 91.0041 116.822 90.9747C117.047 90.9339 117.469 90.5828 117.571 90.3971C117.578 90.3857 117.583 90.3744 117.591 90.3631C117.71 90.2884 117.839 90.1842 117.937 90.0845C118.015 90.1887 118.166 90.2657 118.235 90.1389C118.44 89.6201 118.759 89.1762 119.196 88.8024C119.445 88.4649 119.747 88.1773 120.101 87.9394C120.291 87.7899 120.489 87.6472 120.692 87.5113C121.05 87.3596 121.424 87.2441 121.814 87.167C121.858 87.1542 121.903 87.1443 121.948 87.1344C121.983 87.1268 122.017 87.1192 122.051 87.1104L122.079 87.1055C122.243 87.0777 122.404 87.0503 122.568 87.0289C123.273 86.9383 123.981 86.9224 124.688 86.9813C124.815 86.9858 124.937 86.8952 124.991 86.791C125.149 86.7978 125.305 86.8046 125.464 86.8182C125.725 86.8273 125.669 86.4852 125.471 86.4513C125.222 86.4082 124.974 86.3765 124.73 86.3493C124.734 86.329 124.737 86.3063 124.732 86.2882C125.178 86.2678 125.623 86.2769 126.071 86.3199C126.267 86.329 126.035 85.9937 125.927 85.9756C125.902 85.9709 125.877 85.9674 125.851 85.9639C125.827 85.9606 125.803 85.9573 125.779 85.9529C125.784 85.9462 125.786 85.9416 125.788 85.9348H125.801C126.069 85.9462 126.252 85.5498 125.93 85.4954C125.891 85.4889 125.853 85.4834 125.815 85.4779C125.774 85.4721 125.734 85.4662 125.693 85.4592C125.708 85.4206 125.71 85.3867 125.696 85.355C125.835 85.3527 125.971 85.3527 126.11 85.3527C126.074 85.3505 126.042 85.279 126.009 85.2041C125.973 85.1236 125.935 85.0392 125.888 85.0333C125.853 85.0288 125.817 85.0243 125.781 85.0197C125.745 85.0152 125.709 85.0107 125.674 85.0061C125.669 84.9223 125.532 84.7275 125.474 84.7162C125.01 84.6437 124.556 84.5939 124.107 84.578C124.063 84.4829 124 84.356 123.939 84.356C123.429 84.3493 122.939 84.3538 122.451 84.4014C122.431 84.3878 122.412 84.381 122.395 84.3832C122.314 84.4014 122.241 84.4172 122.163 84.4353C121.892 84.4716 121.621 84.5237 121.345 84.5984C120.694 84.7774 120.043 85.0605 119.479 85.4116C118.947 85.7423 118.418 86.0866 117.954 86.4988C117.791 86.6279 117.637 86.7684 117.491 86.9134C117.254 87.0946 117.025 87.2803 116.805 87.4638C116.537 87.6925 116.276 87.9281 116.027 88.1727Z" fill="black"/>
<path fill-rule="evenodd" clip-rule="evenodd" d="M64.2927 103.529C66.0939 104.012 68.0272 104.055 69.8631 103.556C71.5284 103.103 73.2382 102.107 74.4638 100.789C75.5525 99.6176 76.2576 98.1943 76.2299 96.6751C76.2268 96.5016 76.1598 96.3567 76.0568 96.2443C75.9459 96.1233 75.791 96.0402 75.625 96.0041C75.4544 95.967 75.274 95.9802 75.1204 96.0448C74.9813 96.1034 74.8621 96.2028 74.7876 96.348C74.5993 96.5773 74.4117 96.8031 74.2233 97.0226C72.7089 98.7551 71.2423 100.05 68.9651 100.514C67.7295 100.766 66.4955 100.654 65.3633 100.27C64.1512 99.8583 63.0556 99.1347 62.1971 98.2087C61.8091 97.7902 61.351 97.6193 60.9031 97.6165C60.3955 97.6132 59.8938 97.8317 59.5158 98.181C59.1443 98.5243 58.8955 98.9908 58.873 99.4788C58.8532 99.907 59.004 100.354 59.4052 100.754C60.7268 102.068 62.4395 103.032 64.2927 103.529ZM64.3479 81.8307C62.5016 82.8704 59.6884 85.2948 61.6746 87.8723C64.0126 90.145 67.3787 87.5392 69.0374 86.3607C70.5755 85.4473 72.3036 87.7964 70.8766 88.8629C58.8903 97.0841 54.0261 82.1026 63.4141 80.6083C64.4477 80.4436 64.8316 81.5091 64.3479 81.8307ZM81.6191 77.2558C82.2125 76.9043 82.9106 76.7836 83.6842 77.1096C84.2888 77.3643 85.3491 78.2134 86.087 79.3296C86.5919 80.0932 86.9499 80.989 86.8753 81.9221C86.858 82.1388 86.9445 82.2986 87.0808 82.4168C87.1885 82.5101 87.344 82.5786 87.5267 82.6001C87.6818 82.6183 87.8553 82.6019 87.9965 82.561C88.265 82.4834 88.4071 82.322 88.4607 82.1903C88.9773 80.9191 88.7547 79.5005 88.1757 78.2207C87.3942 76.4936 85.975 75.0468 85.0452 74.5804C83.4541 73.7819 81.577 73.7452 79.9836 74.5586C78.6273 75.2509 77.7792 76.3687 76.9357 77.508C76.7564 77.7502 76.5784 77.9906 76.3945 78.2268C76.0259 78.7001 75.9892 79.1695 76.1319 79.572C76.2901 80.0179 76.6933 80.3942 77.1975 80.5912C77.6636 80.7732 78.2045 80.7988 78.6831 80.6118C79.0874 80.4538 79.4585 80.1458 79.6933 79.6232C80.0888 78.7431 80.7476 77.7722 81.6191 77.2558V77.2558ZM51.4814 79.2142C51.8878 79.4104 52.2058 79.4695 52.6566 79.3444C52.9059 79.275 53.1523 79.142 53.3452 78.9633C53.5364 78.7862 53.6744 78.5659 53.728 78.3216C53.8598 77.7186 54.216 77.1541 54.7235 76.7861C55.1573 76.4715 55.7049 76.3048 56.3122 76.3989C56.9676 76.5002 57.592 76.8896 58.022 77.3487C58.1657 77.5023 58.2784 77.6768 58.3917 77.8501C58.6036 78.1741 58.8095 78.4754 59.1017 78.7134C59.2125 78.8039 59.3794 78.8666 59.5411 78.8666C59.6068 78.8666 59.6735 78.8567 59.737 78.8384C60.3893 78.2318 60.5147 77.7717 60.4937 77.3154C60.4717 76.8368 60.268 76.3522 59.9389 75.9001C59.1668 74.8396 57.701 73.9701 56.7119 73.7732C55.3572 73.5035 54.0119 73.8272 52.9333 74.5281C51.8234 75.2494 51.0011 76.3691 50.7447 77.631C50.683 77.935 50.7092 78.263 50.8341 78.5474C50.9562 78.8254 51.169 79.0634 51.4814 79.2142ZM78.6319 65.9489C79.4448 66.6827 80.407 66.7964 81.3804 66.8975C81.9213 66.9542 82.353 66.9999 82.7779 67.0887C83.9457 67.3329 85.1001 67.7007 86.1532 68.2305C87.2541 68.7842 88.4538 69.4521 89.3169 70.3076C89.5222 70.5112 89.7157 70.7248 89.9094 70.9389C90.0861 71.1342 90.2562 71.3221 90.4356 71.5033C90.6416 71.7115 90.8372 71.9296 91.0317 72.1472C91.152 72.3308 91.1758 72.376 91.2 72.423C91.2365 72.4936 91.2789 72.5727 91.3273 72.6575C91.3937 72.7736 91.4714 72.9007 91.5527 73.016C91.6881 73.2267 91.7608 73.2847 91.8236 73.3107C91.9277 73.3537 92.0265 73.3749 92.1223 73.3634C92.2122 73.3526 92.2969 73.3127 92.3805 73.2472C92.7978 72.9205 92.9209 72.3844 92.9083 71.8152C92.8892 70.9516 92.5453 69.9954 92.2284 69.4076C91.4914 68.0418 90.4692 66.622 89.2402 65.6027C87.8377 64.4391 86.3034 63.5582 84.5411 62.9512C83.4459 62.5739 82.1778 62.2275 80.9847 62.2712C80.1258 62.3027 79.3059 62.5393 78.6288 63.1299C78.213 63.4925 78.0135 64.0082 78.0135 64.5236C78.0135 65.0492 78.2208 65.5779 78.6319 65.9489ZM49.8276 72.6685C49.8793 72.747 49.9508 72.8011 50.0304 72.8336C50.1139 72.8676 50.2071 72.8774 50.2965 72.8635C50.3855 72.8496 50.4702 72.8122 50.5373 72.7551C50.6016 72.7003 50.6506 72.6277 50.6725 72.5387C51.2123 70.3425 52.2603 68.7086 54.4972 67.6549C55.5975 67.1366 56.8628 66.8072 58.0606 66.5447C58.4087 66.4684 58.7765 66.4189 59.1469 66.3688C60.3078 66.2118 61.477 66.032 62.2338 65.1627C62.6898 64.639 62.8811 63.9694 62.7729 63.3569C62.671 62.7803 62.3073 62.2515 61.6461 61.9347C60.0001 61.1462 57.9545 61.9199 56.2922 62.579C56.1689 62.6279 56.0478 62.6759 55.9294 62.7222C54.3038 63.3579 52.8212 64.197 51.6025 65.3969C50.6355 66.3489 49.7395 67.7563 49.3787 69.2041C49.0785 70.4086 49.1491 71.6382 49.8276 72.6685Z" fill="black"/>
</svg>
