<svg width="106" height="86" viewBox="0 0 120 86" fill="none" xmlns="http://www.w3.org/2000/svg">
<path d="M29.1241 43.0841H23.3236V43.0379C23.3236 26.8807 36.2161 13.2859 52.6581 13.3622C60.6738 13.3985 68.0374 16.6368 73.2849 21.931L82.8567 12.697C75.1291 4.90311 64.4514 0.0859375 52.6581 0.0859375C29.0911 0.0859375 9.98727 19.3291 9.95394 43.0779H4.08711C0.491457 43.0779 -0.978584 45.4816 0.819243 48.425L13.3377 60.8343C15.8208 63.3173 17.3141 63.3936 19.8735 60.8343L32.392 48.425C34.1898 45.4846 32.7164 43.0841 29.1241 43.0841ZM105.232 37.9192L92.7132 25.5363C90.1606 22.9836 88.5813 23.1358 86.1808 25.5363L73.6623 37.9192C71.8645 40.8559 73.3312 43.2597 76.9269 43.2597H82.7178C82.6252 59.3109 69.7756 72.7864 53.3899 72.7101C45.3775 72.6772 38.0173 69.4456 32.7631 64.1547L23.1913 73.3757C30.9223 81.1563 41.6 85.9672 53.3899 85.9672C76.8839 85.9672 95.9352 66.8633 96.0874 43.263H101.964C105.563 43.2597 107.03 40.8526 105.232 37.9192Z" fill="white"/>
</svg>
