<svg width="25" height="25" viewBox="0 0 25 25" fill="none" xmlns="http://www.w3.org/2000/svg">
<g clip-path="url(#clip0)">
<path d="M10.0945 10.9316C10.0945 11.3362 9.76642 11.6641 9.36206 11.6641C8.95751 11.6641 8.62964 11.3362 8.62964 10.9316C8.62964 10.5271 8.95751 10.1992 9.36206 10.1992C9.76642 10.1992 10.0945 10.5271 10.0945 10.9316Z" fill="#757575" fill-opacity="0.7"/>
<path d="M20.7372 5.49163H18.724V4.26272C18.724 1.90849 16.8193 0 14.4613 0H4.26272C1.90849 0 0 1.90448 0 4.26272V17.9916C0 18.6039 0.717925 18.9569 1.20125 18.5543L5.70468 14.8014H6.27612V16.8148C6.27612 19.169 8.1806 21.0775 10.5388 21.0775H19.2955L23.7987 24.8302C23.933 24.9422 24.0995 24.9999 24.2677 24.9999C24.6704 24.9999 24.9999 24.6732 24.9999 24.2675V9.75416C24.9999 7.39993 23.0955 5.49163 20.7372 5.49163ZM5.43937 13.3365C5.26809 13.3365 5.10215 13.3966 4.97054 13.5063L1.46484 16.4278V4.26272C1.46484 2.71739 2.71491 1.46484 4.26272 1.46484H14.4613C16.0064 1.46484 17.2592 2.71491 17.2592 4.26272V10.5388C17.2592 12.0815 16.004 13.3365 14.4613 13.3365H5.43937ZM23.5351 22.7039L20.0294 19.7824C19.8978 19.6727 19.7319 19.6127 19.5606 19.6127H10.5387C9.79135 19.6127 9.08869 19.3216 8.56035 18.7931C8.03183 18.2647 7.74077 17.5621 7.74077 16.8148V14.8014H14.4611C15.3774 14.8014 16.2271 14.5107 16.9229 14.0169H20.3449C20.7494 14.0169 21.0773 13.689 21.0773 13.2845C21.0773 12.8801 20.7494 12.552 20.3449 12.552H18.2176C18.4896 12.0466 18.6626 11.4801 18.7103 10.8789H20.3449C20.7494 10.8789 21.0773 10.551 21.0773 10.1465C21.0773 9.74195 20.7494 9.41408 20.3449 9.41408H18.7238V6.95647H20.7372C21.4847 6.95647 22.1872 7.24734 22.7157 7.77586C23.244 8.3042 23.5351 9.00686 23.5351 9.75416V22.7039Z" fill="#757575" fill-opacity="0.7"/>
<path d="M8.1333 5.83166C8.1333 5.50359 8.26109 5.19537 8.49303 4.96324C8.72496 4.73131 9.03338 4.60352 9.36221 4.60352C10.0397 4.60352 10.5911 5.15493 10.5911 5.83242C10.5911 6.5101 10.0397 7.06132 9.36221 7.06132C8.95766 7.06132 8.62978 7.3892 8.62978 7.79375V8.57824C8.62978 8.9826 8.95766 9.31066 9.36221 9.31066C9.76656 9.31066 10.0946 8.9826 10.0946 8.57824V8.42489C11.2251 8.10503 12.0558 7.06399 12.0558 5.83242C12.0558 4.34698 10.8475 3.13867 9.36144 3.13867C8.64218 3.13867 7.96584 3.41886 7.45715 3.92736C6.94865 4.43605 6.66846 5.1124 6.66846 5.83147V5.83223C6.66846 6.23678 6.99633 6.56427 7.40088 6.56427C7.80543 6.56427 8.1333 6.23621 8.1333 5.83166Z" fill="#757575" fill-opacity="0.7"/>
<path d="M20.3453 15.6895H10.9312C10.5266 15.6895 10.1987 16.0175 10.1987 16.4219C10.1987 16.8264 10.5266 17.1543 10.9312 17.1543H20.3453C20.7496 17.1543 21.0777 16.8264 21.0777 16.4219C21.0777 16.0175 20.7496 15.6895 20.3453 15.6895Z" fill="#757575" fill-opacity="0.7"/>
</g>
<defs>
<clipPath id="clip0">
<rect width="25" height="25" fill="white"/>
</clipPath>
</defs>
</svg>
