<svg width="248" height="198" viewBox="0 0 248 198" fill="none" xmlns="http://www.w3.org/2000/svg">
<path d="M113.016 144.536L99.1587 141.053C108.603 138.917 113.594 136.014 113.842 135.859C115.279 135.009 116.147 133.464 116.291 131.795C116.436 130.137 115.713 128.447 114.442 127.358C114.369 127.296 107.394 121.055 107.394 99.8555C107.394 78.469 101.876 67.6255 90.9953 67.6255H90.8093C87.3477 64.5155 84.1133 63.116 77.5103 63.116C68.1483 63.116 47.6367 72.3631 47.6367 99.8451C47.6367 120.983 40.703 127.255 40.7133 127.255C39.3287 128.281 38.564 129.94 38.6467 131.66C38.7397 133.381 39.6697 134.947 41.1473 135.838C41.3953 135.983 46.3347 138.917 55.831 141.063L42.005 144.536C29.4397 147.687 20.6667 158.966 20.6667 171.966C20.6667 173.345 21.204 174.672 22.1753 175.636C23.1467 176.6 24.459 177.149 25.8333 177.149L129.187 177.139C132.039 177.139 134.354 174.817 134.354 171.956C134.354 158.956 125.581 147.687 113.016 144.536ZM31.7543 166.772C33.542 160.863 38.2953 156.157 44.485 154.581L63.0023 149.937C64.852 149.481 66.309 148.029 66.7637 146.174L68.6857 138.482C69.0473 137.061 68.7787 135.548 67.9623 134.325C67.1357 133.112 65.844 132.303 64.387 132.096C59.024 131.349 54.8493 130.23 51.8837 129.224C54.8287 123.917 57.9493 114.773 57.9493 99.8451C57.9493 78.0647 74.276 73.4827 77.4897 73.4827C82.088 73.4827 82.5943 74.001 85.064 76.4683C86.0353 77.4324 87.3477 77.9818 88.722 77.9818H90.9643C93.9817 77.9818 97.03 84.7409 97.03 99.8451C97.03 114.752 100.151 123.896 103.085 129.204C100.109 130.209 95.9243 131.339 90.582 132.085C89.1353 132.293 87.8333 133.101 87.017 134.325C86.2007 135.538 85.932 137.051 86.2937 138.482L88.2157 146.184C88.6807 148.029 90.1273 149.491 91.977 149.947L110.494 154.591C116.715 156.157 121.468 160.863 123.246 166.783L31.7543 166.772ZM129.167 21.6493C126.315 21.6493 124 23.9715 124 26.8327C124 29.6939 126.315 32.016 129.167 32.016C132.019 32.016 134.333 29.6939 134.333 26.8327C134.333 23.9715 132.019 21.6493 129.167 21.6493ZM222.167 42.3827H155V26.8327C155 12.5474 143.406 0.916016 129.167 0.916016C114.927 0.916016 103.333 12.5474 103.333 26.8327V42.3827H25.8333C11.594 42.3827 0 54.0141 0 68.2993V171.966C0 186.251 11.594 197.883 25.8333 197.883H222.167C236.406 197.883 248 186.251 248 171.966V68.2993C248 54.0141 236.406 42.3827 222.167 42.3827ZM113.667 26.8327C113.667 18.2594 120.621 11.2827 129.167 11.2827C137.712 11.2827 144.667 18.2594 144.667 26.8327V52.7493H113.667V26.8327ZM237.667 171.966C237.667 180.539 230.712 187.516 222.167 187.516H25.8333C17.2877 187.516 10.3333 180.539 10.3333 171.966V68.2993C10.3333 59.7261 17.2877 52.7493 25.8333 52.7493H103.333V57.9327C103.333 60.7939 105.648 63.116 108.5 63.116H149.833C152.685 63.116 155 60.7939 155 57.9327V52.7493H222.167C230.712 52.7493 237.667 59.7261 237.667 68.2993V171.966ZM222.167 146.049H149.833C146.981 146.049 144.667 148.371 144.667 151.233C144.667 154.094 146.981 156.416 149.833 156.416H222.167C225.019 156.416 227.333 154.094 227.333 151.233C227.333 148.371 225.019 146.049 222.167 146.049ZM222.167 83.8493H149.833C146.981 83.8493 144.667 86.1715 144.667 89.0327C144.667 91.8939 146.981 94.216 149.833 94.216H222.167C225.019 94.216 227.333 91.8939 227.333 89.0327C227.333 86.1715 225.019 83.8493 222.167 83.8493ZM222.167 114.949H149.833C146.981 114.949 144.667 117.271 144.667 120.133C144.667 122.994 146.981 125.316 149.833 125.316H222.167C225.019 125.316 227.333 122.994 227.333 120.133C227.333 117.271 225.019 114.949 222.167 114.949Z" fill="#26526A" stroke-width="0.5"/>
</svg>
