<svg width="29" height="29" viewBox="0 0 29 29" fill="none" xmlns="http://www.w3.org/2000/svg">
<g clip-path="url(#clip0)">
<path d="M24.4326 6.83865C24.4326 5.0615 22.4844 3.91493 20.9232 4.83619V2.56026C20.9232 1.87684 20.6571 1.23392 20.1734 0.74947C18.5738 -0.847619 15.8029 0.271935 15.8029 2.56026V7.21475L13.132 2.79776C12.434 1.59438 10.8766 1.1498 9.63707 1.86466C8.3745 2.59351 8.00798 4.21326 8.70414 5.36855L11.3813 9.83283H8.06184C6.69075 9.83283 5.58009 10.9054 5.50572 12.2483C4.95936 12.4356 4.56543 12.9545 4.56543 13.5638V21.9919C4.56543 25.8562 7.70925 29 11.5735 29H13.9151C15.3133 29 16.9126 28.3843 18.0864 27.2117C18.3661 26.9321 18.6336 26.6346 18.8816 26.3275C19.0388 26.1328 19.0083 25.8475 18.8136 25.6903C18.6189 25.533 18.3336 25.5635 18.1764 25.7582C16.0024 28.4513 14.1825 28.0938 11.5735 28.0938C8.20899 28.0938 5.47168 25.3564 5.47168 21.9919V13.5638C5.47168 13.2971 5.68844 13.0801 5.95482 13.0801C5.99628 13.0801 6.03236 13.0783 6.08543 13.0641C6.18121 13.0999 7.7544 13.1237 8.50771 14.6941C8.81714 15.3469 8.77953 15.8338 8.77953 16.373C8.77953 18.255 9.59198 20.0453 11.0084 21.285C12.3065 22.4218 14.3599 21.84 14.8574 20.1712C14.9887 19.7292 14.9558 19.6458 14.9551 17.2878C14.9538 16.2755 14.528 15.3146 13.7842 14.6376C13.2349 14.1367 13.1884 14.052 12.9717 14.0476C12.9344 14.0467 12.4678 14.047 9.18933 14.047C8.58792 12.9984 7.54234 12.3438 6.41916 12.2036C6.51335 11.375 7.21705 10.7392 8.06195 10.7392H12.5241C13.9038 10.7392 15.2012 11.2766 16.177 12.2525L19.7876 15.8631C20.1137 16.4276 20.0415 16.2685 20.1128 16.5289C20.6677 18.5697 20.575 20.6714 19.9318 22.5656C19.8514 22.8026 19.9782 23.06 20.2152 23.1403C20.4521 23.2209 20.7095 23.0939 20.7899 22.857C21.2485 21.5061 21.449 20.064 21.3634 18.5957C24.6237 6.43084 24.4326 7.27473 24.4326 6.83865ZM13.82 16.2054C14.1236 16.8929 14.0488 17.2761 14.0494 19.4937C14.0494 20.7489 12.5611 21.4402 11.6053 20.603C10.3854 19.5354 9.68578 17.9936 9.68578 16.3729C9.68578 15.8453 9.70538 15.4962 9.56208 14.9532H12.7854C13.2334 15.3618 13.5569 15.6103 13.82 16.2054ZM18.3631 0.906364C19.2708 0.906364 20.017 1.63946 20.017 2.56026V14.4483C19.0176 12.7178 18.9543 12.6077 18.9576 12.6138C18.9524 12.6043 19.0606 12.7918 16.7092 8.71843V2.56026C16.7092 1.6483 17.4511 0.906364 18.3631 0.906364ZM12.4379 9.83283L9.4834 4.90591C8.84778 3.79939 9.65768 2.4275 10.9153 2.4275C11.4708 2.4275 12.0127 2.69966 12.3543 3.26295C16.5689 10.2328 15.3036 8.09613 18.0363 12.8302L16.8177 11.6116C15.695 10.4888 14.2086 9.83283 12.4379 9.83283ZM23.4774 7.20716C20.7374 17.4304 21.0277 16.4402 20.987 16.2903C20.8959 15.9574 20.9232 17.1669 20.9232 6.05492C21.7961 4.73373 23.8954 5.64297 23.4774 7.20716Z" fill="#00A3FF"/>
<path d="M19.853 23.9711C19.632 23.8536 19.3577 23.9376 19.2402 24.1585C19.2088 24.2176 19.1763 24.2767 19.1433 24.3347C18.971 24.6377 19.1923 25.0119 19.5368 25.0119C19.8392 25.0119 19.9389 24.7748 20.0404 24.5839C20.1578 24.363 20.0739 24.0887 19.853 23.9711V23.9711Z" fill="#1094DF"/>
</g>
<defs>
<clipPath id="clip0">
<rect width="29" height="29" fill="white"/>
</clipPath>
</defs>
</svg>
