<svg width="86" height="86" viewBox="0 0 86 86" fill="none" xmlns="http://www.w3.org/2000/svg">
<circle cx="43" cy="43" r="43" fill="white"/>
<path d="M42.9923 0C19.2481 0 0 19.2543 0 43.0015C0 66.7457 19.2481 86 42.9923 86C66.7488 86 86 66.7426 86 43.0015C86 19.2543 66.7488 0 42.9923 0ZM61.4809 54.6445L54.6322 61.4839C54.6322 61.4839 43.798 49.8594 42.9892 49.8594C42.1927 49.8594 31.3555 61.4839 31.3555 61.4839L24.5038 54.6445C24.5038 54.6445 36.1406 43.9672 36.1406 43.0169C36.1406 42.0513 24.5038 31.3709 24.5038 31.3709L31.3555 24.5161C31.3555 24.5161 42.2819 36.1468 42.9892 36.1468C43.7027 36.1468 54.6322 24.5161 54.6322 24.5161L61.4809 31.3709C61.4809 31.3709 49.8409 42.205 49.8409 43.0169C49.8409 43.7888 61.4809 54.6445 61.4809 54.6445Z" fill="rgba(128,129,129,0.2)"/>
</svg>
