<svg width="200" height="270" viewBox="0 0 200 270" fill="none" xmlns="http://www.w3.org/2000/svg">
<path fill-rule="evenodd" clip-rule="evenodd" d="M189.311 229.234C188.325 224.077 187.422 218.907 186.601 213.726C186.211 211.266 185.831 208.804 185.489 206.338C185.25 204.61 184.885 202.634 186.154 201.355C187.94 199.554 189.562 198.012 189.78 195.432C189.986 193.004 189.1 190.358 188.546 188.002C187.384 183.06 185.937 178.18 184.339 173.346C182.715 168.434 180.935 163.569 179.129 158.713C177.44 154.173 175.817 149.592 173.618 145.236C169.444 136.969 162.383 130.848 153.656 126.76C151.486 125.743 147.059 122.114 144.792 121.302C142.707 120.555 142.715 122.736 140.663 121.914C139.023 121.257 137.496 120.382 136.577 118.914C135.58 117.322 133.08 115.094 132.699 113.239C131.893 109.309 132.766 105.964 129.738 103.006C127.05 100.379 123.437 98.5795 119.699 97.6135C111.475 95.4884 100.507 96.9741 95.5456 104.054C93.1756 107.435 92.3475 111.521 89.1497 114.28C86.3573 116.69 86.9822 118.337 83.3656 119.578C83.1607 119.649 77.6087 118.546 77.4038 118.616C73.4474 117.832 69.6659 120.027 66.036 121.302C60.6245 123.201 55.4725 125.673 50.6321 128.611C40.872 134.535 32.5126 142.228 25.6209 150.934C18.6722 159.711 13.2808 169.549 9.4419 179.831C8.50962 182.328 7.67222 184.856 6.93358 187.409C6.52014 188.837 6.07833 190.319 6.58175 191.782C6.99349 192.978 7.90938 193.869 8.98493 194.587C10.4429 195.56 13.3673 196.193 13.3104 198.15C13.2668 199.638 12.7218 201.205 12.4558 202.675C12.1392 204.427 11.8791 206.188 11.6189 207.948C10.4355 215.955 9.51451 224.007 9.10718 232.082C8.7062 240.033 8.37344 248.146 8.96879 256.095C9.00816 256.619 9.17686 257.1 9.44899 257.507C9.19495 257.597 9.17539 258.035 9.49153 258.098C9.71305 258.141 9.93407 258.185 10.1556 258.228C10.6157 258.551 11.1896 258.748 11.85 258.768C12.2976 258.781 12.7451 258.799 13.1923 258.821C17.9113 259.735 22.6297 260.598 27.4104 261.252C33.2216 262.046 39.05 262.694 44.8964 263.221C56.9099 264.302 68.8287 263.944 80.858 263.36C92.8688 262.778 104.872 262.642 116.896 262.932C128.929 263.222 140.959 263.707 152.995 263.905C166.442 264.126 179.869 263.786 193.277 262.796C195.116 262.66 196.253 261.305 195.891 259.614C193.718 249.479 191.256 239.412 189.311 229.234Z" fill="#EDB98A"/>
<path fill-rule="evenodd" clip-rule="evenodd" d="M66.0355 121.3L66.2982 121.206C69.8477 119.922 73.5422 117.849 77.4034 118.614C77.5399 118.567 80.0523 119.042 81.7732 119.343L80.1398 120.922L77.2572 121.436C87.2018 136.641 98.9633 144.243 112.542 144.243C126.121 144.243 136.424 136.641 143.453 121.436L144.412 121.19C144.53 121.215 144.656 121.252 144.791 121.3C147.059 122.112 151.485 125.741 153.656 126.758C162.382 130.846 169.444 136.967 173.617 145.234C175.743 149.445 177.331 153.866 178.96 158.257L179.128 158.711C180.935 163.567 182.715 168.432 184.339 173.344C185.868 177.968 187.257 182.634 188.392 187.356L188.545 188C189.099 190.356 189.985 193.002 189.78 195.43C189.702 196.349 189.446 197.137 189.068 197.851L169.399 204.407L178.769 263.616C170.186 263.957 161.594 264.045 152.995 263.903C140.958 263.705 128.929 263.22 116.895 262.93C105.236 262.649 93.5958 262.768 81.9494 263.307L78.9918 263.447C67.595 263.975 56.288 264.245 44.8959 263.219L44.1197 263.148V263.148L44.1195 254.487L48.1213 206.261L27.8414 202.724L7.93385 193.767C7.33236 193.21 6.84968 192.56 6.58126 191.78C6.115 190.425 6.45958 189.054 6.84147 187.724L6.9331 187.407C7.67173 184.854 8.50914 182.326 9.44141 179.829C13.2803 169.547 18.6717 159.709 25.6204 150.932C32.5121 142.226 40.8715 134.533 50.6316 128.609C55.472 125.671 60.6241 123.199 66.0355 121.3Z" fill="#EC7495"/>
<path fill-rule="evenodd" clip-rule="evenodd" d="M73.6512 118.367C74.8947 118.317 76.1627 118.503 77.4033 118.616C77.5114 118.626 77.5524 118.78 77.4307 118.804C75.2104 119.234 73.0145 119.822 70.834 120.419L69.9004 120.675C67.4414 121.348 65.0546 122.044 62.6742 122.942C57.9299 124.734 53.4241 127.151 49.2771 129.929C33.3084 140.625 21.751 156.819 14.4576 173.586C12.4769 178.139 10.7986 182.805 9.43922 187.55C9.10866 188.705 8.79765 189.864 8.50279 191.027C8.41624 191.368 8.03897 192.241 8.24582 192.589C8.42871 192.898 9.13971 193.088 9.47003 193.249L10.5852 193.784C12.7605 194.823 16.3839 196.53 16.7473 196.696L17.314 196.955C26.5831 201.165 36.4871 204.734 46.9177 204.982L46.9994 204.156V204.156C47.4644 199.594 48.0747 195.008 49.4067 190.586C49.4783 190.348 49.8047 190.429 49.8346 190.64C50.5766 195.874 50.3395 201.15 50.0805 206.409C49.6221 215.724 49.0133 225.033 48.4722 234.344C48.2013 239.002 47.8512 243.656 47.5351 248.311C47.2184 252.976 47.116 257.752 46.393 262.378C46.2319 263.41 44.9282 263.97 43.9409 263.862C42.8485 263.741 42.0082 262.85 42.003 261.828C41.9898 259.133 42.3554 256.406 42.5585 253.718C42.7514 251.164 42.9585 248.611 43.1708 246.059C43.9463 236.742 44.8385 227.436 45.6637 218.124C45.9561 214.821 46.272 211.521 46.5972 208.221C35.5475 207.891 25.2246 204.099 15.3766 199.669C15.2341 202.668 14.8898 205.661 14.5566 208.646C13.6263 216.979 12.806 225.308 12.192 233.666C11.882 237.888 11.6563 242.114 11.4598 246.341C11.3632 248.419 11.2845 250.497 11.2241 252.576C11.2038 253.268 11.1856 253.961 11.1694 254.654L11.1358 256.242C11.1084 257.248 10.998 258.179 10.0845 258.912C9.15658 259.655 7.90328 259.695 6.98494 258.912C5.7556 257.863 5.97296 256.434 6.00939 255.026C6.03971 253.838 6.07614 252.65 6.11844 251.462C6.20328 249.087 6.31159 246.712 6.44337 244.338C6.90453 236.04 7.82594 227.775 9.03009 219.543L9.50015 216.365C10.378 210.458 11.3417 204.416 13.304 198.725C12.54 198.373 11.7781 198.019 11.0192 197.663C9.67296 197.031 8.28103 196.439 6.97247 195.742C5.93433 195.189 5.03897 194.43 4.74998 193.311C4.42767 192.064 4.92052 190.7 5.24795 189.484L5.27638 189.377C5.59741 188.152 5.94313 186.933 6.30792 185.718C7.78714 180.794 9.61624 175.966 11.7568 171.256C16.0429 161.826 21.5752 152.867 28.3329 144.767C34.4157 137.476 41.6016 130.864 50.0236 125.904C54.1409 123.48 58.5287 121.489 63.1691 120.082C65.338 119.424 67.6979 118.852 69.9688 118.616C71.1938 118.489 72.4204 118.416 73.6512 118.367ZM95.6834 103.424C97.1612 101.954 100.097 103.475 99.3876 105.421C97.7186 110.001 95.0609 114.179 90.9132 117.188C87.0145 120.017 82.3653 121.854 77.3585 121.462C77.3198 121.459 77.2863 121.45 77.2568 121.437L77.6882 121.979C81.0757 126.224 84.6493 130.411 88.9565 133.88C97.7323 140.95 109.681 144.763 121.219 142.051C130.297 139.917 138.294 133.267 140.646 124.792C140.309 124.932 139.908 124.979 139.469 124.891C137.587 124.512 135.724 122.679 134.51 121.364C133.197 119.942 132.171 118.406 131.42 116.67C130.044 113.493 129.603 109.402 131.481 106.325C131.713 105.946 132.248 106.158 132.293 106.529L132.365 107.107C132.727 109.991 133.178 112.781 134.646 115.41C135.364 116.697 136.225 117.953 137.273 119.03C137.834 119.607 138.442 120.157 139.099 120.641C139.739 121.112 140.513 121.452 141.086 121.993L141.191 122.096L141.194 122.078C141.339 120.936 142.203 120.433 143.049 120.464C143.868 120.495 144.829 120.829 145.201 120.988L145.236 121.004C150.946 123.543 156.205 126.852 161.153 130.524C171.387 138.118 179.055 148.045 182.77 159.734C184.593 165.471 185.639 171.383 186.744 177.267L187.424 180.872C188.455 186.304 189.606 191.843 191.934 196.896C192.535 198.204 192.071 199.43 190.595 199.943C188.752 200.585 186.902 201.207 185.05 201.821C185.959 205.437 186.514 209.178 187.196 212.811C188.645 220.535 190.42 228.209 191.942 235.923C192.721 239.867 193.423 243.824 194.2 247.768C194.575 249.668 194.965 251.565 195.345 253.463C195.55 254.487 195.735 255.514 195.931 256.539L195.965 256.709C196.077 257.25 196.217 257.81 196.057 258.351C195.874 258.968 195.354 259.404 194.889 259.847C194.507 260.211 193.955 260.213 193.487 260.015L193.333 259.949C192.496 259.586 191.841 259.225 191.545 258.351C191.357 257.798 191.289 257.174 191.166 256.604C190.931 255.511 190.708 254.417 190.497 253.319C190.075 251.124 189.664 248.927 189.262 246.728L188.886 244.669C187.598 237.572 186.374 230.433 185.755 223.262C185.481 220.08 185.19 216.902 184.896 213.722L184.676 211.338C184.397 208.319 184.057 205.225 184.009 202.166L182.901 202.53V202.53L177.495 204.301V204.301C176.154 204.739 174.448 205.639 173.005 205.475C172.299 205.395 171.761 205.189 171.345 204.815C171.843 211.323 172.517 217.82 173.415 224.284C174.232 230.165 175.138 236.039 176.208 241.886C176.737 244.781 177.282 247.674 177.873 250.559C178.169 252.001 178.474 253.442 178.789 254.881C178.945 255.599 179.132 256.318 179.254 257.042C179.394 257.871 179.147 258.381 178.647 259.063C178.237 259.623 177.416 259.911 176.75 259.524C175.868 259.011 175.408 258.567 175.149 257.634C174.913 256.786 174.77 255.901 174.588 255.042C174.251 253.457 173.925 251.87 173.611 250.281C172.954 246.958 172.349 243.626 171.808 240.285C169.902 228.513 168.693 216.643 168.082 204.754C167.78 198.888 167.687 193.017 167.741 187.145C167.768 184.135 167.874 181.117 168.104 178.114C168.337 175.075 168.821 172.097 169.253 169.087C169.269 168.981 169.43 168.975 169.437 169.087C169.641 172.462 169.962 175.832 170.119 179.216C170.269 182.444 170.335 185.677 170.455 188.907C170.611 193.152 170.829 197.4 171.116 201.645C171.637 201.117 172.423 200.812 173.209 200.931C174.347 200.71 175.572 200.157 176.658 199.821L180.749 198.555V198.555C182.9 197.889 185.051 197.228 187.209 196.587C185.28 190.572 183.958 184.468 182.829 178.275L182.325 175.49C181.329 170.007 180.254 164.522 178.449 159.213C176.552 153.632 173.712 148.442 169.945 143.743C166.232 139.111 161.714 135.033 157.063 131.219C153.081 127.954 148.821 125.005 144.759 121.83C144.802 122.04 144.811 122.272 144.774 122.526C143.91 128.382 140.613 133.834 136.018 137.89C126.787 146.038 113.123 147.728 101.308 143.908C89.8795 140.212 79.7751 131.459 76.2052 120.628C76.144 120.443 76.412 120.369 76.5196 120.505C76.7176 120.757 76.9167 121.008 77.1159 121.26C77.1025 121.16 77.1585 121.051 77.2915 121.003C81.4568 119.513 85.547 117.4 88.6692 114.411C90.191 112.954 91.5191 111.303 92.5675 109.523C93.0697 108.67 93.5208 107.787 93.8807 106.874L93.9722 106.638C94.4084 105.495 94.7729 104.329 95.6834 103.424Z" fill="black"/>
<path fill-rule="evenodd" clip-rule="evenodd" d="M117.613 8.83022C131.466 8.83022 148.817 23.5014 153.896 29.7446C158.165 34.9936 157.561 62.0344 157.561 78.0751C157.561 81.4299 155.928 87.7793 155.335 90.9884C153.162 102.748 143.694 112.61 124.957 112.61C109.7 112.61 97.9591 108.123 86.6052 96.6484C84.015 94.0306 71.3648 103.402 68.7777 100.027C62.0202 100.027 56.3698 41.4118 69.6373 23.8305C82.9048 6.24928 103.759 8.83022 117.613 8.83022Z" fill="#EDB98A"/>
<path fill-rule="evenodd" clip-rule="evenodd" d="M75.9745 12.9581C83.9796 6.19682 94.6441 2.94415 105.404 3.18425C110.976 3.30883 116.529 4.29415 121.792 5.98164C124.425 6.82879 126.974 7.93415 129.412 9.18448C130.29 9.63401 131.1 10.1607 131.879 10.7201L132.074 10.8606H132.076C134.167 11.5583 136.033 12.8109 137.727 14.2764C141.12 14.025 144.541 14.3081 147.823 15.2798C152.39 16.6344 156.618 19.1146 159.587 22.6369C163.046 26.7374 164.196 31.7113 163.786 36.8459L163.71 37.7182C163.304 42.2539 162.577 48.088 158.568 51.0683C158.263 51.2948 157.926 51.4669 157.577 51.5711C160.161 55.68 162.281 60.2419 163.55 64.8491C168.393 82.4466 164.67 100.798 158.846 117.759C158.368 119.157 156.091 120.086 154.932 118.72C152.863 116.278 149.857 114.416 146.476 114.067C144.39 113.852 142.313 114.242 140.342 113.363C139.569 113.016 138.822 112.45 138.285 111.761C134.957 112.932 131.373 113.485 127.818 113.349C121.985 113.127 115.749 111.252 111.735 107.138C111.091 106.478 110.928 105.737 111.076 105.069C111.579 104.902 112.096 104.778 112.629 104.7C117.718 107.485 123.328 109.345 129.358 109.462C132.841 109.53 136.24 109.078 139.064 107.058C139.676 106.621 140.238 106.137 140.757 105.617C146.663 102.089 150.828 96.0985 152.807 89.6813C154.652 83.6969 154.425 77.4657 153.79 71.3273L153.456 68.0881C152.968 63.3338 152.515 58.5654 152.389 53.7909L152.427 53.7891V53.7891C153.674 53.7144 153.683 51.9016 152.427 51.977C149.177 52.1723 145.952 51.6774 142.713 51.893C142.686 50.4712 142.575 49.0558 142.125 47.6845C141.868 46.901 140.399 46.7465 140.243 47.6845C140.035 48.9393 139.959 50.1872 139.936 51.4477C135.088 51.3879 130.244 51.0092 125.395 51.1648C124.501 50.2791 124.216 48.7087 123.798 47.6163C123.737 47.4555 123.676 47.2969 123.612 47.1361C123.245 48.6972 122.723 50.2241 122.038 51.7188L120.849 51.7226C114.101 51.752 107.217 51.9392 100.628 53.2401C100.17 52.9137 99.8975 52.3442 99.8239 51.8271C99.3459 48.4621 98.6639 45.1866 97.455 41.9799L97.2821 41.5275C97.2679 41.49 97.253 41.4501 97.2374 41.4081C96.3466 42.7429 95.2838 43.9872 94.1247 45.1458C93.4415 45.8287 92.7252 46.4817 91.9901 47.1162C91.2759 47.8523 90.5379 48.5774 89.8225 49.3158C89.8506 49.4501 89.875 49.5865 89.8947 49.7253C90.1136 51.2577 90.1363 52.8117 89.976 54.35C89.6861 57.1308 88.8405 59.8104 87.482 62.2893L87.439 62.5375C87.2327 63.6992 86.9392 64.8998 86.2538 65.7746C87.1092 66.6644 87.7682 67.7271 88.1503 68.9079C88.4904 69.9592 86.9238 70.8702 86.1113 70.0099C85.466 69.3265 84.7489 68.7609 83.9613 68.3097C83.9115 68.3725 83.8218 68.4033 83.721 68.3509C81.5276 67.2207 77.802 67.5627 75.611 68.6273C72.8857 69.9501 71.8219 72.6659 72.1245 75.418C72.4148 78.0478 73.6543 81.1215 76.0575 82.4693C77.1603 83.0876 78.0191 83.1397 79.1902 82.843C79.5647 82.7486 80.0289 82.459 80.2282 82.3151L80.4243 82.1692C81.192 81.6059 81.9071 81.2201 82.8134 81.2053C83.7403 80.937 84.6719 81.3093 85.0264 82.2116L85.0483 82.2699C85.2142 82.7297 85.5167 83.3073 85.4508 84.0095C85.3825 84.7615 85.0117 85.4456 84.4578 85.996C84.3627 86.0911 84.2602 86.1863 84.1553 86.2746C93.695 95.8627 94.9198 110.803 90.0279 122.781C89.8157 123.307 89.5888 123.825 89.3521 124.339C88.5348 126.102 85.3874 125.556 84.9873 123.809C84.8677 123.286 84.736 122.765 84.592 122.249C84.3274 121.294 84.0243 120.349 83.6826 119.417L83.5526 119.069C83.2623 118.298 82.9915 117.522 82.6987 116.751L82.6694 116.663C82.6584 116.629 82.6462 116.588 82.6328 116.543L82.1375 117.546V117.546L80.6322 120.575C79.9277 121.988 77.6896 121.22 77.6063 119.858L77.6043 119.812C77.597 119.56 77.5873 119.311 77.5702 119.064C77.4628 117.214 77.1188 115.415 76.5723 113.655L76.3751 113.883C73.439 117.252 69.9932 120.411 65.2661 121.189C64.0804 121.384 62.7385 120.233 63.5534 119.121C63.8901 118.661 64.2146 118.19 64.522 117.712C64.256 117.596 64.0047 117.476 63.7729 117.354C61.9797 116.418 60.4865 115.087 59.2519 113.576C56.634 110.373 55.6971 106.341 55.4678 102.395C55.2238 98.2252 55.619 93.8287 56.8463 89.8059C57.3782 88.0663 58.0979 86.3969 58.9299 84.7774C58.8713 84.6324 58.8152 84.4875 58.7591 84.3425C57.8612 82.0185 57.1244 79.6424 56.512 77.2392C55.2775 72.3873 54.6138 67.3815 54.5333 62.396C54.3869 53.4648 56.046 44.3908 59.5423 36.0621C63.1532 27.4728 68.5843 19.1985 75.9745 12.9581ZM71.4774 91.0449C70.8144 90.0757 69.1553 90.9491 69.771 91.9251L69.7939 91.96C70.8455 93.498 71.3384 95.2466 71.9434 96.9613C72.3314 98.0644 74.2173 97.5933 73.8245 96.4789L73.6945 96.1068C73.0924 94.368 72.5431 92.6009 71.4774 91.0449ZM77.2537 72.5434L77.6942 72.3455C79.0837 71.7299 80.3013 71.3105 81.943 71.848C84.1413 72.566 86.4958 74.8515 85.0099 77.0691C84.4634 77.8868 83.4923 78.2129 82.492 78.0204C80.8056 77.6957 80.3704 76.2858 79.5146 75.1285L79.3673 74.9325C78.8456 74.2322 78.1858 73.2641 77.3171 72.9896C77.1195 72.9262 77.0365 72.6408 77.2537 72.5434ZM78.4915 25.4614L78.6334 25.3434C79.5776 24.5687 78.1918 23.2912 77.2524 24.0614C72.9535 27.5881 71.4603 33.1081 69.2303 37.8127C68.7301 38.8705 70.4112 39.7947 70.9162 38.7278C73.0434 34.2385 74.4554 28.8683 78.4915 25.4614V25.4614ZM130.153 23.9185C129.029 23.4485 128.046 24.9661 129.126 25.4658L129.167 25.4836C132.963 27.076 134.578 30.682 136.125 34.0298C136.618 35.099 138.299 34.1771 137.811 33.117L137.532 32.5163C135.918 29.0662 134.035 25.5496 130.153 23.9185ZM136.103 21.7393C134.913 21.3565 134.403 23.1051 135.584 23.4879C138.802 24.5276 141.01 26.77 142.872 29.3341C143.569 30.2945 145.26 29.3885 144.555 28.419C142.393 25.4427 139.827 22.9443 136.103 21.7393Z" fill="black"/>
<path fill-rule="evenodd" clip-rule="evenodd" d="M129.728 96.7043C128.085 96.0831 126.618 95.0469 125.546 93.7233C125.173 93.2632 125.077 92.7773 125.155 92.3329C125.243 91.8331 125.562 91.3802 125.997 91.0764C126.434 90.7717 126.98 90.6214 127.508 90.698C127.966 90.7646 128.423 90.9973 128.784 91.4799L128.86 91.5764C129.497 92.3753 130.328 93.0308 131.274 93.4533C132.187 93.8605 133.207 94.0505 134.262 93.94C136.273 93.7296 137.659 92.7222 139.132 91.3542C139.315 91.1814 139.497 91.0033 139.681 90.8223C139.797 90.6582 139.958 90.5528 140.136 90.4974C140.335 90.436 140.559 90.4395 140.765 90.5059C140.963 90.57 141.14 90.6915 141.259 90.8531C141.372 91.0067 141.436 91.1965 141.415 91.4147C141.28 92.8325 140.48 94.0978 139.344 95.0913C138.081 96.1947 136.408 96.9581 134.833 97.2258C133.098 97.5207 131.329 97.3094 129.728 96.7043V96.7043ZM135.652 74.8324C137.498 75.8721 140.311 78.2964 138.325 80.8739C135.987 83.1466 132.621 80.5408 130.962 79.3623C129.424 78.449 127.696 80.798 129.123 81.8645C141.109 90.0857 145.973 75.1042 136.585 73.61C135.552 73.4453 135.168 74.5107 135.652 74.8324ZM114.172 65.2685C114.376 62.9227 118.232 62.39 118.616 64.7113C118.96 66.7907 118.555 68.7008 117.544 70.5729C116.578 72.3614 114.15 71.527 113.966 69.8984C113.72 67.7153 114.045 66.7277 114.172 65.2685ZM143.528 64.2304C144.066 63.5781 144.842 63.1328 145.772 63.3844C148.678 64.1711 147.821 67.993 146.801 69.8533C146.246 70.8635 144.454 71.1197 143.644 70.2302C142.324 68.7796 141.691 65.8828 143.37 64.454C143.415 64.3802 143.466 64.3056 143.528 64.2304ZM117.503 55.0046L117.962 54.9302C119.382 54.7027 121.148 54.4841 122.153 55.5417C122.685 56.1025 122.869 57.1449 122.153 57.6817C120.893 58.6263 119.5 58.2602 117.991 58.3402C116.747 58.4063 115.551 58.5971 114.353 58.9144C111.724 59.6105 109.582 60.8812 107.337 62.2765C107.042 62.4595 106.741 62.1104 106.882 61.8552C108.178 59.5033 110.69 57.5714 113.206 56.3938C114.548 55.7652 116.018 55.2438 117.503 55.0046ZM140.879 53.9507L141.23 54.0173C145.053 54.7577 150.021 56.2367 151.831 59.7157C151.9 60.2077 151.827 60.3131 151.768 60.382L151.748 60.4049C151.7 60.4637 151.661 60.5448 151.43 60.6118C151.367 60.5977 151.302 60.5827 151.237 60.5669C150.407 60.3654 149.75 60.0879 149.115 59.7998L148.425 59.4853C147.626 59.122 146.819 58.772 145.964 58.5136C144.14 57.9623 142.263 57.574 140.357 57.3666C139.944 57.3217 139.547 57.1925 139.233 56.9712C138.935 56.7611 138.707 56.4702 138.604 56.0836C138.469 55.5832 138.508 55.2044 138.798 54.753C139.015 54.414 139.327 54.179 139.685 54.0441C140.05 53.9065 140.466 53.8741 140.879 53.9507Z" fill="black"/>
<path fill-rule="evenodd" clip-rule="evenodd" d="M156.787 79.5868C156.326 74.1771 148.963 71.8855 145.295 71.206C133.083 68.5463 122.693 75.3702 108.131 75.5097C106.662 75.531 102.459 75.3013 100.504 74.8231C90.5876 72.7356 80.6813 70.5152 70.9512 67.7773C69.5206 68.0877 69.0974 69.8175 70.0796 70.8031C79.3989 73.8648 93.6563 76.6064 101.185 76.9186C101.041 85.9291 95.9065 94.9895 88.816 99.9727C100.093 111.526 126.393 115.325 141.872 109.261C149.486 107.144 157.52 88.1942 156.787 79.5868" fill="white"/>
<path fill-rule="evenodd" clip-rule="evenodd" d="M70.1644 68.0489C69.745 68.0337 69.9895 66.9011 70.934 67.0626C83.1208 69.7031 98.3042 74.7325 110.831 74.6955C120.046 74.416 128.302 69.6616 137.568 69.6328C143.797 69.7434 151.739 70.564 156.098 75.1943C161.847 92.0869 148.901 115.063 128.53 115.196L124.674 114.938C111.531 114.041 97.1331 112.605 88.6619 102.276L88.5959 102.328V102.328C87.3292 101.541 87.3998 99.8403 88.4763 98.9658L88.5084 99.0124V99.0124C88.5289 98.9816 88.5516 98.9522 88.5736 98.922L88.56 98.8824V98.8824C88.9741 98.4797 89.445 98.103 89.8732 97.7657L89.8754 97.7723V97.7723C96.2362 92.8627 100.39 85.4389 100.629 77.7514C98.5228 78.2873 63.1424 71.492 69.458 69.8337C73.9754 71.2485 78.5194 72.5263 83.1551 73.5433C83.2328 73.5027 83.3443 73.5134 83.3871 73.5933C89.058 74.8863 94.8433 75.6251 100.636 76.2233C100.63 75.9669 100.62 75.7105 100.605 75.4537C90.3052 73.5961 80.2074 70.8381 70.1644 68.0489ZM153.57 74.9046C132.443 65.0172 121.956 79.6246 101.524 75.6027C103.661 84.4379 98.383 93.9628 91.2135 99.7356C101.631 108.088 106.139 109.353 119.804 110.709L121.589 110.906C124.273 111.2 126.983 111.475 129.675 111.518C143.641 110.576 154.194 97.1154 155.773 84.919L155.781 84.5821C155.852 81.4868 155.699 78.2104 154.219 75.3748C153.946 75.2869 153.709 75.1286 153.57 74.9046ZM124.155 82.6661C124.885 82.5138 125.63 83.2518 125.177 83.898C123.715 85.9876 120.139 86.7971 117.638 87.1256C114.741 87.5059 111.933 87.206 109.182 86.2907C109.034 86.2415 109.045 86 109.221 86.0195C111.834 86.3076 114.527 86.0968 117.066 85.4562C119.64 84.9916 121.718 83.4056 124.155 82.6661ZM144.007 81.1615C143.995 80.7644 146.102 81.9132 146.435 82.0679C149.008 83.4995 151.987 83.6044 154.826 84.1663C155.487 84.4014 155.487 85.1806 154.826 85.4157C151.283 86.2885 145.907 83.998 144.007 81.1615Z" fill="black"/>
</svg>
