<svg width="108" height="84" viewBox="0 0 108 82" fill="" xmlns="http://www.w3.org/2000/svg">
<path d="M64.8303 77.4711C65.1955 77.4711 65.4916 77.175 65.4916 76.8098C65.4916 76.4445 65.1955 76.1484 64.8303 76.1484C64.465 76.1484 64.1689 76.4445 64.1689 76.8098C64.1689 77.175 64.465 77.4711 64.8303 77.4711Z" fill="#8b8a8a"/>
<path d="M60.5666 76.1484C60.2014 76.1484 59.9053 76.4446 59.9053 76.8098C59.9053 77.1752 60.2014 77.4711 60.5666 77.4711C60.9318 77.4711 61.228 77.1752 61.228 76.8098C61.228 76.4446 60.9318 76.1484 60.5666 76.1484Z" fill="#8b8a8a"/>
<path d="M62.7785 78.2012C62.4133 78.2012 62.1172 78.4973 62.1172 78.8625C62.1172 79.2279 62.4133 79.5239 62.7785 79.5239C63.1437 79.5239 63.4399 79.2279 63.4399 78.8625C63.4399 78.4975 63.1439 78.2012 62.7785 78.2012Z" fill="#8b8a8a"/>
<path d="M56.3029 76.1484C55.9377 76.1484 55.6416 76.4446 55.6416 76.8098C55.6416 77.1752 55.9377 77.4711 56.3029 77.4711C56.6681 77.4711 56.9643 77.1752 56.9643 76.8098C56.9643 76.4446 56.6681 76.1484 56.3029 76.1484Z" fill="#8b8a8a"/>
<path d="M58.5149 78.2012C58.1497 78.2012 57.8535 78.4973 57.8535 78.8625C57.8535 79.2279 58.1497 79.5239 58.5149 79.5239C58.8801 79.5239 59.1762 79.2279 59.1762 78.8625C59.1762 78.4975 58.8801 78.2012 58.5149 78.2012Z" fill="#8b8a8a"/>
<path d="M52.0393 76.1484C51.6739 76.1484 51.3779 76.4446 51.3779 76.8098C51.3779 77.1752 51.6741 77.4711 52.0393 77.4711C52.4045 77.4711 52.7006 77.1752 52.7006 76.8098C52.7006 76.4446 52.4047 76.1484 52.0393 76.1484V76.1484Z" fill="#8b8a8a"/>
<path d="M54.2517 78.2012C53.8865 78.2012 53.5903 78.4973 53.5903 78.8625C53.5903 79.2279 53.8865 79.5239 54.2517 79.5239C54.6169 79.5239 54.913 79.2279 54.913 78.8625C54.913 78.4975 54.6169 78.2012 54.2517 78.2012Z" fill="#8b8a8a"/>
<path d="M47.7756 76.1484C47.4104 76.1484 47.1143 76.4446 47.1143 76.8098C47.1143 77.1752 47.4104 77.4711 47.7756 77.4711C48.1408 77.4711 48.437 77.1752 48.437 76.8098C48.437 76.4446 48.1408 76.1484 47.7756 76.1484V76.1484Z" fill="#8b8a8a"/>
<path d="M49.9875 78.2012C49.6223 78.2012 49.3262 78.4973 49.3262 78.8625C49.3262 79.2279 49.6223 79.5239 49.9875 79.5239C50.3527 79.5239 50.6489 79.2279 50.6489 78.8625C50.6489 78.4975 50.3529 78.2012 49.9875 78.2012V78.2012Z" fill="#8b8a8a"/>
<path d="M43.5119 77.4711C43.8772 77.4711 44.1733 77.175 44.1733 76.8098C44.1733 76.4445 43.8772 76.1484 43.5119 76.1484C43.1467 76.1484 42.8506 76.4445 42.8506 76.8098C42.8506 77.175 43.1467 77.4711 43.5119 77.4711Z" fill="#8b8a8a"/>
<path d="M45.7238 78.2012C45.3586 78.2012 45.0625 78.4973 45.0625 78.8625C45.0625 79.2279 45.3586 79.5239 45.7238 79.5239C46.0891 79.5239 46.3852 79.2279 46.3852 78.8625C46.3852 78.4975 46.0891 78.2012 45.7238 78.2012Z" fill="#8b8a8a"/>
<path d="M62.4139 41.6582H45.586C40.8557 41.6582 37.0073 45.5066 37.0073 50.2366V73.413C37.0073 78.1432 40.8557 81.9914 45.586 81.9914H62.4139C67.1441 81.9914 70.9923 78.143 70.9923 73.413V50.2366C70.9923 45.5066 67.1441 41.6582 62.4139 41.6582V41.6582ZM67.2915 78.2498C67.2146 78.2184 67.1308 78.2004 67.0426 78.2004C66.6774 78.2004 66.3813 78.4966 66.3813 78.8618C66.3813 78.9122 66.3881 78.9607 66.3987 79.0079C65.2738 79.8114 63.8986 80.2861 62.4141 80.2861H45.5862C44.2656 80.2861 43.0315 79.911 41.9829 79.2628C42.0685 79.1513 42.1214 79.0134 42.1214 78.8618C42.1214 78.4966 41.8253 78.2004 41.4601 78.2004C41.244 78.2004 41.0538 78.3057 40.933 78.4661C40.5077 78.0742 40.1329 77.6291 39.8169 77.1421C39.8741 77.0442 39.9092 76.9317 39.9092 76.8104C39.9092 76.4574 39.632 76.1717 39.2839 76.1526C38.9174 75.3127 38.7128 74.3866 38.7128 73.4132V72.9323C38.8329 73.0986 39.0272 73.2077 39.2479 73.2077C39.3525 73.2077 39.4502 73.1812 39.5381 73.138C39.9535 73.5517 40.4096 73.9239 40.9019 74.2463C40.8375 74.3482 40.7987 74.4683 40.7987 74.5982C40.7987 74.9634 41.0949 75.2595 41.4601 75.2595C41.7238 75.2595 41.9496 75.104 42.0558 74.8808C43.1331 75.3695 44.3279 75.6434 45.586 75.6434H62.4139C63.8473 75.6434 65.1988 75.2883 66.3876 74.6638C66.4211 74.9977 66.6997 75.2593 67.0424 75.2593C67.4076 75.2593 67.7038 74.9634 67.7038 74.598C67.7038 74.3628 67.5803 74.1578 67.3956 74.0404C67.8315 73.7282 68.2378 73.3776 68.6077 72.9914C68.7286 73.1234 68.9008 73.2077 69.094 73.2077C69.1616 73.2077 69.2254 73.1946 69.2868 73.1759V73.4132C69.2868 75.2974 68.524 77.0069 67.2915 78.2498V78.2498ZM69.2868 67.0647C69.2868 70.8544 66.2036 73.9377 62.4139 73.9377H45.586C41.796 73.9377 38.7128 70.8544 38.7128 67.0647V50.2368C38.7128 46.4471 41.796 43.3639 45.586 43.3639H62.4139C66.2036 43.3639 69.2868 46.4471 69.2868 50.2368V67.0647Z" fill="#8b8a8a"/>
<path d="M62.7785 35.3496C62.4133 35.3496 62.1172 35.6458 62.1172 36.011C62.1172 36.3762 62.4133 36.6723 62.7785 36.6723C63.1437 36.6723 63.4399 36.3764 63.4399 36.011C63.4399 35.646 63.1439 35.3496 62.7785 35.3496Z" fill="#8b8a8a"/>
<path d="M58.5149 35.3496C58.1497 35.3496 57.8535 35.6458 57.8535 36.011C57.8535 36.3762 58.1497 36.6723 58.5149 36.6723C58.8801 36.6723 59.1762 36.3764 59.1762 36.011C59.1762 35.646 58.8801 35.3496 58.5149 35.3496Z" fill="#8b8a8a"/>
<path d="M54.2517 35.3496C53.8865 35.3496 53.5903 35.6458 53.5903 36.011C53.5903 36.3762 53.8865 36.6723 54.2517 36.6723C54.6169 36.6723 54.913 36.3764 54.913 36.011C54.913 35.646 54.6169 35.3496 54.2517 35.3496Z" fill="#8b8a8a"/>
<path d="M49.9875 35.3496C49.6223 35.3496 49.3262 35.6458 49.3262 36.011C49.3262 36.3762 49.6223 36.6723 49.9875 36.6723C50.3527 36.6723 50.6489 36.3764 50.6489 36.011C50.6489 35.646 50.3529 35.3496 49.9875 35.3496V35.3496Z" fill="#8b8a8a"/>
<path d="M45.7238 35.3496C45.3586 35.3496 45.0625 35.6458 45.0625 36.011C45.0625 36.3762 45.3586 36.6723 45.7238 36.6723C46.0891 36.6723 46.3852 36.3764 46.3852 36.011C46.3852 35.646 46.0891 35.3496 45.7238 35.3496Z" fill="#8b8a8a"/>
<path d="M41.4602 35.3496C41.095 35.3496 40.7988 35.6458 40.7988 36.011C40.7988 36.3762 41.095 36.6723 41.4602 36.6723C41.8254 36.6723 42.1215 36.3764 42.1215 36.011C42.1215 35.646 41.8254 35.3496 41.4602 35.3496V35.3496Z" fill="#8b8a8a"/>
<path d="M62.4139 0.0078125H45.586C40.8557 0.0078125 37.0073 3.8562 37.0073 8.58624V31.7624C37.0073 36.4926 40.8557 40.341 45.586 40.341H62.4139C67.1441 40.341 70.9923 36.4928 70.9923 31.7624V8.58624C70.9923 3.8562 67.1441 0.0078125 62.4139 0.0078125V0.0078125ZM67.6826 36.1698C67.6951 36.1187 67.7038 36.0662 67.7038 36.0113C67.7038 35.6459 67.4076 35.35 67.0424 35.35C66.6772 35.35 66.3811 35.6461 66.3811 36.0113C66.3811 36.3765 66.6772 36.6727 67.0424 36.6727C67.1181 36.6727 67.1894 36.6574 67.257 36.6339C66.7247 37.1633 66.1063 37.6058 65.4251 37.9392C65.3185 37.7168 65.0933 37.562 64.8302 37.562C64.465 37.562 64.1689 37.8581 64.1689 38.2233C64.1689 38.285 64.1801 38.3434 64.1958 38.4C63.627 38.5529 63.0301 38.6358 62.4139 38.6358H61.0801C61.1712 38.5224 61.2282 38.3803 61.2282 38.2235C61.2282 37.8583 60.9321 37.5622 60.5669 37.5622C60.2017 37.5622 59.9055 37.8583 59.9055 38.2235C59.9055 38.3803 59.9623 38.5224 60.0534 38.6358H56.8164C56.9074 38.5224 56.9642 38.3803 56.9642 38.2235C56.9642 37.8583 56.6681 37.5622 56.3029 37.5622C55.9377 37.5622 55.6415 37.8583 55.6415 38.2235C55.6415 38.3803 55.6983 38.5224 55.7896 38.6358H52.5526C52.6436 38.5224 52.7006 38.3803 52.7006 38.2235C52.7006 37.8583 52.4045 37.5622 52.0393 37.5622C51.6739 37.5622 51.3779 37.8583 51.3779 38.2235C51.3779 38.3803 51.4347 38.5224 51.526 38.6358H48.289C48.3801 38.5224 48.437 38.3803 48.437 38.2235C48.437 37.8583 48.1409 37.5622 47.7757 37.5622C47.4105 37.5622 47.1144 37.8583 47.1144 38.2235C47.1144 38.3803 47.1711 38.5224 47.2624 38.6358H45.5864C45.0839 38.6358 44.5946 38.58 44.1226 38.4773C44.1552 38.3991 44.1735 38.3136 44.1735 38.2235C44.1735 37.8583 43.8773 37.5622 43.5121 37.5622C43.1982 37.5622 42.9368 37.7814 42.869 38.0746C41.3054 37.3991 40.0421 36.1588 39.3343 34.6126C39.6584 34.57 39.9097 34.2957 39.9097 33.9599C39.9097 33.5947 39.6135 33.2984 39.2483 33.2984C39.1244 33.2984 39.0098 33.3346 38.9104 33.3941C38.7825 32.8709 38.7132 32.325 38.7132 31.7628V30.5424C39.7705 31.9558 41.2538 33.0317 42.9698 33.5827C42.8953 33.6896 42.8508 33.8195 42.8508 33.9599C42.8508 34.3251 43.1469 34.6213 43.5121 34.6213C43.8773 34.6213 44.1735 34.3251 44.1735 33.9599C44.1735 33.9299 44.1686 33.9013 44.1646 33.8722C44.6274 33.9498 45.1019 33.9928 45.5864 33.9928H47.1177C47.1353 34.3423 47.4219 34.6211 47.7759 34.6211C48.1299 34.6211 48.4163 34.3423 48.4339 33.9928H51.3815C51.3991 34.3423 51.6855 34.6211 52.0397 34.6211C52.3937 34.6211 52.6801 34.3423 52.6977 33.9928H55.6453C55.6629 34.3423 55.9493 34.6211 56.3033 34.6211C56.6573 34.6211 56.9437 34.3423 56.9612 33.9928H59.9089C59.9265 34.3423 60.2131 34.6211 60.5669 34.6211C60.9206 34.6211 61.2073 34.3423 61.2248 33.9928H62.4141C63.0231 33.9928 63.6162 33.9254 64.1897 33.8042C64.1776 33.8544 64.1693 33.9059 64.1693 33.9597C64.1693 34.3249 64.4655 34.6211 64.8307 34.6211C65.1961 34.6211 65.492 34.3249 65.492 33.9597C65.492 33.7767 65.4177 33.6113 65.2976 33.4914C66.9003 32.9175 68.285 31.8818 69.287 30.5424V31.7626C69.287 32.2913 69.225 32.8054 69.1114 33.3001C69.1055 33.3001 69.1002 33.2984 69.0943 33.2984C68.7291 33.2984 68.4329 33.5947 68.4329 33.9599C68.4329 34.1845 68.5452 34.3819 68.7161 34.5014C68.4513 35.1077 68.102 35.669 67.6826 36.1698V36.1698ZM69.2868 25.4139C69.2868 29.2036 66.2036 32.2869 62.4139 32.2869H45.586C41.796 32.2869 38.7128 29.2036 38.7128 25.4139V8.58603C38.7128 4.79611 41.796 1.71308 45.586 1.71308H62.4139C66.2036 1.71308 69.2868 4.79632 69.2868 8.58603V25.4139Z" fill="#8b8a8a"/>
<path d="M26.4568 76.1484C26.0916 76.1484 25.7954 76.4446 25.7954 76.8098C25.7954 77.1752 26.0916 77.4711 26.4568 77.4711C26.822 77.4711 27.1181 77.1752 27.1181 76.8098C27.1181 76.4446 26.822 76.1484 26.4568 76.1484V76.1484Z" fill="#8b8a8a"/>
<path d="M22.1931 76.1484C21.8279 76.1484 21.5317 76.4446 21.5317 76.8098C21.5317 77.1752 21.8279 77.4711 22.1931 77.4711C22.5583 77.4711 22.8544 77.1752 22.8544 76.8098C22.8544 76.4446 22.5585 76.1484 22.1931 76.1484Z" fill="#8b8a8a"/>
<path d="M24.405 78.2012C24.0398 78.2012 23.7437 78.4973 23.7437 78.8625C23.7437 79.2279 24.0398 79.5239 24.405 79.5239C24.7702 79.5239 25.0663 79.2279 25.0663 78.8625C25.0663 78.4975 24.7704 78.2012 24.405 78.2012Z" fill="#8b8a8a"/>
<path d="M17.9294 76.1484C17.5642 76.1484 17.2681 76.4446 17.2681 76.8098C17.2681 77.1752 17.5642 77.4711 17.9294 77.4711C18.2946 77.4711 18.5908 77.1752 18.5908 76.8098C18.5908 76.4446 18.2946 76.1484 17.9294 76.1484Z" fill="#8b8a8a"/>
<path d="M20.1413 78.2012C19.7761 78.2012 19.48 78.4973 19.48 78.8625C19.48 79.2279 19.7761 79.5239 20.1413 79.5239C20.5067 79.5239 20.8027 79.2279 20.8027 78.8625C20.8029 78.4975 20.5067 78.2012 20.1413 78.2012Z" fill="#8b8a8a"/>
<path d="M13.6657 76.1484C13.3005 76.1484 13.0044 76.4446 13.0044 76.8098C13.0044 77.1752 13.3005 77.4711 13.6657 77.4711C14.0309 77.4711 14.3271 77.1752 14.3271 76.8098C14.3271 76.4446 14.0309 76.1484 13.6657 76.1484Z" fill="#8b8a8a"/>
<path d="M15.8781 78.2012C15.5129 78.2012 15.2168 78.4973 15.2168 78.8625C15.2168 79.2279 15.5129 79.5239 15.8781 79.5239C16.2433 79.5239 16.5395 79.2279 16.5395 78.8625C16.5395 78.4975 16.2433 78.2012 15.8781 78.2012Z" fill="#8b8a8a"/>
<path d="M9.40158 76.1484C9.03638 76.1484 8.74023 76.4446 8.74023 76.8098C8.74023 77.1752 9.03638 77.4711 9.40158 77.4711C9.76678 77.4711 10.0629 77.1752 10.0629 76.8098C10.0629 76.4446 9.76699 76.1484 9.40158 76.1484Z" fill="#8b8a8a"/>
<path d="M11.614 78.2012C11.2488 78.2012 10.9526 78.4973 10.9526 78.8625C10.9526 79.2279 11.2488 79.5239 11.614 79.5239C11.9792 79.5239 12.2753 79.2279 12.2753 78.8625C12.2753 78.4975 11.9792 78.2012 11.614 78.2012Z" fill="#8b8a8a"/>
<path d="M5.1384 77.4711C5.50365 77.4711 5.79974 77.175 5.79974 76.8098C5.79974 76.4445 5.50365 76.1484 5.1384 76.1484C4.77315 76.1484 4.47705 76.4445 4.47705 76.8098C4.47705 77.175 4.77315 77.4711 5.1384 77.4711Z" fill="#8b8a8a"/>
<path d="M7.35031 78.2012C6.98511 78.2012 6.68896 78.4973 6.68896 78.8625C6.68896 79.2279 6.98511 79.5239 7.35031 79.5239C7.71551 79.5239 8.01166 79.2279 8.01166 78.8625C8.01145 78.4975 7.71551 78.2012 7.35031 78.2012Z" fill="#8b8a8a"/>
<path d="M3.08664 73.9375C2.72144 73.9375 2.42529 74.2336 2.42529 74.5991C2.42529 74.9643 2.72144 75.2604 3.08664 75.2604C3.45184 75.2604 3.74798 74.9645 3.74798 74.5991C3.74798 74.2336 3.45184 73.9375 3.08664 73.9375V73.9375Z" fill="#8b8a8a"/>
<path d="M25.4063 41.6582H8.57843C3.84818 41.6582 0 45.5066 0 50.2366V73.413C0 78.1432 3.84818 81.9914 8.57843 81.9914H25.4063C30.1366 81.9914 33.985 78.143 33.985 73.413V50.2366C33.985 45.5066 30.1366 41.6582 25.4063 41.6582V41.6582ZM32.2795 73.413C32.2795 74.6454 31.9518 75.802 31.3813 76.8034C31.3777 76.4413 31.0837 76.1486 30.7206 76.1486C30.3554 76.1486 30.0593 76.4447 30.0593 76.8099C30.0593 77.1754 30.3554 77.4713 30.7206 77.4713C30.817 77.4713 30.9079 77.4497 30.9905 77.4126C30.5244 78.0612 29.9493 78.626 29.2909 79.0789C29.3149 79.0105 29.3305 78.938 29.3305 78.8616C29.3305 78.4963 29.0344 78.2002 28.6692 78.2002C28.304 78.2002 28.0079 78.4963 28.0079 78.8616C28.0079 79.1922 28.251 79.4636 28.5677 79.5127C27.6206 80.0057 26.546 80.2859 25.4065 80.2859H8.57843C4.78872 80.2859 1.70548 77.2027 1.70548 73.413V72.1926C3.27114 74.2859 5.7693 75.6432 8.57843 75.6432H25.4063C28.2155 75.6432 30.7136 74.2857 32.2795 72.1926V73.413ZM32.2795 67.0647C32.2795 70.8544 29.1962 73.9377 25.4063 73.9377H8.57843C4.78872 73.9377 1.70548 70.8544 1.70548 67.0647V50.2368C1.70548 46.4471 4.78872 43.3639 8.57843 43.3639H25.4063C29.1962 43.3639 32.2795 46.4471 32.2795 50.2368V67.0647Z" fill="#8b8a8a"/>
<path d="M104.755 74.8117C104.755 75.1769 105.051 75.4731 105.416 75.4731C105.781 75.4731 106.078 75.1772 106.078 74.8117C106.078 74.4463 105.781 74.1504 105.416 74.1504C105.051 74.1502 104.755 74.4463 104.755 74.8117Z" fill="#8b8a8a"/>
<path d="M103.204 76.3633C102.839 76.3633 102.543 76.6594 102.543 77.0246C102.543 77.39 102.839 77.686 103.204 77.686C103.57 77.686 103.866 77.39 103.866 77.0246C103.866 76.6594 103.57 76.3633 103.204 76.3633Z" fill="#8b8a8a"/>
<path d="M98.9402 76.3633C98.575 76.3633 98.2788 76.6594 98.2788 77.0246C98.2788 77.39 98.575 77.686 98.9402 77.686C99.3054 77.686 99.6015 77.39 99.6015 77.0246C99.6015 76.6594 99.3054 76.3633 98.9402 76.3633Z" fill="#8b8a8a"/>
<path d="M101.153 78.4141C100.787 78.4141 100.491 78.7102 100.491 79.0756C100.491 79.441 100.787 79.737 101.153 79.737C101.518 79.737 101.814 79.4408 101.814 79.0756C101.814 78.7102 101.518 78.4141 101.153 78.4141Z" fill="#8b8a8a"/>
<path d="M94.6765 76.3633C94.3113 76.3633 94.0151 76.6594 94.0151 77.0246C94.0151 77.39 94.3113 77.686 94.6765 77.686C95.0417 77.686 95.3378 77.39 95.3378 77.0246C95.3378 76.6594 95.0419 76.3633 94.6765 76.3633Z" fill="#8b8a8a"/>
<path d="M96.8884 78.4141C96.5232 78.4141 96.2271 78.7102 96.2271 79.0756C96.2271 79.441 96.5232 79.737 96.8884 79.737C97.2536 79.737 97.5497 79.4408 97.5497 79.0756C97.5497 78.7102 97.2536 78.4141 96.8884 78.4141Z" fill="#8b8a8a"/>
<path d="M90.4128 76.3633C90.0476 76.3633 89.7515 76.6594 89.7515 77.0246C89.7515 77.39 90.0476 77.686 90.4128 77.686C90.778 77.686 91.0742 77.39 91.0742 77.0246C91.0742 76.6594 90.778 76.3633 90.4128 76.3633Z" fill="#8b8a8a"/>
<path d="M92.6252 78.4141C92.26 78.4141 91.9639 78.7102 91.9639 79.0756C91.9639 79.441 92.26 79.737 92.6252 79.737C92.9904 79.737 93.2866 79.4408 93.2866 79.0756C93.2866 78.7102 92.9906 78.4141 92.6252 78.4141Z" fill="#8b8a8a"/>
<path d="M86.1491 76.3633C85.7839 76.3633 85.4878 76.6594 85.4878 77.0246C85.4878 77.39 85.7839 77.686 86.1491 77.686C86.5143 77.686 86.8105 77.39 86.8105 77.0246C86.8105 76.6594 86.5143 76.3633 86.1491 76.3633Z" fill="#8b8a8a"/>
<path d="M88.3611 78.4141C87.9959 78.4141 87.6997 78.7102 87.6997 79.0756C87.6997 79.441 87.9959 79.737 88.3611 79.737C88.7263 79.737 89.0224 79.4408 89.0224 79.0756C89.0222 78.7102 88.7263 78.4141 88.3611 78.4141Z" fill="#8b8a8a"/>
<path d="M81.8855 76.3633C81.5203 76.3633 81.2241 76.6594 81.2241 77.0246C81.2241 77.39 81.5203 77.686 81.8855 77.686C82.2507 77.686 82.5468 77.39 82.5468 77.0246C82.5468 76.6594 82.2509 76.3633 81.8855 76.3633Z" fill="#8b8a8a"/>
<path d="M84.0974 78.4141C83.7322 78.4141 83.436 78.7102 83.436 79.0756C83.436 79.441 83.7322 79.737 84.0974 79.737C84.4626 79.737 84.7587 79.4408 84.7587 79.0756C84.7587 78.7102 84.4626 78.4141 84.0974 78.4141Z" fill="#8b8a8a"/>
<path d="M77.6218 76.3633C77.2566 76.3633 76.9604 76.6594 76.9604 77.0246C76.9604 77.39 77.2566 77.686 77.6218 77.686C77.987 77.686 78.2831 77.39 78.2831 77.0246C78.2831 76.6594 77.987 76.3633 77.6218 76.3633Z" fill="#8b8a8a"/>
<path d="M99.4215 41.6582H82.5936C77.8633 41.6582 74.0151 45.5066 74.0151 50.2366V73.413C74.0151 78.1432 77.8633 81.9914 82.5936 81.9914H99.4215C104.152 81.9914 108 78.143 108 73.413V50.2366C108 45.5066 104.152 41.6582 99.4215 41.6582ZM106.295 73.413C106.295 77.2027 103.211 80.2859 99.4215 80.2859H82.5936C81.6338 80.2859 80.7197 80.0874 79.8891 79.7305C80.228 79.7019 80.4951 79.421 80.4951 79.0747C80.4951 78.7095 80.199 78.4131 79.8338 78.4131C79.4686 78.4131 79.1725 78.7092 79.1725 79.0747C79.1725 79.206 79.2119 79.3278 79.2779 79.4308C77.7 78.5578 76.5012 77.0824 75.9911 75.3171C76.1369 75.196 76.2313 75.0155 76.2313 74.8111C76.2313 74.5141 76.0343 74.2656 75.7647 74.1821C75.7363 73.9294 75.7206 73.6731 75.7206 73.413V72.1926C77.2863 74.2859 79.7844 75.6432 82.5936 75.6432H99.4215C102.231 75.6432 104.729 74.2857 106.295 72.1926V73.413ZM106.295 67.0647C106.295 70.8544 103.211 73.9377 99.4215 73.9377H82.5936C78.8039 73.9377 75.7206 70.8544 75.7206 67.0647V50.2368C75.7206 46.4471 78.8039 43.3639 82.5936 43.3639H99.4215C103.211 43.3639 106.295 46.4471 106.295 50.2368V67.0647Z" fill="#8b8a8a"/>
<path d="M18.1022 51.6647C18.0992 51.6569 18.0963 51.6493 18.0931 51.6416C17.9128 51.2031 17.4902 50.9199 17.0159 50.9199C17.0157 50.9199 17.0153 50.9199 17.0148 50.9199C16.5403 50.9203 16.1177 51.2044 15.9305 51.6628L10.7655 65.2244C10.598 65.6646 10.8187 66.1571 11.2589 66.3249C11.3589 66.3628 11.4614 66.381 11.5622 66.381C11.906 66.381 12.2297 66.1717 12.3594 65.8315L13.4365 63.0031H20.5582L21.6246 65.829C21.7909 66.2694 22.2821 66.4925 22.7234 66.3257C23.1642 66.1595 23.3864 65.6676 23.2201 65.227L18.1022 51.6647ZM14.0862 61.2974L17.0138 53.6102L19.9149 61.2974H14.0862Z" fill="#8b8a8a"/>
<path d="M90.2026 51.123H86.422C86.1955 51.123 85.9784 51.2131 85.8185 51.3734C85.6585 51.5338 85.5689 51.7509 85.5693 51.9776C85.5693 51.9776 85.5791 57.1133 85.5791 58.6353C85.5791 60.4902 85.5965 65.3272 85.5965 65.3272C85.5973 65.5534 85.6877 65.7699 85.8483 65.9294C86.0083 66.0881 86.2241 66.1768 86.4491 66.1768H86.4523C86.4804 66.1768 89.2567 66.166 90.3284 66.1474C93.9302 66.0845 96.446 63.0012 96.446 58.6499C96.4458 54.1478 93.9368 51.123 90.2026 51.123V51.123ZM90.2983 64.4421C89.6118 64.4542 88.209 64.4629 87.299 64.4676C87.2941 62.9947 87.2846 60.0034 87.2846 58.6353C87.2846 57.5001 87.2793 54.3556 87.2765 52.8285H90.2026C93.5483 52.8285 94.7403 55.8357 94.7403 58.6499C94.7403 62.0147 92.9136 64.3964 90.2983 64.4421V64.4421Z" fill="#8b8a8a"/>
<path d="M55.8168 57.9597C53.9818 57.2829 52.2851 56.5425 51.9336 56.3877C51.357 55.985 51.0746 55.327 51.1767 54.615C51.2985 53.7668 51.9347 53.0907 52.8786 52.8064C55.2908 52.0802 57.433 53.8158 57.465 53.8425C57.8254 54.1433 58.3617 54.0967 58.6642 53.7365C58.9674 53.376 58.9208 52.8382 58.5604 52.535C58.4454 52.4382 55.7 50.1758 52.3869 51.1734C50.8145 51.647 49.7041 52.8729 49.4888 54.3727C49.2897 55.7591 49.8896 57.092 51.0545 57.8514C51.0922 57.876 51.1318 57.8976 51.1727 57.9158C51.2513 57.951 53.1201 58.7829 55.2266 59.5599C56.934 60.1897 57.793 61.224 57.5832 62.3978C57.386 63.5023 56.1779 64.6761 54.3273 64.6761C52.7197 64.6761 51.1638 64.0185 50.1659 62.9172C49.8498 62.5683 49.3107 62.5419 48.9612 62.8581C48.6123 63.1744 48.5858 63.7135 48.9021 64.0624C50.218 65.5145 52.2463 66.3816 54.3273 66.3816C56.7656 66.3816 58.8871 64.7977 59.2622 62.6975C59.5427 61.1251 58.7852 59.0546 55.8168 57.9597Z" fill="#8b8a8a"/>
<path d="M63.9488 9.3274C63.5055 9.17234 63.0178 9.40557 62.8621 9.85L58.8254 21.367L54.8631 9.75192C54.858 9.73709 54.8495 9.72438 54.8438 9.70997C54.8326 9.68222 54.8205 9.65511 54.8065 9.62863C54.7936 9.60448 54.7798 9.5816 54.765 9.55894C54.7497 9.53585 54.7336 9.5136 54.716 9.492C54.6985 9.47039 54.6803 9.45005 54.6608 9.43035C54.6417 9.41087 54.6218 9.39244 54.6006 9.37485C54.579 9.35685 54.5565 9.34011 54.533 9.32422C54.5112 9.3094 54.489 9.29541 54.4655 9.28249C54.4385 9.26766 54.4108 9.25517 54.3824 9.24309C54.3684 9.23737 54.3564 9.22911 54.342 9.22403C54.3322 9.22064 54.322 9.21979 54.3123 9.21661C54.2822 9.20729 54.2519 9.2003 54.221 9.19416C54.1962 9.18929 54.1714 9.1842 54.1466 9.18145C54.118 9.17827 54.0892 9.17806 54.06 9.17785C54.0325 9.17764 54.0051 9.17742 53.9778 9.18018C53.9518 9.18251 53.9261 9.18738 53.9001 9.19225C53.8698 9.19797 53.8399 9.20433 53.8105 9.21322C53.8005 9.21619 53.7903 9.21682 53.7804 9.22021C53.766 9.22509 53.7537 9.23335 53.7397 9.23885C53.7111 9.25029 53.6834 9.26258 53.6562 9.27699C53.6327 9.28948 53.6105 9.30304 53.5885 9.31745C53.5647 9.33312 53.5419 9.34964 53.5196 9.36765C53.4986 9.38481 53.4787 9.4026 53.4597 9.42146C53.4397 9.44116 53.4207 9.46149 53.4027 9.48331C53.3851 9.5045 53.369 9.5261 53.3535 9.54898C53.3383 9.57144 53.3239 9.59431 53.3107 9.61846C53.2963 9.64494 53.2838 9.67184 53.2722 9.69981C53.2663 9.714 53.2578 9.7265 53.2527 9.7409L49.0993 21.3947L45.1394 9.87139C44.9865 9.42612 44.502 9.18929 44.0559 9.34202C43.6104 9.49496 43.3734 9.98027 43.5265 10.4255L48.2782 24.2532C48.396 24.596 48.7175 24.8269 49.08 24.8288H49.0849C49.4452 24.8288 49.7672 24.6021 49.8881 24.2623L54.0384 12.6168L58.0073 24.2513C58.1247 24.5953 58.4473 24.8273 58.8108 24.8288H58.8144C59.1764 24.8288 59.4993 24.6 59.6189 24.2581L64.4714 10.4141C64.6273 9.96989 64.3933 9.48331 63.9488 9.3274V9.3274Z" fill="#8b8a8a"/>
</svg>
