<svg width="29" height="28" viewBox="0 0 29 28" fill="none" xmlns="http://www.w3.org/2000/svg">
<g clip-path="url(#clip0)">
<path d="M-27.9758 -26.2539H-17.0299V43.4961C-14.3947 40.9826 -10.9285 38.4691 -6.6312 35.9556C-2.37445 33.442 1.45664 31.5569 4.86204 30.3001V40.8812C-1.25958 43.7596 -6.61093 47.2461 -11.192 51.3407C-15.7731 55.4353 -19.0163 59.4083 -20.9217 63.2596H-27.9758V-26.2539ZM-112.868 41.0637L-101.983 40.2123C-101.01 44.5096 -99.6312 47.6312 -97.8474 49.5772C-94.888 52.6988 -91.2393 54.2596 -86.9015 54.2596C-83.415 54.2596 -80.3542 53.2866 -77.719 51.3407C-74.2731 48.8272 -71.5569 45.1583 -69.5704 40.3339C-67.5839 35.5096 -66.5501 28.638 -66.469 19.7191C-69.1042 23.7326 -72.3272 26.7123 -76.138 28.6583C-79.9488 30.6042 -83.942 31.5772 -88.1177 31.5772C-95.415 31.5772 -101.618 28.8812 -106.726 23.4893C-111.874 18.138 -114.449 11.2056 -114.449 2.69204C-114.449 -2.90255 -113.233 -8.11201 -110.8 -12.9363C-108.408 -17.7201 -105.104 -21.389 -100.888 -23.9431C-96.6717 -26.4971 -91.888 -27.7742 -86.5366 -27.7742C-77.415 -27.7742 -69.9758 -24.4296 -64.219 -17.7404C-58.4623 -11.0107 -55.5839 0.056905 -55.5839 15.4623C-55.5839 32.692 -58.7663 45.2191 -65.1312 53.0434C-70.6853 59.8542 -78.165 63.2596 -87.5704 63.2596C-94.5839 63.2596 -100.32 61.2934 -104.78 57.361C-109.28 53.4285 -111.976 47.9961 -112.868 41.0637ZM-68.1717 2.63123C-68.1717 -1.13904 -68.9623 -4.74715 -70.5434 -8.1931C-72.165 -11.639 -74.415 -14.2742 -77.2934 -16.0985C-80.1717 -17.8823 -83.192 -18.7742 -86.3542 -18.7742C-90.9758 -18.7742 -94.9488 -16.9093 -98.2731 -13.1796C-101.597 -9.44985 -103.26 -4.38228 -103.26 2.02312C-103.26 8.18528 -101.618 13.0299 -98.3339 16.5569C-95.0501 20.1245 -90.915 21.9083 -85.9285 21.9083C-80.9826 21.9083 -76.7866 20.1245 -73.3407 16.5569C-69.8947 13.0299 -68.1717 8.38799 -68.1717 2.63123ZM-182.922 -15.7336V-26.2539H-123.996C-123.915 -23.6188 -124.341 -21.085 -125.273 -18.6526C-126.773 -14.639 -129.165 -10.6863 -132.449 -6.79445C-135.773 -2.90255 -140.557 1.59745 -146.8 6.70555C-156.489 14.6515 -163.037 20.9353 -166.442 25.5569C-169.847 30.2191 -171.55 34.6177 -171.55 38.7529C-171.55 43.0907 -169.989 46.7393 -166.868 49.6988C-163.787 52.6988 -159.753 54.1988 -154.766 54.1988C-149.496 54.1988 -145.28 52.6177 -142.118 49.4556C-138.956 46.2934 -137.354 41.915 -137.314 36.3204L-126.064 37.4758C-126.834 45.8677 -129.733 52.2529 -134.76 56.6312C-139.787 61.0501 -146.537 63.2596 -155.01 63.2596C-163.564 63.2596 -170.334 60.888 -175.32 56.1447C-180.307 51.4015 -182.8 45.5231 -182.8 38.5096C-182.8 34.942 -182.07 31.4353 -180.611 27.9893C-179.151 24.5434 -176.719 20.915 -173.314 17.1042C-169.949 13.2934 -164.334 8.06366 -156.469 1.41501C-149.901 -4.0985 -145.685 -7.8485 -143.82 -9.83499C-141.956 -11.7809 -140.415 -13.7471 -139.199 -15.7336H-182.922ZM-251.516 41.0637L-240.631 40.2123C-239.658 44.5096 -238.28 47.6312 -236.496 49.5772C-233.537 52.6988 -229.888 54.2596 -225.55 54.2596C-222.064 54.2596 -219.003 53.2866 -216.368 51.3407C-212.922 48.8272 -210.206 45.1583 -208.219 40.3339C-206.233 35.5096 -205.199 28.638 -205.118 19.7191C-207.753 23.7326 -210.976 26.7123 -214.787 28.6583C-218.597 30.6042 -222.591 31.5772 -226.766 31.5772C-234.064 31.5772 -240.266 28.8812 -245.374 23.4893C-250.523 18.138 -253.097 11.2056 -253.097 2.69204C-253.097 -2.90255 -251.881 -8.11201 -249.449 -12.9363C-247.057 -17.7201 -243.753 -21.389 -239.537 -23.9431C-235.32 -26.4971 -230.537 -27.7742 -225.185 -27.7742C-216.064 -27.7742 -208.624 -24.4296 -202.868 -17.7404C-197.111 -11.0107 -194.233 0.056905 -194.233 15.4623C-194.233 32.692 -197.415 45.2191 -203.78 53.0434C-209.334 59.8542 -216.814 63.2596 -226.219 63.2596C-233.233 63.2596 -238.969 61.2934 -243.429 57.361C-247.929 53.4285 -250.624 47.9961 -251.516 41.0637ZM-206.82 2.63123C-206.82 -1.13904 -207.611 -4.74715 -209.192 -8.1931C-210.814 -11.639 -213.064 -14.2742 -215.942 -16.0985C-218.82 -17.8823 -221.841 -18.7742 -225.003 -18.7742C-229.624 -18.7742 -233.597 -16.9093 -236.922 -13.1796C-240.246 -9.44985 -241.908 -4.38228 -241.908 2.02312C-241.908 8.18528 -240.266 13.0299 -236.983 16.5569C-233.699 20.1245 -229.564 21.9083 -224.577 21.9083C-219.631 21.9083 -215.435 20.1245 -211.989 16.5569C-208.543 13.0299 -206.82 8.38799 -206.82 2.63123ZM13.1931 -145.72L2.24718 -144.261C0.990419 -150.463 -1.13796 -154.943 -4.13796 -157.7C-7.1785 -160.416 -10.8677 -161.774 -15.2055 -161.774C-20.3542 -161.774 -24.692 -159.99 -28.219 -156.423C-31.7866 -152.855 -33.5704 -148.436 -33.5704 -143.166C-33.5704 -138.139 -31.9285 -134.004 -28.6447 -130.761C-25.3609 -127.477 -21.1853 -125.835 -16.1177 -125.835C-14.0501 -125.835 -11.4758 -126.24 -8.39472 -127.051L-9.61093 -117.443C-10.3407 -117.524 -10.9285 -117.565 -11.3744 -117.565C-16.0366 -117.565 -20.2326 -116.348 -23.9623 -113.916C-27.692 -111.484 -29.5569 -107.734 -29.5569 -102.666C-29.5569 -98.6526 -28.1988 -95.3282 -25.4826 -92.6931C-22.7663 -90.058 -19.2596 -88.7404 -14.9623 -88.7404C-10.7055 -88.7404 -7.15823 -90.0782 -4.32039 -92.7539C-1.48255 -95.4296 0.34177 -99.4431 1.15258 -104.794L12.0985 -102.848C10.7607 -95.5107 7.72015 -89.835 2.97691 -85.8215C-1.76634 -81.7674 -7.66499 -79.7404 -14.719 -79.7404C-19.5839 -79.7404 -24.0636 -80.7944 -28.1582 -82.9026C-32.2528 -84.9701 -35.3744 -87.808 -37.5231 -91.4161C-39.7123 -95.0242 -40.8069 -98.8553 -40.8069 -102.909C-40.8069 -106.761 -39.7731 -110.267 -37.7055 -113.43C-35.638 -116.592 -32.5771 -119.105 -28.5231 -120.97C-33.7934 -122.186 -37.888 -124.72 -40.8069 -128.571C-43.7258 -132.382 -45.1853 -137.166 -45.1853 -142.923C-45.1853 -150.707 -42.3474 -157.315 -36.6717 -162.747C-30.9961 -168.139 -23.8204 -170.835 -15.1447 -170.835C-7.32039 -170.835 -0.813635 -168.504 4.37555 -163.842C9.5242 -159.18 12.4634 -153.139 13.1931 -145.72ZM-112.868 -101.936L-101.983 -102.788C-101.01 -98.4904 -99.6312 -95.3688 -97.8474 -93.4228C-94.888 -90.3012 -91.2393 -88.7404 -86.9015 -88.7404C-83.415 -88.7404 -80.3542 -89.7134 -77.719 -91.6593C-74.2731 -94.1728 -71.5569 -97.8417 -69.5704 -102.666C-67.5839 -107.49 -66.5501 -114.362 -66.469 -123.281C-69.1042 -119.267 -72.3272 -116.288 -76.138 -114.342C-79.9488 -112.396 -83.942 -111.423 -88.1177 -111.423C-95.415 -111.423 -101.618 -114.119 -106.726 -119.511C-111.874 -124.862 -114.449 -131.794 -114.449 -140.308C-114.449 -145.903 -113.233 -151.112 -110.8 -155.936C-108.408 -160.72 -105.104 -164.389 -100.888 -166.943C-96.6717 -169.497 -91.888 -170.774 -86.5366 -170.774C-77.415 -170.774 -69.9758 -167.43 -64.219 -160.74C-58.4623 -154.011 -55.5839 -142.943 -55.5839 -127.538C-55.5839 -110.308 -58.7663 -97.7809 -65.1312 -89.9566C-70.6853 -83.1458 -78.165 -79.7404 -87.5704 -79.7404C-94.5839 -79.7404 -100.32 -81.7066 -104.78 -85.639C-109.28 -89.5715 -111.976 -95.0039 -112.868 -101.936ZM-68.1717 -140.369C-68.1717 -144.139 -68.9623 -147.747 -70.5434 -151.193C-72.165 -154.639 -74.415 -157.274 -77.2934 -159.099C-80.1717 -160.882 -83.192 -161.774 -86.3542 -161.774C-90.9758 -161.774 -94.9488 -159.909 -98.2731 -156.18C-101.597 -152.45 -103.26 -147.382 -103.26 -140.977C-103.26 -134.815 -101.618 -129.97 -98.3339 -126.443C-95.0501 -122.876 -90.915 -121.092 -85.9285 -121.092C-80.9826 -121.092 -76.7866 -122.876 -73.3407 -126.443C-69.8947 -129.97 -68.1717 -134.612 -68.1717 -140.369ZM-160.483 -169.254V-147.909H-121.807V-137.876L-162.489 -80.1053H-171.429V-137.876H-183.469V-147.909H-171.429V-169.254H-160.483ZM-160.483 -137.876V-97.6796L-132.57 -137.876H-160.483ZM-251.516 -101.936L-240.631 -102.788C-239.658 -98.4904 -238.28 -95.3688 -236.496 -93.4228C-233.537 -90.3012 -229.888 -88.7404 -225.55 -88.7404C-222.064 -88.7404 -219.003 -89.7134 -216.368 -91.6593C-212.922 -94.1728 -210.206 -97.8417 -208.219 -102.666C-206.233 -107.49 -205.199 -114.362 -205.118 -123.281C-207.753 -119.267 -210.976 -116.288 -214.787 -114.342C-218.597 -112.396 -222.591 -111.423 -226.766 -111.423C-234.064 -111.423 -240.266 -114.119 -245.374 -119.511C-250.523 -124.862 -253.097 -131.794 -253.097 -140.308C-253.097 -145.903 -251.881 -151.112 -249.449 -155.936C-247.057 -160.72 -243.753 -164.389 -239.537 -166.943C-235.32 -169.497 -230.537 -170.774 -225.185 -170.774C-216.064 -170.774 -208.624 -167.43 -202.868 -160.74C-197.111 -154.011 -194.233 -142.943 -194.233 -127.538C-194.233 -110.308 -197.415 -97.7809 -203.78 -89.9566C-209.334 -83.1458 -216.814 -79.7404 -226.219 -79.7404C-233.233 -79.7404 -238.969 -81.7066 -243.429 -85.639C-247.929 -89.5715 -250.624 -95.0039 -251.516 -101.936ZM-206.82 -140.369C-206.82 -144.139 -207.611 -147.747 -209.192 -151.193C-210.814 -154.639 -213.064 -157.274 -215.942 -159.099C-218.82 -160.882 -221.841 -161.774 -225.003 -161.774C-229.624 -161.774 -233.597 -159.909 -236.922 -156.18C-240.246 -152.45 -241.908 -147.382 -241.908 -140.977C-241.908 -134.815 -240.266 -129.97 -236.983 -126.443C-233.699 -122.876 -229.564 -121.092 -224.577 -121.092C-219.631 -121.092 -215.435 -122.876 -211.989 -126.443C-208.543 -129.97 -206.82 -134.612 -206.82 -140.369ZM13.2539 -288.903L1.76069 -287.93C0.909338 -293.524 -1.05688 -297.74 -4.13796 -300.578C-7.25958 -303.376 -11.0096 -304.774 -15.388 -304.774C-20.6582 -304.774 -25.1177 -302.788 -28.7663 -298.815C-32.415 -294.842 -34.2393 -289.571 -34.2393 -283.004C-34.2393 -276.761 -32.4758 -271.835 -28.9488 -268.227C-25.4623 -264.619 -20.8812 -262.815 -15.2055 -262.815C-11.6785 -262.815 -8.49607 -263.626 -5.65823 -265.247C-2.82039 -266.828 -0.590662 -268.896 1.03096 -271.45L11.308 -270.112L2.67285 -224.321H-41.6582V-234.781H-6.08391L-1.27985 -258.74C-6.6312 -255.011 -12.2461 -253.146 -18.1244 -253.146C-25.9082 -253.146 -32.4758 -255.842 -37.8271 -261.234C-43.1785 -266.626 -45.8542 -273.558 -45.8542 -282.031C-45.8542 -290.099 -43.5028 -297.071 -38.8001 -302.95C-33.0839 -310.166 -25.2799 -313.774 -15.388 -313.774C-7.27985 -313.774 -0.651473 -311.504 4.49718 -306.963C9.60528 -302.423 12.5242 -296.403 13.2539 -288.903ZM-112.868 -244.936L-101.983 -245.788C-101.01 -241.49 -99.6312 -238.369 -97.8474 -236.423C-94.888 -233.301 -91.2393 -231.74 -86.9015 -231.74C-83.415 -231.74 -80.3542 -232.713 -77.719 -234.659C-74.2731 -237.173 -71.5569 -240.842 -69.5704 -245.666C-67.5839 -250.49 -66.5501 -257.362 -66.469 -266.281C-69.1042 -262.267 -72.3272 -259.288 -76.138 -257.342C-79.9488 -255.396 -83.942 -254.423 -88.1177 -254.423C-95.415 -254.423 -101.618 -257.119 -106.726 -262.511C-111.874 -267.862 -114.449 -274.794 -114.449 -283.308C-114.449 -288.903 -113.233 -294.112 -110.8 -298.936C-108.408 -303.72 -105.104 -307.389 -100.888 -309.943C-96.6717 -312.497 -91.888 -313.774 -86.5366 -313.774C-77.415 -313.774 -69.9758 -310.43 -64.219 -303.74C-58.4623 -297.011 -55.5839 -285.943 -55.5839 -270.538C-55.5839 -253.308 -58.7663 -240.781 -65.1312 -232.957C-70.6853 -226.146 -78.165 -222.74 -87.5704 -222.74C-94.5839 -222.74 -100.32 -224.707 -104.78 -228.639C-109.28 -232.571 -111.976 -238.004 -112.868 -244.936ZM-68.1717 -283.369C-68.1717 -287.139 -68.9623 -290.747 -70.5434 -294.193C-72.165 -297.639 -74.415 -300.274 -77.2934 -302.099C-80.1717 -303.882 -83.192 -304.774 -86.3542 -304.774C-90.9758 -304.774 -94.9488 -302.909 -98.2731 -299.18C-101.597 -295.45 -103.26 -290.382 -103.26 -283.977C-103.26 -277.815 -101.618 -272.97 -98.3339 -269.443C-95.0501 -265.876 -90.915 -264.092 -85.9285 -264.092C-80.9826 -264.092 -76.7866 -265.876 -73.3407 -269.443C-69.8947 -272.97 -68.1717 -277.612 -68.1717 -283.369ZM-182.192 -244.936L-171.307 -245.788C-170.334 -241.49 -168.956 -238.369 -167.172 -236.423C-164.212 -233.301 -160.564 -231.74 -156.226 -231.74C-152.739 -231.74 -149.679 -232.713 -147.043 -234.659C-143.597 -237.173 -140.881 -240.842 -138.895 -245.666C-136.908 -250.49 -135.874 -257.362 -135.793 -266.281C-138.429 -262.267 -141.651 -259.288 -145.462 -257.342C-149.273 -255.396 -153.266 -254.423 -157.442 -254.423C-164.739 -254.423 -170.942 -257.119 -176.05 -262.511C-181.199 -267.862 -183.773 -274.794 -183.773 -283.308C-183.773 -288.903 -182.557 -294.112 -180.124 -298.936C-177.733 -303.72 -174.429 -307.389 -170.212 -309.943C-165.996 -312.497 -161.212 -313.774 -155.861 -313.774C-146.739 -313.774 -139.3 -310.43 -133.543 -303.74C-127.787 -297.011 -124.908 -285.943 -124.908 -270.538C-124.908 -253.308 -128.091 -240.781 -134.456 -232.957C-140.01 -226.146 -147.489 -222.74 -156.895 -222.74C-163.908 -222.74 -169.645 -224.707 -174.104 -228.639C-178.604 -232.571 -181.3 -238.004 -182.192 -244.936ZM-137.496 -283.369C-137.496 -287.139 -138.287 -290.747 -139.868 -294.193C-141.489 -297.639 -143.739 -300.274 -146.618 -302.099C-149.496 -303.882 -152.516 -304.774 -155.679 -304.774C-160.3 -304.774 -164.273 -302.909 -167.597 -299.18C-170.922 -295.45 -172.584 -290.382 -172.584 -283.977C-172.584 -277.815 -170.942 -272.97 -167.658 -269.443C-164.374 -265.876 -160.239 -264.092 -155.253 -264.092C-150.307 -264.092 -146.111 -265.876 -142.665 -269.443C-139.219 -272.97 -137.496 -277.612 -137.496 -283.369ZM-251.516 -244.936L-240.631 -245.788C-239.658 -241.49 -238.28 -238.369 -236.496 -236.423C-233.537 -233.301 -229.888 -231.74 -225.55 -231.74C-222.064 -231.74 -219.003 -232.713 -216.368 -234.659C-212.922 -237.173 -210.206 -240.842 -208.219 -245.666C-206.233 -250.49 -205.199 -257.362 -205.118 -266.281C-207.753 -262.267 -210.976 -259.288 -214.787 -257.342C-218.597 -255.396 -222.591 -254.423 -226.766 -254.423C-234.064 -254.423 -240.266 -257.119 -245.374 -262.511C-250.523 -267.862 -253.097 -274.794 -253.097 -283.308C-253.097 -288.903 -251.881 -294.112 -249.449 -298.936C-247.057 -303.72 -243.753 -307.389 -239.537 -309.943C-235.32 -312.497 -230.537 -313.774 -225.185 -313.774C-216.064 -313.774 -208.624 -310.43 -202.868 -303.74C-197.111 -297.011 -194.233 -285.943 -194.233 -270.538C-194.233 -253.308 -197.415 -240.781 -203.78 -232.957C-209.334 -226.146 -216.814 -222.74 -226.219 -222.74C-233.233 -222.74 -238.969 -224.707 -243.429 -228.639C-247.929 -232.571 -250.624 -238.004 -251.516 -244.936ZM-206.82 -283.369C-206.82 -287.139 -207.611 -290.747 -209.192 -294.193C-210.814 -297.639 -213.064 -300.274 -215.942 -302.099C-218.82 -303.882 -221.841 -304.774 -225.003 -304.774C-229.624 -304.774 -233.597 -302.909 -236.922 -299.18C-240.246 -295.45 -241.908 -290.382 -241.908 -283.977C-241.908 -277.815 -240.266 -272.97 -236.983 -269.443C-233.699 -265.876 -229.564 -264.092 -224.577 -264.092C-219.631 -264.092 -215.435 -265.876 -211.989 -269.443C-208.543 -272.97 -206.82 -277.612 -206.82 -283.369ZM12.5242 -377.781V-367.261H-45.1853V-375.774C-39.5096 -381.815 -33.8744 -389.842 -28.2799 -399.855C-22.7258 -409.869 -18.4285 -420.166 -15.388 -430.747C-13.1988 -438.207 -11.8001 -446.376 -11.192 -455.254H0.0579864C-0.0636352 -448.24 -1.44201 -439.767 -4.07715 -429.835C-6.71228 -419.903 -10.4826 -410.335 -15.388 -401.132C-20.3339 -391.889 -25.5839 -384.105 -31.138 -377.781H12.5242ZM-112.868 -387.936L-101.983 -388.788C-101.01 -384.49 -99.6312 -381.369 -97.8474 -379.423C-94.888 -376.301 -91.2393 -374.74 -86.9015 -374.74C-83.415 -374.74 -80.3542 -375.713 -77.719 -377.659C-74.2731 -380.173 -71.5569 -383.842 -69.5704 -388.666C-67.5839 -393.49 -66.5501 -400.362 -66.469 -409.281C-69.1042 -405.267 -72.3272 -402.288 -76.138 -400.342C-79.9488 -398.396 -83.942 -397.423 -88.1177 -397.423C-95.415 -397.423 -101.618 -400.119 -106.726 -405.511C-111.874 -410.862 -114.449 -417.794 -114.449 -426.308C-114.449 -431.903 -113.233 -437.112 -110.8 -441.936C-108.408 -446.72 -105.104 -450.389 -100.888 -452.943C-96.6717 -455.497 -91.888 -456.774 -86.5366 -456.774C-77.415 -456.774 -69.9758 -453.43 -64.219 -446.74C-58.4623 -440.011 -55.5839 -428.943 -55.5839 -413.538C-55.5839 -396.308 -58.7663 -383.781 -65.1312 -375.957C-70.6853 -369.146 -78.165 -365.74 -87.5704 -365.74C-94.5839 -365.74 -100.32 -367.707 -104.78 -371.639C-109.28 -375.571 -111.976 -381.004 -112.868 -387.936ZM-68.1717 -426.369C-68.1717 -430.139 -68.9623 -433.747 -70.5434 -437.193C-72.165 -440.639 -74.415 -443.274 -77.2934 -445.099C-80.1717 -446.882 -83.192 -447.774 -86.3542 -447.774C-90.9758 -447.774 -94.9488 -445.909 -98.2731 -442.18C-101.597 -438.45 -103.26 -433.382 -103.26 -426.977C-103.26 -420.815 -101.618 -415.97 -98.3339 -412.443C-95.0501 -408.876 -90.915 -407.092 -85.9285 -407.092C-80.9826 -407.092 -76.7866 -408.876 -73.3407 -412.443C-69.8947 -415.97 -68.1717 -420.612 -68.1717 -426.369ZM-142.239 -406.909C-137.699 -405.247 -134.334 -402.876 -132.145 -399.794C-129.956 -396.713 -128.861 -393.024 -128.861 -388.727C-128.861 -382.24 -131.192 -376.788 -135.854 -372.369C-140.516 -367.95 -146.719 -365.74 -154.462 -365.74C-162.246 -365.74 -168.51 -368.011 -173.253 -372.551C-177.996 -377.051 -180.368 -382.544 -180.368 -389.031C-180.368 -393.166 -179.273 -396.774 -177.084 -399.855C-174.935 -402.896 -171.651 -405.247 -167.233 -406.909C-172.706 -408.693 -176.861 -411.571 -179.699 -415.544C-182.577 -419.517 -184.016 -424.261 -184.016 -429.774C-184.016 -437.396 -181.32 -443.801 -175.929 -448.99C-170.537 -454.18 -163.442 -456.774 -154.645 -456.774C-145.847 -456.774 -138.753 -454.18 -133.361 -448.99C-127.969 -443.761 -125.273 -437.254 -125.273 -429.47C-125.273 -423.673 -126.733 -418.828 -129.651 -414.936C-132.611 -411.004 -136.807 -408.328 -142.239 -406.909ZM-140.05 -388.362C-140.05 -392.578 -141.408 -396.024 -144.124 -398.7C-146.841 -401.376 -150.368 -402.713 -154.706 -402.713C-158.922 -402.713 -162.368 -401.396 -165.043 -398.761C-167.76 -396.085 -169.118 -392.821 -169.118 -388.97C-169.118 -384.957 -167.719 -381.592 -164.922 -378.876C-162.165 -376.119 -158.719 -374.74 -154.584 -374.74C-150.408 -374.74 -146.942 -376.078 -144.185 -378.754C-141.429 -381.43 -140.05 -384.632 -140.05 -388.362ZM-136.523 -429.531C-136.523 -432.653 -137.253 -435.673 -138.712 -438.592C-140.212 -441.511 -142.422 -443.781 -145.341 -445.403C-148.26 -446.984 -151.401 -447.774 -154.766 -447.774C-159.996 -447.774 -164.314 -446.092 -167.719 -442.727C-171.124 -439.362 -172.827 -435.085 -172.827 -429.896C-172.827 -424.626 -171.064 -420.267 -167.537 -416.821C-164.05 -413.376 -159.672 -411.653 -154.401 -411.653C-149.253 -411.653 -144.976 -413.355 -141.57 -416.761C-138.206 -420.166 -136.523 -424.423 -136.523 -429.531ZM-251.516 -387.936L-240.631 -388.788C-239.658 -384.49 -238.28 -381.369 -236.496 -379.423C-233.537 -376.301 -229.888 -374.74 -225.55 -374.74C-222.064 -374.74 -219.003 -375.713 -216.368 -377.659C-212.922 -380.173 -210.206 -383.842 -208.219 -388.666C-206.233 -393.49 -205.199 -400.362 -205.118 -409.281C-207.753 -405.267 -210.976 -402.288 -214.787 -400.342C-218.597 -398.396 -222.591 -397.423 -226.766 -397.423C-234.064 -397.423 -240.266 -400.119 -245.374 -405.511C-250.523 -410.862 -253.097 -417.794 -253.097 -426.308C-253.097 -431.903 -251.881 -437.112 -249.449 -441.936C-247.057 -446.72 -243.753 -450.389 -239.537 -452.943C-235.32 -455.497 -230.537 -456.774 -225.185 -456.774C-216.064 -456.774 -208.624 -453.43 -202.868 -446.74C-197.111 -440.011 -194.233 -428.943 -194.233 -413.538C-194.233 -396.308 -197.415 -383.781 -203.78 -375.957C-209.334 -369.146 -216.814 -365.74 -226.219 -365.74C-233.233 -365.74 -238.969 -367.707 -243.429 -371.639C-247.929 -375.571 -250.624 -381.004 -251.516 -387.936ZM-206.82 -426.369C-206.82 -430.139 -207.611 -433.747 -209.192 -437.193C-210.814 -440.639 -213.064 -443.274 -215.942 -445.099C-218.82 -446.882 -221.841 -447.774 -225.003 -447.774C-229.624 -447.774 -233.597 -445.909 -236.922 -442.18C-240.246 -438.45 -241.908 -433.382 -241.908 -426.977C-241.908 -420.815 -240.266 -415.97 -236.983 -412.443C-233.699 -408.876 -229.564 -407.092 -224.577 -407.092C-219.631 -407.092 -215.435 -408.876 -211.989 -412.443C-208.543 -415.97 -206.82 -420.612 -206.82 -426.369ZM11.612 -577.639L1.09177 -576.666C0.199878 -581.612 -1.50282 -585.2 -4.01634 -587.43C-6.52985 -589.659 -9.75282 -590.774 -13.6853 -590.774C-17.0501 -590.774 -19.9893 -590.004 -22.5028 -588.463C-25.0569 -586.923 -27.1447 -584.876 -28.7663 -582.321C-30.388 -579.727 -31.7461 -576.24 -32.8407 -571.862C-33.9353 -567.484 -34.4826 -563.024 -34.4826 -558.484C-34.4826 -557.997 -34.4623 -557.267 -34.4217 -556.294C-32.2326 -559.781 -29.2326 -562.619 -25.4217 -564.808C-21.6515 -566.957 -17.5569 -568.031 -13.138 -568.031C-5.75958 -568.031 0.483662 -565.355 5.59177 -560.004C10.6999 -554.653 13.2539 -547.599 13.2539 -538.842C13.2539 -529.801 10.5985 -522.524 5.28772 -517.011C-0.0636352 -511.497 -6.75282 -508.74 -14.7799 -508.74C-20.5771 -508.74 -25.8677 -510.301 -30.6515 -513.423C-35.4758 -516.544 -39.1244 -521.004 -41.5974 -526.801C-44.1109 -532.558 -45.3677 -540.909 -45.3677 -551.855C-45.3677 -563.247 -44.1312 -572.328 -41.6582 -579.099C-39.1853 -585.828 -35.4961 -590.957 -30.5907 -594.484C-25.7258 -598.011 -20.0096 -599.774 -13.442 -599.774C-6.46904 -599.774 -0.773095 -597.849 3.64582 -593.997C8.06474 -590.105 10.7201 -584.653 11.612 -577.639ZM-33.2055 -538.294C-33.2055 -532.011 -31.5231 -527.024 -28.1582 -523.335C-24.8339 -519.646 -20.8204 -517.801 -16.1177 -517.801C-11.2528 -517.801 -7.01634 -519.788 -3.40823 -523.761C0.199878 -527.734 2.00393 -532.882 2.00393 -539.207C2.00393 -544.882 0.30123 -549.504 -3.10418 -553.071C-6.55012 -556.599 -10.7866 -558.362 -15.8136 -558.362C-20.8812 -558.362 -25.0366 -556.599 -28.2799 -553.071C-31.5636 -549.504 -33.2055 -544.578 -33.2055 -538.294ZM-112.868 -530.936L-101.983 -531.788C-101.01 -527.49 -99.6312 -524.369 -97.8474 -522.423C-94.888 -519.301 -91.2393 -517.74 -86.9015 -517.74C-83.415 -517.74 -80.3542 -518.713 -77.719 -520.659C-74.2731 -523.173 -71.5569 -526.842 -69.5704 -531.666C-67.5839 -536.49 -66.5501 -543.362 -66.469 -552.281C-69.1042 -548.267 -72.3272 -545.288 -76.138 -543.342C-79.9488 -541.396 -83.942 -540.423 -88.1177 -540.423C-95.415 -540.423 -101.618 -543.119 -106.726 -548.511C-111.874 -553.862 -114.449 -560.794 -114.449 -569.308C-114.449 -574.903 -113.233 -580.112 -110.8 -584.936C-108.408 -589.72 -105.104 -593.389 -100.888 -595.943C-96.6717 -598.497 -91.888 -599.774 -86.5366 -599.774C-77.415 -599.774 -69.9758 -596.43 -64.219 -589.74C-58.4623 -583.011 -55.5839 -571.943 -55.5839 -556.538C-55.5839 -539.308 -58.7663 -526.781 -65.1312 -518.957C-70.6853 -512.146 -78.165 -508.74 -87.5704 -508.74C-94.5839 -508.74 -100.32 -510.707 -104.78 -514.639C-109.28 -518.571 -111.976 -524.004 -112.868 -530.936ZM-68.1717 -569.369C-68.1717 -573.139 -68.9623 -576.747 -70.5434 -580.193C-72.165 -583.639 -74.415 -586.274 -77.2934 -588.099C-80.1717 -589.882 -83.192 -590.774 -86.3542 -590.774C-90.9758 -590.774 -94.9488 -588.909 -98.2731 -585.18C-101.597 -581.45 -103.26 -576.382 -103.26 -569.977C-103.26 -563.815 -101.618 -558.97 -98.3339 -555.443C-95.0501 -551.876 -90.915 -550.092 -85.9285 -550.092C-80.9826 -550.092 -76.7866 -551.876 -73.3407 -555.443C-69.8947 -558.97 -68.1717 -563.612 -68.1717 -569.369ZM-166.624 -598.254H-155.679V-528.504C-153.043 -531.017 -149.577 -533.531 -145.28 -536.044C-141.023 -538.558 -137.192 -540.443 -133.787 -541.7V-531.119C-139.908 -528.24 -145.26 -524.754 -149.841 -520.659C-154.422 -516.565 -157.665 -512.592 -159.57 -508.74H-166.624V-598.254ZM-194.719 -554.288C-194.719 -543.747 -195.793 -535.274 -197.942 -528.869C-200.131 -522.423 -203.354 -517.457 -207.611 -513.97C-211.908 -510.484 -217.3 -508.74 -223.787 -508.74C-228.57 -508.74 -232.766 -509.713 -236.374 -511.659C-239.983 -513.565 -242.962 -516.342 -245.314 -519.99C-247.665 -523.598 -249.51 -528.017 -250.847 -533.247C-252.185 -538.436 -252.854 -545.45 -252.854 -554.288C-252.854 -564.747 -251.78 -573.2 -249.631 -579.646C-247.483 -586.051 -244.26 -591.017 -239.962 -594.544C-235.706 -598.031 -230.314 -599.774 -223.787 -599.774C-215.192 -599.774 -208.442 -596.693 -203.537 -590.531C-197.658 -583.112 -194.719 -571.031 -194.719 -554.288ZM-205.969 -554.288C-205.969 -568.923 -207.672 -578.673 -211.077 -583.538C-214.523 -588.362 -218.76 -590.774 -223.787 -590.774C-228.814 -590.774 -233.03 -588.342 -236.435 -583.477C-239.881 -578.612 -241.604 -568.882 -241.604 -554.288C-241.604 -539.612 -239.881 -529.862 -236.435 -525.038C-233.03 -520.213 -228.773 -517.801 -223.665 -517.801C-218.638 -517.801 -214.624 -519.93 -211.624 -524.186C-207.854 -529.619 -205.969 -539.653 -205.969 -554.288ZM-43.5434 -673.936L-32.6582 -674.788C-31.6853 -670.49 -30.3069 -667.369 -28.5231 -665.423C-25.5636 -662.301 -21.915 -660.74 -17.5771 -660.74C-14.0907 -660.74 -11.0299 -661.713 -8.39472 -663.659C-4.94877 -666.173 -2.23255 -669.842 -0.246068 -674.666C1.74042 -679.49 2.7742 -686.362 2.85528 -695.281C0.220149 -691.267 -3.00282 -688.288 -6.81364 -686.342C-10.6244 -684.396 -14.6177 -683.423 -18.7934 -683.423C-26.0907 -683.423 -32.2934 -686.119 -37.4015 -691.511C-42.5501 -696.862 -45.1244 -703.794 -45.1244 -712.308C-45.1244 -717.903 -43.9082 -723.112 -41.4758 -727.936C-39.0839 -732.72 -35.7799 -736.389 -31.5636 -738.943C-27.3474 -741.497 -22.5636 -742.774 -17.2123 -742.774C-8.09066 -742.774 -0.651473 -739.43 5.10528 -732.74C10.862 -726.011 13.7404 -714.943 13.7404 -699.538C13.7404 -682.308 10.558 -669.781 4.19312 -661.957C-1.36093 -655.146 -8.84066 -651.74 -18.2461 -651.74C-25.2596 -651.74 -30.9961 -653.707 -35.4555 -657.639C-39.9555 -661.571 -42.6515 -667.004 -43.5434 -673.936ZM1.15258 -712.369C1.15258 -716.139 0.36204 -719.747 -1.21904 -723.193C-2.84066 -726.639 -5.09066 -729.274 -7.96904 -731.099C-10.8474 -732.882 -13.8677 -733.774 -17.0299 -733.774C-21.6515 -733.774 -25.6244 -731.909 -28.9488 -728.18C-32.2731 -724.45 -33.9353 -719.382 -33.9353 -712.977C-33.9353 -706.815 -32.2934 -701.97 -29.0096 -698.443C-25.7258 -694.876 -21.5907 -693.092 -16.6042 -693.092C-11.6582 -693.092 -7.46228 -694.876 -4.01634 -698.443C-0.570392 -701.97 1.15258 -706.612 1.15258 -712.369ZM-97.3001 -741.254H-86.3542V-671.504C-83.719 -674.017 -80.2528 -676.531 -75.9555 -679.044C-71.6988 -681.558 -67.8677 -683.443 -64.4623 -684.7V-674.119C-70.5839 -671.24 -75.9353 -667.754 -80.5163 -663.659C-85.0974 -659.565 -88.3407 -655.592 -90.2461 -651.74H-97.3001V-741.254ZM-157.381 -741.254H-146.435V-671.504C-143.8 -674.017 -140.334 -676.531 -136.037 -679.044C-131.78 -681.558 -127.949 -683.443 -124.543 -684.7V-674.119C-130.665 -671.24 -136.016 -667.754 -140.597 -663.659C-145.179 -659.565 -148.422 -655.592 -150.327 -651.74H-157.381V-741.254ZM-242.273 -673.936L-231.388 -674.788C-230.415 -670.49 -229.037 -667.369 -227.253 -665.423C-224.293 -662.301 -220.645 -660.74 -216.307 -660.74C-212.82 -660.74 -209.76 -661.713 -207.124 -663.659C-203.679 -666.173 -200.962 -669.842 -198.976 -674.666C-196.989 -679.49 -195.956 -686.362 -195.874 -695.281C-198.51 -691.267 -201.733 -688.288 -205.543 -686.342C-209.354 -684.396 -213.347 -683.423 -217.523 -683.423C-224.82 -683.423 -231.023 -686.119 -236.131 -691.511C-241.28 -696.862 -243.854 -703.794 -243.854 -712.308C-243.854 -717.903 -242.638 -723.112 -240.206 -727.936C-237.814 -732.72 -234.51 -736.389 -230.293 -738.943C-226.077 -741.497 -221.293 -742.774 -215.942 -742.774C-206.82 -742.774 -199.381 -739.43 -193.624 -732.74C-187.868 -726.011 -184.989 -714.943 -184.989 -699.538C-184.989 -682.308 -188.172 -669.781 -194.537 -661.957C-200.091 -655.146 -207.57 -651.74 -216.976 -651.74C-223.989 -651.74 -229.726 -653.707 -234.185 -657.639C-238.685 -661.571 -241.381 -667.004 -242.273 -673.936ZM-197.577 -712.369C-197.577 -716.139 -198.368 -719.747 -199.949 -723.193C-201.57 -726.639 -203.82 -729.274 -206.699 -731.099C-209.577 -732.882 -212.597 -733.774 -215.76 -733.774C-220.381 -733.774 -224.354 -731.909 -227.679 -728.18C-231.003 -724.45 -232.665 -719.382 -232.665 -712.977C-232.665 -706.815 -231.023 -701.97 -227.739 -698.443C-224.456 -694.876 -220.32 -693.092 -215.334 -693.092C-210.388 -693.092 -206.192 -694.876 -202.746 -698.443C-199.3 -701.97 -197.577 -706.612 -197.577 -712.369ZM-27.9758 -884.254H-17.0299V-814.504C-14.3947 -817.017 -10.9285 -819.531 -6.6312 -822.044C-2.37445 -824.558 1.45664 -826.443 4.86204 -827.7V-817.119C-1.25958 -814.24 -6.61093 -810.754 -11.192 -806.659C-15.7731 -802.565 -19.0163 -798.592 -20.9217 -794.74H-27.9758V-884.254ZM-113.597 -873.734V-884.254H-54.6717C-54.5907 -881.619 -55.0163 -879.085 -55.9488 -876.653C-57.4488 -872.639 -59.8407 -868.686 -63.1244 -864.794C-66.4488 -860.903 -71.2326 -856.403 -77.4758 -851.294C-87.165 -843.349 -93.7123 -837.065 -97.1177 -832.443C-100.523 -827.781 -102.226 -823.382 -102.226 -819.247C-102.226 -814.909 -100.665 -811.261 -97.5434 -808.301C-94.4623 -805.301 -90.4285 -803.801 -85.442 -803.801C-80.1717 -803.801 -75.9555 -805.382 -72.7934 -808.544C-69.6312 -811.707 -68.0299 -816.085 -67.9893 -821.68L-56.7393 -820.524C-57.5096 -812.132 -60.4082 -805.747 -65.4353 -801.369C-70.4623 -796.95 -77.2123 -794.74 -85.6853 -794.74C-94.2393 -794.74 -101.01 -797.112 -105.996 -801.855C-110.983 -806.598 -113.476 -812.477 -113.476 -819.49C-113.476 -823.058 -112.746 -826.565 -111.287 -830.011C-109.827 -833.457 -107.395 -837.085 -103.989 -840.896C-100.624 -844.707 -95.0096 -849.936 -87.1447 -856.585C-80.5772 -862.099 -76.3609 -865.849 -74.4961 -867.835C-72.6312 -869.781 -71.0907 -871.747 -69.8744 -873.734H-113.597ZM-182.192 -816.936L-171.307 -817.788C-170.334 -813.49 -168.956 -810.369 -167.172 -808.423C-164.212 -805.301 -160.564 -803.74 -156.226 -803.74C-152.739 -803.74 -149.679 -804.713 -147.043 -806.659C-143.597 -809.173 -140.881 -812.842 -138.895 -817.666C-136.908 -822.49 -135.874 -829.362 -135.793 -838.281C-138.429 -834.267 -141.651 -831.288 -145.462 -829.342C-149.273 -827.396 -153.266 -826.423 -157.442 -826.423C-164.739 -826.423 -170.942 -829.119 -176.05 -834.511C-181.199 -839.862 -183.773 -846.794 -183.773 -855.308C-183.773 -860.903 -182.557 -866.112 -180.124 -870.936C-177.733 -875.72 -174.429 -879.389 -170.212 -881.943C-165.996 -884.497 -161.212 -885.774 -155.861 -885.774C-146.739 -885.774 -139.3 -882.43 -133.543 -875.74C-127.787 -869.011 -124.908 -857.943 -124.908 -842.538C-124.908 -825.308 -128.091 -812.781 -134.456 -804.957C-140.01 -798.146 -147.489 -794.74 -156.895 -794.74C-163.908 -794.74 -169.645 -796.707 -174.104 -800.639C-178.604 -804.571 -181.3 -810.004 -182.192 -816.936ZM-137.496 -855.369C-137.496 -859.139 -138.287 -862.747 -139.868 -866.193C-141.489 -869.639 -143.739 -872.274 -146.618 -874.099C-149.496 -875.882 -152.516 -876.774 -155.679 -876.774C-160.3 -876.774 -164.273 -874.909 -167.597 -871.18C-170.922 -867.45 -172.584 -862.382 -172.584 -855.977C-172.584 -849.815 -170.942 -844.97 -167.658 -841.443C-164.374 -837.876 -160.239 -836.092 -155.253 -836.092C-150.307 -836.092 -146.111 -837.876 -142.665 -841.443C-139.219 -844.97 -137.496 -849.612 -137.496 -855.369ZM-235.949 -884.254H-225.003V-814.504C-222.368 -817.017 -218.901 -819.531 -214.604 -822.044C-210.347 -824.558 -206.516 -826.443 -203.111 -827.7V-817.119C-209.233 -814.24 -214.584 -810.754 -219.165 -806.659C-223.746 -802.565 -226.989 -798.592 -228.895 -794.74H-235.949V-884.254ZM13.1931 -1003.72L2.24718 -1002.26C0.990419 -1008.46 -1.13796 -1012.94 -4.13796 -1015.7C-7.1785 -1018.42 -10.8677 -1019.77 -15.2055 -1019.77C-20.3542 -1019.77 -24.692 -1017.99 -28.219 -1014.42C-31.7866 -1010.86 -33.5704 -1006.44 -33.5704 -1001.17C-33.5704 -996.139 -31.9285 -992.004 -28.6447 -988.761C-25.3609 -985.477 -21.1853 -983.835 -16.1177 -983.835C-14.0501 -983.835 -11.4758 -984.24 -8.39472 -985.051L-9.61093 -975.443C-10.3407 -975.524 -10.9285 -975.565 -11.3744 -975.565C-16.0366 -975.565 -20.2326 -974.348 -23.9623 -971.916C-27.692 -969.484 -29.5569 -965.734 -29.5569 -960.666C-29.5569 -956.653 -28.1988 -953.328 -25.4826 -950.693C-22.7663 -948.058 -19.2596 -946.74 -14.9623 -946.74C-10.7055 -946.74 -7.15823 -948.078 -4.32039 -950.754C-1.48255 -953.43 0.34177 -957.443 1.15258 -962.794L12.0985 -960.848C10.7607 -953.511 7.72015 -947.835 2.97691 -943.821C-1.76634 -939.767 -7.66499 -937.74 -14.719 -937.74C-19.5839 -937.74 -24.0636 -938.794 -28.1582 -940.903C-32.2528 -942.97 -35.3744 -945.808 -37.5231 -949.416C-39.7123 -953.024 -40.8069 -956.855 -40.8069 -960.909C-40.8069 -964.761 -39.7731 -968.267 -37.7055 -971.43C-35.638 -974.592 -32.5771 -977.105 -28.5231 -978.97C-33.7934 -980.186 -37.888 -982.72 -40.8069 -986.571C-43.7258 -990.382 -45.1853 -995.166 -45.1853 -1000.92C-45.1853 -1008.71 -42.3474 -1015.31 -36.6717 -1020.75C-30.9961 -1026.14 -23.8204 -1028.83 -15.1447 -1028.83C-7.32039 -1028.83 -0.813635 -1026.5 4.37555 -1021.84C9.5242 -1017.18 12.4634 -1011.14 13.1931 -1003.72ZM-112.868 -959.936L-101.983 -960.788C-101.01 -956.49 -99.6312 -953.369 -97.8474 -951.423C-94.888 -948.301 -91.2393 -946.74 -86.9015 -946.74C-83.415 -946.74 -80.3542 -947.713 -77.719 -949.659C-74.2731 -952.173 -71.5569 -955.842 -69.5704 -960.666C-67.5839 -965.49 -66.5501 -972.362 -66.469 -981.281C-69.1042 -977.267 -72.3272 -974.288 -76.138 -972.342C-79.9488 -970.396 -83.942 -969.423 -88.1177 -969.423C-95.415 -969.423 -101.618 -972.119 -106.726 -977.511C-111.874 -982.862 -114.449 -989.794 -114.449 -998.308C-114.449 -1003.9 -113.233 -1009.11 -110.8 -1013.94C-108.408 -1018.72 -105.104 -1022.39 -100.888 -1024.94C-96.6717 -1027.5 -91.888 -1028.77 -86.5366 -1028.77C-77.415 -1028.77 -69.9758 -1025.43 -64.219 -1018.74C-58.4623 -1012.01 -55.5839 -1000.94 -55.5839 -985.538C-55.5839 -968.308 -58.7663 -955.781 -65.1312 -947.957C-70.6853 -941.146 -78.165 -937.74 -87.5704 -937.74C-94.5839 -937.74 -100.32 -939.707 -104.78 -943.639C-109.28 -947.571 -111.976 -953.004 -112.868 -959.936ZM-68.1717 -998.369C-68.1717 -1002.14 -68.9623 -1005.75 -70.5434 -1009.19C-72.165 -1012.64 -74.415 -1015.27 -77.2934 -1017.1C-80.1717 -1018.88 -83.192 -1019.77 -86.3542 -1019.77C-90.9758 -1019.77 -94.9488 -1017.91 -98.2731 -1014.18C-101.597 -1010.45 -103.26 -1005.38 -103.26 -998.977C-103.26 -992.815 -101.618 -987.97 -98.3339 -984.443C-95.0501 -980.876 -90.915 -979.092 -85.9285 -979.092C-80.9826 -979.092 -76.7866 -980.876 -73.3407 -984.443C-69.8947 -987.97 -68.1717 -992.612 -68.1717 -998.369ZM-166.624 -1027.25H-155.679V-957.504C-153.043 -960.017 -149.577 -962.531 -145.28 -965.044C-141.023 -967.558 -137.192 -969.443 -133.787 -970.7V-960.119C-139.908 -957.24 -145.26 -953.754 -149.841 -949.659C-154.422 -945.565 -157.665 -941.592 -159.57 -937.74H-166.624V-1027.25ZM-229.807 -1027.25V-1005.91H-191.131V-995.876L-231.814 -938.105H-240.753V-995.876H-252.793V-1005.91H-240.753V-1027.25H-229.807ZM-229.807 -995.876V-955.68L-201.895 -995.876H-229.807ZM-43.5434 -1102.94L-32.6582 -1103.79C-31.6853 -1099.49 -30.3069 -1096.37 -28.5231 -1094.42C-25.5636 -1091.3 -21.915 -1089.74 -17.5771 -1089.74C-14.0907 -1089.74 -11.0299 -1090.71 -8.39472 -1092.66C-4.94877 -1095.17 -2.23255 -1098.84 -0.246068 -1103.67C1.74042 -1108.49 2.7742 -1115.36 2.85528 -1124.28C0.220149 -1120.27 -3.00282 -1117.29 -6.81364 -1115.34C-10.6244 -1113.4 -14.6177 -1112.42 -18.7934 -1112.42C-26.0907 -1112.42 -32.2934 -1115.12 -37.4015 -1120.51C-42.5501 -1125.86 -45.1244 -1132.79 -45.1244 -1141.31C-45.1244 -1146.9 -43.9082 -1152.11 -41.4758 -1156.94C-39.0839 -1161.72 -35.7799 -1165.39 -31.5636 -1167.94C-27.3474 -1170.5 -22.5636 -1171.77 -17.2123 -1171.77C-8.09066 -1171.77 -0.651473 -1168.43 5.10528 -1161.74C10.862 -1155.01 13.7404 -1143.94 13.7404 -1128.54C13.7404 -1111.31 10.558 -1098.78 4.19312 -1090.96C-1.36093 -1084.15 -8.84066 -1080.74 -18.2461 -1080.74C-25.2596 -1080.74 -30.9961 -1082.71 -35.4555 -1086.64C-39.9555 -1090.57 -42.6515 -1096 -43.5434 -1102.94ZM1.15258 -1141.37C1.15258 -1145.14 0.36204 -1148.75 -1.21904 -1152.19C-2.84066 -1155.64 -5.09066 -1158.27 -7.96904 -1160.1C-10.8474 -1161.88 -13.8677 -1162.77 -17.0299 -1162.77C-21.6515 -1162.77 -25.6244 -1160.91 -28.9488 -1157.18C-32.2731 -1153.45 -33.9353 -1148.38 -33.9353 -1141.98C-33.9353 -1135.81 -32.2934 -1130.97 -29.0096 -1127.44C-25.7258 -1123.88 -21.5907 -1122.09 -16.6042 -1122.09C-11.6582 -1122.09 -7.46228 -1123.88 -4.01634 -1127.44C-0.570392 -1130.97 1.15258 -1135.61 1.15258 -1141.37ZM-97.3001 -1170.25H-86.3542V-1100.5C-83.719 -1103.02 -80.2528 -1105.53 -75.9555 -1108.04C-71.6988 -1110.56 -67.8677 -1112.44 -64.4623 -1113.7V-1103.12C-70.5839 -1100.24 -75.9353 -1096.75 -80.5163 -1092.66C-85.0974 -1088.56 -88.3407 -1084.59 -90.2461 -1080.74H-97.3001V-1170.25ZM-125.395 -1146.9L-136.888 -1145.93C-137.739 -1151.52 -139.706 -1155.74 -142.787 -1158.58C-145.908 -1161.38 -149.658 -1162.77 -154.037 -1162.77C-159.307 -1162.77 -163.766 -1160.79 -167.415 -1156.81C-171.064 -1152.84 -172.888 -1147.57 -172.888 -1141C-172.888 -1134.76 -171.124 -1129.83 -167.597 -1126.23C-164.111 -1122.62 -159.53 -1120.81 -153.854 -1120.81C-150.327 -1120.81 -147.145 -1121.63 -144.307 -1123.25C-141.469 -1124.83 -139.239 -1126.9 -137.618 -1129.45L-127.341 -1128.11L-135.976 -1082.32H-180.307V-1092.78H-144.733L-139.929 -1116.74C-145.28 -1113.01 -150.895 -1111.15 -156.773 -1111.15C-164.557 -1111.15 -171.124 -1113.84 -176.476 -1119.23C-181.827 -1124.63 -184.503 -1131.56 -184.503 -1140.03C-184.503 -1148.1 -182.151 -1155.07 -177.449 -1160.95C-171.733 -1168.17 -163.929 -1171.77 -154.037 -1171.77C-145.929 -1171.77 -139.3 -1169.5 -134.151 -1164.96C-129.043 -1160.42 -126.124 -1154.4 -125.395 -1146.9ZM-251.516 -1102.94L-240.631 -1103.79C-239.658 -1099.49 -238.28 -1096.37 -236.496 -1094.42C-233.537 -1091.3 -229.888 -1089.74 -225.55 -1089.74C-222.064 -1089.74 -219.003 -1090.71 -216.368 -1092.66C-212.922 -1095.17 -210.206 -1098.84 -208.219 -1103.67C-206.233 -1108.49 -205.199 -1115.36 -205.118 -1124.28C-207.753 -1120.27 -210.976 -1117.29 -214.787 -1115.34C-218.597 -1113.4 -222.591 -1112.42 -226.766 -1112.42C-234.064 -1112.42 -240.266 -1115.12 -245.374 -1120.51C-250.523 -1125.86 -253.097 -1132.79 -253.097 -1141.31C-253.097 -1146.9 -251.881 -1152.11 -249.449 -1156.94C-247.057 -1161.72 -243.753 -1165.39 -239.537 -1167.94C-235.32 -1170.5 -230.537 -1171.77 -225.185 -1171.77C-216.064 -1171.77 -208.624 -1168.43 -202.868 -1161.74C-197.111 -1155.01 -194.233 -1143.94 -194.233 -1128.54C-194.233 -1111.31 -197.415 -1098.78 -203.78 -1090.96C-209.334 -1084.15 -216.814 -1080.74 -226.219 -1080.74C-233.233 -1080.74 -238.969 -1082.71 -243.429 -1086.64C-247.929 -1090.57 -250.624 -1096 -251.516 -1102.94ZM-206.82 -1141.37C-206.82 -1145.14 -207.611 -1148.75 -209.192 -1152.19C-210.814 -1155.64 -213.064 -1158.27 -215.942 -1160.1C-218.82 -1161.88 -221.841 -1162.77 -225.003 -1162.77C-229.624 -1162.77 -233.597 -1160.91 -236.922 -1157.18C-240.246 -1153.45 -241.908 -1148.38 -241.908 -1141.98C-241.908 -1135.81 -240.266 -1130.97 -236.983 -1127.44C-233.699 -1123.88 -229.564 -1122.09 -224.577 -1122.09C-219.631 -1122.09 -215.435 -1123.88 -211.989 -1127.44C-208.543 -1130.97 -206.82 -1135.61 -206.82 -1141.37ZM-27.9758 -1313.25H-17.0299V-1243.5C-14.3947 -1246.02 -10.9285 -1248.53 -6.6312 -1251.04C-2.37445 -1253.56 1.45664 -1255.44 4.86204 -1256.7V-1246.12C-1.25958 -1243.24 -6.61093 -1239.75 -11.192 -1235.66C-15.7731 -1231.56 -19.0163 -1227.59 -20.9217 -1223.74H-27.9758V-1313.25ZM-112.868 -1245.94L-101.983 -1246.79C-101.01 -1242.49 -99.6312 -1239.37 -97.8474 -1237.42C-94.888 -1234.3 -91.2393 -1232.74 -86.9015 -1232.74C-83.415 -1232.74 -80.3542 -1233.71 -77.719 -1235.66C-74.2731 -1238.17 -71.5569 -1241.84 -69.5704 -1246.67C-67.5839 -1251.49 -66.5501 -1258.36 -66.469 -1267.28C-69.1042 -1263.27 -72.3272 -1260.29 -76.138 -1258.34C-79.9488 -1256.4 -83.942 -1255.42 -88.1177 -1255.42C-95.415 -1255.42 -101.618 -1258.12 -106.726 -1263.51C-111.874 -1268.86 -114.449 -1275.79 -114.449 -1284.31C-114.449 -1289.9 -113.233 -1295.11 -110.8 -1299.94C-108.408 -1304.72 -105.104 -1308.39 -100.888 -1310.94C-96.6717 -1313.5 -91.888 -1314.77 -86.5366 -1314.77C-77.415 -1314.77 -69.9758 -1311.43 -64.219 -1304.74C-58.4623 -1298.01 -55.5839 -1286.94 -55.5839 -1271.54C-55.5839 -1254.31 -58.7663 -1241.78 -65.1312 -1233.96C-70.6853 -1227.15 -78.165 -1223.74 -87.5704 -1223.74C-94.5839 -1223.74 -100.32 -1225.71 -104.78 -1229.64C-109.28 -1233.57 -111.976 -1239 -112.868 -1245.94ZM-68.1717 -1284.37C-68.1717 -1288.14 -68.9623 -1291.75 -70.5434 -1295.19C-72.165 -1298.64 -74.415 -1301.27 -77.2934 -1303.1C-80.1717 -1304.88 -83.192 -1305.77 -86.3542 -1305.77C-90.9758 -1305.77 -94.9488 -1303.91 -98.2731 -1300.18C-101.597 -1296.45 -103.26 -1291.38 -103.26 -1284.98C-103.26 -1278.81 -101.618 -1273.97 -98.3339 -1270.44C-95.0501 -1266.88 -90.915 -1265.09 -85.9285 -1265.09C-80.9826 -1265.09 -76.7866 -1266.88 -73.3407 -1270.44C-69.8947 -1273.97 -68.1717 -1278.61 -68.1717 -1284.37ZM-182.192 -1245.94L-171.307 -1246.79C-170.334 -1242.49 -168.956 -1239.37 -167.172 -1237.42C-164.212 -1234.3 -160.564 -1232.74 -156.226 -1232.74C-152.739 -1232.74 -149.679 -1233.71 -147.043 -1235.66C-143.597 -1238.17 -140.881 -1241.84 -138.895 -1246.67C-136.908 -1251.49 -135.874 -1258.36 -135.793 -1267.28C-138.429 -1263.27 -141.651 -1260.29 -145.462 -1258.34C-149.273 -1256.4 -153.266 -1255.42 -157.442 -1255.42C-164.739 -1255.42 -170.942 -1258.12 -176.05 -1263.51C-181.199 -1268.86 -183.773 -1275.79 -183.773 -1284.31C-183.773 -1289.9 -182.557 -1295.11 -180.124 -1299.94C-177.733 -1304.72 -174.429 -1308.39 -170.212 -1310.94C-165.996 -1313.5 -161.212 -1314.77 -155.861 -1314.77C-146.739 -1314.77 -139.3 -1311.43 -133.543 -1304.74C-127.787 -1298.01 -124.908 -1286.94 -124.908 -1271.54C-124.908 -1254.31 -128.091 -1241.78 -134.456 -1233.96C-140.01 -1227.15 -147.489 -1223.74 -156.895 -1223.74C-163.908 -1223.74 -169.645 -1225.71 -174.104 -1229.64C-178.604 -1233.57 -181.3 -1239 -182.192 -1245.94ZM-137.496 -1284.37C-137.496 -1288.14 -138.287 -1291.75 -139.868 -1295.19C-141.489 -1298.64 -143.739 -1301.27 -146.618 -1303.1C-149.496 -1304.88 -152.516 -1305.77 -155.679 -1305.77C-160.3 -1305.77 -164.273 -1303.91 -167.597 -1300.18C-170.922 -1296.45 -172.584 -1291.38 -172.584 -1284.98C-172.584 -1278.81 -170.942 -1273.97 -167.658 -1270.44C-164.374 -1266.88 -160.239 -1265.09 -155.253 -1265.09C-150.307 -1265.09 -146.111 -1266.88 -142.665 -1270.44C-139.219 -1273.97 -137.496 -1278.61 -137.496 -1284.37ZM-235.949 -1313.25H-225.003V-1243.5C-222.368 -1246.02 -218.901 -1248.53 -214.604 -1251.04C-210.347 -1253.56 -206.516 -1255.44 -203.111 -1256.7V-1246.12C-209.233 -1243.24 -214.584 -1239.75 -219.165 -1235.66C-223.746 -1231.56 -226.989 -1227.59 -228.895 -1223.74H-235.949V-1313.25ZM12.5242 -1378.78V-1368.26H-45.1853V-1376.77C-39.5096 -1382.81 -33.8744 -1390.84 -28.2799 -1400.86C-22.7258 -1410.87 -18.4285 -1421.17 -15.388 -1431.75C-13.1988 -1439.21 -11.8001 -1447.38 -11.192 -1456.25H0.0579864C-0.0636352 -1449.24 -1.44201 -1440.77 -4.07715 -1430.83C-6.71228 -1420.9 -10.4826 -1411.33 -15.388 -1402.13C-20.3339 -1392.89 -25.5839 -1385.11 -31.138 -1378.78H12.5242ZM-112.868 -1388.94L-101.983 -1389.79C-101.01 -1385.49 -99.6312 -1382.37 -97.8474 -1380.42C-94.888 -1377.3 -91.2393 -1375.74 -86.9015 -1375.74C-83.415 -1375.74 -80.3542 -1376.71 -77.719 -1378.66C-74.2731 -1381.17 -71.5569 -1384.84 -69.5704 -1389.67C-67.5839 -1394.49 -66.5501 -1401.36 -66.469 -1410.28C-69.1042 -1406.27 -72.3272 -1403.29 -76.138 -1401.34C-79.9488 -1399.4 -83.942 -1398.42 -88.1177 -1398.42C-95.415 -1398.42 -101.618 -1401.12 -106.726 -1406.51C-111.874 -1411.86 -114.449 -1418.79 -114.449 -1427.31C-114.449 -1432.9 -113.233 -1438.11 -110.8 -1442.94C-108.408 -1447.72 -105.104 -1451.39 -100.888 -1453.94C-96.6717 -1456.5 -91.888 -1457.77 -86.5366 -1457.77C-77.415 -1457.77 -69.9758 -1454.43 -64.219 -1447.74C-58.4623 -1441.01 -55.5839 -1429.94 -55.5839 -1414.54C-55.5839 -1397.31 -58.7663 -1384.78 -65.1312 -1376.96C-70.6853 -1370.15 -78.165 -1366.74 -87.5704 -1366.74C-94.5839 -1366.74 -100.32 -1368.71 -104.78 -1372.64C-109.28 -1376.57 -111.976 -1382 -112.868 -1388.94ZM-68.1717 -1427.37C-68.1717 -1431.14 -68.9623 -1434.75 -70.5434 -1438.19C-72.165 -1441.64 -74.415 -1444.27 -77.2934 -1446.1C-80.1717 -1447.88 -83.192 -1448.77 -86.3542 -1448.77C-90.9758 -1448.77 -94.9488 -1446.91 -98.2731 -1443.18C-101.597 -1439.45 -103.26 -1434.38 -103.26 -1427.98C-103.26 -1421.81 -101.618 -1416.97 -98.3339 -1413.44C-95.0501 -1409.88 -90.915 -1408.09 -85.9285 -1408.09C-80.9826 -1408.09 -76.7866 -1409.88 -73.3407 -1413.44C-69.8947 -1416.97 -68.1717 -1421.61 -68.1717 -1427.37ZM-166.624 -1456.25H-155.679V-1386.5C-153.043 -1389.02 -149.577 -1391.53 -145.28 -1394.04C-141.023 -1396.56 -137.192 -1398.44 -133.787 -1399.7V-1389.12C-139.908 -1386.24 -145.26 -1382.75 -149.841 -1378.66C-154.422 -1374.56 -157.665 -1370.59 -159.57 -1366.74H-166.624V-1456.25ZM-211.564 -1407.91C-207.023 -1406.25 -203.658 -1403.88 -201.469 -1400.79C-199.28 -1397.71 -198.185 -1394.02 -198.185 -1389.73C-198.185 -1383.24 -200.516 -1377.79 -205.179 -1373.37C-209.841 -1368.95 -216.043 -1366.74 -223.787 -1366.74C-231.57 -1366.74 -237.834 -1369.01 -242.577 -1373.55C-247.32 -1378.05 -249.692 -1383.54 -249.692 -1390.03C-249.692 -1394.17 -248.597 -1397.77 -246.408 -1400.86C-244.26 -1403.9 -240.976 -1406.25 -236.557 -1407.91C-242.03 -1409.69 -246.185 -1412.57 -249.023 -1416.54C-251.901 -1420.52 -253.341 -1425.26 -253.341 -1430.77C-253.341 -1438.4 -250.645 -1444.8 -245.253 -1449.99C-239.861 -1455.18 -232.766 -1457.77 -223.969 -1457.77C-215.172 -1457.77 -208.077 -1455.18 -202.685 -1449.99C-197.293 -1444.76 -194.597 -1438.25 -194.597 -1430.47C-194.597 -1424.67 -196.057 -1419.83 -198.976 -1415.94C-201.935 -1412 -206.131 -1409.33 -211.564 -1407.91ZM-209.374 -1389.36C-209.374 -1393.58 -210.733 -1397.02 -213.449 -1399.7C-216.165 -1402.38 -219.692 -1403.71 -224.03 -1403.71C-228.246 -1403.71 -231.692 -1402.4 -234.368 -1399.76C-237.084 -1397.08 -238.442 -1393.82 -238.442 -1389.97C-238.442 -1385.96 -237.043 -1382.59 -234.246 -1379.88C-231.489 -1377.12 -228.043 -1375.74 -223.908 -1375.74C-219.733 -1375.74 -216.266 -1377.08 -213.51 -1379.75C-210.753 -1382.43 -209.374 -1385.63 -209.374 -1389.36ZM-205.847 -1430.53C-205.847 -1433.65 -206.577 -1436.67 -208.037 -1439.59C-209.537 -1442.51 -211.746 -1444.78 -214.665 -1446.4C-217.584 -1447.98 -220.726 -1448.77 -224.091 -1448.77C-229.32 -1448.77 -233.638 -1447.09 -237.043 -1443.73C-240.449 -1440.36 -242.151 -1436.08 -242.151 -1430.9C-242.151 -1425.63 -240.388 -1421.27 -236.861 -1417.82C-233.374 -1414.38 -228.996 -1412.65 -223.726 -1412.65C-218.577 -1412.65 -214.3 -1414.36 -210.895 -1417.76C-207.53 -1421.17 -205.847 -1425.42 -205.847 -1430.53ZM-43.5434 -1531.94L-32.6582 -1532.79C-31.6853 -1528.49 -30.3069 -1525.37 -28.5231 -1523.42C-25.5636 -1520.3 -21.915 -1518.74 -17.5771 -1518.74C-14.0907 -1518.74 -11.0299 -1519.71 -8.39472 -1521.66C-4.94877 -1524.17 -2.23255 -1527.84 -0.246068 -1532.67C1.74042 -1537.49 2.7742 -1544.36 2.85528 -1553.28C0.220149 -1549.27 -3.00282 -1546.29 -6.81364 -1544.34C-10.6244 -1542.4 -14.6177 -1541.42 -18.7934 -1541.42C-26.0907 -1541.42 -32.2934 -1544.12 -37.4015 -1549.51C-42.5501 -1554.86 -45.1244 -1561.79 -45.1244 -1570.31C-45.1244 -1575.9 -43.9082 -1581.11 -41.4758 -1585.94C-39.0839 -1590.72 -35.7799 -1594.39 -31.5636 -1596.94C-27.3474 -1599.5 -22.5636 -1600.77 -17.2123 -1600.77C-8.09066 -1600.77 -0.651473 -1597.43 5.10528 -1590.74C10.862 -1584.01 13.7404 -1572.94 13.7404 -1557.54C13.7404 -1540.31 10.558 -1527.78 4.19312 -1519.96C-1.36093 -1513.15 -8.84066 -1509.74 -18.2461 -1509.74C-25.2596 -1509.74 -30.9961 -1511.71 -35.4555 -1515.64C-39.9555 -1519.57 -42.6515 -1525 -43.5434 -1531.94ZM1.15258 -1570.37C1.15258 -1574.14 0.36204 -1577.75 -1.21904 -1581.19C-2.84066 -1584.64 -5.09066 -1587.27 -7.96904 -1589.1C-10.8474 -1590.88 -13.8677 -1591.77 -17.0299 -1591.77C-21.6515 -1591.77 -25.6244 -1589.91 -28.9488 -1586.18C-32.2731 -1582.45 -33.9353 -1577.38 -33.9353 -1570.98C-33.9353 -1564.81 -32.2934 -1559.97 -29.0096 -1556.44C-25.7258 -1552.88 -21.5907 -1551.09 -16.6042 -1551.09C-11.6582 -1551.09 -7.46228 -1552.88 -4.01634 -1556.44C-0.570392 -1559.97 1.15258 -1564.61 1.15258 -1570.37ZM-97.3001 -1599.25H-86.3542V-1529.5C-83.719 -1532.02 -80.2528 -1534.53 -75.9555 -1537.04C-71.6988 -1539.56 -67.8677 -1541.44 -64.4623 -1542.7V-1532.12C-70.5839 -1529.24 -75.9353 -1525.75 -80.5163 -1521.66C-85.0974 -1517.56 -88.3407 -1513.59 -90.2461 -1509.74H-97.3001V-1599.25ZM-127.037 -1578.64L-137.557 -1577.67C-138.449 -1582.61 -140.151 -1586.2 -142.665 -1588.43C-145.179 -1590.66 -148.401 -1591.77 -152.334 -1591.77C-155.699 -1591.77 -158.638 -1591 -161.151 -1589.46C-163.706 -1587.92 -165.793 -1585.88 -167.415 -1583.32C-169.037 -1580.73 -170.395 -1577.24 -171.489 -1572.86C-172.584 -1568.48 -173.131 -1564.02 -173.131 -1559.48C-173.131 -1559 -173.111 -1558.27 -173.07 -1557.29C-170.881 -1560.78 -167.881 -1563.62 -164.07 -1565.81C-160.3 -1567.96 -156.206 -1569.03 -151.787 -1569.03C-144.408 -1569.03 -138.165 -1566.36 -133.057 -1561C-127.949 -1555.65 -125.395 -1548.6 -125.395 -1539.84C-125.395 -1530.8 -128.05 -1523.52 -133.361 -1518.01C-138.712 -1512.5 -145.401 -1509.74 -153.429 -1509.74C-159.226 -1509.74 -164.516 -1511.3 -169.3 -1514.42C-174.124 -1517.54 -177.773 -1522 -180.246 -1527.8C-182.76 -1533.56 -184.016 -1541.91 -184.016 -1552.86C-184.016 -1564.25 -182.78 -1573.33 -180.307 -1580.1C-177.834 -1586.83 -174.145 -1591.96 -169.239 -1595.48C-164.374 -1599.01 -158.658 -1600.77 -152.091 -1600.77C-145.118 -1600.77 -139.422 -1598.85 -135.003 -1595C-130.584 -1591.11 -127.929 -1585.65 -127.037 -1578.64ZM-171.854 -1539.29C-171.854 -1533.01 -170.172 -1528.02 -166.807 -1524.33C-163.483 -1520.65 -159.469 -1518.8 -154.766 -1518.8C-149.901 -1518.8 -145.665 -1520.79 -142.057 -1524.76C-138.449 -1528.73 -136.645 -1533.88 -136.645 -1540.21C-136.645 -1545.88 -138.347 -1550.5 -141.753 -1554.07C-145.199 -1557.6 -149.435 -1559.36 -154.462 -1559.36C-159.53 -1559.36 -163.685 -1557.6 -166.929 -1554.07C-170.212 -1550.5 -171.854 -1545.58 -171.854 -1539.29ZM-251.516 -1531.94L-240.631 -1532.79C-239.658 -1528.49 -238.28 -1525.37 -236.496 -1523.42C-233.537 -1520.3 -229.888 -1518.74 -225.55 -1518.74C-222.064 -1518.74 -219.003 -1519.71 -216.368 -1521.66C-212.922 -1524.17 -210.206 -1527.84 -208.219 -1532.67C-206.233 -1537.49 -205.199 -1544.36 -205.118 -1553.28C-207.753 -1549.27 -210.976 -1546.29 -214.787 -1544.34C-218.597 -1542.4 -222.591 -1541.42 -226.766 -1541.42C-234.064 -1541.42 -240.266 -1544.12 -245.374 -1549.51C-250.523 -1554.86 -253.097 -1561.79 -253.097 -1570.31C-253.097 -1575.9 -251.881 -1581.11 -249.449 -1585.94C-247.057 -1590.72 -243.753 -1594.39 -239.537 -1596.94C-235.32 -1599.5 -230.537 -1600.77 -225.185 -1600.77C-216.064 -1600.77 -208.624 -1597.43 -202.868 -1590.74C-197.111 -1584.01 -194.233 -1572.94 -194.233 -1557.54C-194.233 -1540.31 -197.415 -1527.78 -203.78 -1519.96C-209.334 -1513.15 -216.814 -1509.74 -226.219 -1509.74C-233.233 -1509.74 -238.969 -1511.71 -243.429 -1515.64C-247.929 -1519.57 -250.624 -1525 -251.516 -1531.94ZM-206.82 -1570.37C-206.82 -1574.14 -207.611 -1577.75 -209.192 -1581.19C-210.814 -1584.64 -213.064 -1587.27 -215.942 -1589.1C-218.82 -1590.88 -221.841 -1591.77 -225.003 -1591.77C-229.624 -1591.77 -233.597 -1589.91 -236.922 -1586.18C-240.246 -1582.45 -241.908 -1577.38 -241.908 -1570.98C-241.908 -1564.81 -240.266 -1559.97 -236.983 -1556.44C-233.699 -1552.88 -229.564 -1551.09 -224.577 -1551.09C-219.631 -1551.09 -215.435 -1552.88 -211.989 -1556.44C-208.543 -1559.97 -206.82 -1564.61 -206.82 -1570.37ZM-44.2731 -1731.73V-1742.25H14.6526C14.7337 -1739.62 14.308 -1737.08 13.3756 -1734.65C11.8756 -1730.64 9.48366 -1726.69 6.19988 -1722.79C2.87555 -1718.9 -1.90823 -1714.4 -8.15147 -1709.29C-17.8407 -1701.35 -24.388 -1695.06 -27.7934 -1690.44C-31.1988 -1685.78 -32.9015 -1681.38 -32.9015 -1677.25C-32.9015 -1672.91 -31.3407 -1669.26 -28.219 -1666.3C-25.138 -1663.3 -21.1042 -1661.8 -16.1177 -1661.8C-10.8474 -1661.8 -6.6312 -1663.38 -3.46904 -1666.54C-0.306878 -1669.71 1.29447 -1674.08 1.33501 -1679.68L12.585 -1678.52C11.8147 -1670.13 8.91609 -1663.75 3.88907 -1659.37C-1.13796 -1654.95 -7.88796 -1652.74 -16.3609 -1652.74C-24.915 -1652.74 -31.6853 -1655.11 -36.6717 -1659.86C-41.6582 -1664.6 -44.1515 -1670.48 -44.1515 -1677.49C-44.1515 -1681.06 -43.4217 -1684.56 -41.9623 -1688.01C-40.5028 -1691.46 -38.0704 -1695.08 -34.665 -1698.9C-31.3001 -1702.71 -25.6853 -1707.94 -17.8204 -1714.58C-11.2528 -1720.1 -7.03661 -1723.85 -5.17174 -1725.83C-3.30688 -1727.78 -1.76634 -1729.75 -0.550122 -1731.73H-44.2731ZM-56.0704 -1698.29C-56.0704 -1687.75 -57.1447 -1679.27 -59.2934 -1672.87C-61.4826 -1666.42 -64.7055 -1661.46 -68.9623 -1657.97C-73.2596 -1654.48 -78.6515 -1652.74 -85.138 -1652.74C-89.9217 -1652.74 -94.1177 -1653.71 -97.7258 -1655.66C-101.334 -1657.56 -104.314 -1660.34 -106.665 -1663.99C-109.016 -1667.6 -110.861 -1672.02 -112.199 -1677.25C-113.537 -1682.44 -114.206 -1689.45 -114.206 -1698.29C-114.206 -1708.75 -113.131 -1717.2 -110.983 -1723.65C-108.834 -1730.05 -105.611 -1735.02 -101.314 -1738.54C-97.0569 -1742.03 -91.665 -1743.77 -85.138 -1743.77C-76.5434 -1743.77 -69.7934 -1740.69 -64.888 -1734.53C-59.0096 -1727.11 -56.0704 -1715.03 -56.0704 -1698.29ZM-67.3204 -1698.29C-67.3204 -1712.92 -69.0231 -1722.67 -72.4285 -1727.54C-75.8744 -1732.36 -80.1109 -1734.77 -85.138 -1734.77C-90.165 -1734.77 -94.3812 -1732.34 -97.7866 -1727.48C-101.233 -1722.61 -102.956 -1712.88 -102.956 -1698.29C-102.956 -1683.61 -101.233 -1673.86 -97.7866 -1669.04C-94.3812 -1664.21 -90.1244 -1661.8 -85.0163 -1661.8C-79.9893 -1661.8 -75.9758 -1663.93 -72.9758 -1668.19C-69.2055 -1673.62 -67.3204 -1683.65 -67.3204 -1698.29ZM-182.192 -1674.94L-171.307 -1675.79C-170.334 -1671.49 -168.956 -1668.37 -167.172 -1666.42C-164.212 -1663.3 -160.564 -1661.74 -156.226 -1661.74C-152.739 -1661.74 -149.679 -1662.71 -147.043 -1664.66C-143.597 -1667.17 -140.881 -1670.84 -138.895 -1675.67C-136.908 -1680.49 -135.874 -1687.36 -135.793 -1696.28C-138.429 -1692.27 -141.651 -1689.29 -145.462 -1687.34C-149.273 -1685.4 -153.266 -1684.42 -157.442 -1684.42C-164.739 -1684.42 -170.942 -1687.12 -176.05 -1692.51C-181.199 -1697.86 -183.773 -1704.79 -183.773 -1713.31C-183.773 -1718.9 -182.557 -1724.11 -180.124 -1728.94C-177.733 -1733.72 -174.429 -1737.39 -170.212 -1739.94C-165.996 -1742.5 -161.212 -1743.77 -155.861 -1743.77C-146.739 -1743.77 -139.3 -1740.43 -133.543 -1733.74C-127.787 -1727.01 -124.908 -1715.94 -124.908 -1700.54C-124.908 -1683.31 -128.091 -1670.78 -134.456 -1662.96C-140.01 -1656.15 -147.489 -1652.74 -156.895 -1652.74C-163.908 -1652.74 -169.645 -1654.71 -174.104 -1658.64C-178.604 -1662.57 -181.3 -1668 -182.192 -1674.94ZM-137.496 -1713.37C-137.496 -1717.14 -138.287 -1720.75 -139.868 -1724.19C-141.489 -1727.64 -143.739 -1730.27 -146.618 -1732.1C-149.496 -1733.88 -152.516 -1734.77 -155.679 -1734.77C-160.3 -1734.77 -164.273 -1732.91 -167.597 -1729.18C-170.922 -1725.45 -172.584 -1720.38 -172.584 -1713.98C-172.584 -1707.81 -170.942 -1702.97 -167.658 -1699.44C-164.374 -1695.88 -160.239 -1694.09 -155.253 -1694.09C-150.307 -1694.09 -146.111 -1695.88 -142.665 -1699.44C-139.219 -1702.97 -137.496 -1707.61 -137.496 -1713.37ZM-252.246 -1731.73V-1742.25H-193.32C-193.239 -1739.62 -193.665 -1737.08 -194.597 -1734.65C-196.097 -1730.64 -198.489 -1726.69 -201.773 -1722.79C-205.097 -1718.9 -209.881 -1714.4 -216.124 -1709.29C-225.814 -1701.35 -232.361 -1695.06 -235.766 -1690.44C-239.172 -1685.78 -240.874 -1681.38 -240.874 -1677.25C-240.874 -1672.91 -239.314 -1669.26 -236.192 -1666.3C-233.111 -1663.3 -229.077 -1661.8 -224.091 -1661.8C-218.82 -1661.8 -214.604 -1663.38 -211.442 -1666.54C-208.28 -1669.71 -206.679 -1674.08 -206.638 -1679.68L-195.388 -1678.52C-196.158 -1670.13 -199.057 -1663.75 -204.084 -1659.37C-209.111 -1654.95 -215.861 -1652.74 -224.334 -1652.74C-232.888 -1652.74 -239.658 -1655.11 -244.645 -1659.86C-249.631 -1664.6 -252.124 -1670.48 -252.124 -1677.49C-252.124 -1681.06 -251.395 -1684.56 -249.935 -1688.01C-248.476 -1691.46 -246.043 -1695.08 -242.638 -1698.9C-239.273 -1702.71 -233.658 -1707.94 -225.793 -1714.58C-219.226 -1720.1 -215.01 -1723.85 -213.145 -1725.83C-211.28 -1727.78 -209.739 -1729.75 -208.523 -1731.73H-252.246ZM-27.9758 -1885.25H-17.0299V-1815.5C-14.3947 -1818.02 -10.9285 -1820.53 -6.6312 -1823.04C-2.37445 -1825.56 1.45664 -1827.44 4.86204 -1828.7V-1818.12C-1.25958 -1815.24 -6.61093 -1811.75 -11.192 -1807.66C-15.7731 -1803.56 -19.0163 -1799.59 -20.9217 -1795.74H-27.9758V-1885.25ZM-112.868 -1817.94L-101.983 -1818.79C-101.01 -1814.49 -99.6312 -1811.37 -97.8474 -1809.42C-94.888 -1806.3 -91.2393 -1804.74 -86.9015 -1804.74C-83.415 -1804.74 -80.3542 -1805.71 -77.719 -1807.66C-74.2731 -1810.17 -71.5569 -1813.84 -69.5704 -1818.67C-67.5839 -1823.49 -66.5501 -1830.36 -66.469 -1839.28C-69.1042 -1835.27 -72.3272 -1832.29 -76.138 -1830.34C-79.9488 -1828.4 -83.942 -1827.42 -88.1177 -1827.42C-95.415 -1827.42 -101.618 -1830.12 -106.726 -1835.51C-111.874 -1840.86 -114.449 -1847.79 -114.449 -1856.31C-114.449 -1861.9 -113.233 -1867.11 -110.8 -1871.94C-108.408 -1876.72 -105.104 -1880.39 -100.888 -1882.94C-96.6717 -1885.5 -91.888 -1886.77 -86.5366 -1886.77C-77.415 -1886.77 -69.9758 -1883.43 -64.219 -1876.74C-58.4623 -1870.01 -55.5839 -1858.94 -55.5839 -1843.54C-55.5839 -1826.31 -58.7663 -1813.78 -65.1312 -1805.96C-70.6853 -1799.15 -78.165 -1795.74 -87.5704 -1795.74C-94.5839 -1795.74 -100.32 -1797.71 -104.78 -1801.64C-109.28 -1805.57 -111.976 -1811 -112.868 -1817.94ZM-68.1717 -1856.37C-68.1717 -1860.14 -68.9623 -1863.75 -70.5434 -1867.19C-72.165 -1870.64 -74.415 -1873.27 -77.2934 -1875.1C-80.1717 -1876.88 -83.192 -1877.77 -86.3542 -1877.77C-90.9758 -1877.77 -94.9488 -1875.91 -98.2731 -1872.18C-101.597 -1868.45 -103.26 -1863.38 -103.26 -1856.98C-103.26 -1850.81 -101.618 -1845.97 -98.3339 -1842.44C-95.0501 -1838.88 -90.915 -1837.09 -85.9285 -1837.09C-80.9826 -1837.09 -76.7866 -1838.88 -73.3407 -1842.44C-69.8947 -1845.97 -68.1717 -1850.61 -68.1717 -1856.37ZM-182.922 -1874.73V-1885.25H-123.996C-123.915 -1882.62 -124.341 -1880.08 -125.273 -1877.65C-126.773 -1873.64 -129.165 -1869.69 -132.449 -1865.79C-135.773 -1861.9 -140.557 -1857.4 -146.8 -1852.29C-156.489 -1844.35 -163.037 -1838.06 -166.442 -1833.44C-169.847 -1828.78 -171.55 -1824.38 -171.55 -1820.25C-171.55 -1815.91 -169.989 -1812.26 -166.868 -1809.3C-163.787 -1806.3 -159.753 -1804.8 -154.766 -1804.8C-149.496 -1804.8 -145.28 -1806.38 -142.118 -1809.54C-138.956 -1812.71 -137.354 -1817.08 -137.314 -1822.68L-126.064 -1821.52C-126.834 -1813.13 -129.733 -1806.75 -134.76 -1802.37C-139.787 -1797.95 -146.537 -1795.74 -155.01 -1795.74C-163.564 -1795.74 -170.334 -1798.11 -175.32 -1802.86C-180.307 -1807.6 -182.8 -1813.48 -182.8 -1820.49C-182.8 -1824.06 -182.07 -1827.56 -180.611 -1831.01C-179.151 -1834.46 -176.719 -1838.08 -173.314 -1841.9C-169.949 -1845.71 -164.334 -1850.94 -156.469 -1857.58C-149.901 -1863.1 -145.685 -1866.85 -143.82 -1868.83C-141.956 -1870.78 -140.415 -1872.75 -139.199 -1874.73H-182.922ZM-252.246 -1874.73V-1885.25H-193.32C-193.239 -1882.62 -193.665 -1880.08 -194.597 -1877.65C-196.097 -1873.64 -198.489 -1869.69 -201.773 -1865.79C-205.097 -1861.9 -209.881 -1857.4 -216.124 -1852.29C-225.814 -1844.35 -232.361 -1838.06 -235.766 -1833.44C-239.172 -1828.78 -240.874 -1824.38 -240.874 -1820.25C-240.874 -1815.91 -239.314 -1812.26 -236.192 -1809.3C-233.111 -1806.3 -229.077 -1804.8 -224.091 -1804.8C-218.82 -1804.8 -214.604 -1806.38 -211.442 -1809.54C-208.28 -1812.71 -206.679 -1817.08 -206.638 -1822.68L-195.388 -1821.52C-196.158 -1813.13 -199.057 -1806.75 -204.084 -1802.37C-209.111 -1797.95 -215.861 -1795.74 -224.334 -1795.74C-232.888 -1795.74 -239.658 -1798.11 -244.645 -1802.86C-249.631 -1807.6 -252.124 -1813.48 -252.124 -1820.49C-252.124 -1824.06 -251.395 -1827.56 -249.935 -1831.01C-248.476 -1834.46 -246.043 -1838.08 -242.638 -1841.9C-239.273 -1845.71 -233.658 -1850.94 -225.793 -1857.58C-219.226 -1863.1 -215.01 -1866.85 -213.145 -1868.83C-211.28 -1870.78 -209.739 -1872.75 -208.523 -1874.73H-252.246ZM-43.5434 -1960.94L-32.6582 -1961.79C-31.6853 -1957.49 -30.3069 -1954.37 -28.5231 -1952.42C-25.5636 -1949.3 -21.915 -1947.74 -17.5771 -1947.74C-14.0907 -1947.74 -11.0299 -1948.71 -8.39472 -1950.66C-4.94877 -1953.17 -2.23255 -1956.84 -0.246068 -1961.67C1.74042 -1966.49 2.7742 -1973.36 2.85528 -1982.28C0.220149 -1978.27 -3.00282 -1975.29 -6.81364 -1973.34C-10.6244 -1971.4 -14.6177 -1970.42 -18.7934 -1970.42C-26.0907 -1970.42 -32.2934 -1973.12 -37.4015 -1978.51C-42.5501 -1983.86 -45.1244 -1990.79 -45.1244 -1999.31C-45.1244 -2004.9 -43.9082 -2010.11 -41.4758 -2014.94C-39.0839 -2019.72 -35.7799 -2023.39 -31.5636 -2025.94C-27.3474 -2028.5 -22.5636 -2029.77 -17.2123 -2029.77C-8.09066 -2029.77 -0.651473 -2026.43 5.10528 -2019.74C10.862 -2013.01 13.7404 -2001.94 13.7404 -1986.54C13.7404 -1969.31 10.558 -1956.78 4.19312 -1948.96C-1.36093 -1942.15 -8.84066 -1938.74 -18.2461 -1938.74C-25.2596 -1938.74 -30.9961 -1940.71 -35.4555 -1944.64C-39.9555 -1948.57 -42.6515 -1954 -43.5434 -1960.94ZM1.15258 -1999.37C1.15258 -2003.14 0.36204 -2006.75 -1.21904 -2010.19C-2.84066 -2013.64 -5.09066 -2016.27 -7.96904 -2018.1C-10.8474 -2019.88 -13.8677 -2020.77 -17.0299 -2020.77C-21.6515 -2020.77 -25.6244 -2018.91 -28.9488 -2015.18C-32.2731 -2011.45 -33.9353 -2006.38 -33.9353 -1999.98C-33.9353 -1993.81 -32.2934 -1988.97 -29.0096 -1985.44C-25.7258 -1981.88 -21.5907 -1980.09 -16.6042 -1980.09C-11.6582 -1980.09 -7.46228 -1981.88 -4.01634 -1985.44C-0.570392 -1988.97 1.15258 -1993.61 1.15258 -1999.37ZM-113.597 -2017.73V-2028.25H-54.6717C-54.5907 -2025.62 -55.0163 -2023.08 -55.9488 -2020.65C-57.4488 -2016.64 -59.8407 -2012.69 -63.1244 -2008.79C-66.4488 -2004.9 -71.2326 -2000.4 -77.4758 -1995.29C-87.165 -1987.35 -93.7123 -1981.06 -97.1177 -1976.44C-100.523 -1971.78 -102.226 -1967.38 -102.226 -1963.25C-102.226 -1958.91 -100.665 -1955.26 -97.5434 -1952.3C-94.4623 -1949.3 -90.4285 -1947.8 -85.442 -1947.8C-80.1717 -1947.8 -75.9555 -1949.38 -72.7934 -1952.54C-69.6312 -1955.71 -68.0299 -1960.08 -67.9893 -1965.68L-56.7393 -1964.52C-57.5096 -1956.13 -60.4082 -1949.75 -65.4353 -1945.37C-70.4623 -1940.95 -77.2123 -1938.74 -85.6853 -1938.74C-94.2393 -1938.74 -101.01 -1941.11 -105.996 -1945.86C-110.983 -1950.6 -113.476 -1956.48 -113.476 -1963.49C-113.476 -1967.06 -112.746 -1970.56 -111.287 -1974.01C-109.827 -1977.46 -107.395 -1981.08 -103.989 -1984.9C-100.624 -1988.71 -95.0096 -1993.94 -87.1447 -2000.58C-80.5772 -2006.1 -76.3609 -2009.85 -74.4961 -2011.83C-72.6312 -2013.78 -71.0907 -2015.75 -69.8744 -2017.73H-113.597ZM-125.456 -2004.72L-136.401 -2003.26C-137.658 -2009.46 -139.787 -2013.94 -142.787 -2016.7C-145.827 -2019.42 -149.516 -2020.77 -153.854 -2020.77C-159.003 -2020.77 -163.341 -2018.99 -166.868 -2015.42C-170.435 -2011.86 -172.219 -2007.44 -172.219 -2002.17C-172.219 -1997.14 -170.577 -1993 -167.293 -1989.76C-164.01 -1986.48 -159.834 -1984.83 -154.766 -1984.83C-152.699 -1984.83 -150.124 -1985.24 -147.043 -1986.05L-148.26 -1976.44C-148.989 -1976.52 -149.577 -1976.56 -150.023 -1976.56C-154.685 -1976.56 -158.881 -1975.35 -162.611 -1972.92C-166.341 -1970.48 -168.206 -1966.73 -168.206 -1961.67C-168.206 -1957.65 -166.847 -1954.33 -164.131 -1951.69C-161.415 -1949.06 -157.908 -1947.74 -153.611 -1947.74C-149.354 -1947.74 -145.807 -1949.08 -142.969 -1951.75C-140.131 -1954.43 -138.307 -1958.44 -137.496 -1963.79L-126.55 -1961.85C-127.888 -1954.51 -130.929 -1948.83 -135.672 -1944.82C-140.415 -1940.77 -146.314 -1938.74 -153.368 -1938.74C-158.233 -1938.74 -162.712 -1939.79 -166.807 -1941.9C-170.901 -1943.97 -174.023 -1946.81 -176.172 -1950.42C-178.361 -1954.02 -179.456 -1957.86 -179.456 -1961.91C-179.456 -1965.76 -178.422 -1969.27 -176.354 -1972.43C-174.287 -1975.59 -171.226 -1978.11 -167.172 -1979.97C-172.442 -1981.19 -176.537 -1983.72 -179.456 -1987.57C-182.374 -1991.38 -183.834 -1996.17 -183.834 -2001.92C-183.834 -2009.71 -180.996 -2016.31 -175.32 -2021.75C-169.645 -2027.14 -162.469 -2029.83 -153.793 -2029.83C-145.969 -2029.83 -139.462 -2027.5 -134.273 -2022.84C-129.124 -2018.18 -126.185 -2012.14 -125.456 -2004.72ZM-251.516 -1960.94L-240.631 -1961.79C-239.658 -1957.49 -238.28 -1954.37 -236.496 -1952.42C-233.537 -1949.3 -229.888 -1947.74 -225.55 -1947.74C-222.064 -1947.74 -219.003 -1948.71 -216.368 -1950.66C-212.922 -1953.17 -210.206 -1956.84 -208.219 -1961.67C-206.233 -1966.49 -205.199 -1973.36 -205.118 -1982.28C-207.753 -1978.27 -210.976 -1975.29 -214.787 -1973.34C-218.597 -1971.4 -222.591 -1970.42 -226.766 -1970.42C-234.064 -1970.42 -240.266 -1973.12 -245.374 -1978.51C-250.523 -1983.86 -253.097 -1990.79 -253.097 -1999.31C-253.097 -2004.9 -251.881 -2010.11 -249.449 -2014.94C-247.057 -2019.72 -243.753 -2023.39 -239.537 -2025.94C-235.32 -2028.5 -230.537 -2029.77 -225.185 -2029.77C-216.064 -2029.77 -208.624 -2026.43 -202.868 -2019.74C-197.111 -2013.01 -194.233 -2001.94 -194.233 -1986.54C-194.233 -1969.31 -197.415 -1956.78 -203.78 -1948.96C-209.334 -1942.15 -216.814 -1938.74 -226.219 -1938.74C-233.233 -1938.74 -238.969 -1940.71 -243.429 -1944.64C-247.929 -1948.57 -250.624 -1954 -251.516 -1960.94ZM-206.82 -1999.37C-206.82 -2003.14 -207.611 -2006.75 -209.192 -2010.19C-210.814 -2013.64 -213.064 -2016.27 -215.942 -2018.1C-218.82 -2019.88 -221.841 -2020.77 -225.003 -2020.77C-229.624 -2020.77 -233.597 -2018.91 -236.922 -2015.18C-240.246 -2011.45 -241.908 -2006.38 -241.908 -1999.98C-241.908 -1993.81 -240.266 -1988.97 -236.983 -1985.44C-233.699 -1981.88 -229.564 -1980.09 -224.577 -1980.09C-219.631 -1980.09 -215.435 -1981.88 -211.989 -1985.44C-208.543 -1988.97 -206.82 -1993.61 -206.82 -1999.37ZM-44.2731 -2160.73V-2171.25H14.6526C14.7337 -2168.62 14.308 -2166.08 13.3756 -2163.65C11.8756 -2159.64 9.48366 -2155.69 6.19988 -2151.79C2.87555 -2147.9 -1.90823 -2143.4 -8.15147 -2138.29C-17.8407 -2130.35 -24.388 -2124.06 -27.7934 -2119.44C-31.1988 -2114.78 -32.9015 -2110.38 -32.9015 -2106.25C-32.9015 -2101.91 -31.3407 -2098.26 -28.219 -2095.3C-25.138 -2092.3 -21.1042 -2090.8 -16.1177 -2090.8C-10.8474 -2090.8 -6.6312 -2092.38 -3.46904 -2095.54C-0.306878 -2098.71 1.29447 -2103.08 1.33501 -2108.68L12.585 -2107.52C11.8147 -2099.13 8.91609 -2092.75 3.88907 -2088.37C-1.13796 -2083.95 -7.88796 -2081.74 -16.3609 -2081.74C-24.915 -2081.74 -31.6853 -2084.11 -36.6717 -2088.86C-41.6582 -2093.6 -44.1515 -2099.48 -44.1515 -2106.49C-44.1515 -2110.06 -43.4217 -2113.56 -41.9623 -2117.01C-40.5028 -2120.46 -38.0704 -2124.08 -34.665 -2127.9C-31.3001 -2131.71 -25.6853 -2136.94 -17.8204 -2143.58C-11.2528 -2149.1 -7.03661 -2152.85 -5.17174 -2154.83C-3.30688 -2156.78 -1.76634 -2158.75 -0.550122 -2160.73H-44.2731ZM-91.1582 -2171.25V-2149.91H-52.4826V-2139.88L-93.165 -2082.11H-102.104V-2139.88H-114.145V-2149.91H-102.104V-2171.25H-91.1582ZM-91.1582 -2139.88V-2099.68L-63.2461 -2139.88H-91.1582ZM-182.192 -2103.94L-171.307 -2104.79C-170.334 -2100.49 -168.956 -2097.37 -167.172 -2095.42C-164.212 -2092.3 -160.564 -2090.74 -156.226 -2090.74C-152.739 -2090.74 -149.679 -2091.71 -147.043 -2093.66C-143.597 -2096.17 -140.881 -2099.84 -138.895 -2104.67C-136.908 -2109.49 -135.874 -2116.36 -135.793 -2125.28C-138.429 -2121.27 -141.651 -2118.29 -145.462 -2116.34C-149.273 -2114.4 -153.266 -2113.42 -157.442 -2113.42C-164.739 -2113.42 -170.942 -2116.12 -176.05 -2121.51C-181.199 -2126.86 -183.773 -2133.79 -183.773 -2142.31C-183.773 -2147.9 -182.557 -2153.11 -180.124 -2157.94C-177.733 -2162.72 -174.429 -2166.39 -170.212 -2168.94C-165.996 -2171.5 -161.212 -2172.77 -155.861 -2172.77C-146.739 -2172.77 -139.3 -2169.43 -133.543 -2162.74C-127.787 -2156.01 -124.908 -2144.94 -124.908 -2129.54C-124.908 -2112.31 -128.091 -2099.78 -134.456 -2091.96C-140.01 -2085.15 -147.489 -2081.74 -156.895 -2081.74C-163.908 -2081.74 -169.645 -2083.71 -174.104 -2087.64C-178.604 -2091.57 -181.3 -2097 -182.192 -2103.94ZM-137.496 -2142.37C-137.496 -2146.14 -138.287 -2149.75 -139.868 -2153.19C-141.489 -2156.64 -143.739 -2159.27 -146.618 -2161.1C-149.496 -2162.88 -152.516 -2163.77 -155.679 -2163.77C-160.3 -2163.77 -164.273 -2161.91 -167.597 -2158.18C-170.922 -2154.45 -172.584 -2149.38 -172.584 -2142.98C-172.584 -2136.81 -170.942 -2131.97 -167.658 -2128.44C-164.374 -2124.88 -160.239 -2123.09 -155.253 -2123.09C-150.307 -2123.09 -146.111 -2124.88 -142.665 -2128.44C-139.219 -2131.97 -137.496 -2136.61 -137.496 -2142.37ZM-252.246 -2160.73V-2171.25H-193.32C-193.239 -2168.62 -193.665 -2166.08 -194.597 -2163.65C-196.097 -2159.64 -198.489 -2155.69 -201.773 -2151.79C-205.097 -2147.9 -209.881 -2143.4 -216.124 -2138.29C-225.814 -2130.35 -232.361 -2124.06 -235.766 -2119.44C-239.172 -2114.78 -240.874 -2110.38 -240.874 -2106.25C-240.874 -2101.91 -239.314 -2098.26 -236.192 -2095.3C-233.111 -2092.3 -229.077 -2090.8 -224.091 -2090.8C-218.82 -2090.8 -214.604 -2092.38 -211.442 -2095.54C-208.28 -2098.71 -206.679 -2103.08 -206.638 -2108.68L-195.388 -2107.52C-196.158 -2099.13 -199.057 -2092.75 -204.084 -2088.37C-209.111 -2083.95 -215.861 -2081.74 -224.334 -2081.74C-232.888 -2081.74 -239.658 -2084.11 -244.645 -2088.86C-249.631 -2093.6 -252.124 -2099.48 -252.124 -2106.49C-252.124 -2110.06 -251.395 -2113.56 -249.935 -2117.01C-248.476 -2120.46 -246.043 -2124.08 -242.638 -2127.9C-239.273 -2131.71 -233.658 -2136.94 -225.793 -2143.58C-219.226 -2149.1 -215.01 -2152.85 -213.145 -2154.83C-211.28 -2156.78 -209.739 -2158.75 -208.523 -2160.73H-252.246ZM13.2539 -2290.9L1.76069 -2289.93C0.909338 -2295.52 -1.05688 -2299.74 -4.13796 -2302.58C-7.25958 -2305.38 -11.0096 -2306.77 -15.388 -2306.77C-20.6582 -2306.77 -25.1177 -2304.79 -28.7663 -2300.81C-32.415 -2296.84 -34.2393 -2291.57 -34.2393 -2285C-34.2393 -2278.76 -32.4758 -2273.83 -28.9488 -2270.23C-25.4623 -2266.62 -20.8812 -2264.81 -15.2055 -2264.81C-11.6785 -2264.81 -8.49607 -2265.63 -5.65823 -2267.25C-2.82039 -2268.83 -0.590662 -2270.9 1.03096 -2273.45L11.308 -2272.11L2.67285 -2226.32H-41.6582V-2236.78H-6.08391L-1.27985 -2260.74C-6.6312 -2257.01 -12.2461 -2255.15 -18.1244 -2255.15C-25.9082 -2255.15 -32.4758 -2257.84 -37.8271 -2263.23C-43.1785 -2268.63 -45.8542 -2275.56 -45.8542 -2284.03C-45.8542 -2292.1 -43.5028 -2299.07 -38.8001 -2304.95C-33.0839 -2312.17 -25.2799 -2315.77 -15.388 -2315.77C-7.27985 -2315.77 -0.651473 -2313.5 4.49718 -2308.96C9.60528 -2304.42 12.5242 -2298.4 13.2539 -2290.9ZM-112.868 -2246.94L-101.983 -2247.79C-101.01 -2243.49 -99.6312 -2240.37 -97.8474 -2238.42C-94.888 -2235.3 -91.2393 -2233.74 -86.9015 -2233.74C-83.415 -2233.74 -80.3542 -2234.71 -77.719 -2236.66C-74.2731 -2239.17 -71.5569 -2242.84 -69.5704 -2247.67C-67.5839 -2252.49 -66.5501 -2259.36 -66.469 -2268.28C-69.1042 -2264.27 -72.3272 -2261.29 -76.138 -2259.34C-79.9488 -2257.4 -83.942 -2256.42 -88.1177 -2256.42C-95.415 -2256.42 -101.618 -2259.12 -106.726 -2264.51C-111.874 -2269.86 -114.449 -2276.79 -114.449 -2285.31C-114.449 -2290.9 -113.233 -2296.11 -110.8 -2300.94C-108.408 -2305.72 -105.104 -2309.39 -100.888 -2311.94C-96.6717 -2314.5 -91.888 -2315.77 -86.5366 -2315.77C-77.415 -2315.77 -69.9758 -2312.43 -64.219 -2305.74C-58.4623 -2299.01 -55.5839 -2287.94 -55.5839 -2272.54C-55.5839 -2255.31 -58.7663 -2242.78 -65.1312 -2234.96C-70.6853 -2228.15 -78.165 -2224.74 -87.5704 -2224.74C-94.5839 -2224.74 -100.32 -2226.71 -104.78 -2230.64C-109.28 -2234.57 -111.976 -2240 -112.868 -2246.94ZM-68.1717 -2285.37C-68.1717 -2289.14 -68.9623 -2292.75 -70.5434 -2296.19C-72.165 -2299.64 -74.415 -2302.27 -77.2934 -2304.1C-80.1717 -2305.88 -83.192 -2306.77 -86.3542 -2306.77C-90.9758 -2306.77 -94.9488 -2304.91 -98.2731 -2301.18C-101.597 -2297.45 -103.26 -2292.38 -103.26 -2285.98C-103.26 -2279.81 -101.618 -2274.97 -98.3339 -2271.44C-95.0501 -2267.88 -90.915 -2266.09 -85.9285 -2266.09C-80.9826 -2266.09 -76.7866 -2267.88 -73.3407 -2271.44C-69.8947 -2274.97 -68.1717 -2279.61 -68.1717 -2285.37ZM-182.922 -2303.73V-2314.25H-123.996C-123.915 -2311.62 -124.341 -2309.08 -125.273 -2306.65C-126.773 -2302.64 -129.165 -2298.69 -132.449 -2294.79C-135.773 -2290.9 -140.557 -2286.4 -146.8 -2281.29C-156.489 -2273.35 -163.037 -2267.06 -166.442 -2262.44C-169.847 -2257.78 -171.55 -2253.38 -171.55 -2249.25C-171.55 -2244.91 -169.989 -2241.26 -166.868 -2238.3C-163.787 -2235.3 -159.753 -2233.8 -154.766 -2233.8C-149.496 -2233.8 -145.28 -2235.38 -142.118 -2238.54C-138.956 -2241.71 -137.354 -2246.08 -137.314 -2251.68L-126.064 -2250.52C-126.834 -2242.13 -129.733 -2235.75 -134.76 -2231.37C-139.787 -2226.95 -146.537 -2224.74 -155.01 -2224.74C-163.564 -2224.74 -170.334 -2227.11 -175.32 -2231.86C-180.307 -2236.6 -182.8 -2242.48 -182.8 -2249.49C-182.8 -2253.06 -182.07 -2256.56 -180.611 -2260.01C-179.151 -2263.46 -176.719 -2267.08 -173.314 -2270.9C-169.949 -2274.71 -164.334 -2279.94 -156.469 -2286.58C-149.901 -2292.1 -145.685 -2295.85 -143.82 -2297.83C-141.956 -2299.78 -140.415 -2301.75 -139.199 -2303.73H-182.922ZM-251.516 -2246.94L-240.631 -2247.79C-239.658 -2243.49 -238.28 -2240.37 -236.496 -2238.42C-233.537 -2235.3 -229.888 -2233.74 -225.55 -2233.74C-222.064 -2233.74 -219.003 -2234.71 -216.368 -2236.66C-212.922 -2239.17 -210.206 -2242.84 -208.219 -2247.67C-206.233 -2252.49 -205.199 -2259.36 -205.118 -2268.28C-207.753 -2264.27 -210.976 -2261.29 -214.787 -2259.34C-218.597 -2257.4 -222.591 -2256.42 -226.766 -2256.42C-234.064 -2256.42 -240.266 -2259.12 -245.374 -2264.51C-250.523 -2269.86 -253.097 -2276.79 -253.097 -2285.31C-253.097 -2290.9 -251.881 -2296.11 -249.449 -2300.94C-247.057 -2305.72 -243.753 -2309.39 -239.537 -2311.94C-235.32 -2314.5 -230.537 -2315.77 -225.185 -2315.77C-216.064 -2315.77 -208.624 -2312.43 -202.868 -2305.74C-197.111 -2299.01 -194.233 -2287.94 -194.233 -2272.54C-194.233 -2255.31 -197.415 -2242.78 -203.78 -2234.96C-209.334 -2228.15 -216.814 -2224.74 -226.219 -2224.74C-233.233 -2224.74 -238.969 -2226.71 -243.429 -2230.64C-247.929 -2234.57 -250.624 -2240 -251.516 -2246.94ZM-206.82 -2285.37C-206.82 -2289.14 -207.611 -2292.75 -209.192 -2296.19C-210.814 -2299.64 -213.064 -2302.27 -215.942 -2304.1C-218.82 -2305.88 -221.841 -2306.77 -225.003 -2306.77C-229.624 -2306.77 -233.597 -2304.91 -236.922 -2301.18C-240.246 -2297.45 -241.908 -2292.38 -241.908 -2285.98C-241.908 -2279.81 -240.266 -2274.97 -236.983 -2271.44C-233.699 -2267.88 -229.564 -2266.09 -224.577 -2266.09C-219.631 -2266.09 -215.435 -2267.88 -211.989 -2271.44C-208.543 -2274.97 -206.82 -2279.61 -206.82 -2285.37ZM-43.5434 -2389.94L-32.6582 -2390.79C-31.6853 -2386.49 -30.3069 -2383.37 -28.5231 -2381.42C-25.5636 -2378.3 -21.915 -2376.74 -17.5771 -2376.74C-14.0907 -2376.74 -11.0299 -2377.71 -8.39472 -2379.66C-4.94877 -2382.17 -2.23255 -2385.84 -0.246068 -2390.67C1.74042 -2395.49 2.7742 -2402.36 2.85528 -2411.28C0.220149 -2407.27 -3.00282 -2404.29 -6.81364 -2402.34C-10.6244 -2400.4 -14.6177 -2399.42 -18.7934 -2399.42C-26.0907 -2399.42 -32.2934 -2402.12 -37.4015 -2407.51C-42.5501 -2412.86 -45.1244 -2419.79 -45.1244 -2428.31C-45.1244 -2433.9 -43.9082 -2439.11 -41.4758 -2443.94C-39.0839 -2448.72 -35.7799 -2452.39 -31.5636 -2454.94C-27.3474 -2457.5 -22.5636 -2458.77 -17.2123 -2458.77C-8.09066 -2458.77 -0.651473 -2455.43 5.10528 -2448.74C10.862 -2442.01 13.7404 -2430.94 13.7404 -2415.54C13.7404 -2398.31 10.558 -2385.78 4.19312 -2377.96C-1.36093 -2371.15 -8.84066 -2367.74 -18.2461 -2367.74C-25.2596 -2367.74 -30.9961 -2369.71 -35.4555 -2373.64C-39.9555 -2377.57 -42.6515 -2383 -43.5434 -2389.94ZM1.15258 -2428.37C1.15258 -2432.14 0.36204 -2435.75 -1.21904 -2439.19C-2.84066 -2442.64 -5.09066 -2445.27 -7.96904 -2447.1C-10.8474 -2448.88 -13.8677 -2449.77 -17.0299 -2449.77C-21.6515 -2449.77 -25.6244 -2447.91 -28.9488 -2444.18C-32.2731 -2440.45 -33.9353 -2435.38 -33.9353 -2428.98C-33.9353 -2422.81 -32.2934 -2417.97 -29.0096 -2414.44C-25.7258 -2410.88 -21.5907 -2409.09 -16.6042 -2409.09C-11.6582 -2409.09 -7.46228 -2410.88 -4.01634 -2414.44C-0.570392 -2417.97 1.15258 -2422.61 1.15258 -2428.37ZM-113.597 -2446.73V-2457.25H-54.6717C-54.5907 -2454.62 -55.0163 -2452.08 -55.9488 -2449.65C-57.4488 -2445.64 -59.8407 -2441.69 -63.1244 -2437.79C-66.4488 -2433.9 -71.2326 -2429.4 -77.4758 -2424.29C-87.165 -2416.35 -93.7123 -2410.06 -97.1177 -2405.44C-100.523 -2400.78 -102.226 -2396.38 -102.226 -2392.25C-102.226 -2387.91 -100.665 -2384.26 -97.5434 -2381.3C-94.4623 -2378.3 -90.4285 -2376.8 -85.442 -2376.8C-80.1717 -2376.8 -75.9555 -2378.38 -72.7934 -2381.54C-69.6312 -2384.71 -68.0299 -2389.08 -67.9893 -2394.68L-56.7393 -2393.52C-57.5096 -2385.13 -60.4082 -2378.75 -65.4353 -2374.37C-70.4623 -2369.95 -77.2123 -2367.74 -85.6853 -2367.74C-94.2393 -2367.74 -101.01 -2370.11 -105.996 -2374.86C-110.983 -2379.6 -113.476 -2385.48 -113.476 -2392.49C-113.476 -2396.06 -112.746 -2399.56 -111.287 -2403.01C-109.827 -2406.46 -107.395 -2410.08 -103.989 -2413.9C-100.624 -2417.71 -95.0096 -2422.94 -87.1447 -2429.58C-80.5772 -2435.1 -76.3609 -2438.85 -74.4961 -2440.83C-72.6312 -2442.78 -71.0907 -2444.75 -69.8744 -2446.73H-113.597ZM-126.124 -2379.78V-2369.26H-183.834V-2377.77C-178.158 -2383.81 -172.523 -2391.84 -166.929 -2401.86C-161.374 -2411.87 -157.077 -2422.17 -154.037 -2432.75C-151.847 -2440.21 -150.449 -2448.38 -149.841 -2457.25H-138.591C-138.712 -2450.24 -140.091 -2441.77 -142.726 -2431.83C-145.361 -2421.9 -149.131 -2412.33 -154.037 -2403.13C-158.983 -2393.89 -164.233 -2386.11 -169.787 -2379.78H-126.124ZM-251.516 -2389.94L-240.631 -2390.79C-239.658 -2386.49 -238.28 -2383.37 -236.496 -2381.42C-233.537 -2378.3 -229.888 -2376.74 -225.55 -2376.74C-222.064 -2376.74 -219.003 -2377.71 -216.368 -2379.66C-212.922 -2382.17 -210.206 -2385.84 -208.219 -2390.67C-206.233 -2395.49 -205.199 -2402.36 -205.118 -2411.28C-207.753 -2407.27 -210.976 -2404.29 -214.787 -2402.34C-218.597 -2400.4 -222.591 -2399.42 -226.766 -2399.42C-234.064 -2399.42 -240.266 -2402.12 -245.374 -2407.51C-250.523 -2412.86 -253.097 -2419.79 -253.097 -2428.31C-253.097 -2433.9 -251.881 -2439.11 -249.449 -2443.94C-247.057 -2448.72 -243.753 -2452.39 -239.537 -2454.94C-235.32 -2457.5 -230.537 -2458.77 -225.185 -2458.77C-216.064 -2458.77 -208.624 -2455.43 -202.868 -2448.74C-197.111 -2442.01 -194.233 -2430.94 -194.233 -2415.54C-194.233 -2398.31 -197.415 -2385.78 -203.78 -2377.96C-209.334 -2371.15 -216.814 -2367.74 -226.219 -2367.74C-233.233 -2367.74 -238.969 -2369.71 -243.429 -2373.64C-247.929 -2377.57 -250.624 -2383 -251.516 -2389.94ZM-206.82 -2428.37C-206.82 -2432.14 -207.611 -2435.75 -209.192 -2439.19C-210.814 -2442.64 -213.064 -2445.27 -215.942 -2447.1C-218.82 -2448.88 -221.841 -2449.77 -225.003 -2449.77C-229.624 -2449.77 -233.597 -2447.91 -236.922 -2444.18C-240.246 -2440.45 -241.908 -2435.38 -241.908 -2428.98C-241.908 -2422.81 -240.266 -2417.97 -236.983 -2414.44C-233.699 -2410.88 -229.564 -2409.09 -224.577 -2409.09C-219.631 -2409.09 -215.435 -2410.88 -211.989 -2414.44C-208.543 -2417.97 -206.82 -2422.61 -206.82 -2428.37ZM-44.2731 -2589.73V-2600.25H14.6526C14.7337 -2597.62 14.308 -2595.08 13.3756 -2592.65C11.8756 -2588.64 9.48366 -2584.69 6.19988 -2580.79C2.87555 -2576.9 -1.90823 -2572.4 -8.15147 -2567.29C-17.8407 -2559.35 -24.388 -2553.06 -27.7934 -2548.44C-31.1988 -2543.78 -32.9015 -2539.38 -32.9015 -2535.25C-32.9015 -2530.91 -31.3407 -2527.26 -28.219 -2524.3C-25.138 -2521.3 -21.1042 -2519.8 -16.1177 -2519.8C-10.8474 -2519.8 -6.6312 -2521.38 -3.46904 -2524.54C-0.306878 -2527.71 1.29447 -2532.08 1.33501 -2537.68L12.585 -2536.52C11.8147 -2528.13 8.91609 -2521.75 3.88907 -2517.37C-1.13796 -2512.95 -7.88796 -2510.74 -16.3609 -2510.74C-24.915 -2510.74 -31.6853 -2513.11 -36.6717 -2517.86C-41.6582 -2522.6 -44.1515 -2528.48 -44.1515 -2535.49C-44.1515 -2539.06 -43.4217 -2542.56 -41.9623 -2546.01C-40.5028 -2549.46 -38.0704 -2553.08 -34.665 -2556.9C-31.3001 -2560.71 -25.6853 -2565.94 -17.8204 -2572.58C-11.2528 -2578.1 -7.03661 -2581.85 -5.17174 -2583.83C-3.30688 -2585.78 -1.76634 -2587.75 -0.550122 -2589.73H-44.2731ZM-72.915 -2551.91C-68.3744 -2550.25 -65.0096 -2547.88 -62.8204 -2544.79C-60.6312 -2541.71 -59.5366 -2538.02 -59.5366 -2533.73C-59.5366 -2527.24 -61.8677 -2521.79 -66.5299 -2517.37C-71.192 -2512.95 -77.3947 -2510.74 -85.138 -2510.74C-92.9217 -2510.74 -99.1853 -2513.01 -103.929 -2517.55C-108.672 -2522.05 -111.043 -2527.54 -111.043 -2534.03C-111.043 -2538.17 -109.949 -2541.77 -107.76 -2544.86C-105.611 -2547.9 -102.327 -2550.25 -97.9082 -2551.91C-103.381 -2553.69 -107.537 -2556.57 -110.374 -2560.54C-113.253 -2564.52 -114.692 -2569.26 -114.692 -2574.77C-114.692 -2582.4 -111.996 -2588.8 -106.604 -2593.99C-101.212 -2599.18 -94.1177 -2601.77 -85.3204 -2601.77C-76.5231 -2601.77 -69.4285 -2599.18 -64.0366 -2593.99C-58.6447 -2588.76 -55.9488 -2582.25 -55.9488 -2574.47C-55.9488 -2568.67 -57.4082 -2563.83 -60.3271 -2559.94C-63.2866 -2556 -67.4826 -2553.33 -72.915 -2551.91ZM-70.7258 -2533.36C-70.7258 -2537.58 -72.0839 -2541.02 -74.8001 -2543.7C-77.5163 -2546.38 -81.0434 -2547.71 -85.3812 -2547.71C-89.5974 -2547.71 -93.0434 -2546.4 -95.719 -2543.76C-98.4353 -2541.08 -99.7934 -2537.82 -99.7934 -2533.97C-99.7934 -2529.96 -98.3947 -2526.59 -95.5974 -2523.88C-92.8407 -2521.12 -89.3947 -2519.74 -85.2596 -2519.74C-81.0839 -2519.74 -77.6177 -2521.08 -74.8609 -2523.75C-72.1042 -2526.43 -70.7258 -2529.63 -70.7258 -2533.36ZM-67.1988 -2574.53C-67.1988 -2577.65 -67.9285 -2580.67 -69.388 -2583.59C-70.888 -2586.51 -73.0974 -2588.78 -76.0163 -2590.4C-78.9353 -2591.98 -82.0772 -2592.77 -85.442 -2592.77C-90.6717 -2592.77 -94.9893 -2591.09 -98.3947 -2587.73C-101.8 -2584.36 -103.503 -2580.08 -103.503 -2574.9C-103.503 -2569.63 -101.739 -2565.27 -98.2123 -2561.82C-94.7258 -2558.38 -90.3474 -2556.65 -85.0772 -2556.65C-79.9285 -2556.65 -75.6515 -2558.36 -72.2461 -2561.76C-68.8812 -2565.17 -67.1988 -2569.42 -67.1988 -2574.53ZM-182.192 -2532.94L-171.307 -2533.79C-170.334 -2529.49 -168.956 -2526.37 -167.172 -2524.42C-164.212 -2521.3 -160.564 -2519.74 -156.226 -2519.74C-152.739 -2519.74 -149.679 -2520.71 -147.043 -2522.66C-143.597 -2525.17 -140.881 -2528.84 -138.895 -2533.67C-136.908 -2538.49 -135.874 -2545.36 -135.793 -2554.28C-138.429 -2550.27 -141.651 -2547.29 -145.462 -2545.34C-149.273 -2543.4 -153.266 -2542.42 -157.442 -2542.42C-164.739 -2542.42 -170.942 -2545.12 -176.05 -2550.51C-181.199 -2555.86 -183.773 -2562.79 -183.773 -2571.31C-183.773 -2576.9 -182.557 -2582.11 -180.124 -2586.94C-177.733 -2591.72 -174.429 -2595.39 -170.212 -2597.94C-165.996 -2600.5 -161.212 -2601.77 -155.861 -2601.77C-146.739 -2601.77 -139.3 -2598.43 -133.543 -2591.74C-127.787 -2585.01 -124.908 -2573.94 -124.908 -2558.54C-124.908 -2541.31 -128.091 -2528.78 -134.456 -2520.96C-140.01 -2514.15 -147.489 -2510.74 -156.895 -2510.74C-163.908 -2510.74 -169.645 -2512.71 -174.104 -2516.64C-178.604 -2520.57 -181.3 -2526 -182.192 -2532.94ZM-137.496 -2571.37C-137.496 -2575.14 -138.287 -2578.75 -139.868 -2582.19C-141.489 -2585.64 -143.739 -2588.27 -146.618 -2590.1C-149.496 -2591.88 -152.516 -2592.77 -155.679 -2592.77C-160.3 -2592.77 -164.273 -2590.91 -167.597 -2587.18C-170.922 -2583.45 -172.584 -2578.38 -172.584 -2571.98C-172.584 -2565.81 -170.942 -2560.97 -167.658 -2557.44C-164.374 -2553.88 -160.239 -2552.09 -155.253 -2552.09C-150.307 -2552.09 -146.111 -2553.88 -142.665 -2557.44C-139.219 -2560.97 -137.496 -2565.61 -137.496 -2571.37ZM-252.246 -2589.73V-2600.25H-193.32C-193.239 -2597.62 -193.665 -2595.08 -194.597 -2592.65C-196.097 -2588.64 -198.489 -2584.69 -201.773 -2580.79C-205.097 -2576.9 -209.881 -2572.4 -216.124 -2567.29C-225.814 -2559.35 -232.361 -2553.06 -235.766 -2548.44C-239.172 -2543.78 -240.874 -2539.38 -240.874 -2535.25C-240.874 -2530.91 -239.314 -2527.26 -236.192 -2524.3C-233.111 -2521.3 -229.077 -2519.8 -224.091 -2519.8C-218.82 -2519.8 -214.604 -2521.38 -211.442 -2524.54C-208.28 -2527.71 -206.679 -2532.08 -206.638 -2537.68L-195.388 -2536.52C-196.158 -2528.13 -199.057 -2521.75 -204.084 -2517.37C-209.111 -2512.95 -215.861 -2510.74 -224.334 -2510.74C-232.888 -2510.74 -239.658 -2513.11 -244.645 -2517.86C-249.631 -2522.6 -252.124 -2528.48 -252.124 -2535.49C-252.124 -2539.06 -251.395 -2542.56 -249.935 -2546.01C-248.476 -2549.46 -246.043 -2553.08 -242.638 -2556.9C-239.273 -2560.71 -233.658 -2565.94 -225.793 -2572.58C-219.226 -2578.1 -215.01 -2581.85 -213.145 -2583.83C-211.28 -2585.78 -209.739 -2587.75 -208.523 -2589.73H-252.246ZM11.612 -2722.64L1.09177 -2721.67C0.199878 -2726.61 -1.50282 -2730.2 -4.01634 -2732.43C-6.52985 -2734.66 -9.75282 -2735.77 -13.6853 -2735.77C-17.0501 -2735.77 -19.9893 -2735 -22.5028 -2733.46C-25.0569 -2731.92 -27.1447 -2729.88 -28.7663 -2727.32C-30.388 -2724.73 -31.7461 -2721.24 -32.8407 -2716.86C-33.9353 -2712.48 -34.4826 -2708.02 -34.4826 -2703.48C-34.4826 -2703 -34.4623 -2702.27 -34.4217 -2701.29C-32.2326 -2704.78 -29.2326 -2707.62 -25.4217 -2709.81C-21.6515 -2711.96 -17.5569 -2713.03 -13.138 -2713.03C-5.75958 -2713.03 0.483662 -2710.36 5.59177 -2705C10.6999 -2699.65 13.2539 -2692.6 13.2539 -2683.84C13.2539 -2674.8 10.5985 -2667.52 5.28772 -2662.01C-0.0636352 -2656.5 -6.75282 -2653.74 -14.7799 -2653.74C-20.5771 -2653.74 -25.8677 -2655.3 -30.6515 -2658.42C-35.4758 -2661.54 -39.1244 -2666 -41.5974 -2671.8C-44.1109 -2677.56 -45.3677 -2685.91 -45.3677 -2696.86C-45.3677 -2708.25 -44.1312 -2717.33 -41.6582 -2724.1C-39.1853 -2730.83 -35.4961 -2735.96 -30.5907 -2739.48C-25.7258 -2743.01 -20.0096 -2744.77 -13.442 -2744.77C-6.46904 -2744.77 -0.773095 -2742.85 3.64582 -2739C8.06474 -2735.11 10.7201 -2729.65 11.612 -2722.64ZM-33.2055 -2683.29C-33.2055 -2677.01 -31.5231 -2672.02 -28.1582 -2668.33C-24.8339 -2664.65 -20.8204 -2662.8 -16.1177 -2662.8C-11.2528 -2662.8 -7.01634 -2664.79 -3.40823 -2668.76C0.199878 -2672.73 2.00393 -2677.88 2.00393 -2684.21C2.00393 -2689.88 0.30123 -2694.5 -3.10418 -2698.07C-6.55012 -2701.6 -10.7866 -2703.36 -15.8136 -2703.36C-20.8812 -2703.36 -25.0366 -2701.6 -28.2799 -2698.07C-31.5636 -2694.5 -33.2055 -2689.58 -33.2055 -2683.29ZM-112.868 -2675.94L-101.983 -2676.79C-101.01 -2672.49 -99.6312 -2669.37 -97.8474 -2667.42C-94.888 -2664.3 -91.2393 -2662.74 -86.9015 -2662.74C-83.415 -2662.74 -80.3542 -2663.71 -77.719 -2665.66C-74.2731 -2668.17 -71.5569 -2671.84 -69.5704 -2676.67C-67.5839 -2681.49 -66.5501 -2688.36 -66.469 -2697.28C-69.1042 -2693.27 -72.3272 -2690.29 -76.138 -2688.34C-79.9488 -2686.4 -83.942 -2685.42 -88.1177 -2685.42C-95.415 -2685.42 -101.618 -2688.12 -106.726 -2693.51C-111.874 -2698.86 -114.449 -2705.79 -114.449 -2714.31C-114.449 -2719.9 -113.233 -2725.11 -110.8 -2729.94C-108.408 -2734.72 -105.104 -2738.39 -100.888 -2740.94C-96.6717 -2743.5 -91.888 -2744.77 -86.5366 -2744.77C-77.415 -2744.77 -69.9758 -2741.43 -64.219 -2734.74C-58.4623 -2728.01 -55.5839 -2716.94 -55.5839 -2701.54C-55.5839 -2684.31 -58.7663 -2671.78 -65.1312 -2663.96C-70.6853 -2657.15 -78.165 -2653.74 -87.5704 -2653.74C-94.5839 -2653.74 -100.32 -2655.71 -104.78 -2659.64C-109.28 -2663.57 -111.976 -2669 -112.868 -2675.94ZM-68.1717 -2714.37C-68.1717 -2718.14 -68.9623 -2721.75 -70.5434 -2725.19C-72.165 -2728.64 -74.415 -2731.27 -77.2934 -2733.1C-80.1717 -2734.88 -83.192 -2735.77 -86.3542 -2735.77C-90.9758 -2735.77 -94.9488 -2733.91 -98.2731 -2730.18C-101.597 -2726.45 -103.26 -2721.38 -103.26 -2714.98C-103.26 -2708.81 -101.618 -2703.97 -98.3339 -2700.44C-95.0501 -2696.88 -90.915 -2695.09 -85.9285 -2695.09C-80.9826 -2695.09 -76.7866 -2696.88 -73.3407 -2700.44C-69.8947 -2703.97 -68.1717 -2708.61 -68.1717 -2714.37Z" fill="#FF0000"/>
<path d="M14.5001 0.757645C17.2129 0.757645 19.8648 1.53435 22.1204 2.98954C24.376 4.44472 26.1341 6.51303 27.1722 8.93292C28.2104 11.3528 28.482 14.0156 27.9527 16.5845C27.4235 19.1535 26.1172 21.5132 24.1989 23.3653C22.2807 25.2174 19.8367 26.4787 17.176 26.9897C14.5153 27.5007 11.7574 27.2384 9.25112 26.2361C6.74481 25.2337 4.60263 23.5363 3.09547 21.3584C1.58832 19.1806 0.783873 16.6202 0.783873 14.0009C0.788021 10.4898 2.23445 7.12365 4.80584 4.64093C7.37723 2.1582 10.8636 0.76165 14.5001 0.757645ZM14.5001 26.4874C17.0579 26.4874 19.5582 25.7551 21.685 24.383C23.8117 23.011 25.4693 21.0609 26.4481 18.7793C27.4269 16.4977 27.683 13.987 27.184 11.5649C26.685 9.14276 25.4533 6.91788 23.6447 5.17161C21.8361 3.42534 19.5317 2.23612 17.0231 1.75433C14.5144 1.27253 11.9142 1.51981 9.55106 2.46488C7.18797 3.40995 5.1682 5.01038 3.74716 7.06377C2.32613 9.11716 1.56766 11.5313 1.56766 14.0009C1.57149 17.3114 2.93525 20.4852 5.35972 22.8261C7.78419 25.1669 11.0714 26.4837 14.5001 26.4874Z" fill="#FE3535"/>
<path d="M9.9877 6.81116C10.0916 6.81118 10.1913 6.85106 10.2648 6.92202L14.4999 11.0112L18.7351 6.92202C18.8086 6.85109 18.9083 6.81124 19.0122 6.81124C19.1161 6.81124 19.2158 6.85109 19.2892 6.92202L21.8311 9.37618C21.9045 9.44714 21.9458 9.54337 21.9458 9.6437C21.9458 9.74403 21.9045 9.84025 21.8311 9.91121L17.5959 14.0003L21.8311 18.0895C21.9045 18.1604 21.9458 18.2567 21.9458 18.357C21.9458 18.4573 21.9045 18.5536 21.8311 18.6245L19.2892 21.0787C19.2158 21.1496 19.1161 21.1895 19.0122 21.1895C18.9083 21.1895 18.8086 21.1496 18.7351 21.0787L14.4999 16.9895L10.2648 21.0787C10.1913 21.1496 10.0916 21.1895 9.9877 21.1895C9.88378 21.1895 9.78412 21.1496 9.71063 21.0787L7.16882 18.6245C7.09535 18.5536 7.05408 18.4573 7.05408 18.357C7.05408 18.2567 7.09535 18.1604 7.16882 18.0895L11.404 14.0003L7.16882 9.91121C7.09535 9.84025 7.05408 9.74403 7.05408 9.6437C7.05408 9.54337 7.09535 9.44714 7.16882 9.37618L9.71063 6.92202C9.78411 6.85106 9.88377 6.81118 9.9877 6.81116ZM14.4999 11.9246C14.396 11.9245 14.2963 11.8847 14.2229 11.8137L9.9877 7.72456L8.00002 9.6437L12.2352 13.7328C12.3087 13.8038 12.3499 13.9 12.3499 14.0003C12.3499 14.1007 12.3087 14.1969 12.2352 14.2679L8.00002 18.357L9.9877 20.2761L14.2229 16.187C14.2964 16.1161 14.396 16.0762 14.4999 16.0762C14.6039 16.0762 14.7035 16.1161 14.777 16.187L19.0122 20.2761L20.9999 18.357L16.7647 14.2679C16.6912 14.1969 16.6499 14.1007 16.6499 14.0003C16.6499 13.9 16.6912 13.8038 16.7647 13.7328L20.9999 9.6437L19.0122 7.72456L14.777 11.8137C14.7035 11.8847 14.6039 11.9245 14.4999 11.9246Z" fill="#FF2727"/>
</g>
<defs>
<clipPath id="clip0">
<rect width="29" height="28" fill="white" transform="translate(29 28) rotate(-180)"/>
</clipPath>
</defs>
</svg>
