<svg width="200" height="270" viewBox="0 0 200 292" fill="none" xmlns="http://www.w3.org/2000/svg">
<path fill-rule="evenodd" clip-rule="evenodd" d="M10.6892 251.233C11.6747 246.077 12.5782 240.907 13.3992 235.725C13.7889 233.266 14.1691 230.803 14.5109 228.337C14.7503 226.609 15.1148 224.634 13.8459 223.354C12.0603 221.553 10.4383 220.011 10.2197 217.431C10.0141 215.003 10.9002 212.357 11.4542 210.001C12.6161 205.059 14.0625 200.179 15.6608 195.344C17.2845 190.433 19.065 185.568 20.8711 180.712C22.5596 176.171 24.1828 171.59 26.3821 167.234C30.5559 158.968 37.617 152.846 46.3437 148.758C48.5141 147.742 52.9409 144.112 55.2083 143.3C57.2929 142.553 57.2855 144.734 59.3371 143.913C60.9772 143.256 62.5043 142.38 63.4227 140.913C64.4197 139.32 66.9201 137.092 67.3008 135.238C68.1074 131.307 67.2337 127.962 70.2615 125.004C72.9496 122.377 76.5625 120.578 80.3009 119.612C88.5249 117.486 99.4926 118.972 104.454 126.052C106.824 129.433 107.652 133.519 110.85 136.279C113.643 138.688 113.018 140.335 116.634 141.577C116.839 141.647 122.391 140.544 122.596 140.614C126.553 139.83 130.334 142.026 133.964 143.3C139.375 145.199 144.528 147.671 149.368 150.609C159.128 156.534 167.487 164.227 174.379 172.932C181.328 181.709 186.719 191.547 190.558 201.83C191.49 204.327 192.328 206.855 193.066 209.408C193.48 210.836 193.922 212.318 193.418 213.78C193.007 214.977 192.091 215.868 191.015 216.586C189.557 217.559 186.633 218.192 186.69 220.149C186.733 221.637 187.278 223.204 187.544 224.674C187.861 226.426 188.121 228.188 188.381 229.947C189.564 237.954 190.485 246.006 190.893 254.081C191.294 262.032 191.627 270.146 191.031 278.094C190.992 278.619 190.823 279.1 190.551 279.506C190.805 279.596 190.825 280.035 190.508 280.097C190.287 280.141 190.066 280.184 189.844 280.228C189.384 280.55 188.81 280.748 188.15 280.767C187.702 280.78 187.255 280.799 186.808 280.82C182.089 281.734 177.37 282.597 172.59 283.251C166.778 284.046 160.95 284.693 155.104 285.22C143.09 286.302 131.171 285.943 119.142 285.36C107.131 284.778 95.1275 284.642 83.1043 284.931C71.0706 285.221 59.0412 285.706 47.0048 285.905C33.5576 286.126 20.131 285.786 6.72266 284.796C4.88427 284.66 3.74687 283.305 4.10946 281.613C6.28183 271.479 8.74369 261.411 10.6892 251.233Z" fill="#D08B5B"/>
<path fill-rule="evenodd" clip-rule="evenodd" d="M133.964 143.3L133.702 143.206C130.152 141.922 126.458 139.849 122.597 140.614C122.46 140.567 119.948 141.042 118.227 141.343L119.86 142.922L122.743 143.436C112.798 158.641 101.037 166.244 87.4581 166.244C73.8795 166.244 63.576 158.641 56.5474 143.436L55.5883 143.19C55.4699 143.215 55.3437 143.252 55.2088 143.3C52.9414 144.112 48.5146 147.741 46.3442 148.758C37.6175 152.846 30.5564 158.968 26.3826 167.234C24.2566 171.445 22.6689 175.866 21.0402 180.257L20.8716 180.712C19.0655 185.568 17.285 190.433 15.6613 195.344C14.1325 199.968 12.7426 204.635 11.6079 209.356L11.4547 210C10.9007 212.357 10.0146 215.003 10.2202 217.431C10.2981 218.35 10.5541 219.137 10.9322 219.852L30.6012 226.408L21.2306 285.617C29.8141 285.958 38.4055 286.046 47.0053 285.905C59.0417 285.706 71.0711 285.221 83.1048 284.931C94.7637 284.65 106.404 284.77 118.051 285.308L121.008 285.449C132.405 285.976 143.712 286.246 155.104 285.22L155.88 285.149V285.149L155.88 276.488L151.879 228.262L172.159 224.725L192.066 215.768C192.668 215.21 193.15 214.56 193.419 213.78C193.885 212.426 193.54 211.055 193.159 209.725L193.067 209.408C192.328 206.855 191.491 204.327 190.559 201.83C186.72 191.547 181.328 181.709 174.38 172.932C167.488 164.227 159.129 156.534 149.368 150.609C144.528 147.671 139.376 145.199 133.964 143.3Z" fill="#95538E"/>
<path fill-rule="evenodd" clip-rule="evenodd" d="M126.348 140.365C125.105 140.314 123.837 140.501 122.596 140.614C122.488 140.624 122.447 140.778 122.569 140.802C124.789 141.231 126.985 141.819 129.166 142.416L130.099 142.672C132.558 143.346 134.945 144.041 137.325 144.94C142.07 146.731 146.575 149.149 150.722 151.927C166.691 162.623 178.249 178.817 185.542 195.584C187.523 200.137 189.201 204.804 190.56 209.549C190.891 210.703 191.202 211.862 191.497 213.025C191.583 213.366 191.961 214.239 191.754 214.588C191.571 214.896 190.86 215.087 190.529 215.247L189.414 215.783C187.239 216.821 183.616 218.529 183.252 218.695L182.686 218.953C173.416 223.163 163.512 226.733 153.082 226.98L153 226.155V226.155C152.535 221.593 151.925 217.006 150.593 212.584C150.521 212.347 150.195 212.427 150.165 212.638C149.423 217.873 149.66 223.149 149.919 228.408C150.377 237.722 150.986 247.032 151.527 256.343C151.798 261 152.148 265.655 152.464 270.31C152.781 274.975 152.884 279.751 153.607 284.378C153.768 285.409 155.071 285.969 156.059 285.861C157.151 285.74 157.991 284.849 157.996 283.827C158.01 281.132 157.644 278.405 157.441 275.717C157.248 273.163 157.041 270.61 156.829 268.057C156.053 258.741 155.161 249.435 154.336 240.122C154.043 236.819 153.728 233.519 153.402 230.22C164.452 229.89 174.775 226.098 184.623 221.668C184.765 224.666 185.11 227.659 185.443 230.645C186.373 238.977 187.194 247.307 187.807 255.665C188.118 259.886 188.343 264.113 188.54 268.34C188.636 270.418 188.715 272.496 188.775 274.575C188.796 275.267 188.814 275.96 188.83 276.653L188.864 278.241C188.891 279.247 189.002 280.178 189.915 280.911C190.843 281.654 192.096 281.694 193.015 280.911C194.244 279.862 194.027 278.433 193.99 277.024C193.96 275.836 193.923 274.649 193.881 273.461C193.796 271.086 193.688 268.711 193.556 266.337C193.095 258.039 192.174 249.773 190.969 241.541L190.499 238.364C189.622 232.456 188.658 226.414 186.696 220.724C187.46 220.372 188.221 220.017 188.98 219.661C190.327 219.03 191.718 218.437 193.027 217.74C194.065 217.187 194.961 216.429 195.25 215.31C195.572 214.063 195.079 212.699 194.752 211.483L194.723 211.376C194.402 210.151 194.056 208.931 193.692 207.717C192.212 202.793 190.383 197.965 188.243 193.254C183.957 183.824 178.424 174.865 171.667 166.765C165.584 159.474 158.398 152.861 149.976 147.902C145.859 145.478 141.471 143.487 136.83 142.079C134.662 141.421 132.302 140.849 130.031 140.614C128.806 140.487 127.579 140.414 126.348 140.365ZM104.316 125.422C102.838 123.952 99.902 125.473 100.612 127.419C102.28 131.999 104.938 136.177 109.086 139.186C112.985 142.015 117.634 143.853 122.641 143.461C122.679 143.457 122.713 143.448 122.742 143.435L122.311 143.978C118.923 148.223 115.35 152.409 111.043 155.879C102.267 162.948 90.3181 166.762 78.7802 164.049C69.7025 161.915 61.7049 155.265 59.3529 146.79C59.69 146.93 60.0908 146.978 60.5306 146.889C62.4125 146.51 64.2756 144.677 65.4893 143.362C66.8023 141.94 67.8277 140.404 68.5793 138.668C69.9548 135.491 70.3959 131.401 68.5177 128.323C68.2859 127.944 67.7514 128.156 67.7059 128.527L67.6344 129.105C67.2723 131.989 66.8213 134.779 65.3534 137.408C64.635 138.695 63.7739 139.951 62.7257 141.028C62.1648 141.605 61.5568 142.156 60.9003 142.639C60.2606 143.11 59.4863 143.45 58.9129 143.991L58.8079 144.095L58.8049 144.076C58.66 142.934 57.7956 142.431 56.9499 142.463C56.1315 142.493 55.1702 142.827 54.7979 142.987L54.7626 143.002C49.0531 145.541 43.7946 148.851 38.846 152.523C28.6123 160.116 20.9445 170.043 17.2294 181.733C15.406 187.47 14.3596 193.382 13.2551 199.266L12.5752 202.871C11.5443 208.303 10.3927 213.842 8.06557 218.895C7.46361 220.203 7.92768 221.428 9.40372 221.942C11.2468 222.584 13.0966 223.206 14.9494 223.82C14.0397 227.436 13.4849 231.177 12.8032 234.81C11.3543 242.534 9.57902 250.209 8.05677 257.922C7.27853 261.866 6.57633 265.823 5.79882 269.768C5.4245 271.667 5.03379 273.564 4.65384 275.463C4.44919 276.487 4.26361 277.514 4.06826 278.539L4.03427 278.709C3.92236 279.25 3.78175 279.809 3.94235 280.35C4.12548 280.968 4.64552 281.404 5.10983 281.846C5.49198 282.211 6.0443 282.213 6.51252 282.014L6.66652 281.948C7.50278 281.586 8.15788 281.224 8.45457 280.35C8.64234 279.797 8.71007 279.174 8.83281 278.604C9.06826 277.511 9.29149 276.416 9.50225 275.319C9.92376 273.123 10.3355 270.926 10.7375 268.727L11.1129 266.668C12.4015 259.572 13.6252 252.432 14.2438 245.261C14.5182 242.079 14.8091 238.901 15.1026 235.721L15.323 233.337C15.6018 230.318 15.9423 227.224 15.9905 224.165L17.0984 224.529V224.529L22.5045 226.3V226.3C23.8448 226.738 25.5514 227.638 26.9939 227.474C27.7001 227.394 28.2384 227.188 28.6541 226.814C28.1563 233.322 27.4824 239.819 26.5844 246.283C25.7673 252.165 24.8614 258.038 23.7915 263.885C23.2617 266.781 22.7172 269.673 22.1257 272.558C21.8301 274.001 21.525 275.441 21.2106 276.88C21.0538 277.599 20.8673 278.317 20.745 279.041C20.6052 279.87 20.8516 280.38 21.3516 281.062C21.7621 281.622 22.5834 281.91 23.2492 281.523C24.1309 281.011 24.5908 280.567 24.8502 279.633C25.0859 278.786 25.2291 277.9 25.4115 277.042C25.7482 275.457 26.0736 273.87 26.3878 272.28C27.0448 268.957 27.6504 265.626 28.1912 262.284C30.0971 250.513 31.3064 238.642 31.9172 226.753C32.2186 220.887 32.3118 215.016 32.2582 209.144C32.2309 206.134 32.1247 203.115 31.8949 200.113C31.6622 197.074 31.178 194.096 30.7458 191.086C30.7306 190.98 30.5692 190.974 30.5624 191.086C30.3577 194.46 30.037 197.831 29.8798 201.214C29.7296 204.443 29.6639 207.676 29.5445 210.906C29.3878 215.151 29.1705 219.399 28.8827 223.644C28.3617 223.116 27.5763 222.811 26.7905 222.93C25.6521 222.709 24.4267 222.156 23.3414 221.82L19.2499 220.553V220.553C17.0991 219.888 14.9482 219.227 12.7898 218.586C14.7196 212.571 16.0415 206.467 17.1703 200.274L17.6738 197.488C18.6703 192.006 19.7447 186.521 21.5497 181.212C23.4472 175.63 26.2868 170.441 30.0538 165.741C33.767 161.11 38.2846 157.032 42.936 153.217C46.9181 149.952 51.178 147.004 55.2397 143.828C55.1971 144.038 55.1881 144.27 55.2255 144.525C56.089 150.38 59.3861 155.833 63.981 159.888C73.212 168.036 86.8763 169.727 98.691 165.906C110.12 162.21 120.224 153.457 123.794 142.626C123.855 142.441 123.587 142.367 123.48 142.504C123.281 142.755 123.082 143.006 122.883 143.258C122.897 143.158 122.841 143.049 122.708 143.002C118.542 141.512 114.452 139.398 111.33 136.409C109.808 134.952 108.48 133.301 107.432 131.521C106.929 130.668 106.478 129.785 106.118 128.872L106.027 128.636C105.591 127.493 105.226 126.327 104.316 125.422Z" fill="black"/>
<path fill-rule="evenodd" clip-rule="evenodd" d="M48.0042 77.2136C48.5839 70.2498 47.6855 62.9507 50.5777 56.3315C55.6203 45.3491 69.7606 41.6874 80.723 37.5062C85.1148 36.3015 99.8924 36.1331 105.035 34.5386C116.673 30.9298 119.453 26.6301 128.701 33.5012C130.262 34.675 131.238 35.9507 131.951 37.6937L131.922 37.7012C132.125 38.4279 131.907 39.1529 131.449 39.7068C135.458 43.5117 137.136 49.2161 135.079 54.2812C128.365 67.4616 128.681 74.5884 130.844 88.758C133.669 101.986 127.214 106.818 116.523 114.016C116.959 114.8 117.049 115.841 116.481 116.532C104.12 132.66 80.8111 140.36 60.8404 132.174C52.734 128.824 49.115 120.81 47.0497 113.578C44.6438 105.48 43.9045 96.9475 45.8632 88.6989C46.6532 84.884 47.6824 81.0967 48.0042 77.2136Z" fill="#D08B5B"/>
<path fill-rule="evenodd" clip-rule="evenodd" d="M136.544 57.4587L129.194 62.0047L102.883 36.2533L111.639 29.8555C111.639 29.8555 127.524 40.7548 130.647 43.6314C133.77 46.508 136.544 57.4587 136.544 57.4587Z" fill="#9FD8E5"/>
<path fill-rule="evenodd" clip-rule="evenodd" d="M119.31 0.0605694C117.81 -0.148616 116.676 0.715688 116.137 1.93391L116.109 1.99951C115.936 2.41402 115.743 2.81721 115.536 3.21361C111.781 1.50345 106.423 1.94288 104.047 5.40624C102.351 7.87974 103.385 10.8153 104.025 13.4383L104.444 15.1666C103.633 15.6458 103.021 16.5041 103.05 17.3928L103.054 17.4612L103.224 19.8712C102.683 19.3616 102.187 18.8066 101.746 18.2155C101.441 17.6967 101.111 17.1871 100.758 16.6933C98.6765 13.7872 94.0043 16.3128 95.7219 19.425C96.0513 20.0253 96.4221 20.5938 96.8198 21.142C97.2687 21.9506 97.6372 22.7819 97.9202 23.6359C97.1077 23.9643 96.4831 24.6937 96.4172 25.7945C96.2635 28.3654 97.7177 30.5105 100.031 31.8582C100.711 32.2546 101.414 32.3316 102.051 32.1844C102.163 32.3248 102.275 32.4653 102.383 32.608C101.46 33.3034 100.628 34.0962 99.9135 34.975C97.7616 34.676 95.5975 34.5356 93.4333 34.5311C90.7886 33.3283 87.6217 33.3532 84.7793 33.804C82.9494 34.0939 81.1927 34.6579 79.3921 35.0634C77.4939 35.4892 75.5665 35.5051 73.6463 35.795C71.226 36.1597 69.1034 37.1971 67.7688 38.8529C66.3024 38.8937 64.7605 39.4509 63.482 40.2074C60.5054 41.9697 57.5459 43.7569 54.5766 45.5304C53.4371 46.2114 53.011 47.2984 53.2205 48.5108L53.2347 48.5884L53.3347 49.0912L53.0998 49.4007C52.1911 50.592 51.2024 51.8399 50.6143 53.1548C49.5262 54.6113 48.5429 56.138 47.6719 57.7122C46.4983 59.8278 45.5297 62.0703 44.8734 64.3717C44.7099 64.9538 44.5465 65.5405 44.4391 66.1339C44.2854 66.972 44.5221 67.6221 44.6514 68.4262C44.8124 69.4455 44.871 70.4784 45.0418 71.5C45.1564 72.1772 45.7761 72.5102 46.4251 72.5283C46.1812 74.2521 46.0055 75.9872 45.8371 77.7086C45.6005 80.1686 45.4395 82.6353 45.3004 85.102C44.5831 86.0692 43.1167 86.8348 42.0578 87.0998C40.5915 87.4645 39.0544 87.0681 37.6686 86.6037C36.7976 86.3115 36.0827 87.3286 36.5072 88.0081C37.8418 90.1418 40.6964 90.1328 42.8581 89.1882C43.773 88.7896 44.5758 88.212 45.1711 87.46C45.1345 88.1757 45.0954 88.8915 45.0564 89.6095L45.02 90.2599C44.5805 97.8553 43.6315 105.712 45.1686 113.232C47.8305 126.259 59.4422 136.178 73.6268 136.948C81.0702 137.352 87.2687 135.311 90.351 134.173C93.4333 133.034 92.2353 130.712 90.0956 131.376C86.4095 132.519 79.638 134.223 73.578 133.487C59.2952 131.754 47.1839 125.126 48.4282 96.5816C48.6047 92.5337 49.148 88.4838 49.2651 84.436C49.3773 80.4789 49.3359 76.5195 49.5237 72.5646L49.5864 71.2152C49.6597 69.6385 49.7382 68.0545 49.8653 66.4759C50.019 65.8644 50.1459 65.2437 50.3337 64.6435C50.8437 63.0103 51.5097 61.4225 52.3369 59.9071C52.5198 60.0362 52.7248 60.1291 52.9468 60.1653C54.6327 60.4462 56.2137 60.3669 57.7923 59.7146C58.5291 59.4133 59.1781 59.0124 59.7832 58.5163C60.0711 58.283 60.2639 58.0565 60.4151 57.821C61.1788 57.8323 61.9425 57.6194 62.4207 57.1097C62.9661 56.5288 63.0568 55.9288 62.8432 55.3734L62.8208 55.318L62.8745 55.2999C63.5186 56.847 64.8019 58.2083 66.2097 59.1279C68.4348 60.5867 71.2187 61.008 73.8879 61.0465C76.8352 61.0872 79.9435 60.6659 82.8518 60.2356C83.6203 60.1223 84.384 59.9932 85.133 59.8188C85.1623 59.846 85.1916 59.8777 85.2233 59.9049C87.7192 62.1224 91.2302 62.6932 94.3971 61.427C96.2269 60.6954 97.7616 59.5175 99.1181 58.1675C99.1377 58.8742 99.1767 59.5809 99.2426 60.2809L99.2699 60.5588C99.4049 61.8624 99.6648 63.2451 100.726 64.1859C102.441 65.7103 104.93 65.0988 106.909 64.1066C106.906 64.1542 106.906 64.204 106.906 64.2539C106.372 65.9391 105.835 67.6266 105.298 69.3141L105.183 69.6736C104.792 70.8718 104.364 72.0716 104.247 73.3257C104.022 75.7221 105.74 78.0892 108.609 77.2851C110.114 76.8648 111.32 75.69 112.477 74.749L113.206 74.1637C111.32 79.8877 110.012 85.8155 109.89 91.7886C109.883 92.1125 110.183 92.3571 110.515 92.3685C111.29 92.3979 112.125 92.2552 112.906 91.9675C112.95 91.9653 112.993 91.963 113.04 91.9562C114.372 91.7773 115.609 91.331 116.7 90.6719C116.448 91.4126 116.336 92.2076 116.402 93.0389C116.419 93.2405 116.758 93.3107 116.807 93.0888C117.436 90.2143 121.06 88.0421 124.183 88.5925C127.535 89.1837 130.004 91.8611 130.609 94.9076C131.258 98.1807 130.016 101.966 127.715 104.491C126.656 105.656 125.263 106.627 123.609 106.872C122.853 106.983 122.067 106.944 121.333 106.745C121.02 106.659 120.728 106.539 120.43 106.426C119.996 106.263 119.488 106.238 119.078 106.066C118.149 105.678 117.214 106.473 117.685 107.359C118.095 108.131 118.464 108.652 119.144 109.051C118.593 109.676 118.093 110.546 117.907 110.779C116.961 111.966 115.999 113.087 114.921 114.172C113.823 115.273 112.625 116.279 111.359 117.21L110.827 117.6C109.607 118.498 108.545 119.331 107.684 120.619C107.006 121.636 107.884 123.015 109.156 123C113.133 122.947 116.024 119.704 118.083 116.87C118.376 116.465 118.651 116.037 118.908 115.597C119 115.735 119.103 115.864 119.217 115.982L118.991 116.549C118.317 118.216 121.218 119.305 122.06 117.749C122.672 116.621 123.382 115.547 124.173 114.533C124.639 114.471 125.095 114.209 125.349 113.869C125.99 113.006 126.71 112.134 127.318 111.214C127.654 110.917 128.001 110.632 128.355 110.353C128.457 110.437 128.562 110.521 128.662 110.609C129.106 111.549 129.655 112.408 130.336 113.217L130.482 113.389C131.786 114.915 133.484 116.477 135.586 116.85C136.228 116.963 136.845 116.222 136.277 115.749C134.806 114.521 133.066 113.685 131.709 112.315C131.041 111.64 130.427 110.896 129.9 110.117L129.779 109.937C129.692 109.803 129.601 109.669 129.509 109.533C130.121 109.146 130.733 108.757 131.346 108.367C133.032 109.704 135.227 110.316 137.092 111.423L137.277 111.536C138.963 112.582 140.739 110.267 139.388 108.997C137.898 107.601 136.654 105.937 135.334 104.386C135.954 103.324 136.248 102.069 136.358 100.801C136.402 100.442 136.436 100.083 136.469 99.7233C137.416 99.7369 138.368 99.4356 139.173 98.9169L139.478 98.7153C140.456 99.0052 141.483 99.1457 142.467 99.1208C144.78 99.0573 145.726 96.6042 144.279 95.0526C142.803 93.467 140.219 93.1205 138.172 93.8906C138.107 93.8589 138.038 93.8249 137.972 93.7909C138.07 93.3742 138.048 92.9961 137.937 92.6641L137.969 92.4616C138.42 91.8203 138.716 91.0882 138.828 90.3147C138.917 89.702 138.899 89.0947 138.746 88.4897C138.695 88.2883 138.589 88.0797 138.509 87.8697C138.675 87.4797 138.773 87.0765 138.803 86.671C138.85 86.6196 138.896 86.5668 138.94 86.5097C139.956 85.1858 139.751 83.5905 138.784 82.5191C138.78 82.4509 138.773 82.3827 138.763 82.315C138.819 82.1967 138.871 82.0774 138.919 81.9566C139.863 81.0721 140.556 80.0077 140.427 78.6888C140.351 77.9127 140.008 77.2142 139.488 76.6921C139.58 76.4388 139.589 76.1455 139.477 75.9006C140.307 73.8516 140.202 71.3838 139.605 69.0922C139.736 68.7433 139.805 68.3651 139.79 67.9641C139.722 66.263 138.136 64.7001 136.257 64.7205C136.031 64.7223 135.819 64.7497 135.616 64.7898L135.613 64.7493C135.541 64.2387 135.39 63.7669 135.169 63.3435C135.278 63.3071 135.378 63.2547 135.466 63.1852C136.67 63.7814 137.944 64.2371 139.279 64.5477C140.261 64.776 141.267 63.7397 140.657 62.8839C140.374 62.4869 140.061 62.1303 139.724 61.8046C140.203 61.8071 140.689 61.8372 141.181 61.8959C142.064 62.0023 143.05 61.4429 143.623 60.6863C144.335 61.3296 145.05 61.9706 145.765 62.6117C147.576 64.2403 150.311 63.042 150.596 60.8947C151.135 60.7611 151.638 60.5346 152.08 60.2106C154.934 61.3613 158.006 61.9933 161.146 62.1133C163.4 62.1994 164.718 59.7622 163.664 58.0407C162.956 56.8855 162.078 55.848 161.065 54.9465C162.637 55.3927 164.259 55.7144 165.916 55.9205C166.811 56.0315 168.077 55.3429 168.436 54.5796C169.807 51.644 169.69 48.5838 168.112 45.7275C168.051 45.6143 167.982 45.5055 167.916 45.3968C167.753 45.0185 167.575 44.6448 167.382 44.2778C169.324 42.3978 169.493 39.6026 168.446 37.2628C168.866 36.6308 169.027 35.8697 168.741 35.1811C167.929 33.1992 166.758 31.369 165.279 29.797C165.42 29.5433 165.545 29.2737 165.65 28.9838C166.482 26.6394 165.518 23.8103 163.574 22.1771C162.351 21.1488 160.946 20.5327 159.445 20.1385C158.813 19.1011 158.001 18.1656 157.054 17.3774C157.018 17.3026 156.981 17.2279 156.94 17.1531C155.466 14.5754 152.782 13.1937 149.906 12.8743C149.793 11.8663 149.061 10.9037 147.998 10.5911C147.705 9.71901 147.268 8.88545 146.668 8.1289C145.724 6.93745 144.155 6.3757 142.676 7.15717C141.866 7.58527 141.091 8.0768 140.363 8.62043C140.037 8.47825 139.667 8.38625 139.249 8.35691L139.144 8.35088L136.738 8.23763C135.73 7.82311 134.725 7.38821 133.717 6.96463C133.112 6.50029 132.436 6.11295 131.7 5.82528C130.865 5.50137 130.011 5.3179 129.155 5.25674C128.46 5.04608 127.759 4.86034 127.047 4.71538C125.373 4.37561 123.621 4.18534 121.884 4.2012C121.849 3.78377 121.831 3.36135 121.834 2.93393L121.838 2.71981C121.877 1.34942 120.698 0.255369 119.31 0.0605694ZM120.997 109.703C121.236 109.751 121.478 109.789 121.719 109.817C121.646 109.984 121.573 110.152 121.502 110.319C121.307 110.421 121.109 110.519 120.912 110.609C120.97 110.301 121.004 109.991 120.997 109.703ZM133.532 106.245L133.694 106.522C133.72 106.568 133.746 106.613 133.771 106.657C133.427 106.632 133.081 106.639 132.739 106.675L132.74 106.641C132.784 106.627 132.828 106.615 132.87 106.596C133.106 106.49 133.325 106.373 133.532 106.245ZM126.757 93.5934C124.599 93.7101 122.77 94.0174 120.807 94.8941L120.638 94.9706C118.904 95.7702 116.034 97.2471 116.276 99.365C116.344 99.9675 116.815 100.602 117.557 100.554C119.589 100.425 120.751 98.5223 122.127 97.3354C123.515 96.1394 125.22 94.9095 126.901 94.0872C127.139 93.9715 127.045 93.6051 126.787 93.5932L126.757 93.5934ZM136.545 65.6902C137.063 65.7061 136.89 66.1727 136.624 65.7831C136.602 65.7514 136.575 65.7196 136.545 65.6902ZM108.625 34.5388C113.524 34.6584 118.454 37.3437 122.124 40.0579C125.316 42.4193 128.073 45.2281 130.514 48.2554C131.142 49.763 131.681 51.3022 132.137 52.8527C132.437 53.8765 132.625 54.9117 132.876 55.9445L132.954 56.2612C133.151 56.6037 133.298 56.9722 133.405 57.353C132.96 57.7671 132.383 58.0636 131.748 58.2042C131.543 58.2495 131.373 58.3476 131.239 58.4776C130.727 57.6853 130.28 56.849 130.02 55.9624L130.011 55.9214C129.028 54.4267 127.96 52.9784 126.815 51.5797C123.658 47.7177 120.181 44.1977 116.002 41.2689C112.833 39.0491 109.29 37.3095 105.523 36.1792C106.445 35.4885 107.492 34.9422 108.625 34.5388Z" fill="black"/>
<path fill-rule="evenodd" clip-rule="evenodd" d="M70.2717 118.706C71.9153 118.085 73.3818 117.049 74.4539 115.725C74.8267 115.265 74.9233 114.779 74.8451 114.335C74.7572 113.835 74.4381 113.382 74.0029 113.078C73.5663 112.773 73.0202 112.623 72.4923 112.7C72.0335 112.766 71.5769 112.999 71.2155 113.482L71.1399 113.578C70.5025 114.377 69.6719 115.032 68.7255 115.455C67.8133 115.862 66.7931 116.052 65.7374 115.942C63.7267 115.731 62.3408 114.724 60.8677 113.356C60.6851 113.183 60.5024 113.005 60.3188 112.824C60.2029 112.66 60.042 112.554 59.8634 112.499C59.665 112.438 59.4406 112.441 59.2351 112.508C59.0369 112.572 58.8597 112.693 58.7409 112.855C58.628 113.008 58.5639 113.198 58.5847 113.416C58.7196 114.834 59.5196 116.099 60.6561 117.093C61.9183 118.196 63.5915 118.96 65.1667 119.228C66.9021 119.522 68.6705 119.311 70.2717 118.706V118.706ZM64.3478 96.8348C62.5015 97.8745 59.6883 100.299 61.6745 102.876C64.0124 105.149 67.3785 102.543 69.0373 101.365C70.5754 100.451 72.3035 102.8 70.8765 103.867C58.8902 112.088 54.026 97.1067 63.414 95.6124C64.4476 95.4477 64.8315 96.5131 64.3478 96.8348ZM85.8274 87.2706C85.6234 84.9248 81.767 84.3921 81.3834 86.7134C81.0399 88.7928 81.4443 90.703 82.4553 92.5751C83.4213 94.3636 85.8493 93.5292 86.0329 91.9006C86.279 89.7175 85.9543 88.7299 85.8274 87.2706ZM56.4715 86.232C55.9338 85.5797 55.1575 85.1344 54.2275 85.386C51.3216 86.1727 52.1781 89.9946 53.1986 91.8549C53.7531 92.8652 55.5456 93.1214 56.3556 92.2319C57.6759 90.7813 58.3081 87.8844 56.6297 86.4556C56.5842 86.3818 56.5336 86.3072 56.4715 86.232ZM82.4961 77.0064L82.0371 76.932C80.6171 76.7045 78.8515 76.4859 77.847 77.5435C77.3142 78.1043 77.1309 79.1467 77.847 79.6836C79.1067 80.6281 80.4993 80.2621 82.0089 80.342C83.2529 80.4082 84.4485 80.5989 85.6468 80.9162C88.2756 81.6123 90.4177 82.883 92.6629 84.2783C92.9575 84.4614 93.2582 84.1123 93.1177 83.857C91.8216 81.5052 89.3098 79.5732 86.7939 78.3956C85.4512 77.767 83.9817 77.2456 82.4961 77.0064ZM59.1207 75.9527L58.7694 76.0193C54.9461 76.7597 49.9788 78.2386 48.1682 81.7177C48.0993 82.2097 48.1722 82.3151 48.2314 82.384L48.2512 82.4069C48.3 82.4657 48.339 82.5468 48.5691 82.6138C48.633 82.5997 48.6975 82.5848 48.7627 82.5689C49.5926 82.3674 50.2492 82.0899 50.8849 81.8019L51.5741 81.4873C52.3738 81.124 53.1805 80.774 54.0354 80.5156C55.8599 79.9643 57.7365 79.5759 59.6423 79.3686C60.0553 79.3236 60.453 79.1945 60.7668 78.9732C61.0647 78.7631 61.2922 78.4722 61.396 78.0855C61.5304 77.5852 61.4918 77.2063 61.202 76.7549C60.9841 76.4159 60.6723 76.1809 60.3143 76.046C59.9493 75.9085 59.5338 75.876 59.1207 75.9527Z" fill="black"/>
<path fill-rule="evenodd" clip-rule="evenodd" d="M59.17 122.189C61.447 120.31 63.9993 116.531 67.2705 119.521C68.0795 120.365 68.4072 122.259 69.6443 122.631C71.2874 123.124 72.9157 121.514 73.4756 120.277C75.7666 113.405 66.2962 111.521 60.901 112.631C58.2654 113.634 56.324 117.67 56.2067 119.777C56.1309 121.192 57.4243 123.274 59.17 122.189M41.9914 111.597C42.0137 111.506 42.0447 111.423 42.0821 111.348C43.0892 110.996 43.8861 111.355 44.3785 112.027C44.3623 112.194 44.3086 112.363 44.2746 112.529C44.6545 113.27 44.9973 114.188 45.5122 114.829C45.6139 114.836 45.7193 114.826 45.8205 114.799C54.3567 115.625 50.1892 107.351 58.8472 105.295C65.5398 104.273 77.6362 105.444 80.7934 111.898C83.2834 122.206 95.9442 115.023 100.101 109.662C104.537 104.784 107.405 98.8218 110.17 93.0367C110.754 91.8124 112.578 92.6878 112.38 93.8625C114.936 98.6127 114.851 104.319 115.484 109.522C116.56 119.905 117.61 134.464 107.197 140.804C93.6305 155.01 59.7533 160.023 44.1059 146.97C38.6892 136.181 39.357 123.019 41.9914 111.597" fill="black"/>
<path fill-rule="evenodd" clip-rule="evenodd" d="M43.7324 98.8613C45.3786 100.91 48.4304 101.563 51.2453 101.337C57.3165 100.796 59.2272 94.408 59.4263 89.4431C55.3551 90.5041 59.7705 82.9898 45.8539 82.1635C40.948 81.7848 42.3006 84.5297 40.1331 86.5352C40.1776 90.7442 40.9338 95.3177 43.7324 98.8613M72.6491 94.0231C76.2334 109.574 95.8613 105.875 97.9232 91.857C96.0192 90.6121 96.5207 87.5381 94.1554 86.4243C90.4068 84.2054 85.7207 84.3003 81.4637 84.3524C76.0224 84.6988 74.4718 86.787 71.6767 89.0652C71.8112 90.5869 72.199 92.3904 72.6491 94.0231M35.9568 79.5875C36.1581 79.5564 36.3595 79.5272 36.561 79.4998C36.7182 79.4171 36.9028 79.3535 37.1175 79.3152C37.6077 79.1999 38.0945 79.1222 38.5805 79.0803C45.5566 77.6259 61.6952 79.691 62.3612 85.2061C64.5828 85.8931 66.505 85.2779 69.0798 85.339C71.0397 77.7498 104.923 78.8209 106.553 83.3965C106.559 83.3949 106.565 83.3935 106.571 83.3917C108.137 82.9428 110.445 83.051 112.238 82.9799C116.064 82.9056 119.895 83.2216 123.639 83.9693C130.65 85.0015 140.219 86.21 135.343 94.3209C135.342 94.3222 135.341 94.3238 135.34 94.3252L135.339 94.3245C134.499 95.1225 133.073 94.4799 133.019 93.3997C134.659 89.5571 130.956 89.0957 128.107 87.9915C121.018 85.6321 113.801 85.3051 106.47 86.0349C105.918 86.6365 105.081 87.1611 104.197 87.4356C99.2948 88.1895 101.878 91.5581 98.7796 92.0481C99.3488 103.791 83.9598 110.201 75.0432 102.481C71.483 99.2568 70.6344 94.4799 69.8089 90.1741C69.3725 90.0833 69.095 89.8622 68.9329 89.5696C67.8833 88.5988 67.2238 87.7022 65.1483 87.4356C63.0727 87.1692 61.4749 87.704 61.2588 87.8678C61.2043 87.9695 61.1458 88.0714 61.0779 88.1734C60.983 88.3254 60.8539 88.4465 60.7072 88.5419C62.7568 100.235 52.9581 107.63 43.0659 101.566C38.7676 97.8198 37.8593 92.085 37.6798 86.9663C37.0972 86.6406 36.7282 86.0093 36.9299 85.2156C37.2079 84.1215 36.5561 83.1743 35.518 82.6986C34.1691 82.0809 34.4077 79.8251 35.9568 79.5875" fill="black"/>
</svg>
