<svg width="200" height="271" viewBox="0 0 222 293" fill="none" xmlns="http://www.w3.org/2000/svg">
<path fill-rule="evenodd" clip-rule="evenodd" d="M202.083 133.076C199.55 126.636 201.452 118.482 196.232 113.153C194.688 112.287 193.869 112.769 193.234 114.28C192.85 116.268 191.951 123.112 195.184 123.109C195.591 127.384 195.337 131.69 194.341 135.885C191.955 135.532 190.216 136.664 188.475 137.506C187.177 138.133 185.879 138.6 184.312 138.169C177.841 137.116 175.997 143.389 175.919 148.509C175.824 151.007 175.569 156.831 174.377 159.255C168.982 148.94 157.652 144.244 146.856 141.925C145.163 141.493 143.719 140.902 142.634 139.893C133.538 136.577 137.907 125.714 133.723 119.471C127.172 112.048 119.306 109.913 109.396 111.185C100.725 112.07 94.8308 120.201 95.3655 127.877C95.5258 129.443 94.5076 131.09 93.9086 132.702C87.9235 139.314 78.6105 142.272 70.6005 146.267C43.8839 158.322 34.6252 167.534 24.2429 193.185C19.386 202.837 13.5734 212.203 11.643 222.832C9.3746 235.358 9.36749 248.18 10.1572 260.828C8.68286 260.992 10.2873 270.715 11.5804 274.083C12.0235 275.238 13.0852 276.07 14.408 276.051C17.069 277.245 23.3165 282.056 26.0997 281.897C35.0921 281.386 43.833 282.176 52.4967 281.767C61.8696 281.325 71.1522 279.711 80.5652 279.92C96.9804 280.285 85.2279 281.185 102.211 281.897C112.932 282.353 152.045 276.948 162.736 277.83C171.431 279.519 175.398 276.672 174.072 268.285C173.581 265.07 172.015 257.921 177.167 257.618C179.604 257.879 181.622 260.127 183.448 261.441C199.575 272.525 216.05 264.544 217.349 246.321C219.793 231.037 223.22 227.427 215.77 212.164C192.2 155.347 227.711 163.066 203.735 136.453C201.862 137.958 202.338 133.941 202.083 133.076Z" fill="#D08B5B"/>
<path fill-rule="evenodd" clip-rule="evenodd" d="M88.9128 145.199C104.274 152.432 116.422 156.049 125.357 156.049C134.292 156.049 150.029 157.733 172.568 161.101L183.697 183.682L208.256 188.111L208.365 188.702C209.561 195.038 211.847 202.707 215.77 212.163C223.22 227.425 219.793 231.036 217.349 246.32C216.05 264.542 199.575 272.524 183.448 261.439C181.622 260.126 179.604 257.877 177.167 257.616C172.118 257.914 173.521 264.786 174.041 268.086L174.072 268.284C175.398 276.67 171.431 279.518 162.736 277.829C152.045 276.946 112.932 282.352 102.211 281.895C85.2279 281.184 96.9804 280.284 80.5651 279.919C71.1522 279.709 61.8696 281.324 52.4966 281.766C44.2887 282.153 36.0114 281.464 27.5166 281.825L14.408 276.05C9.55986 244.001 10.2964 222.988 16.6177 213.009C22.9073 203.08 31.3293 186.758 41.8839 164.043C42.0456 163.883 42.2088 163.725 42.3732 163.568L88.9128 145.199Z" fill="#FCBC17"/>
<path fill-rule="evenodd" clip-rule="evenodd" d="M193.126 112.73C194.412 111.562 196.457 111.853 197.711 112.89C198.988 113.944 199.756 115.601 200.411 117.029C203.352 123.449 202.667 130.479 204.155 137.196C206.877 138.553 209.334 140.325 211.075 142.709C213.718 146.331 214.973 150.548 213.647 154.84C212.962 157.061 211.799 159.119 210.969 161.292C210.083 163.606 209.54 166.011 209.28 168.454C209.025 170.851 208.991 173.262 209.064 175.669C209.103 176.916 209.175 178.16 209.246 179.404C209.31 180.519 209.524 181.683 209.235 182.775L209.199 182.901C209.312 182.885 209.423 182.864 209.533 182.842C210.481 182.647 211.315 182.343 212.304 182.463C213.075 182.556 213.475 183.15 213.149 183.821C213.007 184.113 212.817 184.358 212.589 184.566C214.578 198.141 218.051 211.498 220.336 225.03C221.372 231.169 222.003 237.326 221.647 243.542L221.61 244.159C221.247 249.866 220.355 256.155 217.214 261.146C215.746 263.483 213.728 265.556 211.283 267.05C210.164 267.734 208.964 268.269 207.66 268.536C200.905 271.02 193.761 270.411 187.391 267.127C184.527 265.652 181.669 263.931 179.33 261.797C178.194 260.759 177.097 259.438 176.424 257.994C176.426 258.318 176.363 258.649 176.434 258.969L176.575 259.6C177.636 264.291 181.68 281.628 181.733 283.083C181.762 283.869 174.603 283.85 173.826 283.873L173.804 283.874C162.209 284.32 150.607 284.082 139.018 283.64L138.103 283.605C126.864 283.165 114.634 282.575 103.383 282.272L103.406 282.099C103.541 281.165 104.196 277.017 104.269 276.699L104.272 276.688C104.591 275.502 105.206 271.811 104.882 270.587C104.048 267.434 100.29 268.154 97.6457 268.488L97.0888 268.556C96.6608 268.61 95.6192 268.751 95.629 268.761C95.3481 268.491 96.0164 267.724 96.181 267.519L96.3128 267.35C97.0232 266.432 97.6659 265.479 97.5957 264.296C97.4249 261.407 92.9531 261.57 90.7556 261.77C90.6007 261.784 90.5374 262.008 90.7158 262.041L91.1493 262.125C92.5435 262.401 95.6401 263.105 95.5701 264.17C95.5303 264.775 94.8324 265.221 94.406 265.602C93.936 266.023 93.4688 266.475 93.122 266.991C92.4543 267.984 92.3026 269.324 92.9631 270.358C93.7252 271.551 95.0768 271.69 96.4304 271.582L96.507 271.575C96.805 271.55 97.1029 271.523 97.4007 271.496L99.1879 271.335C99.6304 271.295 101.052 270.952 101.468 271.189C102.056 271.525 101.349 273.015 101.216 273.506L101.209 273.541C101.095 274.252 101.026 281.7 101.015 282.192C92.2466 282.004 83.4773 280.204 74.7095 280.627C67.744 280.963 60.7974 281.543 53.8448 282.047L53.6694 280.669C51.7424 265.666 48.721 245.869 50.1711 231.029C50.2845 229.867 48.32 229.874 48.2073 231.029C46.708 246.374 49.9899 266.988 51.899 282.186C48.9393 282.393 45.9784 282.582 43.0141 282.725L42.2582 282.761C32.171 283.227 21.7597 283.254 11.8881 281.118C11.5837 281.053 11.4806 280.772 11.5445 280.538C11.4463 280.59 11.299 280.561 11.2572 280.434C10.1073 276.934 9.52317 268.024 9.00203 264.168L8.96699 263.916C8.43186 260.17 8.12502 256.381 7.90409 252.612C7.45733 245.072 7.51133 237.523 8.1152 229.993C10.0372 205.973 17.6911 181.706 33.7548 162.403C37.6382 157.737 42.0592 153.467 47.3639 150.165C52.5679 146.925 58.4052 144.642 64.3285 142.789C68.2438 141.563 72.2204 140.513 76.1971 139.466C76.3477 139.397 76.4982 139.328 76.6495 139.261L76.8771 139.161C78.291 138.542 79.6828 137.864 81.1311 137.313L81.4512 137.193C83.5499 136.416 85.9951 135.728 88.267 135.752C91.9466 134.041 95.0372 131.455 94.7377 127.308C94.6149 125.604 97.5115 125.606 97.6146 127.308C97.8846 131.836 94.8631 135.047 91.0114 137.202L91.0298 137.22L91.0482 137.239C91.6496 137.869 92.2928 138.453 92.9875 138.997C97.1458 142.265 102.406 144.978 107.664 146.764C113.833 148.86 119.997 149.488 126.377 147.793C129.713 146.906 132.862 145.54 135.756 143.772C136.64 143.233 137.487 142.655 138.299 142.036C137.531 141.066 136.917 140.022 136.402 138.913C135.366 136.683 134.509 133.663 135.567 131.308C135.827 130.728 136.861 130.37 137.222 131.109C138.216 133.13 138.631 135.315 139.789 137.291C140.231 138.043 140.739 138.757 141.309 139.43C141.309 139.466 145.659 140.153 145.659 140.153C150.917 140.151 155.868 142.016 160.519 144.346C163.269 145.723 165.971 147.188 168.666 148.655L173.932 151.523C174.32 151.733 174.754 151.937 175.189 152.155C174.681 149.839 174.433 147.477 174.6 145.136C174.853 141.606 176.34 137.744 180.28 136.486C182.143 135.89 184.298 136.074 186.108 136.736C186.942 137.041 187.85 137.447 188.626 137.989C189.002 136.43 190.585 135.26 192.176 134.744C192.691 134.576 193.219 134.469 193.754 134.417C193.738 134.167 193.737 133.914 193.741 133.653L193.744 133.456C193.769 132.301 193.759 131.145 193.732 129.991C193.683 127.804 193.57 125.663 193.329 123.483C193.129 121.678 192.78 119.894 192.521 118.096L192.413 117.324C192.195 115.802 191.828 113.906 193.126 112.73ZM34.9565 260.303L34.5176 260.062C33.0801 259.279 31.5995 258.557 29.8581 258.919C28.1991 259.265 27.0224 260.508 26.404 261.909C26.1119 262.571 25.9595 263.239 25.8468 263.944C25.7835 264.339 25.7407 264.737 25.6656 265.13L25.6405 265.252C25.6065 265.409 25.5544 265.627 25.507 265.816C25.0544 265.632 24.5986 265.34 24.2281 265.167L23.9294 265.028C23.2283 264.706 22.4989 264.399 21.7349 264.25C20.0799 263.927 18.244 264.394 17.2979 265.763C16.4888 266.933 16.5053 268.313 16.8149 269.625L16.8369 269.716C16.9712 270.261 17.6652 272.441 18.6746 272.123C19.6562 271.813 19.7873 270.609 19.8617 269.806L19.8672 269.729C19.9007 269.124 19.7707 267.852 20.5131 267.622C21.4408 267.336 23.2256 268.647 24.0335 268.989C25.4781 269.602 27.0651 269.782 28.2406 268.591C29.2946 267.523 29.3836 265.959 29.6563 264.604L29.7268 264.263C29.8715 263.574 30.1515 262.475 30.9767 262.502C31.651 262.525 32.3913 263.17 32.9471 263.477C33.5605 263.815 34.1975 264.096 34.8632 264.337C36.4168 264.897 38.1442 265.076 39.797 264.911C40.7546 264.815 41.3781 264.393 41.7166 263.562C41.8312 263.318 41.9186 263.066 41.979 262.806C42.5156 260.944 39.5837 259.616 38.5026 261.281C37.2554 261.237 36.0943 260.927 34.9565 260.303ZM215.402 247.856C214.507 247.267 213.293 247.394 212.494 248.057L212.447 248.099C212.225 248.296 211.726 248.81 211.403 249.262L211.301 249.189C211.285 249.178 211.269 249.166 211.254 249.155L211.21 249.121C210.549 248.606 209.859 248.133 209.009 247.923C206.793 247.373 204.779 248.742 203.812 250.498C203.353 251.331 203.157 252.191 202.928 253.089L202.909 253.172C202.816 253.59 202.696 254.439 202.299 254.646C202.153 254.722 201.821 254.572 201.494 254.397C200.746 253.999 200.074 253.491 199.341 253.071C197.621 252.086 195.667 251.679 193.736 252.389C191.824 253.092 190.454 254.75 190.422 256.683C190.398 258.108 191.432 260.594 193.376 260.421C193.766 260.386 194.268 260.164 194.331 259.75C194.498 258.65 193.559 257.299 194.636 256.39C195.678 255.512 196.758 256.25 197.701 256.86L198.377 257.298C199.475 258.001 200.606 258.646 201.996 258.723C203.754 258.82 205.378 257.923 206.263 256.541C207.063 255.292 207.074 253.879 207.7 252.596C207.837 252.316 208.189 252.058 208.072 251.929C208.546 252.157 209.157 252.813 209.452 252.997C210.923 253.913 212.889 253.906 214.178 252.692C214.691 252.209 215.018 251.612 215.398 251.043C215.536 250.838 215.707 250.647 215.833 250.436C215.879 250.358 215.954 250.069 216.016 249.811L216.111 249.402L216.121 249.335C216.203 248.715 215.966 248.227 215.402 247.856ZM158.767 242.445C157.078 241.627 154.996 241.938 153.474 242.93C151.768 244.043 150.93 245.752 150.361 247.558C149.946 248.873 149.748 250.686 148.557 251.638C147.171 252.747 144.848 251.57 143.385 251.133C141.615 250.605 139.488 250.389 137.76 251.17C136.068 251.936 135.252 253.499 135.077 255.173C134.914 256.735 135.157 258.793 136.122 260.1C136.217 260.229 136.399 260.196 136.459 260.059C137.093 258.617 136.971 256.967 137.486 255.474C138.036 253.881 139.326 253.543 140.962 253.972C142.67 254.419 144.233 255.256 145.989 255.554C147.861 255.871 149.714 255.544 151.19 254.402C152.432 253.441 153.184 252.041 153.692 250.647C154.187 249.287 154.268 247.467 155.322 246.339C155.588 246.054 156.052 245.71 156.483 245.673C157.122 245.619 157.354 246.058 157.87 246.394C159.233 247.282 161.409 247.3 162.244 245.738C162.517 245.227 162.653 244.501 162.244 244C161.527 243.123 160.939 243.13 159.993 243.32C159.963 243.296 159.93 243.266 159.892 243.225L159.863 243.193C159.613 242.9 159.127 242.62 158.767 242.445ZM91.8675 233.229C91.8115 232.054 90.2805 230.928 89.0728 231.748C88.8779 231.879 88.6861 232.013 88.4981 232.152L88.421 232.229V232.229C88.1964 232.228 87.9868 232.174 87.7649 232.109L87.3767 231.993C86.3576 231.695 85.3778 231.455 84.29 231.675C82.4182 232.054 81.2307 233.545 80.6209 235.127C80.0526 236.602 80.2392 238.107 79.9726 239.619C79.7199 241.052 78.9219 241.612 77.4236 241.305L77.3468 241.288C74.3665 240.63 70.9709 238.787 68.3581 241.313C65.5354 244.042 67.3818 248.376 70.4716 250.129C70.6066 250.206 70.7558 250.08 70.7252 249.949C70.3147 248.187 69.1171 246.505 69.5184 244.634C69.7965 243.338 70.7725 242.724 72.1653 242.931C75.0948 243.366 77.8348 245.521 80.8394 243.957C82.3402 243.175 83.1672 241.707 83.541 240.203C83.8778 238.85 83.7823 237.323 84.4277 236.046C85.1337 234.649 86.3227 235.662 87.6041 235.853C89.4169 236.123 91.9639 235.245 91.8675 233.229ZM190.149 191.477C190.155 190.31 188.191 190.309 188.186 191.477C188.113 206.257 180.623 219.92 179.278 234.553C179.171 235.716 181.136 235.709 181.242 234.553C182.588 219.915 190.077 206.281 190.149 191.477ZM27.9896 215.672C26.9556 214.591 25.4411 214.927 24.2108 215.468C22.3628 216.282 20.5945 217.196 18.8992 218.253C18.4822 218.513 18.7451 219.078 19.236 218.991C20.4793 218.77 21.6895 218.523 22.8958 218.165C23.8023 217.896 24.7459 217.506 25.6912 217.367C25.632 217.568 25.5601 217.765 25.4754 217.958C25.3203 218.354 25.1401 218.742 24.9872 219.139C24.6829 219.93 24.4088 220.733 24.143 221.537L24.0107 221.938C23.4581 223.623 22.9213 226.074 25.4713 226.592C26.4174 226.784 27.3551 226.404 28.2352 226.105L28.4164 226.044L31.6267 224.994C32.0092 224.869 32.7176 224.781 33.0348 224.562L32.9841 224.787C32.9184 225.086 32.8539 225.379 32.7147 225.676L32.637 225.84C31.8396 227.509 30.8342 229.179 31.7642 231.024C32.561 232.605 34.4445 233.355 36.2596 232.906C37.9845 232.48 39.2327 230.687 38.3397 229.127C38.007 228.545 37.0333 228.261 36.4146 228.624L36.2484 228.726C36.0535 228.844 35.7181 229.045 35.7099 229.083C35.6638 229.094 35.6154 229.105 35.5663 229.116C35.6704 228.833 35.7406 228.398 35.8319 228.206L36.1679 227.501C36.7929 226.178 37.3346 224.831 36.8578 223.347C35.4922 219.096 30.8614 221.513 27.4454 222.726C27.4952 222.547 27.5445 222.369 27.5863 222.195C27.7335 221.58 27.8946 220.968 28.054 220.355L28.3808 219.091C28.6749 217.926 28.9039 216.628 27.9896 215.672ZM202.763 210.928C202.766 210.827 202.632 210.75 202.538 210.809C200.354 212.164 198.893 214.994 199.713 217.405C200.112 218.576 200.959 219.603 202.149 220.171C203.628 220.878 205.261 220.609 206.815 220.307L207.475 220.176C207.94 220.086 208.399 220.02 208.872 220.14C209.035 220.182 209.223 220.313 209.378 220.341C209.314 220.441 209.246 220.615 209.212 220.679L209.099 220.888C208.986 221.1 208.876 221.32 208.807 221.543C208.575 222.29 208.632 223.092 209.008 223.788C209.709 225.087 211.178 225.818 212.708 225.942C213.619 226.017 215.916 225.28 216.459 226.173C217.536 227.945 220.605 226.753 220.008 224.791C219.605 223.465 218.461 222.608 217.043 222.249C216.288 222.058 215.506 222.084 214.738 222.162C214.437 222.193 214.137 222.236 213.836 222.265L213.61 222.284C213.669 222.28 212.986 222.265 212.711 222.248L212.77 222.103C212.778 222.082 212.786 222.064 212.793 222.05C213.099 221.447 213.325 220.847 213.307 220.173C213.273 218.958 212.421 217.898 211.302 217.313C210.27 216.774 209.042 216.558 207.869 216.679C206.58 216.811 204.747 217.754 203.48 217.257C202.524 216.883 202.2 215.577 202.185 214.722C202.163 213.433 202.724 212.212 202.763 210.928ZM113.81 202.476C110.296 201.021 107.279 203.507 105.217 205.886C105.11 206.009 105.244 206.216 105.412 206.12L105.686 205.962C107.369 204.988 109.236 203.836 111.322 204.168C113.211 204.468 113.679 205.609 113.303 207.164L113.192 207.602C112.793 209.203 112.486 210.86 113.481 212.349C114.421 213.755 116.254 214.369 117.97 214.407C119.951 214.45 121.66 213.6 123.47 213.007L123.613 212.961C124.382 212.716 127.187 212.075 127.226 213.534C127.244 214.2 126.471 214.984 126.174 215.583C125.785 216.367 125.526 217.19 125.53 218.061C125.542 220.232 127.504 221.996 129.826 220.943C130.729 220.533 130.961 219.358 130.491 218.603C129.828 217.539 129.559 217.594 130.024 216.476L130.158 216.162C130.729 214.815 131.185 213.428 130.542 212.015C129.259 209.192 125.413 208.85 122.665 209.785L122.564 209.82C120.854 210.432 115.731 212.883 116.084 209.417C116.223 208.051 116.672 206.742 116.358 205.361C116.067 204.08 115.098 203.01 113.81 202.476ZM96.8784 190.882C96.2369 189.839 94.0837 190.212 94.2621 191.536L94.3192 191.948C94.3922 192.512 94.4083 193.042 93.9862 193.543C93.4741 194.152 92.5976 194.336 91.802 194.243C90.1176 194.046 89.0434 192.604 87.1896 192.941C85.6848 193.214 84.6457 194.351 84.0441 195.59C83.4071 196.903 83.4206 198.326 82.9461 199.677C82.3997 201.232 81.2344 201.16 79.7792 200.616L79.466 200.498C78.0739 199.963 76.6772 199.37 75.1261 199.625C72.5498 200.049 70.3312 203.706 72.745 205.472C73.1807 205.791 73.9421 205.624 73.9237 205.022L73.9213 204.907C73.9091 203.81 74.2089 202.395 75.5706 202.136C77.0147 201.862 78.6464 203.079 79.9874 203.429C83.4606 204.336 85.4391 201.923 86.029 199.068L86.0505 198.959C86.2389 197.96 86.3876 196.111 87.5195 195.643C88.1231 195.394 88.767 196.008 89.2714 196.255C90.0552 196.639 90.8962 196.883 91.7828 196.945C95.0628 197.176 98.7899 193.991 96.8784 190.882ZM178.958 186.94C177.877 186.508 176.265 186.748 176.001 188.05L175.841 188.87C175.527 190.452 175.027 192.431 173.341 193.001C172.287 193.358 171.077 192.733 170.132 192.352C168.996 191.894 167.889 191.501 166.646 191.393C164.123 191.172 162.244 192.519 161.352 194.625L161.274 194.813C160.554 196.582 159.582 199.966 161.158 201.401C161.388 201.611 161.851 201.713 162.134 201.518C163.065 200.873 163.3 199.813 163.62 198.819L163.647 198.734C163.987 197.702 164.265 196.565 164.877 195.635C166.016 193.906 168.986 195.88 170.415 196.336C172.762 197.084 175.195 196.647 176.988 195.046C178.121 194.035 178.79 192.754 179.251 191.399C179.545 191.54 179.85 191.661 180.179 191.743C181.431 192.056 182.916 191.891 183.869 191.015C185.658 189.372 184.688 186.425 181.96 186.901C181.423 186.995 181.07 187.469 181.007 187.952L180.97 188.029V188.029C180.284 187.819 179.533 187.17 178.958 186.94ZM52.5597 172.258C50.0112 169.837 45.5885 171.149 43.8454 173.717C43.4839 174.249 44.0811 174.924 44.7159 174.763C46.2332 174.377 48.3742 172.857 49.9776 173.824C51.1662 174.541 50.5196 176.415 50.4109 177.463L50.3952 177.619C50.2576 179.046 50.2264 180.998 51.4301 182.066C52.123 182.681 53.1856 182.598 54.0993 182.51L54.3897 182.482C55.4669 182.382 56.5369 182.207 57.5686 181.901C58.5171 181.62 59.4158 181.238 60.3071 180.833L60.5297 180.732C60.9242 180.551 62.2397 179.835 62.6337 180.285C62.8391 180.52 62.33 181.548 62.2242 181.777C61.8246 182.64 61.3165 183.452 60.95 184.33C60.3041 185.877 60.2501 187.622 61.1572 189.098C62.0359 190.528 63.9401 191.687 65.6277 190.588C66.5939 189.959 66.5912 188.814 65.6277 188.185C65.1179 187.852 64.6038 187.632 64.3932 187.073C64.1183 186.345 64.4721 185.572 64.8146 184.897L65.2245 184.095C66.1328 182.303 67.0402 180.242 65.7713 178.41C64.461 176.519 61.7978 176.489 59.7832 177.277C58.6335 177.727 57.5843 178.33 56.3862 178.678C55.5572 178.919 54.725 179.079 53.8759 179.168C53.6867 178.224 53.9545 177.169 53.9572 176.231C53.9616 174.808 53.6744 173.317 52.5597 172.258ZM183.977 138.588C179.676 138.005 177.594 141.556 177.297 144.976C177.03 148.081 177.575 151.194 178.427 154.213C178.746 155.333 179.104 156.439 179.48 157.526C180.083 159.274 180.739 161.019 181.537 162.7C181.78 163.208 182.025 163.718 182.3 164.207C183.242 164.92 184.048 165.88 184.78 166.803L185.262 167.413V167.413L185.391 167.577C186.635 169.15 187.698 170.781 188.567 172.556C189.395 174.246 190.011 176.008 190.49 177.806L190.607 178.255C190.976 179.639 191.519 181.291 190.862 182.58C192.151 182.946 193.432 183.28 194.802 183.456C196.692 183.701 198.658 183.717 200.566 183.654C202.409 183.591 204.25 183.458 206.085 183.278L207.407 183.144C207.544 183.129 207.68 183.114 207.817 183.098C207.766 183.039 207.721 182.974 207.689 182.901C207.218 181.859 207.279 180.65 207.227 179.529L207.221 179.404C207.152 178.16 207.11 176.916 207.093 175.67C207.061 173.331 207.13 170.985 207.407 168.658C207.647 166.621 208.023 164.583 208.61 162.605C209.202 160.599 210.105 158.716 210.94 156.79C211.764 154.886 212.444 152.931 212.371 150.855C212.324 149.536 212.01 148.253 211.477 147.041C211.452 147.059 211.421 147.072 211.384 147.07C209.712 147.013 208.129 146.567 206.514 146.191C204.8 145.79 203.045 145.461 201.292 145.266L200.92 145.226C199.459 145.074 197.868 145.001 196.518 145.579C195.057 146.207 194.137 147.603 193.582 148.942L193.52 149.096C192.535 151.635 192.761 155.024 195.809 156.225C196.754 156.599 198.911 156.828 199.397 155.645C199.616 155.106 199.167 154.308 198.997 153.799C198.798 153.191 198.668 152.593 198.683 151.958C198.695 151.402 199.155 150.982 199.741 150.937L199.795 150.934C200.86 150.891 203.057 149.758 203.271 151.389C203.313 151.707 203.05 152.04 202.773 152.194C202.213 152.5 201.629 152.704 201.02 152.828C201.103 153.168 201.221 153.501 201.337 153.832C201.405 153.801 201.481 153.78 201.562 153.773C202.463 153.705 203.354 153.837 204.255 153.846L204.748 153.849C205.447 153.856 206.056 153.89 206.735 154.224C207.36 154.533 207.25 155.305 206.735 155.636C205.382 156.502 203.092 155.994 201.683 155.115C201.744 155.561 201.715 156.017 201.508 156.495C200.9 157.914 199.154 158.621 197.593 158.682C196.206 158.736 194.881 158.333 193.774 157.626C193.548 158.372 193.184 159.088 193.027 159.861C192.821 160.876 193.067 162.063 192.684 163.017C192.301 163.978 190.821 164.622 189.964 163.679C188.709 162.301 189.1 160.119 190.202 158.723C190.789 157.984 191.854 157.137 192.939 157.003C192.185 156.348 191.581 155.539 191.201 154.646C191.174 154.657 191.142 154.66 191.108 154.65C187.58 153.76 185.661 150.809 185.543 147.711C185.283 147.884 185.013 148.038 184.73 148.176C184.055 148.512 183.189 148.217 182.98 147.521C182.789 146.873 183.346 146.073 184.129 146.127C184.576 146.161 185.025 146.163 185.469 146.095C185.531 146.086 185.589 146.075 185.651 146.064C185.69 145.826 185.742 145.588 185.805 145.352C184.473 145.493 183.078 145.291 181.79 145.028C180.68 144.804 180.938 143.174 182.055 143.213L182.234 143.22C183.7 143.285 185.863 143.503 187.119 142.646C187.34 142.352 187.585 142.073 187.85 141.81C187.885 141.744 187.914 141.674 187.941 141.602C188.616 139.807 185.418 138.782 183.977 138.588ZM145.371 163.837C143.697 163.423 141.935 163.986 140.783 165.154C139.816 166.135 139.315 167.339 138.867 168.571L138.611 169.279C138.239 170.282 137.811 171.078 136.481 170.696C134.776 170.206 133.298 169.352 131.444 169.419C129.758 169.48 128.109 170.15 126.936 171.271C125.736 172.419 125.163 174.017 125.417 175.593L125.434 175.689C125.567 176.415 126.716 179.004 127.935 177.812C128.479 177.281 128.371 176.692 128.5 176.016C128.623 175.373 128.886 174.742 129.316 174.22C130.079 173.295 131.306 172.934 132.506 173.261C134.088 173.693 135.486 174.583 137.19 174.604C138.983 174.626 140.506 173.768 141.495 172.42C142.293 171.332 142.578 170.059 143.14 168.876L143.194 168.763C143.666 167.789 143.987 167.438 145.068 167.903L145.445 168.071C147.063 168.78 148.883 169.43 150.556 168.429C152.11 167.5 152.772 165.632 151.465 164.272C150.744 163.521 149.075 163.649 148.606 164.612C148.524 164.778 148.447 164.946 148.372 165.114C148.229 165.074 148.09 165.025 147.958 164.956C147.081 164.592 146.32 164.071 145.371 163.837ZM96.4924 152.841C94.5826 151.891 92.9881 153.76 93.2932 155.448L93.308 155.521C93.3192 155.572 93.345 155.684 93.3771 155.811C93.2797 155.8 93.1832 155.784 93.087 155.761L92.6433 155.711C91.9458 155.637 91.2696 155.598 90.5714 155.804C88.9235 156.292 88.1132 157.771 88.0734 159.287C88.0339 160.797 88.8803 162.015 89.129 163.458C89.3834 164.933 87.7292 164.512 86.6493 164.404L86.607 164.4C85.1047 164.259 83.5253 164.257 82.2768 165.161C80.9874 166.094 80.4162 167.707 80.5983 169.184C80.7628 170.518 81.6668 172.571 83.3046 172.782C83.4664 172.803 83.6505 172.77 83.7335 172.621C84.3958 171.432 83.4743 170.119 83.5783 168.865C83.693 167.485 84.6457 167.256 85.9592 167.345C87.2339 167.432 88.5055 167.681 89.7645 167.33C91.1303 166.949 92.1215 165.867 92.4019 164.591C92.7109 163.184 92.1429 161.875 91.7744 160.539C91.652 160.095 91.5918 159.648 91.6763 159.194C91.6944 159.096 91.7867 159.005 91.8201 158.967C92.0297 158.93 92.3435 159.023 92.5229 159.041L92.7775 159.064C94.1607 159.179 95.4932 159.102 96.4816 158.047C96.9882 157.506 97.1752 156.845 97.1247 156.148L97.0993 155.866C97.0723 155.595 97.0206 155.238 96.868 155.089L96.8661 155.082V155.082C96.9172 155.018 96.9658 154.953 97.0103 154.885L97.0533 154.817C97.477 154.165 97.2313 153.209 96.4924 152.841ZM194.341 136.299C192.439 136.299 190.641 136.872 189.203 138.434C189.716 138.885 190.126 139.408 190.352 140.022C191.056 139.666 191.803 139.388 192.566 139.19C194.895 138.59 198.082 138.599 200.041 140.074C201.067 140.845 199.94 142.227 198.835 141.989C197.846 141.776 196.987 141.382 195.949 141.337C195.048 141.296 194.164 141.405 193.3 141.645C191.982 142.012 190.784 142.708 189.903 143.666C189.608 143.988 189.35 144.337 189.134 144.713C187.49 147.596 188.729 151.729 191 154.102C190.109 151.369 190.997 148.147 192.772 145.883C194.909 143.157 198.105 142.848 201.471 143.273L201.582 143.288C204.84 143.712 208.873 144.453 211.308 146.662C211.065 146.152 210.785 145.658 210.47 145.18C208.625 142.374 205.564 140.185 202.387 138.624C201.855 138.359 201.317 138.114 200.782 137.887C198.747 137.024 196.479 136.299 194.341 136.299ZM195.381 114.889L195.374 114.921C195.372 114.927 195.371 114.933 195.369 114.939C195.256 115.86 195.522 116.918 195.657 117.848L195.676 117.98C195.961 120.097 196.336 122.215 196.459 124.348C196.578 126.399 196.532 128.526 196.265 130.568L196.226 130.859C196.069 131.971 195.975 133.277 195.568 134.419C197.134 134.557 198.7 135.022 200.124 135.516C200.634 135.695 201.142 135.883 201.648 136.083C201.015 132.975 200.676 129.823 199.989 126.725L199.854 126.109C199.106 122.682 198.405 119.233 196.474 116.167C196.216 115.759 195.938 115.417 195.624 115.052C195.555 114.968 195.474 114.914 195.381 114.889Z" fill="black"/>
<path fill-rule="evenodd" clip-rule="evenodd" d="M152.601 77.2406C152.019 70.2734 152.921 62.9707 150.017 56.3484C144.954 45.3606 130.757 41.697 119.751 37.5138C115.342 36.3085 100.506 36.14 95.343 34.5448C83.6585 30.9343 80.8668 26.6324 71.5825 33.5069C70.0153 34.6813 69.0347 35.9576 68.3195 37.7015L68.3489 37.7089C68.1446 38.436 68.3636 39.1614 68.8238 39.7155C64.7982 43.5222 63.1137 49.2295 65.1791 54.297C71.9196 67.4839 71.6026 74.6141 69.4308 88.7906C66.5947 102.025 73.0755 106.86 83.8085 114.061C83.3715 114.845 83.2808 115.887 83.8506 116.578C96.2617 132.714 119.663 140.417 139.713 132.228C147.852 128.876 151.485 120.858 153.559 113.622C155.974 105.521 156.717 96.9841 154.75 88.7315C153.957 84.9147 152.924 81.1256 152.601 77.2406Z" fill="#D08B5B"/>
<path fill-rule="evenodd" clip-rule="evenodd" d="M63.708 57.4761L71.0877 62.0243L97.5035 36.2603L88.7129 29.8594C88.7129 29.8594 72.7647 40.764 69.6289 43.642C66.4931 46.52 63.708 57.4761 63.708 57.4761Z" fill="#940786"/>
<path fill-rule="evenodd" clip-rule="evenodd" d="M81.0109 0.0488659C82.5174 -0.160421 83.6551 0.704304 84.1963 1.92312L84.2247 1.98875C84.3986 2.40346 84.5922 2.80685 84.8004 3.20344C88.5702 1.49245 93.9494 1.93209 96.3353 5.39714C98.0377 7.87185 96.9991 10.8089 96.3573 13.4331L95.936 15.1623C96.7504 15.6417 97.3646 16.5004 97.3358 17.3895L97.3323 17.4579L97.1608 19.8692C97.7046 19.3593 98.2019 18.8041 98.6452 18.2126C98.9514 17.6936 99.2821 17.1837 99.6373 16.6897C101.727 13.7821 106.418 16.309 104.693 19.4227C104.362 20.0233 103.99 20.5921 103.591 21.1405C103.14 21.9496 102.77 22.7813 102.486 23.6356C103.302 23.9642 103.929 24.694 103.995 25.7954C104.149 28.3675 102.689 30.5136 100.367 31.862C99.6838 32.2586 98.9784 32.3357 98.339 32.1883C98.2264 32.3289 98.1137 32.4694 98.0059 32.6121C98.9318 33.3079 99.7671 34.101 100.485 34.9803C102.645 34.6812 104.818 34.5407 106.991 34.5361C109.646 33.3328 112.826 33.3577 115.679 33.8087C117.517 34.0988 119.28 34.6631 121.088 35.0687C122.994 35.4948 124.929 35.5106 126.857 35.8007C129.287 36.1656 131.418 37.2035 132.758 38.8601C134.23 38.9009 135.778 39.4584 137.062 40.2153C140.05 41.9784 143.021 43.7664 146.002 45.5409C147.146 46.2221 147.574 47.3097 147.364 48.5227L147.35 48.6003L147.249 49.1034L147.485 49.413C148.397 50.6049 149.39 51.8534 149.98 53.169C151.073 54.6262 152.06 56.1536 152.935 57.7286C154.113 59.8453 155.085 62.0888 155.744 64.3913C155.908 64.9737 156.072 65.5607 156.18 66.1544C156.335 66.9929 156.097 67.6433 155.967 68.4478C155.805 69.4676 155.747 70.501 155.575 71.5231C155.46 72.2007 154.838 72.5338 154.186 72.5519C154.431 74.2765 154.608 76.0124 154.777 77.7348C155.014 80.1959 155.176 82.6638 155.316 85.1317C156.036 86.0994 157.508 86.8654 158.571 87.1305C160.043 87.4954 161.586 87.0988 162.978 86.6342C163.852 86.3419 164.57 87.3594 164.144 88.0392C162.804 90.174 159.938 90.165 157.768 89.22C156.849 88.8211 156.043 88.2432 155.445 87.4908C155.482 88.207 155.521 88.9231 155.561 89.6415L155.597 90.2922C156.038 97.8912 156.991 105.752 155.448 113.276C152.775 126.309 141.117 136.232 126.876 137.003C119.403 137.408 113.18 135.365 110.085 134.226C106.991 133.087 108.194 130.764 110.342 131.428C114.043 132.572 120.841 134.276 126.925 133.54C141.265 131.806 153.425 125.175 152.175 96.6169C151.998 92.567 151.453 88.5152 151.335 84.4654C151.222 80.5063 151.264 76.545 151.075 72.5882L151.012 71.2382C150.939 69.6607 150.86 68.0759 150.732 66.4966C150.578 65.8847 150.451 65.2638 150.262 64.6632C149.75 63.0293 149.081 61.4407 148.251 59.9246C148.067 60.0537 147.862 60.1467 147.639 60.1829C145.946 60.4639 144.359 60.3846 142.774 59.7319C142.034 59.4305 141.383 59.0294 140.775 58.5331C140.486 58.2997 140.292 58.0731 140.141 57.8374C139.374 57.8487 138.607 57.6357 138.127 57.1258C137.579 56.5446 137.488 55.9443 137.703 55.3886L137.725 55.3332L137.671 55.3151C137.025 56.8629 135.736 58.2249 134.323 59.145C132.089 60.6044 129.294 61.0259 126.614 61.0645C123.655 61.1053 120.534 60.6838 117.615 60.2532C116.843 60.1399 116.076 60.0107 115.324 59.8362C115.295 59.8634 115.265 59.8951 115.234 59.9223C112.728 62.1409 109.203 62.712 106.023 61.4452C104.186 60.7132 102.645 59.5348 101.283 58.1841C101.264 58.8912 101.225 59.5982 101.158 60.2985L101.131 60.5766C100.995 61.8808 100.735 63.2642 99.6691 64.2055C97.9471 65.7306 95.4486 65.1187 93.462 64.1261C93.4644 64.1737 93.4644 64.2236 93.4644 64.2734C94.0009 65.9595 94.5398 67.6478 95.0787 69.3362L95.1948 69.6958C95.5866 70.8946 96.0164 72.095 96.1344 73.3496C96.3598 75.7473 94.6353 78.1155 91.7546 77.311C90.2436 76.8905 89.0331 75.7151 87.8716 74.7737L87.1397 74.1881C89.0332 79.9149 90.3462 85.8456 90.4686 91.8216C90.476 92.1456 90.1747 92.3904 89.8415 92.4017C89.0626 92.4312 88.2248 92.2884 87.441 92.0006C87.3969 91.9983 87.3528 91.9961 87.3063 91.9893C85.9688 91.8102 84.7269 91.3638 83.6319 90.7043C83.8842 91.4454 83.9969 92.2408 83.9308 93.0725C83.9136 93.2742 83.5731 93.3445 83.5242 93.1224C82.8922 90.2465 79.2546 88.0732 76.1192 88.6239C72.7535 89.2154 70.2745 91.8941 69.6671 94.9421C69.0155 98.2168 70.2623 102.004 72.5722 104.531C73.6353 105.695 75.034 106.668 76.6948 106.912C77.4542 107.023 78.2429 106.985 78.9802 106.785C79.2938 106.699 79.5877 106.579 79.8866 106.466C80.3226 106.303 80.8321 106.278 81.2436 106.106C82.1769 105.718 83.1151 106.513 82.6423 107.4C82.2308 108.172 81.8609 108.694 81.1775 109.092C81.7311 109.718 82.2332 110.588 82.4194 110.822C83.3698 112.009 84.335 113.131 85.4177 114.216C86.52 115.318 87.7227 116.324 88.994 117.255L89.5284 117.646C90.7529 118.544 91.8193 119.377 92.683 120.666C93.364 121.683 92.4822 123.064 91.2059 123.048C87.2132 122.996 84.3105 119.75 82.243 116.915C81.9491 116.51 81.6723 116.081 81.4151 115.642C81.322 115.78 81.2191 115.909 81.104 116.027L81.3318 116.594C82.0079 118.262 79.0954 119.352 78.2503 117.795C77.6354 116.666 76.9226 115.592 76.129 114.577C75.6611 114.515 75.203 114.253 74.9483 113.913C74.3041 113.049 73.5814 112.177 72.9715 111.257C72.6335 110.96 72.2856 110.674 71.9304 110.395C71.8276 110.479 71.7222 110.563 71.6218 110.652C71.176 111.592 70.6248 112.451 69.9414 113.26L69.7949 113.433C68.4856 114.959 66.7802 116.522 64.67 116.895C64.0257 117.008 63.406 116.267 63.9768 115.794C65.4538 114.565 67.2004 113.729 68.5623 112.358C69.2333 111.683 69.8494 110.939 70.3792 110.159L70.4999 109.978C70.5881 109.845 70.6787 109.711 70.7718 109.575C70.157 109.188 69.5421 108.798 68.9273 108.408C67.2347 109.746 65.0306 110.358 63.1585 111.466L62.9724 111.578C61.2798 112.625 59.4965 110.309 60.8536 109.038C62.3495 107.642 63.5983 105.977 64.9235 104.425C64.3003 103.363 64.0054 102.107 63.8949 100.838C63.8513 100.479 63.8173 100.12 63.7832 99.7601C62.8328 99.7737 61.8775 99.4723 61.0691 98.9533L60.7629 98.7517C59.7807 99.0417 58.7494 99.1822 57.7622 99.1573C55.4401 99.0939 54.4896 96.6395 55.9422 95.0872C57.4242 93.5008 60.0183 93.1541 62.0735 93.9246C62.1396 93.8929 62.2082 93.8589 62.2743 93.8249C62.1763 93.4079 62.1981 93.0297 62.3096 92.6975L62.2773 92.4949C61.8253 91.8533 61.5282 91.1209 61.4155 90.3469C61.3263 89.7339 61.3445 89.1264 61.4978 88.521C61.5488 88.3196 61.6548 88.1109 61.7359 87.9008C61.5688 87.5105 61.4706 87.1072 61.4402 86.7015C61.3935 86.6501 61.3469 86.5973 61.3028 86.5401C60.2831 85.2155 60.4891 83.6194 61.4596 82.5475C61.464 82.4793 61.4709 82.4111 61.4809 82.3433C61.4241 82.225 61.3719 82.1056 61.3244 81.9848C60.3762 81.0999 59.68 80.035 59.8098 78.7154C59.886 77.939 60.2309 77.2401 60.7529 76.7177C60.6603 76.4643 60.6515 76.1708 60.7637 75.9259C59.9306 73.8759 60.0359 71.4068 60.6356 69.1141C60.5033 68.7651 60.4347 68.3866 60.4494 67.9855C60.518 66.2836 62.1102 64.7199 63.9964 64.7403C64.2234 64.7421 64.436 64.7695 64.6403 64.8096L64.643 64.7691C64.7153 64.2583 64.8672 63.7862 65.0888 63.3626C64.9798 63.3262 64.8789 63.2738 64.7905 63.2042C63.5819 63.8007 62.303 64.2567 60.9621 64.5674C59.9761 64.7958 58.9662 63.759 59.5791 62.9028C59.8635 62.5056 60.1773 62.1489 60.5153 61.823C60.0347 61.8255 59.5467 61.8556 59.0532 61.9143C58.1664 62.0208 57.1768 61.4611 56.6012 60.7041C55.8859 61.3478 55.1682 61.9891 54.4505 62.6304C52.6329 64.2598 49.8869 63.061 49.6003 60.9126C49.059 60.7789 48.5544 60.5523 48.111 60.2282C45.245 61.3795 42.1611 62.0118 39.0085 62.1319C36.7451 62.218 35.4224 59.7795 36.4806 58.0572C37.1909 56.9014 38.0728 55.8635 39.0893 54.9616C37.5118 55.408 35.8829 55.7298 34.2196 55.936C33.3206 56.0471 32.0493 55.3581 31.6892 54.5944C30.3126 51.6574 30.4302 48.5958 32.015 45.7381C32.0763 45.6247 32.1449 45.516 32.211 45.4072C32.3751 45.0287 32.5539 44.6548 32.7474 44.2877C30.7976 42.4067 30.6286 39.6102 31.6794 37.2692C31.2581 36.6369 31.0965 35.8755 31.383 35.1866C32.1987 33.2036 33.3745 31.3725 34.859 29.7998C34.7169 29.5459 34.592 29.2763 34.4866 28.9862C33.6513 26.6406 34.6189 23.8101 36.5712 22.1762C37.7984 21.1473 39.2094 20.5309 40.7158 20.1366C41.3503 19.0987 42.166 18.1627 43.1164 17.3741C43.1531 17.2993 43.1899 17.2245 43.2315 17.1497C44.711 14.5708 47.4056 13.1884 50.2936 12.8689C50.4062 11.8604 51.1411 10.8972 52.2091 10.5845C52.5031 9.71201 52.9415 8.87804 53.5441 8.12113C54.4921 6.9291 56.0672 6.36708 57.5516 7.14892C58.3648 7.57724 59.1438 8.06901 59.8738 8.6129C60.2016 8.47065 60.5733 8.37861 60.9927 8.34924L61.0985 8.34322L63.5138 8.22991C64.5255 7.81519 65.5347 7.38008 66.5463 6.95629C67.1538 6.49172 67.8323 6.1042 68.5721 5.81639C69.4099 5.49232 70.2672 5.30875 71.127 5.24757C71.8251 5.03681 72.5281 4.85098 73.2434 4.70594C74.9238 4.36601 76.6826 4.17565 78.4266 4.19151C78.4623 3.77388 78.48 3.35125 78.4766 2.92363L78.4732 2.7094C78.434 1.33834 79.6171 0.243761 81.0109 0.0488659ZM79.3177 109.744C79.0777 109.792 78.8352 109.83 78.5927 109.857C78.6662 110.025 78.7396 110.193 78.8107 110.361C79.0066 110.463 79.2051 110.56 79.4035 110.651C79.3447 110.342 79.3104 110.032 79.3177 109.744ZM66.7328 106.285L66.57 106.563C66.5436 106.608 66.5176 106.653 66.492 106.697C66.8374 106.672 67.1852 106.679 67.5282 106.715L67.5272 106.681C67.4831 106.668 67.439 106.655 67.3969 106.636C67.1603 106.531 66.9403 106.413 66.7328 106.285ZM73.5344 93.6272C75.7016 93.744 77.5377 94.0514 79.5086 94.9285L79.6779 95.0051C81.4195 95.805 84.3002 97.2826 84.0577 99.4015C83.9891 100.004 83.5163 100.639 82.7717 100.591C80.7312 100.462 79.5652 98.5585 78.1837 97.371C76.7899 96.1744 75.0776 94.9439 73.3899 94.1212C73.1513 94.0054 73.2453 93.6388 73.5049 93.627L73.5344 93.6272ZM63.707 65.7101C63.1877 65.726 63.3616 66.1929 63.6286 65.8031C63.6506 65.7713 63.6776 65.7396 63.707 65.7101ZM91.7386 34.5451C86.8204 34.6648 81.8706 37.3514 78.1862 40.067C74.981 42.4295 72.2133 45.2396 69.7625 48.2684C69.132 49.7768 68.5906 51.3167 68.1333 52.8679C67.832 53.8923 67.6434 54.9279 67.3911 55.9613L67.3127 56.2781C67.1145 56.6208 66.9673 56.9895 66.86 57.3704C67.3066 57.7847 67.8859 58.0814 68.5237 58.2221C68.7293 58.2674 68.9 58.3655 69.035 58.4956C69.5484 57.7029 69.9971 56.8662 70.2583 55.9792L70.2678 55.9382C71.2547 54.4427 72.3267 52.9937 73.4758 51.5943C76.6455 47.7304 80.1361 44.2087 84.3322 41.2785C87.5141 39.0576 91.0709 37.3172 94.853 36.1863C93.9273 35.4953 92.8759 34.9487 91.7386 34.5451Z" fill="#1B1815"/>
<path fill-rule="evenodd" clip-rule="evenodd" d="M136.237 102.907C143.151 102.907 148.756 97.6305 148.756 91.1222C148.756 84.6139 143.151 79.3379 136.237 79.3379C129.323 79.3379 123.718 84.6139 123.718 91.1222C123.718 97.6305 129.323 102.907 136.237 102.907Z" fill="white"/>
<path fill-rule="evenodd" clip-rule="evenodd" d="M144.127 106.72C144.186 106.548 144.445 106.548 144.504 106.72C145.044 108.272 145.361 109.793 146.166 111.253C146.365 111.442 146.508 111.68 146.584 111.937C146.961 112.514 147.38 113.062 147.849 113.581C148.439 114.234 148.868 114.847 148.556 115.738C148.402 116.177 148.003 116.457 147.502 116.479C146.124 116.536 145.339 115.323 144.852 114.059C141.443 115.104 137.689 115.696 134.116 115.436C131.212 115.224 128.048 114.552 125.447 113.183C125.463 113.7 125.484 114.218 125.504 114.736C125.54 115.693 125.819 116.741 125.711 117.682C125.604 118.615 125.03 119.337 123.99 119.482C123.095 119.606 121.987 119.054 121.812 118.169C121.61 117.141 121.985 116.424 122.293 115.454C122.565 114.597 122.778 113.721 123.013 112.855C123.25 111.98 123.443 111.098 123.619 110.211C123.747 109.563 123.655 108.831 123.904 108.22C123.923 108.172 123.974 108.138 124.031 108.153C125.355 108.505 125.431 110.473 125.425 111.529L125.425 111.581C125.423 111.797 125.425 112.012 125.428 112.227L125.934 112.329C128.711 112.884 131.41 113.306 134.331 113.153C137.757 112.974 140.77 111.817 144.021 111.025C143.751 109.599 143.668 108.044 144.127 106.72ZM132.669 78.6249C134.189 78.1442 135.833 77.9171 137.432 77.9899C140.859 78.1463 144.124 79.5894 146.371 81.9941C148.493 84.2641 149.646 87.1112 149.631 90.1148C149.615 93.2003 148.737 96.6748 147.084 99.3757C143.611 105.051 135.498 105.09 129.668 102.827C123.447 100.413 120.915 94.3239 122.414 88.4369C123.541 84.0096 127.384 78.6974 132.669 78.6249ZM142.805 83.0064C140.969 81.6459 138.658 81.0347 136.322 81.1893C135.162 81.2661 133.982 81.5474 132.929 82.0045C132.369 82.2474 131.869 82.5867 131.317 82.8396C130.826 83.0648 130.294 83.1962 129.787 83.3857L129.598 83.4598C128.765 83.8034 127.926 83.3118 127.884 82.5955C126.072 84.9424 125.213 88.1248 125.227 90.9481C125.237 93.0271 125.774 95.1868 127.066 96.9178C128.503 98.8416 130.887 99.8564 133.278 100.395C135.568 100.911 138.064 101.09 140.359 100.504C142.742 99.8958 144.281 98.2267 145.156 96.1461C147.056 91.6329 147.213 86.2736 142.805 83.0064ZM134.624 88.6041C135.664 87.294 137.529 87.2245 138.555 88.6041C139.202 89.4726 139.107 90.3092 139.055 91.3086L139.045 91.5334C139.015 92.3243 139.019 93.157 138.698 93.8881C138.286 94.8265 137.485 95.4277 136.35 95.3033C135.682 95.2297 135.123 94.8616 134.799 94.354L134.787 94.3599V94.3599C134.332 93.5211 134.215 92.6701 134.138 91.7545L134.085 91.0831C134.021 90.2004 134.017 89.3695 134.624 88.6041Z" fill="black"/>
</svg>
