<svg width="200" height="271" viewBox="0 0 200 271" fill="none" xmlns="http://www.w3.org/2000/svg">
<path fill-rule="evenodd" clip-rule="evenodd" d="M57.7083 120.109C62.2368 117.055 64.4826 112.056 66.1721 111.205C67.4154 110.578 67.3927 106.258 69.8845 104.729C73.2284 102.677 83.8844 101.151 87.7612 100.866C91.4823 100.592 97.9544 101.167 101.446 102.43C107.268 104.535 109.59 108.55 112.154 113.723C112.154 113.723 54.597 122.207 57.7083 120.109Z" fill="#D08B5B"/>
<path fill-rule="evenodd" clip-rule="evenodd" d="M142.165 123.676H50.1446L18.2936 149.926L4.1564 260.262L24.2645 266.062L148.508 267.986L187.31 257.823L189.731 181.02L142.165 123.676Z" fill="#25AA35"/>
<path fill-rule="evenodd" clip-rule="evenodd" d="M17.095 240.216C17.7361 239.919 18.4043 239.58 19.1363 239.557C20.3936 239.516 20.3953 237.704 19.1363 237.744C18.0383 237.78 17.074 238.204 16.1077 238.651C14.9803 239.172 15.972 240.735 17.095 240.216M19.1367 189.21C18.2788 189.211 17.414 189.311 16.7551 189.867C16.3634 190.197 16.3944 190.814 16.7551 191.148C17.1411 191.505 17.748 191.477 18.1385 191.148C18.0111 191.255 18.1372 191.149 18.1834 191.125C18.1944 191.12 18.2006 191.116 18.2035 191.113C18.2133 191.111 18.223 191.109 18.2389 191.106C18.3411 191.082 18.4421 191.058 18.5455 191.041C18.5473 191.046 18.7639 191.028 18.8147 191.026C18.9223 191.022 19.0294 191.022 19.1367 191.022C19.6673 191.022 20.1147 190.608 20.1147 190.116C20.1147 189.627 19.6653 189.21 19.1367 189.21M28.3332 209.536C28.6134 210.675 30.4987 210.19 30.2193 209.055C29.8129 207.404 29.887 205.713 30.2193 204.056C30.4481 202.915 28.5628 202.43 28.3332 203.575C27.9347 205.562 27.8454 207.556 28.3332 209.536M30.8039 144.411C32.2606 144.09 33.7014 144.052 35.1914 144.052C36.452 144.052 36.4501 142.239 35.1914 142.24C33.5295 142.24 31.9073 142.306 30.2838 142.664C29.0579 142.933 29.5801 144.68 30.8039 144.411M35.6853 188.55C36.53 188.158 37.3752 187.767 38.22 187.376C39.3476 186.853 38.3557 185.291 37.2329 185.811L34.698 186.985C33.5708 187.507 34.5625 189.07 35.6853 188.55M36.0364 224.234C37.108 225.665 38.6149 226.554 40.4232 226.999C41.6432 227.298 42.1591 225.55 40.9432 225.251C39.6501 224.934 38.5012 224.355 37.7254 223.319C37.0122 222.366 35.3173 223.273 36.0364 224.234M42.7954 160.434C43.0854 159.932 43.5218 159.72 44.0636 159.709C45.3223 159.682 45.3225 157.87 44.0636 157.897C42.8289 157.923 41.6967 158.497 41.1067 159.52C40.5128 160.549 42.202 161.463 42.7954 160.434M55.2022 172.752C55.5528 173.105 56.2328 173.097 56.5853 172.752C56.8012 172.541 56.9826 172.305 57.1254 172.046C57.1797 171.948 57.2308 171.848 57.2905 171.753C57.3171 171.711 57.3467 171.668 57.377 171.628C57.3873 171.619 57.4085 171.599 57.4306 171.577C57.8063 171.209 57.7968 170.666 57.4306 170.296C57.0797 169.942 56.3997 169.951 56.0472 170.296C55.8315 170.507 55.6499 170.743 55.5073 171.001C55.4531 171.1 55.402 171.199 55.3421 171.295C55.3154 171.337 55.2858 171.379 55.2555 171.42C55.2452 171.428 55.2242 171.449 55.2022 171.47C54.8262 171.838 54.8357 172.382 55.2022 172.752M56.2449 199.509C57.5187 200.049 58.9158 200.049 60.1896 199.509C60.672 199.305 60.7864 198.659 60.5402 198.27C60.2551 197.818 59.6823 197.741 59.2023 197.945C58.6246 198.189 57.8089 198.189 57.2319 197.945C56.7498 197.74 56.1825 197.813 55.894 198.27C55.6463 198.662 55.7644 199.306 56.2449 199.509M59.7197 218.449C59.9385 218.929 60.4111 219.184 60.9637 219.204C61.5111 219.223 61.9187 218.773 61.9417 218.298C61.9564 217.99 61.7771 217.728 61.5197 217.565C61.5194 217.549 61.5189 217.532 61.5189 217.515C61.5187 217.007 61.071 216.631 60.541 216.609C60.0131 216.587 59.5627 217.041 59.563 217.515C59.5632 217.835 59.5845 218.152 59.7197 218.449M64.7662 248.559C66.3271 248.583 67.8523 248.927 69.4134 248.951C70.6747 248.97 70.6708 247.158 69.4134 247.139C67.8525 247.115 66.3273 246.771 64.7662 246.747C63.5048 246.728 63.5087 248.54 64.7662 248.559M71.2562 132.436C72.1699 133.243 73.2985 133.64 74.4115 134.144C75.5391 134.654 76.5296 133.091 75.3988 132.579C74.456 132.152 73.4122 131.837 72.6391 131.155C71.7271 130.35 70.3425 131.63 71.2562 132.436M73.7092 153.323C74.3502 153.026 75.0184 152.687 75.7502 152.664C77.0077 152.623 77.0094 150.811 75.7502 150.851C74.6524 150.887 73.6881 151.311 72.7219 151.758C71.594 152.279 72.5859 153.842 73.7092 153.323M85.4673 237.151C85.7568 236.649 86.1933 236.437 86.7351 236.425C87.994 236.399 87.9945 234.587 86.7351 234.613C85.5003 234.639 84.3681 235.214 83.7781 236.236C83.1844 237.265 84.8734 238.18 85.4673 237.151M89.5396 197.802C89.9288 197.471 89.9017 196.856 89.5396 196.52C89.1171 196.129 88.6946 195.738 88.2719 195.346C87.8856 194.988 87.2794 195.014 86.889 195.346C86.4997 195.677 86.5269 196.292 86.889 196.628C87.3117 197.019 87.734 197.41 88.1565 197.802C88.5433 198.16 89.1491 198.134 89.5396 197.802M94.3408 259.128C95.7518 259.097 97.0745 258.722 98.4031 258.313C99.5936 257.946 99.0802 256.196 97.8831 256.565C96.7283 256.921 95.5684 257.289 94.3408 257.316C93.0819 257.343 93.0814 259.155 94.3408 259.128M100.678 220.378C101.953 220.345 103.01 219.744 103.904 218.938C104.809 218.124 103.424 216.843 102.521 217.657C102.009 218.118 101.419 218.547 100.678 218.566C99.4195 218.598 99.4185 220.41 100.678 220.378M96.7424 170.545C96.727 171.028 96.507 171.544 96.1837 171.862C95.3194 172.71 96.7008 173.993 97.5669 173.143C98.2813 172.442 98.6684 171.504 98.6984 170.545C98.7346 169.377 96.7784 169.382 96.7424 170.545M111.662 131.078C112.071 130.335 112.607 129.465 113.423 129.055C114.531 128.498 113.543 126.933 112.436 127.49C111.327 128.047 110.533 129.146 109.973 130.163C109.4 131.201 111.089 132.117 111.662 131.078M114.197 149.924C114.651 149.912 115.101 149.84 115.539 149.73C115.726 149.683 115.911 149.629 116.098 149.582C116.178 149.562 116.519 149.522 116.31 149.533C116.839 149.506 117.288 149.139 117.288 148.627C117.288 148.156 116.838 147.694 116.31 147.72C115.584 147.756 114.923 148.093 114.197 148.112C112.939 148.145 112.938 149.957 114.197 149.924M120.535 178.888H122.647C123.908 178.888 123.906 177.076 122.647 177.076H120.535C119.274 177.076 119.276 178.888 120.535 178.888M122.999 259.003C123.64 259.3 124.395 259.581 124.914 260.035C125.828 260.837 127.213 259.557 126.297 258.754C125.636 258.175 124.791 257.811 123.986 257.438C123.512 257.218 122.929 257.318 122.648 257.763C122.394 258.166 122.527 258.784 122.999 259.003M127.718 236.107C127.8 236.086 127.887 236.071 127.97 236.061C128.302 236.019 128.65 236.034 128.984 236.033C130.245 236.033 130.243 234.221 128.984 234.221C127.992 234.222 126.96 234.235 126.18 234.878C125.784 235.205 125.823 235.828 126.18 236.159C126.569 236.519 127.169 236.485 127.563 236.159C127.522 236.194 127.664 236.121 127.718 236.107M128.984 205.315C128.7 204.772 128.696 204.418 128.695 203.815C128.694 202.647 126.739 202.649 126.739 203.815C126.74 204.691 126.881 205.436 127.295 206.229C127.527 206.671 128.205 206.787 128.633 206.554C129.114 206.294 129.215 205.755 128.984 205.315M134.64 162.808C135.774 163.165 136.787 163.671 137.786 164.282C138.841 164.927 139.819 163.357 138.773 162.718C137.633 162.021 136.454 161.468 135.16 161.06C133.963 160.684 133.454 162.434 134.64 162.808M141.237 132.31C142.08 132.332 142.95 132.631 143.701 132.969C144.83 133.477 145.82 131.914 144.688 131.405C143.615 130.922 142.441 130.529 141.237 130.498C139.976 130.465 139.981 132.278 141.237 132.31M144.195 213.724C144.526 213.738 144.81 213.572 144.985 213.333C145.003 213.333 145.022 213.332 145.04 213.332C145.588 213.332 145.994 212.917 146.018 212.426C146.041 211.937 145.551 211.52 145.04 211.52C144.694 211.521 144.352 211.54 144.031 211.665C143.513 211.868 143.238 212.306 143.217 212.818C143.196 213.325 143.681 213.703 144.195 213.724M149.004 151.066C150.205 151.429 150.715 149.679 149.524 149.318C148.126 148.895 146.697 148.567 145.299 148.144C144.098 147.78 143.588 149.531 144.779 149.892C146.177 150.315 147.606 150.642 149.004 151.066M153.391 185.269C153.763 186.381 155.651 185.903 155.277 184.787C154.916 183.709 154.89 182.625 154.889 181.505C154.889 180.337 152.933 180.339 152.933 181.505C152.934 182.779 152.98 184.042 153.391 185.269M166.468 226.235C166.54 226.686 166.926 227.011 167.432 227.032C167.946 227.053 168.428 226.6 168.41 226.126C168.374 225.214 167.571 224.47 166.587 224.437C166.039 224.418 165.632 224.867 165.609 225.343C165.586 225.806 166.003 226.167 166.468 226.235M173.087 174.159C174.12 174.478 175.225 174.782 176.035 175.491C176.95 176.292 178.335 175.012 177.418 174.21C176.349 173.275 174.975 172.834 173.606 172.411C172.408 172.041 171.899 173.791 173.087 174.159M177.572 209.36C177.856 209.81 178.431 209.891 178.91 209.685C179.551 209.409 180.259 209.418 180.951 209.417C182.212 209.417 182.21 207.604 180.951 207.605C179.884 207.606 178.9 207.699 177.922 208.12C177.441 208.328 177.324 208.968 177.572 209.36M180.106 252.081C180.654 252.1 181.061 251.651 181.084 251.175C181.107 250.712 180.69 250.351 180.224 250.284C180.153 249.832 179.766 249.507 179.261 249.486C178.746 249.465 178.264 249.918 178.283 250.392C178.319 251.304 179.121 252.048 180.106 252.081M1.90942 258.933C2.2417 257.825 3.00208 256.931 3.57665 255.934C3.76932 255.598 3.83631 255.389 3.94071 255.143C4.08252 255.406 4.35783 255.604 4.77176 255.604C5.56589 255.604 6.49475 255.557 7.23582 255.872C7.71773 256.077 8.28545 256.004 8.57371 255.547C8.82139 255.154 8.70305 254.511 8.22286 254.307C7.13068 253.844 5.9566 253.793 4.77176 253.792C4.4791 253.792 4.25759 253.892 4.10111 254.042C3.64829 248.297 3.65954 242.549 4.0879 236.801C4.54487 230.658 5.59645 224.637 6.6967 218.573C7.22946 215.633 7.92139 212.664 7.78691 209.669C7.65244 206.695 6.27593 203.923 7.25147 200.94C7.64267 199.744 8.3126 198.647 8.74781 197.465C9.2148 196.192 9.17323 194.935 8.96052 193.617C8.52287 190.932 7.79694 188.28 8.95831 185.659C9.47151 184.497 10.3031 183.46 10.7038 182.259C11.2026 180.767 11.1341 179.115 11.2172 177.568C11.3859 174.447 11.4299 171.305 11.7089 168.191C11.8334 166.795 12.1048 165.473 12.7233 164.193C13.3177 162.961 14.2001 161.839 14.5938 160.532C14.985 159.246 15.0192 157.889 15.2295 156.573C15.4495 155.182 15.7943 153.812 16.2588 152.475C18.0534 147.302 21.3419 142.654 25.227 138.624C29.3566 134.341 34.293 131.115 39.5326 128.11C42.2879 126.529 45.0429 124.948 47.7962 123.368C47.8549 123.664 48.059 123.937 48.451 124.058C49.485 124.378 50.5889 124.682 51.3994 125.391C52.3148 126.191 53.6999 124.912 52.7825 124.11C51.8255 123.273 50.6229 122.832 49.3989 122.445C50.6534 121.712 51.9214 120.954 53.337 120.531C54.5769 120.159 56.4055 120.483 57.4106 119.64C58.2001 118.977 58.4497 117.747 58.7527 116.845C59.1317 115.726 59.4593 114.546 59.941 113.459C60.2686 112.716 60.7454 112.003 61.3468 111.427C61.6109 110.485 62.0952 109.624 62.951 109.101C65.1903 107.728 67.941 109.092 68.9263 111.049C69.7405 111.047 70.5986 111.212 71.3908 111.257C73.0192 111.352 74.65 111.395 76.2808 111.391C79.4715 111.382 82.6647 111.189 85.8285 110.797C91.4862 110.095 96.9752 108.68 102.538 107.577C102.569 107.509 102.606 107.441 102.65 107.373C103.848 105.511 106.833 105.826 108.714 106.53C109.52 106.831 110.342 107.212 110.804 107.919C111.293 108.224 111.716 108.596 111.997 108.988C112.579 109.796 113.029 111.427 114.21 111.563C114.987 111.651 115.777 111.513 116.567 111.617C117.555 111.744 118.44 112.066 119.352 112.433C126.295 115.226 133.474 118.331 141.01 119.414C142.777 119.668 144.577 119.93 146.112 120.848C147.359 121.593 148.323 122.617 149.352 123.589C150.354 124.535 151.181 124.954 152.611 125.124C154.347 125.33 155.85 125.774 157.119 126.943C158.173 127.915 158.86 129.156 159.687 130.284C160.528 131.435 161.762 132.083 163.044 132.751C166.073 134.332 168.894 136.241 171.352 138.531C176.528 143.361 179.662 149.567 182.821 155.615C186.237 162.156 189.43 168.777 191.645 175.763C193.816 182.622 195.107 189.677 195.704 196.799C196.332 204.272 196.42 211.774 196.943 219.251C197.205 222.986 197.403 226.726 197.604 230.463C197.799 234.155 198.085 237.854 198.039 241.551C197.951 248.697 196.408 255.866 193.711 262.557C193.039 264.222 192.293 265.864 191.499 267.482C190.802 268.902 188.418 268.743 187.67 267.482C187.498 267.192 187.364 266.893 187.251 266.589C185.295 266.605 183.32 266.465 181.376 266.632C177.943 266.929 174.504 267.094 171.061 267.291C164.249 267.683 157.425 267.944 150.611 268.304C149.95 268.339 149.289 268.374 148.628 268.41C153.484 254.486 152.854 239.432 153.622 224.951C153.684 223.784 151.728 223.79 151.666 224.951C150.895 239.494 151.552 254.587 146.524 268.533C144.573 268.656 142.626 268.805 140.684 269.024C139.115 269.199 137.538 269.405 135.953 269.332C134.156 269.253 132.401 268.872 130.648 268.542C127.462 267.941 124.393 268.213 121.195 268.582C117.775 268.979 114.342 269.199 110.899 269.337C97.1145 269.896 83.2368 270.406 69.4568 269.552C66.1219 269.346 62.7943 269.056 59.4813 268.662C56.0681 268.256 52.6916 267.574 49.2811 267.187C45.9192 266.807 42.8285 267.851 39.5057 268.043C36.1172 268.24 32.6378 267.586 29.2808 267.21C28.1857 267.087 27.0894 266.967 25.9928 266.848C27.4045 257.884 28.2072 248.853 28.9869 239.825C29.0874 238.66 27.1307 238.67 27.0309 239.825C26.2576 248.782 25.4727 257.747 24.0632 266.64C18.2502 266.014 12.4317 265.38 6.67934 264.403C5.0412 264.127 3.41284 263.676 2.4324 262.322C1.70648 261.318 1.55954 260.088 1.90942 258.933" fill="#040404"/>
<path fill-rule="evenodd" clip-rule="evenodd" d="M46.5816 46.5208C42.159 43.8874 36.1243 37.168 39.554 32.0726C40.9469 30.08 42.8463 29.3309 44.9313 29.2709C45.4283 28.692 46.2542 28.5223 47.025 28.5182L47.0206 28.4876C49.8381 28.5357 52.607 29.4519 54.8732 30.9818C56.3341 29.7901 58.1486 29.1124 59.9063 28.3796C59.1692 24.9378 58.0444 21.5804 56.7672 18.2811C56.0779 16.3813 58.2613 14.3801 60.3201 14.9541C59.8136 12.8947 60.9774 10.5027 63.5123 10.5292C64.8677 10.5292 66.4013 11.2038 67.712 11.5077C68.6828 11.7329 69.639 11.9639 70.5759 12.2577C70.5803 12.2342 70.5827 12.2104 70.5854 12.1864C68.13 10.5904 68.2156 6.91592 71.8239 7.27222C73.3632 7.39839 74.9281 8.37103 76.3515 8.96494C78.6978 9.09609 80.9513 9.7883 83.232 10.285C89.4729 11.7222 96.1497 13.1665 101.291 16.8133C110.196 19.9994 121.272 24.9249 122.375 34.661C138.06 29.0272 149.908 47.0171 135.685 54.0962C132.894 55.3042 129.667 55.9296 126.614 55.3486C127.335 57.8257 128.025 60.3112 128.67 62.8067C134.102 74.3929 138.493 86.6374 136.914 99.3542C136.89 101.661 133.699 102.992 131.935 101.269C130.476 99.6341 128.705 101.545 129.181 103.123C129.632 104.876 128.302 106.485 126.369 106.55C124.055 106.663 122.216 105.222 120.579 103.891C120.61 103.92 120.536 103.876 120.427 103.808C116.386 112.656 112.6 105.776 107.619 109.758C106.456 110.756 105.639 111.938 104.148 112.587C100.651 114.232 97.8903 111.3 94.5501 110.962C91.4625 110.751 88.4096 111.743 85.4488 112.411C81.9914 113.19 78.5053 113.598 74.9537 113.233C70.4124 112.765 61.3519 110.86 58.6704 109.291C55.3849 111.338 52.0042 108.91 50.1982 106.114C48.9351 107.243 46.5453 107.416 45.5303 105.675C44.5207 103.734 42.6337 100.767 40.4638 101.206C40.27 101.261 40.1566 101.296 40.0383 101.376C38.01 102.976 35.3916 101.761 35.0949 99.4346C33.1723 84.361 37.0941 69.2396 42.3088 55.0541C43.4472 52.0878 44.3916 49.0043 46.5816 46.5208Z" fill="#FBD0B2"/>
<path fill-rule="evenodd" clip-rule="evenodd" d="M48.3752 46.1035C48.4572 45.8946 48.1127 45.7746 47.999 45.9562C44.2721 51.904 41.2931 58.2218 38.7452 64.6755C36.49 70.3881 34.4901 76.211 33.065 82.1533L32.9681 82.5623C31.6278 88.2967 30.9669 94.363 32.7249 100.084L32.8099 100.356C33.2146 101.628 33.7494 102.921 34.9998 103.677C36.0499 104.311 37.2381 104.391 38.4473 104.214C39.4661 104.065 40.4367 103.653 41.4578 103.539C42.2275 103.453 42.4285 103.796 42.6529 104.374L42.8393 104.863C43.6394 106.935 44.6164 108.863 47.2265 109.299C48.6321 109.535 50.1592 109.29 51.3769 108.604C51.3911 108.648 51.4052 108.692 51.4169 108.734L51.4745 108.938C51.7293 109.824 52.0571 110.725 52.732 111.413C53.6747 112.374 55.0269 112.715 56.3895 112.46C57.0088 112.344 57.5904 112.083 58.1782 111.865C58.3219 112.669 59.3161 113.324 60.2257 113.126C60.7178 113.019 61.0972 112.811 61.3797 112.543C62.7848 113.55 64.6801 114.065 66.3216 114.455C68.6987 115.019 71.2283 115.251 73.6796 115.183C76.1678 115.114 78.6991 114.67 81.0394 113.887L81.4052 113.763C83.4241 113.072 85.5495 112.197 87.1851 110.904C87.5101 110.755 87.32 110.208 86.9325 110.324C84.7108 110.991 82.6384 111.774 80.3067 112.095C78.1065 112.397 75.8967 112.447 73.6796 112.323C71.4316 112.197 69.2504 111.771 67.105 111.141C65.2381 110.593 63.3992 109.604 61.4166 109.475C61.3131 109.342 61.2009 109.213 61.0713 109.096C59.3564 107.55 57.619 108.323 55.6891 108.886C55.6256 108.905 55.6078 108.936 55.6076 108.967L55.584 108.936V108.936L55.5688 108.917L55.5802 108.93C55.6604 109.014 55.4998 108.702 55.4712 108.638L55.4683 108.631C55.2465 108.069 55.1606 107.465 54.973 106.893C54.5255 105.528 53.6889 104.28 52.0864 103.953C51.2954 103.792 50.2175 104.038 49.8513 104.798C49.5497 105.422 49.0559 105.739 48.2959 105.723C47.5022 105.706 47.2102 105.276 46.9337 104.629C46.4841 103.575 46.2413 102.479 45.5025 101.55C44.6718 100.505 43.4301 99.8949 42.0272 99.8449C40.9462 99.8066 39.8873 100.099 38.8591 100.37L38.7645 100.397C38.295 100.533 37.4561 100.841 37.0895 100.614C36.5398 100.274 36.2558 98.2882 36.0967 97.5456L36.0865 97.4989C35.8032 96.2334 35.6388 94.9581 35.5719 93.6673C35.2931 88.2682 36.492 82.8969 37.818 77.6711C40.5531 66.8942 44.2968 56.4978 48.3752 46.1035ZM126.304 59.2804C126.231 59.1776 126.069 59.2666 126.127 59.3769C126.395 59.889 126.493 60.427 126.674 60.9604C126.874 61.5509 127.214 62.1236 127.467 62.6966C127.876 63.6246 128.272 64.5581 128.671 65.4897C129.474 67.363 130.221 69.2645 130.928 71.1708C132.349 75.0005 133.51 78.9374 134.36 82.9104C135.194 86.8139 135.893 90.8954 135.866 94.8853C135.854 96.6999 135.641 98.5684 134.865 100.253C134.744 100.518 134.601 100.777 134.45 101.029L134.358 101.179C134.345 101.2 134.331 101.221 134.317 101.242L134.234 101.366C133.989 101.033 133.283 100.592 132.992 100.358L132.951 100.324L131.584 99.1505C130.989 98.6391 130.131 98.5161 129.411 98.8901C127.224 100.026 127.295 102.136 126.827 104.128L126.806 104.215C126.602 105.052 126.25 105.747 125.17 105.583C124.044 105.411 123.393 104.348 123.025 103.434L122.977 103.313C122.327 101.611 119.989 101.679 119.316 103.313L119.063 103.932C118.541 105.2 117.83 106.731 116.483 107.233C115.35 107.655 114.052 107.024 113.022 106.632C112.455 106.417 111.794 106.866 111.643 107.359C111.602 107.493 111.574 107.621 111.553 107.747C110.476 107.65 109.445 107.889 108.385 108.343C106.999 108.937 105.255 110.219 104.994 111.706C104.686 113.463 106.878 114.292 108.009 112.885C108.721 112 108.979 110.924 109.83 110.082C110.331 109.588 110.953 109.158 111.605 108.794C112.189 110.708 115.463 111.26 117.414 110.693C119.288 110.149 120.53 108.867 121.458 107.368C123.192 108.942 125.599 109.703 128.01 108.33C129.406 107.535 130.057 106.145 130.31 104.7C130.386 104.266 130.39 103.552 130.524 102.925L130.654 103.048C131.832 104.154 133.201 105.194 134.745 104.955C136.768 104.642 137.729 102.551 138.36 100.959C139.672 97.6495 139.43 93.9691 138.986 90.533C138.499 86.7708 137.684 83.0443 136.605 79.3905C135.554 75.8263 134.192 72.3675 132.59 68.9855C131.773 67.2619 130.832 65.5808 129.819 63.949C129.311 63.1299 128.757 62.3333 128.201 61.5417C127.627 60.7244 126.88 60.0807 126.304 59.2804ZM138.426 35.9919C135.455 33.4321 131.482 32.2651 127.476 32.7916C125.585 33.0396 123.785 33.6743 122.188 34.6535C120.569 35.6467 119.52 36.8762 118.551 38.414C118.483 38.5211 118.637 38.6228 118.73 38.5424C121.314 36.3326 125.225 35.1531 128.702 35.2777C134.897 35.4995 140.034 40.5883 139.649 46.3881C139.459 49.2444 137.73 52.1292 135.056 53.599C132.222 55.1568 128.996 54.6396 125.959 53.9538C124.863 53.7062 124.31 54.8503 124.936 55.5864C128.016 59.2142 134.349 58.2656 137.905 55.7704C144.776 50.9491 144.541 41.2599 138.426 35.9919ZM128.449 41.7033L128.186 41.6613C125.969 41.3216 121.25 40.9296 120.556 43.4407C120.202 44.7196 121.57 45.4081 122.768 45.3515C123.755 45.3049 124.712 45.0179 125.687 44.8231C125.967 45.7212 126.062 46.6592 126.198 47.5838C126.317 48.3933 127.72 48.1736 127.703 47.3949C127.68 46.3119 127.138 45.3912 126.285 44.7191C126.484 44.6906 126.684 44.6666 126.886 44.6539C129.309 44.5028 131.704 44.9205 133.967 45.692L133.728 45.8168V45.8168C133.614 45.8535 133.663 45.995 133.777 45.9805L134.903 46.0331V46.0331C135.374 46.1355 135.652 45.6358 135.355 45.3114C133.611 43.404 131.094 42.1412 128.449 41.7033ZM47.6272 28.2604C44.2426 27.8839 40.8806 29.0418 39.0639 31.8062C37.3782 34.3705 37.232 37.6171 38.4275 40.3728C39.107 41.9384 40.1332 43.3426 41.4034 44.5499C42.0314 45.1467 42.7512 45.7626 43.547 46.1574C44.4739 46.6172 45.1639 46.5772 46.1418 46.4084C46.7715 46.2997 47.2061 45.5492 47.0048 44.9977L46.8549 44.5795C46.6913 44.1304 46.5382 43.7976 46.0903 43.3741C45.6995 43.0046 45.2318 42.7054 44.8021 42.3761C43.8781 41.6673 43.0196 40.8763 42.3774 39.9311C41.2036 38.2026 40.7966 36.2159 41.4593 34.2446C42.1705 32.1276 44.0536 30.7565 46.4131 30.501C47.7529 30.3563 49.1124 30.4872 50.4338 30.7042L51.2394 30.8394C52.3633 31.0325 53.2801 31.257 54.0554 32.2139C54.1208 32.2943 54.2474 32.2871 54.2852 32.186C54.6739 31.1466 53.4869 30.219 52.6464 29.7275C51.1862 28.8747 49.3236 28.4491 47.6272 28.2604ZM62.3773 26.9956C62.5429 26.7996 62.4007 26.4023 62.0772 26.5165C58.3072 27.8454 55.132 31.0811 52.9586 34.1381C52.3008 35.063 51.7111 36.0234 51.1785 37.0107C50.4183 36.1532 49.2827 35.5328 48.2205 35.111L48.1028 35.065C46.8775 34.5925 44.2276 33.7839 43.4771 35.2978C43.2358 35.7851 43.3324 36.285 43.7555 36.6626C44.4096 37.2461 45.4544 37.025 46.2705 37.0182C47.9198 37.0051 49.2295 37.4889 50.689 37.9587C50.4233 38.4964 50.172 39.0407 49.938 39.5925C49.6192 40.3429 49.384 41.1337 48.9972 41.8574C48.6301 42.5453 48.0533 43.1598 47.5609 43.7698C46.8961 44.5929 47.7849 45.9842 48.8684 45.8854C51.1111 45.6806 52.0048 43.9601 52.6223 42.1364L52.959 41.139C53.4636 39.6492 53.983 38.1889 54.7406 36.7718C55.7151 34.9497 56.8777 33.1698 58.2149 31.5568C59.5263 29.9753 61.0559 28.5635 62.3773 26.9956ZM68.2151 5.52126C66.822 5.03924 65.6506 6.69934 66.3443 7.78047C66.954 8.73 67.3166 9.71057 67.4586 10.7394L61.3165 9.38077V9.38077C60.0954 9.11077 58.9401 10.1126 59.2776 11.2739L60.2254 14.5368V14.5368C59.0006 14.1565 57.7195 13.9311 56.4027 13.8516C55.2743 13.7837 54.6512 14.865 54.8366 15.7602C55.2238 17.6252 55.762 19.456 56.4792 21.2344L57.0032 22.5145C57.6194 24.0049 58.3385 25.509 59.8243 26.3487C60.5421 26.7544 61.4729 26.2298 61.4763 25.4689C61.4849 23.6267 60.2601 22.0527 59.5794 20.3541C59.1661 19.323 58.8155 18.274 58.5178 17.2117C59.6708 17.5144 60.7556 17.9943 61.7801 18.6273L61.9333 18.7234C63.1447 19.4943 64.6663 18.2416 64.3649 17.0392L64.3534 16.9963L63.1959 12.9671L68.7014 14.2005V14.2005C69.8362 14.4548 70.7074 13.7187 70.815 12.7057C70.9292 11.6289 70.8558 10.5573 70.6145 9.51939C74.2533 10.5831 77.9667 11.4108 81.6915 12.184L82.2503 12.2996C90.4249 13.9848 98.7777 15.4728 106.277 19.0797C109.59 20.6723 112.626 22.5578 115.389 24.8897C116.753 26.042 118.002 27.31 119.095 28.6901C119.608 29.3376 120.087 30.0077 120.526 30.7L120.878 31.2636C121.047 31.5356 121.212 31.8158 121.312 32.1088L121.362 32.2555C121.443 32.5033 121.531 32.829 121.457 33.0464C121.35 33.3594 120.74 33.874 120.309 33.7331C120.25 33.7139 120.22 33.785 120.253 33.8219C120.633 34.2469 121.169 34.3234 121.713 34.1098C122.575 33.7716 122.789 32.9997 122.694 32.1942C122.458 30.2007 120.964 28.0024 119.783 26.3752C114.918 19.6734 106.913 15.6633 98.8379 13.1508C88.798 10.0268 78.1557 8.96014 68.2151 5.52126Z" fill="black"/>
<path fill-rule="evenodd" clip-rule="evenodd" d="M70.272 96.704C71.9156 96.0828 73.3821 95.0467 74.4543 93.723C74.827 93.2629 74.9237 92.777 74.8455 92.3326C74.7576 91.8328 74.4384 91.3799 74.0032 91.0761C73.5667 90.7714 73.0206 90.6211 72.4926 90.6977C72.0339 90.7643 71.5772 90.997 71.2158 91.4796L71.1403 91.5761C70.5029 92.375 69.6723 93.0305 68.7259 93.453C67.8137 93.8602 66.7935 94.0503 65.7377 93.9397C63.727 93.7293 62.3411 92.7219 60.8681 91.3538C60.6855 91.1811 60.5028 91.003 60.3192 90.822C60.2033 90.6579 60.0424 90.5525 59.8637 90.4971C59.6654 90.4357 59.441 90.4392 59.2355 90.5056C59.0373 90.5697 58.8601 90.6911 58.7413 90.8528C58.6283 91.0064 58.5643 91.1961 58.5851 91.4144C58.7199 92.8322 59.52 94.0975 60.6565 95.091C61.9187 96.1944 63.5919 96.9578 65.1671 97.2255C66.9025 97.5204 68.6708 97.3092 70.272 96.704V96.704ZM64.3483 74.8324C62.502 75.8721 59.6888 78.2964 61.675 80.874C64.0129 83.1467 67.379 80.5409 69.0378 79.3624C70.5759 78.449 72.304 80.7981 70.8769 81.8646C58.8907 90.0858 54.0264 75.1043 63.4144 73.61C64.4481 73.4453 64.832 74.5107 64.3483 74.8324ZM85.8279 65.2681C85.6239 62.9223 81.7675 62.3896 81.3839 64.7108C81.0404 66.7902 81.4448 68.7004 82.4558 70.5725C83.4218 72.361 85.8498 71.5266 86.0334 69.898C86.2795 67.7149 85.9548 66.7273 85.8279 65.2681ZM56.472 64.2303C55.9344 63.5779 55.1581 63.1326 54.228 63.3843C51.3222 64.1709 52.1786 67.9928 53.1992 69.8532C53.7537 70.8634 55.5461 71.1196 56.3561 70.2301C57.6764 68.7795 58.3087 65.8827 56.6302 64.4538C56.5847 64.38 56.5341 64.3055 56.472 64.2303ZM82.4966 55.0044L82.0376 54.9299C80.6176 54.7024 78.852 54.4838 77.8475 55.5414C77.3147 56.1022 77.1313 57.1446 77.8475 57.6815C79.1071 58.626 80.4998 58.26 82.0093 58.3399C83.2534 58.4061 84.449 58.5968 85.6472 58.9141C88.2761 59.6102 90.4181 60.8809 92.6634 62.2762C92.958 62.4593 93.2587 62.1102 93.1181 61.8549C91.8221 59.5031 89.3103 57.5712 86.7944 56.3935C85.4516 55.765 83.9822 55.2435 82.4966 55.0044ZM59.121 53.9507L58.7697 54.0173C54.9464 54.7577 49.979 56.2367 48.1685 59.7157C48.0995 60.2077 48.1724 60.3131 48.2317 60.382L48.2514 60.4049C48.3003 60.4638 48.3393 60.5449 48.5694 60.6118C48.6333 60.5977 48.6978 60.5828 48.763 60.567C49.5929 60.3655 50.2495 60.0879 50.8852 59.7999L51.5744 59.4853C52.3741 59.1221 53.1808 58.772 54.0357 58.5137C55.8602 57.9623 57.7368 57.574 59.6425 57.3666C60.0556 57.3217 60.4533 57.1925 60.7671 56.9712C61.065 56.7611 61.2925 56.4702 61.3962 56.0836C61.5307 55.5832 61.4921 55.2044 61.2023 54.753C60.9844 54.414 60.6726 54.179 60.3145 54.0441C59.9496 53.9065 59.534 53.8741 59.121 53.9507Z" fill="black"/>
<path fill-rule="evenodd" clip-rule="evenodd" d="M51.678 85.3179C53.2903 85.0373 54.957 85.1161 56.5585 84.7895C58.1208 84.4706 59.3616 83.5222 60.8712 83.0807C62.1995 82.692 63.7565 82.9552 64.791 83.7086C65.7521 83.297 66.8443 83.208 67.9377 83.3439C69.5959 83.55 71.1431 84.2001 72.6201 84.9032C72.7912 84.9848 72.9626 85.0624 73.1338 85.141C75.8629 85.0778 78.6607 85.0828 81.3386 85.6246C83.71 86.1046 85.9518 87.2218 87.366 89.0878C88.9487 91.1764 89.2345 93.8361 89.4785 96.3042C89.6338 97.8707 87.2851 98.1885 86.4893 97.0541C85.6641 95.8781 84.8051 94.6993 83.7056 93.7249C82.4567 92.6179 80.9377 92.1821 79.2352 92.0811C75.4778 91.8582 71.6954 92.0451 67.9343 91.8908C65.7541 91.8014 63.3267 91.0247 62.448 89.2687C61.5101 90.6303 59.3849 91.4398 57.637 91.5626C55.7898 91.6926 53.9142 91.3816 52.0854 91.7382C50.3382 92.0788 48.2614 93.2843 48.6499 95.2124C48.8783 96.3449 47.3328 97.0127 46.6216 96.0047C43.7172 91.8861 46.579 86.2061 51.678 85.3179" fill="black"/>
</svg>
