<svg width="107" height="93" viewBox="0 0 107 93" fill="none" xmlns="http://www.w3.org/2000/svg">
<path d="M106.66 41.1429C106.432 40.6701 106.107 40.24 105.692 39.8796L92.3215 28.2584C90.5784 26.7472 87.7607 26.7472 86.0175 28.2584C84.2744 29.7735 84.2744 32.2264 86.0175 33.7376L91.7822 38.748H66.8777C64.4123 38.748 62.4194 40.4839 62.4194 42.6229C62.4194 44.7619 64.4123 46.4979 66.8777 46.4979H91.7819L86.0173 51.5083C84.2742 53.0233 84.2742 55.4762 86.0173 56.9874C86.8867 57.7469 88.028 58.1229 89.1694 58.1229C90.3109 58.1229 91.4522 57.7471 92.3215 56.9874L105.692 45.3663C106.107 45.0097 106.432 44.5796 106.66 44.1029C107.11 43.1579 107.11 42.0884 106.66 41.1429Z" fill="white"/>
<path d="M75.7944 54.2501C73.3291 54.2501 71.3362 55.986 71.3362 58.125V77.5001H53.5029V15.4999C53.5029 13.7911 52.2099 12.2798 50.3241 11.7878L34.8402 7.75006H71.3362V27.1251C71.3362 29.2641 73.3291 31.0001 75.7944 31.0001C78.2598 31.0001 80.2527 29.2641 80.2527 27.1251V3.87512C80.2527 1.73594 78.2598 0 75.7944 0H4.46119C4.30069 0 4.15796 0.058125 4.00205 0.0735645C3.79244 0.093 3.6008 0.123879 3.40018 0.166564C2.93205 0.271189 2.50844 0.430125 2.11179 0.647004C2.01378 0.701314 1.8934 0.705129 1.79978 0.767068C1.76383 0.7905 1.75046 0.833186 1.71472 0.856436C1.22883 1.18956 0.823193 1.59644 0.528943 2.08088C0.466457 2.1855 0.453082 2.29794 0.40418 2.40638C0.261443 2.70081 0.105541 2.98762 0.052041 3.31312C0.0296797 3.42937 0.0698047 3.53781 0.065416 3.65025C0.0610273 3.72781 0.00292969 3.79756 0.00292969 3.87494V81.375C0.00292969 83.2234 1.50532 84.8122 3.58743 85.1726L48.1707 92.9226C48.4605 92.9769 48.7548 93.0002 49.0444 93.0002C50.0653 93.0002 51.0685 92.6941 51.871 92.1205C52.9008 91.3843 53.5027 90.2876 53.5027 89.1251V85.2501H75.7944C78.2598 85.2501 80.2527 83.5142 80.2527 81.3752V58.125C80.2527 55.986 78.2598 54.2501 75.7944 54.2501Z" fill="white"/>
</svg>
