<svg width="200" height="270" viewBox="0 0 200 270" fill="none" xmlns="http://www.w3.org/2000/svg">
<path fill-rule="evenodd" clip-rule="evenodd" d="M94.4924 109.326L91.5012 116.177L93.1493 137.893L94.3757 138.07C107.328 139.93 116.129 140.869 120.78 140.889L120.924 140.889C125.607 140.889 131.218 139.92 137.758 137.982L138.056 137.893L138.811 121.633H137.031L133.81 114.637L133.813 114.635C133.848 114.691 133.885 114.746 133.924 114.798C135.267 116.638 136.045 115.152 139.199 115.803C142.977 116.582 144.653 120.119 147.979 122.762C149.522 123.989 152.763 124.567 154.314 125.411L155.943 126.297C161.046 129.086 166.913 132.474 169.993 136.888C173.604 142.062 176.093 146.972 178.391 152.727C183.345 165.133 186.784 177.792 189.241 190.811C191.731 204.006 193.228 217.365 194.371 230.713C194.9 236.899 195.349 243.09 195.722 249.285L195.814 250.834C196.009 254.205 195.839 257.503 192.531 259.579C190.161 261.066 187.015 261.293 184.234 261.445L184.083 261.453C163.522 262.571 142.96 263.679 122.399 264.791L91.5581 266.461C86.4264 266.74 81.2947 267.016 76.1629 267.291L63.6366 267.961C57.7328 268.273 51.8219 268.542 45.9102 268.51C38.4725 268.47 31.0663 267.961 23.6972 267.043L23.0471 266.961C18.4109 266.368 11.6887 264.867 10.8559 259.716C10.7363 258.977 11.439 258.515 12.029 258.621C11.8349 257.782 11.7143 256.943 11.5992 256.213C11.105 253.097 10.7948 249.96 10.6415 246.813C10.3339 240.517 10.5931 234.191 11.2725 227.922C12.3966 217.551 13.9723 207.197 15.6005 196.88L15.963 194.588C17.6948 183.657 19.7566 172.744 22.983 162.097C25.9635 152.261 30.6131 142.028 37.0108 135.809C43.4086 129.589 52.5304 124.186 61.9033 120.876C62.715 120.589 78.8421 117.318 79.9286 117.794L80.1238 117.652C83.3391 115.301 87.9258 111.17 92.6483 112.471L92.6592 112.454C92.7705 112.265 93.2068 110.996 93.8094 109.326L94.4924 109.326Z" fill="#8FA7DF"/>
<path fill-rule="evenodd" clip-rule="evenodd" d="M97.904 100.207C101.81 95.6193 105.928 94.1609 112.012 94.5027C116.138 94.3661 120.252 95.3582 123.746 97.5499C126.947 99.0995 129.786 101.233 131.812 103.978C133.545 106.326 132.228 112.127 133.811 114.637C133.795 114.91 133.788 115.159 133.788 115.384C133.788 117.556 135.419 119.979 138.682 122.655L138.812 122.761V138.544C133.326 140.107 126.534 140.888 118.435 140.888C110.457 140.888 102.16 139.647 93.542 137.165L93.1501 137.052L91.502 119.898L93.1501 115.151L93.1498 111.176L93.7867 109.397C94.9144 106.271 96.6407 101.691 97.904 100.207Z" fill="#D08B5B"/>
<path fill-rule="evenodd" clip-rule="evenodd" d="M93.1494 137.053C93.1494 137.053 107.635 140.96 117.523 140.96C127.412 140.96 138.056 137.053 138.056 137.053L136.33 265.69L108.537 266.005L93.1494 137.053Z" fill="#9FD8E5"/>
<path fill-rule="evenodd" clip-rule="evenodd" d="M45.4663 193.219C45.3592 193.034 45.6076 192.867 45.7724 193.001C49.5164 196.044 51.4766 200.933 51.8876 205.451C52.323 210.243 51.7057 215.203 51.4697 219.993C51.2071 225.327 50.9712 230.664 50.6506 235.996C50.3252 241.406 49.9746 246.815 49.6741 252.226L48.9981 264.398V264.398C48.9262 265.695 49.0819 267.29 48.5445 268.501C47.7118 270.378 45.2381 270.087 44.7182 268.519L44.702 268.467L44.6546 268.501C44.1959 267.087 44.5392 265.409 44.6169 263.947L45.3252 250.648V250.648C45.8256 241.248 46.2719 231.847 46.8095 222.449L46.9922 219.316C47.2435 215.099 47.4362 210.892 47.5909 206.677L47.6411 205.271C47.7881 201.038 47.6714 197.041 45.4663 193.219ZM136.226 115.184C138.312 115 139.887 115.641 141.781 116.316C142.606 116.61 143.387 116.949 144.178 117.301C145.169 117.741 145.806 118.519 146.417 119.342L146.743 119.785C149.283 123.234 150.992 127.212 152.921 130.966C155.176 135.358 157.455 139.74 159.662 144.153L160.752 146.327C161.296 147.414 161.839 148.502 162.374 149.593L163.299 151.492C164.227 153.418 165.059 155.456 163.736 157.442C162.506 159.29 160.324 160.72 158.596 162.148C157.155 163.34 155.714 164.532 154.272 165.723C157.252 168.488 159.253 171.969 160.429 175.703C162.1 175.058 164.14 174.934 165.867 174.655C168.285 174.265 168.582 177.656 166.299 177.615C164.614 177.584 162.636 177.744 160.907 177.415C161.208 178.642 161.426 179.887 161.564 181.136C162.291 187.681 160.703 194.264 159.047 200.597L158.911 201.116C157.113 207.971 155.408 214.843 153.882 221.754C152.353 228.68 150.978 235.635 149.757 242.613C148.515 249.715 147.636 256.857 146.691 263.997C146.548 265.078 145.814 266.004 144.525 266.004C143.451 266.004 142.223 265.076 142.358 263.997C143.333 256.222 144.716 248.487 146.09 240.765C148.456 227.466 151.435 214.282 154.861 201.185L155.46 198.905C157.001 192.989 158.399 186.894 157.626 180.793C156.996 175.825 154.754 170.527 150.322 167.441L150.187 167.348C149.152 166.645 148.754 165.3 149.773 164.374C150.422 163.784 151.072 163.196 151.722 162.607L155.623 159.079L156.41 158.366C157.065 157.773 157.724 157.183 158.403 156.612C158.814 156.266 159.928 155.607 160.009 155.038C160.062 154.667 159.588 154.016 159.395 153.674L158.515 152.027V152.027C158.015 151.088 157.53 150.143 157.042 149.198C156.03 147.242 155.004 145.292 154.014 143.326L148.068 131.522V131.522C146.39 128.192 144.896 124.676 142.703 121.598L142.27 120.998C141.909 120.492 141.59 120.006 141.362 119.388C141.143 118.793 140.868 118.14 140.462 117.633C139.512 116.442 137.697 115.767 136.178 115.517C135.958 115.481 136.038 115.2 136.226 115.184ZM90.4916 112.083C90.6236 112.083 90.6437 112.258 90.5219 112.292C88.6891 112.802 86.9378 113.626 85.5089 114.815C84.8253 115.384 84.1371 116.03 83.7151 116.796C83.5535 117.089 83.4641 117.399 83.3987 117.72L83.3777 117.828C83.2688 118.408 83.113 118.73 82.7948 119.195L82.7402 119.274C80.9244 121.871 79.6517 124.757 78.4882 127.646L75.9542 133.946V133.946L73.4219 140.246C72.606 142.276 71.7896 144.306 70.9735 146.336C70.5226 147.457 70.0591 148.573 69.5957 149.689C69.3952 150.173 69.1796 150.653 68.9962 151.142C68.971 151.209 68.8908 151.612 68.8307 151.71L68.8512 151.743V151.743C69.362 152.539 70.7241 153.204 71.4962 153.782L74.1549 155.774V155.774C76.0505 157.194 77.9948 158.574 79.8334 160.057C80.9884 160.989 80.2698 162.657 78.9818 163.045C76.8234 163.697 74.7087 164.477 72.5825 165.214C71.7237 165.511 70.8294 165.77 69.9806 166.099L69.4638 166.305C69.262 166.39 69.359 166.389 69.3671 166.734C69.3752 167.096 69.486 167.473 69.5495 167.828C70.2657 171.84 71.0248 175.845 71.8261 179.842C74.6603 193.979 78.0464 208.012 81.9082 221.938C83.8588 228.971 85.9508 235.968 87.9442 242.99C89.9327 249.994 92.549 256.897 95.0473 263.755C95.7522 265.69 92.4415 266.523 91.7539 264.596C88.8747 256.53 86.2407 248.392 83.5207 240.28C78.6879 225.864 74.8796 211.136 71.5114 196.373C69.8419 189.055 68.3151 181.71 66.9322 174.342C66.6703 172.947 66.4135 171.551 66.1621 170.154L65.7955 168.1C65.5443 166.636 65.4012 165.111 66.6297 163.952C67.8293 162.821 69.8887 162.42 71.4672 161.89L71.5818 161.851C72.5862 161.503 73.5979 161.169 74.6058 160.824C73.1212 159.741 71.6549 158.634 70.174 157.552C68.9794 156.679 67.7659 155.824 66.5884 154.931C65.6175 154.195 64.8258 153.249 64.7246 152.051C64.6213 150.827 65.1876 149.691 65.6443 148.568L65.6882 148.46C66.1366 147.339 66.5862 146.218 67.0473 145.102L69.9006 138.189V138.189C71.7138 133.796 73.4505 129.368 75.3576 125.009C76.1121 123.284 76.9344 121.587 77.906 119.956C78.3745 119.17 78.8769 118.401 79.4229 117.659C80.0346 116.826 80.5899 116.421 81.5378 115.962C83.0534 115.227 84.2429 113.997 85.7649 113.24C87.2588 112.497 88.7957 112.1 90.4916 112.083ZM95.4119 104.247C95.4698 104.154 95.6234 104.195 95.6253 104.3C95.665 106.483 95.105 108.714 94.7606 110.873C94.4146 113.039 94.3036 115.326 93.8031 117.469C93.7927 117.569 93.7719 117.667 93.7424 117.764L93.7185 117.837V117.837C93.5073 118.438 92.9579 118.947 92.2838 119.106C92.4958 120.194 92.6955 121.284 92.8635 122.38C93.152 124.263 93.4153 126.15 93.6743 128.037L93.9843 130.301C94.2769 132.435 94.5615 134.571 94.8429 136.706C95.5586 136.983 96.2889 137.212 97.0368 137.41C98.7593 137.867 100.524 138.052 102.301 138.214C105.921 138.543 109.569 138.695 113.201 138.882L113.98 138.923C118.064 139.139 122.17 139.178 126.244 138.79C128.264 138.597 130.268 138.274 132.238 137.816C133.239 137.584 134.212 137.236 135.211 137.009C135.542 136.933 135.838 136.76 136.17 136.574C136.318 136.401 136.525 136.27 136.794 136.22L136.867 136.208V136.208L136.939 136.198L136.964 136.188L136.962 136.195C137.167 136.17 137.361 136.17 137.544 136.193C137.617 134.528 137.696 132.863 137.795 131.199C138.061 126.729 138.794 122.065 137.815 117.634C137.782 117.485 138.001 117.432 138.058 117.572C139.98 122.263 139.764 127.393 139.861 132.33C139.955 137.159 139.898 141.991 139.872 146.82C140.246 146.967 140.579 147.167 140.842 147.447C141.369 148.006 141.521 148.979 140.842 149.519C140.542 149.758 140.209 149.925 139.856 150.04C139.837 154.236 139.805 158.432 139.76 162.628C140.621 163.244 140.701 164.707 139.727 165.316C139.565 178.904 139.298 192.492 139.077 206.078L138.614 234.581V234.581C138.553 238.379 138.451 242.176 138.414 245.974L138.443 245.984V245.984L138.545 246.028C138.718 246.103 138.975 246.225 139.028 246.349C139.042 246.382 139.046 246.404 139.044 246.421C139.327 246.457 139.606 246.581 139.849 246.794C140.447 247.32 140.325 248.114 139.849 248.65L139.721 248.793V248.793C139.424 249.127 138.86 249.256 138.4 249.188C138.404 251.558 138.421 253.928 138.413 256.298C138.41 257.022 138.398 257.746 138.385 258.47L138.352 260.206C138.331 261.196 138.236 262.455 137.141 262.9C135.906 263.402 134.798 262.991 134.298 261.828C134.162 261.514 134.191 261.22 134.241 260.909C134.225 260.441 134.146 259.899 134.156 259.465L134.197 257.656V257.656C134.203 257.377 134.216 257.098 134.224 256.819L134.188 256.822V256.822C129.799 257.019 125.378 256.923 120.981 256.921L119.025 256.923C117.394 256.925 115.759 256.917 114.129 256.859L113.518 256.835C112.299 256.782 111.016 256.765 109.751 256.664C109.912 257.866 110.063 259.07 110.197 260.274C110.324 261.417 109.052 262.387 107.917 262.387C106.568 262.387 105.797 261.405 105.636 260.274C104.874 254.939 104.562 249.553 103.834 244.214C103.182 239.432 102.617 234.639 102.043 229.848L101.851 228.251C99.7478 210.815 97.7062 193.372 95.7535 175.922L94.8443 167.764C93.926 159.542 93.0023 151.319 92.2234 143.084C91.7779 138.377 91.3674 133.668 90.9811 128.956C90.6977 125.494 90.5197 122.051 90.4038 118.596C89.9469 118.16 89.7178 117.524 89.9202 116.867C90.0385 116.484 90.1762 116.103 90.3214 115.722C90.3124 115.348 90.3029 114.974 90.295 114.6C90.2877 114.246 90.676 114.063 90.9867 114.122C91.5515 112.855 92.1735 111.599 92.6926 110.345C93.5327 108.314 94.2251 106.125 95.4119 104.247ZM48.4941 126.195C57.2763 121.097 67.7301 117.428 78.2002 117.823C78.4384 117.832 78.5054 118.168 78.2582 118.219C72.6733 119.374 67.0271 120.781 61.7398 122.829C56.4371 124.883 51.3951 127.649 46.9044 130.972C38.6188 137.104 32.1787 145.08 27.9381 154.071C25.4543 159.338 23.7132 164.899 22.1929 170.461C20.5841 176.348 19.2582 182.298 18.1557 188.284C15.9782 200.108 14.7105 212.062 14.0359 224.037C13.3496 236.218 13.6325 248.408 13.143 260.591C13.0584 262.702 9.8017 262.661 9.63617 260.591C8.52713 246.74 9.14155 232.668 10.1672 218.826C11.0895 206.383 12.7 193.966 15.2934 181.723L15.5193 180.662C17.9437 169.335 20.868 157.733 26.7291 147.476C31.733 138.718 39.4582 131.442 48.4941 126.195ZM170.447 180.331C170.493 180.209 170.666 180.211 170.712 180.331C171.714 182.927 171.75 185.857 172.016 188.593L172.037 188.804C172.292 191.3 172.484 193.799 172.663 196.3L172.729 197.239C173.446 207.443 174.343 217.636 175.693 227.786C177.039 237.899 178.859 247.941 180.827 257.962C181.046 259.078 180.513 260.215 179.25 260.536C178.136 260.82 176.707 260.184 176.472 259.075C175.25 253.323 174.262 247.562 173.38 241.76C171.829 231.543 170.671 221.279 169.926 210.984C169.553 205.813 169.323 200.645 169.231 195.463C169.189 193.059 169.256 190.649 169.395 188.247L169.428 187.693C169.58 185.239 169.565 182.672 170.447 180.331ZM75.5508 245.326C75.6681 245.267 75.8133 245.388 75.739 245.501C74.0385 248.061 71.738 250.269 69.5146 252.444C67.1901 254.719 64.9231 257.062 62.5517 259.292C60.8383 260.902 58.0821 258.304 59.8904 256.826C62.4329 254.748 65.0904 252.774 67.6781 250.743L68.8098 249.854C70.9316 248.194 73.1163 246.548 75.5508 245.326ZM156.319 244.044C156.192 243.82 156.482 243.638 156.679 243.787C158.051 244.82 159.28 246.053 160.605 247.143C161.916 248.223 163.277 249.231 164.675 250.213C166.078 251.2 167.513 252.147 168.985 253.044C170.207 253.787 171.466 254.383 172.746 255C173.338 255.071 173.887 255.34 174.326 255.851C175.02 256.658 175.094 258.181 174.131 258.883L173.958 259.008V259.008C172.834 259.827 171.5 259.926 170.394 259.008C169.158 257.984 167.991 256.856 166.804 255.773L166.448 255.449C165.173 254.301 163.929 253.116 162.757 251.878L161.695 250.759C159.726 248.679 157.676 246.436 156.319 244.044ZM150.001 124.099C149.772 123.959 149.913 123.582 150.195 123.672L150.711 123.838C152.87 124.532 155.091 125.303 157.051 126.373C159.157 127.522 161.101 128.892 162.959 130.361C166.804 133.402 170.076 137.141 172.856 141.039C178.434 148.86 181.884 157.817 184.67 166.78C187.639 176.336 189.926 186.097 191.793 195.887C193.69 205.835 195.154 215.873 196.115 225.937C196.589 230.894 196.907 235.855 197.067 240.829C197.15 243.388 197.147 245.946 197.124 248.506C197.118 249.164 197.123 249.822 197.131 250.48L197.158 252.455C197.172 253.703 197.334 255.015 197.014 256.234C196.498 258.197 192.994 257.831 193.11 255.825C193.004 255.157 193 254.467 193.027 253.776C193.011 253.686 192.992 253.596 192.972 253.503C192.915 253.238 192.964 252.992 193.076 252.781C193.094 252.45 193.111 252.12 193.117 251.796C193.14 250.478 193.138 249.165 193.099 247.848C193.016 245.069 192.897 242.291 192.776 239.514C192.535 233.964 192.2 228.413 191.715 222.877C190.025 203.607 186.458 184.228 180.465 165.69C177.682 157.081 173.845 148.63 168.343 141.191C165.9 137.889 163.145 134.838 160.09 132.007C157.015 129.159 153.627 126.324 150.001 124.099ZM108.537 248.317L108.952 251.1C109.16 252.492 109.365 253.884 109.56 255.276C110.886 255.108 112.242 255.038 113.519 254.933C115.755 254.75 118.006 254.661 120.249 254.575C124.886 254.398 129.547 254.09 134.189 254.112C134.237 254.112 134.282 254.115 134.327 254.119L134.557 248.628V248.628L131.295 248.623V248.623C128.532 248.619 125.769 248.598 123.006 248.576C120.517 248.556 118.028 248.553 115.539 248.505L114.473 248.481C112.586 248.434 110.502 248.531 108.537 248.317ZM134.83 240.348C134.697 240.363 134.562 240.375 134.418 240.381C133.772 240.406 133.121 240.388 132.474 240.393C131.098 240.404 129.721 240.413 128.345 240.413C125.592 240.412 122.839 240.428 120.086 240.459C117.252 240.49 114.421 240.536 111.587 240.541C110.214 240.543 108.845 240.51 107.472 240.474C107.694 242.281 107.926 244.087 108.183 245.888C110.314 245.621 112.607 245.756 114.69 245.738L114.96 245.734C117.804 245.689 120.649 245.722 123.493 245.726C126.419 245.729 129.344 245.738 132.27 245.76L134.674 245.778V245.778L134.679 245.666V245.666C134.749 243.895 134.794 242.122 134.83 240.348ZM106.415 231.703C106.681 233.836 106.932 235.973 107.187 238.109C107.356 238.085 107.528 238.064 107.703 238.047C109.078 237.914 110.45 237.799 111.83 237.72C114.58 237.562 117.331 237.479 120.086 237.41C122.92 237.34 125.753 237.286 128.588 237.249C129.965 237.231 131.34 237.233 132.717 237.242C133.363 237.246 134.016 237.227 134.661 237.267C134.737 237.272 134.811 237.279 134.884 237.287L134.932 234.08C134.941 233.546 134.949 233.011 134.959 232.477C132.83 232.599 130.667 232.552 128.54 232.553L128.05 232.554C125.378 232.565 122.705 232.531 120.033 232.48C117.277 232.427 114.526 232.343 111.775 232.18C110.66 232.114 109.554 232.026 108.445 231.912L107.891 231.854C107.408 231.801 106.912 231.758 106.415 231.703ZM135.178 222.653C130.053 223.03 124.954 223.187 119.815 223.234L119.044 223.24C114.503 223.272 109.924 223.446 105.372 223.334C105.644 225.52 105.916 227.706 106.189 229.892C106.841 229.864 107.496 229.864 108.133 229.842C109.429 229.799 110.721 229.788 112.018 229.785C114.689 229.78 117.361 229.801 120.033 229.796C122.787 229.791 125.54 229.748 128.293 229.7C130.525 229.661 132.78 229.506 135.019 229.511L135.178 222.653V222.653ZM135.395 213.327C134.801 213.509 134.1 213.521 133.331 213.554L131.347 213.645C130.427 213.687 129.508 213.726 128.587 213.758C125.521 213.862 122.455 213.959 119.388 214.049C116.245 214.141 113.088 214.195 109.945 214.103C108.405 214.058 106.878 213.984 105.343 213.865C104.964 213.835 104.577 213.816 104.19 213.791C104.547 216.687 104.906 219.583 105.265 222.479C109.796 221.964 114.361 221.643 118.886 221.11L122.977 220.626C127.066 220.143 131.152 219.668 135.257 219.269L135.395 213.327V213.327ZM135.614 203.897C134.742 204.097 133.749 204.087 132.912 204.136L132.757 204.146C131.171 204.257 129.582 204.313 127.992 204.349C124.878 204.42 121.761 204.456 118.645 204.473L116.771 204.484C114.273 204.498 111.777 204.504 109.278 204.45C107.676 204.415 106.077 204.342 104.475 204.268C103.995 204.246 103.505 204.231 103.013 204.208C103.348 206.95 103.686 209.692 104.023 212.433C104.549 212.356 105.078 212.297 105.582 212.218C106.873 212.016 108.161 211.855 109.461 211.711C112.277 211.398 115.107 211.173 117.936 210.983C120.84 210.788 123.747 210.623 126.651 210.435L128.708 210.3C129.394 210.256 130.08 210.214 130.766 210.175C131.937 210.108 133.299 210.183 134.461 209.947C134.776 209.826 135.125 209.798 135.475 209.867L135.614 203.897V203.897ZM135.877 192.86C135.576 193.215 135.125 193.401 134.588 193.465C131.792 193.801 128.923 193.855 126.102 194.014L125.605 194.043C122.693 194.221 119.779 194.36 116.864 194.503C113.871 194.651 110.877 194.771 107.881 194.868C106.609 194.909 105.33 194.913 104.056 194.898L103.511 194.891C102.987 194.882 102.44 194.884 101.89 194.867C102.194 197.431 102.501 199.995 102.812 202.558C103.372 202.502 103.932 202.459 104.475 202.406C106.075 202.249 107.674 202.094 109.278 201.977C112.318 201.755 115.36 201.621 118.405 201.482C121.52 201.339 124.638 201.244 127.754 201.109C129.265 201.044 130.775 200.962 132.281 200.834C133.337 200.744 134.591 200.411 135.693 200.533C135.753 197.975 135.815 195.418 135.877 192.86ZM136.123 182.973C136.075 183.041 136.019 183.108 135.951 183.169C134.72 184.296 133.203 184.209 131.571 184.328L131.471 184.335C129.872 184.46 128.272 184.578 126.671 184.685C123.47 184.899 120.264 185.049 117.059 185.182C113.779 185.319 110.478 185.413 107.195 185.351C105.092 185.311 102.89 185.318 100.746 185.128C101.075 187.952 101.406 190.776 101.74 193.599C102.343 193.494 102.95 193.413 103.525 193.329C104.973 193.118 106.424 192.906 107.881 192.751C110.792 192.44 113.704 192.15 116.621 191.888C119.116 191.663 121.61 191.436 124.107 191.231L125.605 191.111C128.584 190.879 131.6 190.496 134.588 190.44C135.081 190.43 135.638 190.679 135.92 191.071C135.986 188.371 136.054 185.672 136.123 182.973ZM136.329 174.969C135.569 175.054 134.749 175.006 134.047 175.027C132.272 175.081 130.497 175.13 128.722 175.179L118.072 175.47V175.47C114.446 175.569 110.807 175.643 107.179 175.596C105.583 175.575 103.981 175.573 102.385 175.492L101.854 175.463C101.197 175.422 100.392 175.416 99.605 175.342L100.534 183.312V183.312C102.668 183.027 104.867 182.92 106.983 182.752L107.435 182.716C110.556 182.452 113.692 182.278 116.818 182.082C120.025 181.881 123.228 181.636 126.43 181.387C128.031 181.262 129.632 181.138 131.231 181.001L131.429 180.983C132.94 180.837 134.36 180.526 135.699 181.352C135.894 181.472 136.048 181.633 136.153 181.814C136.211 179.532 136.268 177.25 136.329 174.969ZM136.578 165.667C130.092 165.909 123.604 166.092 117.113 166.173C113.459 166.218 109.81 166.187 106.157 166.116C104.573 166.085 102.976 166.015 101.393 165.902L100.8 165.858C100.047 165.8 99.2565 165.757 98.4692 165.687C98.7947 168.427 99.1174 171.168 99.4377 173.909C100.212 173.776 101.022 173.714 101.7 173.634L101.854 173.615C103.541 173.4 105.243 173.275 106.937 173.137C110.237 172.867 113.553 172.694 116.862 172.546C120.25 172.395 123.64 172.267 127.028 172.128L130.417 171.987C130.982 171.964 131.547 171.941 132.111 171.919C132.918 171.888 133.725 171.857 134.532 171.826C134.93 171.811 135.344 171.761 135.742 171.78L135.856 171.766C135.908 171.76 135.954 171.755 135.997 171.751C136.105 171.674 136.222 171.611 136.345 171.563L136.42 171.536L136.578 165.667ZM97.4054 156.852C97.7066 159.319 98.0044 161.787 98.2983 164.255C99.2235 164.157 100.16 164.103 101.043 164.029C102.824 163.881 104.614 163.752 106.4 163.675L109.971 163.522C112.351 163.42 114.731 163.321 117.113 163.241C123.632 163.02 130.15 162.768 136.665 162.46C136.711 160.786 136.759 159.112 136.807 157.439C136.494 157.749 136.043 157.953 135.449 157.952C128.609 157.935 121.764 157.971 114.925 157.867C111.502 157.815 108.083 157.738 104.664 157.575C102.99 157.496 101.308 157.334 99.6477 157.12C98.9396 157.03 98.1648 156.965 97.4054 156.852ZM96.3112 148.062C96.6327 150.589 96.9481 153.116 97.2584 155.645C98.1078 155.504 98.9853 155.429 99.7777 155.33C101.48 155.115 103.194 154.944 104.909 154.855C108.245 154.68 111.584 154.592 114.926 154.526C121.764 154.391 128.61 154.392 135.449 154.342C136.092 154.337 136.569 154.573 136.882 154.925C136.93 153.347 136.98 151.768 137.031 150.19C136.371 150.126 135.716 150.034 135.11 149.995C133.247 149.874 131.383 149.764 129.519 149.665C125.628 149.458 121.734 149.282 117.841 149.125C113.947 148.968 110.052 148.815 106.156 148.681L104.453 148.623C101.744 148.53 98.9888 148.412 96.3112 148.062ZM95.0861 138.545C95.4208 141.104 95.7504 143.664 96.0792 146.224L96.1792 147.016V147.016C99.4372 146.43 102.871 146.258 106.156 146.128C110.052 145.975 113.941 145.896 117.841 145.907C121.736 145.918 125.626 146.003 129.519 146.152C131.464 146.226 133.408 146.312 135.352 146.41C135.887 146.437 136.513 146.423 137.158 146.431C137.172 146.029 137.184 145.627 137.199 145.225C137.258 143.595 137.316 141.966 137.377 140.336C136.062 140.962 134.352 141.214 133.031 141.481L132.88 141.512C130.699 141.966 128.471 142.26 126.244 142.44C121.871 142.793 117.453 142.661 113.084 142.319L112.318 142.258C108.482 141.95 104.504 141.559 100.785 140.68C99.0134 140.261 97.1819 139.675 95.5944 138.825C95.4293 138.737 95.2589 138.643 95.0861 138.545ZM132.027 108.13C132.065 107.991 132.289 107.96 132.362 108.089C132.879 108.998 133.071 110.09 133.43 111.064C133.816 112.111 134.176 113.166 134.602 114.201C135.492 116.363 136.541 118.44 137.793 120.443C139.032 122.425 135.562 123.841 134.65 121.67C133.708 119.43 132.934 117.114 132.466 114.746C132.238 113.591 132.034 112.421 131.968 111.247C131.911 110.239 131.758 109.113 132.027 108.13Z" fill="black"/>
<path fill-rule="evenodd" clip-rule="evenodd" d="M157.139 64.1467C157.042 59.0725 156.934 53.8967 156.122 48.8718C155.327 43.9592 153.142 39.5187 149.387 35.9514C141.41 28.374 129.848 26.5232 119.085 24.8271L100.684 21.9271C95.0704 21.0426 89.0814 19.6287 83.4095 20.8831C80.6147 21.5012 78.2412 22.9373 76.0719 24.6364C73.981 26.274 71.7329 28.0327 70.3161 30.2359C68.8969 32.4423 68.4087 35.0216 67.9473 37.5171C67.4269 40.3306 67.0226 43.166 66.7354 46.0083C66.1599 51.7027 66.0813 57.44 66.4988 63.1462C66.701 65.914 67.0229 68.6738 67.4337 71.4213C67.6374 72.7838 67.8678 74.1428 68.1279 75.4971C68.2045 75.8965 68.2628 76.3386 68.3413 76.7853C67.7609 78.3179 67.431 79.905 67.4576 81.4854C67.536 86.1406 71.7683 89.0714 76.0351 90.645C78.5091 91.5574 81.0955 92.1773 83.5264 93.1966C86.0835 94.2687 87.8241 96.0067 89.5725 97.9894C92.907 101.771 96.67 105.169 100.967 108.005C110.077 114.017 121.615 116.86 132.668 114.702C135.321 114.184 137.996 113.38 140.38 112.168C142.897 110.889 144.789 109.036 146.379 106.844C149.33 102.776 151.446 98.1946 153.047 93.5328C154.68 88.7774 155.839 84.0135 156.471 79.0549C157.101 74.1125 157.234 69.1198 157.139 64.1467V64.1467Z" fill="#D08B5B"/>
<path fill-rule="evenodd" clip-rule="evenodd" d="M98.419 4.25125C106.034 3.27884 116.544 6.43933 120.336 12.812C138.441 8.8494 161.276 8.71961 176.198 21.9109C191.769 37.5586 172.211 58.1903 159.243 62.8419C160.187 67.1019 158.715 94.3929 148.298 106.566C140.031 116.881 120.779 121.641 111.871 109.321L111.801 109.219C110.847 107.797 111.669 107.842 112.648 108.901C121.372 116.023 133.232 116.144 142.372 108.628C159.502 94.8904 157.736 61.2061 149.585 41.7192C126.375 39.3526 101.524 45.8836 85.4931 62.1037L86.5771 68.1624C86.7618 69.1946 86.9716 70.2259 87.1316 71.2617C87.2341 71.9254 87.2456 72.5855 86.7503 73.1228C85.1149 74.8963 82.3586 72.2312 80.0908 71.1711C79.4213 71.0837 78.7506 71.05 78.0928 71.093C67.197 72.3959 69.3438 92.0184 81.319 88.5789C82.3252 87.997 83.1896 88.1746 83.58 89.019C86.4343 91.4463 88.3164 95.7753 93.0587 99.9449C94.732 101.509 96.2547 102.818 98.1367 104.072C99.2422 105.11 102.578 106.168 101.521 107.944C99.5209 111.986 87.7289 99.291 85.6441 95.7803C79.1119 98.175 71.873 97.3616 65.1036 96.7763C29.3919 95.0525 34.1593 60.1043 63.4314 38.0397C68.9415 34.2738 75.0208 31.2016 81.3402 28.8376C82.2029 28.5148 81.826 27.1997 80.9511 27.527C76.7697 29.0915 72.6935 30.9536 68.8078 33.1089L68.8019 31.8203C68.7962 29.6501 68.8329 27.3906 69.2389 25.4077C69.4419 24.0337 69.7832 22.5662 70.3088 21.4622C70.9585 18.0774 81.1363 6.45927 98.419 4.25125ZM77.6168 75.5978C78.1682 75.1115 79.1976 75.6914 79.6885 75.6769C80.9438 75.8364 82.1364 76.3286 83.0664 76.9361C83.6805 77.2554 84.1109 77.5553 84.4705 77.8312L84.4803 77.8287C84.4776 77.8287 84.4742 77.8312 84.4713 77.8319L84.5051 77.8531C85.0288 78.1986 86.9457 80.1441 85.7346 79.6209C85.6443 79.5119 85.5519 79.4073 85.4587 79.3047C85.4487 79.3187 85.4348 79.3325 85.4182 79.3459L85.4862 79.4396C86.5156 80.8772 84.7383 79.3627 84.4649 78.9604C84.452 78.9701 84.4374 78.9767 84.423 78.9837L84.779 79.3861C84.8288 79.4432 84.868 79.4888 84.9004 79.5273L84.9755 79.5946C86.1657 80.6807 86.2029 81.6581 84.8202 80.0524C84.8746 80.128 84.9182 80.2082 84.9243 80.2794L85.0063 80.3763C86.0919 81.6751 85.2089 81.2139 84.6694 80.6592L84.6243 80.6114L84.6335 80.6244C85.1354 81.3422 84.1396 80.8385 83.9636 80.4546L83.9562 80.4372C83.7645 80.292 83.6465 80.129 83.606 80.0878L83.5985 80.0809C82.6651 79.193 81.3119 78.4417 80.1625 78.1003C79.9959 78.0709 79.8273 78.0473 79.657 78.0306C78.9658 77.8874 78.267 77.7893 77.5609 77.7363C77.4746 77.7268 77.387 77.6679 77.3216 77.5918C76.2539 77.5584 76.5835 77.1521 77.0265 77.0766L77.0342 77.0754L76.9463 77.0685C76.2611 77.0064 75.7932 76.7782 76.486 76.6381L76.5738 76.6219C76.563 76.6063 76.5535 76.5906 76.5443 76.575C75.9509 76.5145 76.3381 75.9791 76.6675 76.1086C76.5289 75.688 77.1623 75.898 77.2413 75.8354C77.3016 75.7734 77.3765 75.7186 77.4197 75.7156C77.6105 75.5906 77.518 75.6019 77.6168 75.5978ZM81.2476 68.7877L81.1084 68.8631C80.9958 68.9241 80.8801 68.9646 80.7638 68.9884C80.9279 69.0532 81.0901 69.1232 81.2505 69.1979C81.2479 69.1066 81.2461 69.0153 81.2461 68.9242L81.2476 68.7877Z" fill="black"/>
<path fill-rule="evenodd" clip-rule="evenodd" d="M135.707 96.5284C133.905 97.0117 131.972 97.0549 130.136 96.5558C128.471 96.1031 126.761 95.1067 125.536 93.7884C124.447 92.6172 123.742 91.1939 123.769 89.6747C123.773 89.5012 123.84 89.3564 123.943 89.244C124.053 89.1229 124.208 89.0398 124.374 89.0038C124.545 88.9667 124.725 88.9798 124.879 89.0445C125.018 89.103 125.137 89.2024 125.212 89.3477C125.4 89.5769 125.588 89.8027 125.776 90.0223C127.29 91.7547 128.757 93.0494 131.034 93.5137C132.27 93.7657 133.504 93.654 134.636 93.2695C135.848 92.8579 136.944 92.1343 137.802 91.2083C138.19 90.7898 138.648 90.619 139.096 90.6161C139.604 90.6129 140.106 90.8314 140.484 91.1806C140.855 91.5239 141.104 91.9904 141.126 92.4784C141.146 92.9067 140.995 93.3541 140.594 93.7532C139.273 95.068 137.56 96.0312 135.707 96.5284ZM135.651 74.8307C137.498 75.8704 140.311 78.2948 138.325 80.8723C135.987 83.145 132.621 80.5392 130.962 79.3607C129.424 78.4473 127.696 80.7964 129.123 81.8629C141.109 90.0841 145.973 75.1026 136.585 73.6083C135.552 73.4436 135.168 74.5091 135.651 74.8307ZM118.38 70.2557C117.787 69.9041 117.089 69.7835 116.315 70.1095C115.711 70.3642 114.65 71.2133 113.912 72.3295C113.408 73.0931 113.05 73.9889 113.124 74.922C113.141 75.1387 113.055 75.2985 112.919 75.4166C112.811 75.51 112.656 75.5785 112.473 75.6C112.318 75.6182 112.144 75.6017 112.003 75.5609C111.735 75.4833 111.592 75.3219 111.539 75.1902C111.022 73.919 111.245 72.5004 111.824 71.2206C112.605 69.4934 114.025 68.0467 114.954 67.5803C116.545 66.7818 118.422 66.7451 120.016 67.5585C121.372 68.2508 122.22 69.3685 123.064 70.5079C123.243 70.7501 123.421 70.9905 123.605 71.2267C123.974 71.7 124.01 72.1694 123.868 72.5719C123.709 73.0178 123.306 73.3941 122.802 73.591C122.336 73.7731 121.795 73.7987 121.316 73.6117C120.912 73.4537 120.541 73.1457 120.306 72.6231C119.911 71.743 119.252 70.772 118.38 70.2557V70.2557ZM148.518 72.2138C148.112 72.4099 147.794 72.4691 147.343 72.344C147.093 72.2746 146.847 72.1416 146.654 71.9629C146.463 71.7858 146.325 71.5655 146.271 71.3212C146.14 70.7181 145.783 70.1537 145.276 69.7857C144.842 69.4711 144.295 69.3044 143.687 69.3985C143.032 69.4998 142.407 69.8892 141.977 70.3483C141.834 70.5019 141.721 70.6764 141.608 70.8497C141.396 71.1737 141.19 71.475 140.898 71.713C140.787 71.8035 140.62 71.8662 140.458 71.8662C140.393 71.8662 140.326 71.8563 140.262 71.838C139.61 71.2314 139.485 70.7713 139.506 70.315C139.528 69.8364 139.731 69.3518 140.061 68.8997C140.833 67.8392 142.298 66.9697 143.288 66.7727C144.642 66.5031 145.988 66.8268 147.066 67.5277C148.176 68.249 148.998 69.3687 149.255 70.6306C149.316 70.9346 149.29 71.2626 149.165 71.547C149.043 71.825 148.83 72.063 148.518 72.2138ZM121.368 58.949C120.555 59.6828 119.593 59.7965 118.619 59.8976C118.078 59.9543 117.646 60 117.222 60.0888C116.054 60.333 114.899 60.7008 113.846 61.2305C112.745 61.7843 111.546 62.4521 110.683 63.3077C110.477 63.5113 110.284 63.7249 110.09 63.939C109.913 64.1342 109.743 64.3222 109.564 64.5034C109.358 64.7115 109.162 64.9297 108.968 65.1473C108.847 65.3309 108.824 65.376 108.799 65.423C108.763 65.4937 108.721 65.5727 108.672 65.6575C108.606 65.7737 108.528 65.9008 108.447 66.0161C108.311 66.2268 108.239 66.2848 108.176 66.3108C108.072 66.3538 107.973 66.3749 107.877 66.3635C107.787 66.3527 107.703 66.3127 107.619 66.2473C107.202 65.9206 107.079 65.3844 107.091 64.8153C107.11 63.9517 107.454 62.9955 107.771 62.4077C108.508 61.0419 109.53 59.6221 110.759 58.6027C112.162 57.4392 113.696 56.5583 115.458 55.9513C116.554 55.5739 117.822 55.2276 119.015 55.2713C119.874 55.3028 120.694 55.5393 121.371 56.13C121.786 56.4926 121.986 57.0083 121.986 57.5236C121.986 58.0493 121.779 58.578 121.368 58.949ZM150.172 65.6685C150.12 65.747 150.048 65.8011 149.969 65.8336C149.885 65.8676 149.792 65.8774 149.703 65.8635C149.614 65.8496 149.529 65.8122 149.462 65.755C149.398 65.7003 149.349 65.6277 149.327 65.5387C148.787 63.3425 147.739 61.7086 145.502 60.6549C144.402 60.1366 143.136 59.8072 141.939 59.5447C141.591 59.4684 141.223 59.4189 140.852 59.3688C139.691 59.2118 138.522 59.032 137.765 58.1627C137.31 57.639 137.118 56.9694 137.226 56.3569C137.328 55.7803 137.692 55.2515 138.353 54.9347C139.999 54.1462 142.045 54.9199 143.707 55.579C143.83 55.6279 143.951 55.6759 144.07 55.7222C145.695 56.3579 147.178 57.197 148.397 58.3969C149.364 59.3489 150.26 60.7563 150.621 62.2041C150.921 63.4086 150.85 64.6382 150.172 65.6685Z" fill="black"/>
<path fill-rule="evenodd" clip-rule="evenodd" d="M135.92 83.6563C133.201 82.5217 128.319 83.5118 126.546 83.9055C122.425 84.821 118.279 86.7996 116.998 89.8994C115.554 93.3929 118.435 94.4926 118.859 94.3129C121.711 94.4991 125.109 92.8377 128.098 92.4089C130.525 92.0578 133.085 91.7513 135.359 90.5567C137.019 91.4027 140.769 91.8601 143.795 92.5998C146.372 93.2295 147.489 94.5952 149.878 94.3048C152.742 93.9569 151.57 88.3772 148.378 86.1169C144.885 83.6432 138.978 82.64 135.92 83.6563ZM141.304 107.513C138.925 108.051 138.766 103.22 138.499 101.514C138.291 100.181 137.117 96.7425 134.14 96.8908C131.163 97.0392 130.044 99.9198 130.195 101.711C130.293 102.873 131.448 108.758 127.759 109.503C125.408 109.495 122.687 109.348 120.214 108.926C117.303 108.315 113.519 106.177 112.519 110.388C112.159 111.903 124.98 116.405 130.669 116.813C136.439 117.896 143.19 116.23 147.298 112.141C148.232 111.211 150.864 107.35 151.052 106.404C151.446 104.416 150.534 103.137 147.879 103.837C146.004 104.765 142.834 107.168 141.304 107.513Z" fill="black"/>
<path fill-rule="evenodd" clip-rule="evenodd" d="M152.808 78.6883C149.139 80.3255 144.02 77.9106 141.552 75.3812C140.654 74.4602 139.961 71.8252 140.307 70.154C141.243 65.6281 144.759 62.9118 148.47 61.9843C153.616 60.6981 158.794 63.9563 158.19 67.801C157.617 71.4449 156.75 76.7305 152.808 78.6883M127.833 69.9945C127.539 74.9268 123.263 79.2438 118.153 80.5229C109.92 82.6512 105.851 77.2895 104.008 71.5133C103.825 70.9393 103.394 69.1875 104.549 67.6848C109.093 61.774 120.147 62.7815 125.669 64.4042C127.285 65.836 127.945 67.9025 127.833 69.9945M156.796 61.4876C156.793 61.4905 156.79 61.493 156.788 61.4959C156.769 61.4853 156.75 61.4744 156.731 61.464C156.752 61.4722 156.775 61.4792 156.796 61.4876M163.684 62.0576C163.206 57.0359 146.198 58.9588 144.209 59.3703C138.783 60.849 134.095 64.8718 128.028 63.1034C121.741 56.611 100.57 58.4729 96.1319 61.7802C95.2918 61.4748 94.2703 61.6386 93.1879 61.9267C87.6295 61.7408 62.2544 63.5159 67.4446 70.0881C68.2324 70.5944 69.0195 70.0793 69.0412 69.0364C96.0982 59.988 93.4755 68.4634 96.6843 67.4735C97.1742 67.6042 97.6855 67.6869 98.1327 67.7739C100.616 68.5141 101.46 68.2853 101.787 70.8682C104.034 90.8127 132.703 83.929 130.352 67.5695C132.68 67.4509 134.716 66.5183 137.178 67.4289C138.887 82.84 152.274 83.4619 156.303 78.1197C159.341 74.4117 158.136 68.816 162.312 65.899C163.96 67.177 164.066 62.8638 163.684 62.0576" fill="black"/>
</svg>
