<svg width="138" height="70" viewBox="0 0 138 70" fill="none" xmlns="http://www.w3.org/2000/svg">
<path d="M0.6 27.72V4.36C0.6 3.74667 0.613333 3.29333 0.64 3C0.693333 2.70667 0.813333 2.37333 1 2C1.37333 1.28 2.26667 0.92 3.68 0.92C5.09333 0.92 6.04 1.10667 6.52 1.48C7.02667 1.82667 7.32 2.34667 7.4 3.04C8.41333 1.65333 10 0.959999 12.16 0.959999C14.3467 0.959999 16.4133 1.98667 18.36 4.04C20.3067 6.09333 21.28 8.48 21.28 11.2C21.28 13.92 20.3067 16.3067 18.36 18.36C16.44 20.4133 14.3867 21.44 12.2 21.44C10.0133 21.44 8.42667 20.8267 7.44 19.6V27.68C7.44 28.2933 7.41333 28.7467 7.36 29.04C7.33333 29.3333 7.21333 29.6667 7 30.04C6.81333 30.44 6.48 30.72 6 30.88C5.52 31.04 4.86667 31.12 4.04 31.12C3.21333 31.12 2.54667 31.04 2.04 30.88C1.56 30.72 1.21333 30.4533 1 30.08C0.813333 29.7067 0.693333 29.3733 0.64 29.08C0.613333 28.7867 0.6 28.3333 0.6 27.72ZM8.52 8.88C7.90667 9.6 7.6 10.3867 7.6 11.24C7.6 12.0933 7.90667 12.88 8.52 13.6C9.16 14.2933 9.96 14.64 10.92 14.64C11.9067 14.64 12.7333 14.2933 13.4 13.6C14.0933 12.9067 14.44 12.12 14.44 11.24C14.44 10.36 14.12 9.57333 13.48 8.88C12.84 8.16 12 7.8 10.96 7.8C9.94667 7.8 9.13333 8.16 8.52 8.88ZM36.1613 3.16C36.3213 1.66667 37.3746 0.92 39.3213 0.92C40.3613 0.92 41.1346 0.999999 41.6413 1.16C42.1479 1.32 42.4946 1.6 42.6813 2C42.8946 2.4 43.0146 2.76 43.0413 3.08C43.0946 3.37333 43.1213 3.82667 43.1213 4.44V18.44C43.1213 19.0533 43.0946 19.52 43.0413 19.84C43.0146 20.1333 42.9079 20.48 42.7213 20.88C42.3479 21.5733 41.4279 21.92 39.9613 21.92C38.5213 21.92 37.5479 21.7467 37.0413 21.4C36.5613 21.0267 36.2813 20.4933 36.2013 19.8C35.2146 21.2133 33.5613 21.92 31.2413 21.92C28.9479 21.92 26.8146 20.8667 24.8413 18.76C22.8679 16.6533 21.8813 14.2133 21.8813 11.44C21.8813 8.64 22.8679 6.2 24.8413 4.12C26.8413 2.01333 29.0279 0.959999 31.4013 0.959999C32.3079 0.959999 33.1346 1.12 33.8813 1.44C34.6279 1.76 35.1479 2.06667 35.4413 2.36C35.7346 2.62667 35.9746 2.89333 36.1613 3.16ZM28.8813 11.48C28.8813 12.36 29.2279 13.16 29.9213 13.88C30.6146 14.5733 31.4546 14.92 32.4413 14.92C33.4279 14.92 34.2413 14.56 34.8813 13.84C35.5479 13.12 35.8813 12.3333 35.8813 11.48C35.8813 10.6 35.5613 9.78667 34.9213 9.04C34.3079 8.29333 33.4679 7.92 32.4013 7.92C31.3613 7.92 30.5079 8.29333 29.8413 9.04C29.2013 9.78667 28.8813 10.6 28.8813 11.48ZM45.0694 20.12C44.5627 19.8 44.3094 19.2933 44.3094 18.6C44.3094 17.9067 44.816 16.8533 45.8294 15.44C46.1227 14.9867 46.5894 14.76 47.2294 14.76C47.896 14.76 48.7894 15.0933 49.9094 15.76C51.0294 16.4 52.0427 16.72 52.9494 16.72C54.576 16.72 55.3894 16.4 55.3894 15.76C55.3894 15.2533 54.496 14.88 52.7094 14.64C51.0294 14.4 49.3627 13.7733 47.7094 12.76C46.936 12.28 46.296 11.5333 45.7894 10.52C45.2827 9.48 45.0294 8.25333 45.0294 6.84C45.0294 2.62667 47.9227 0.52 53.7094 0.52C55.6027 0.52 57.5494 0.973333 59.5494 1.88C60.4827 2.30667 60.9494 2.84 60.9494 3.48C60.9494 4.12 60.656 4.90667 60.0694 5.84C59.4827 6.77333 58.8827 7.24 58.2694 7.24C57.9494 7.24 57.3494 7.04 56.4694 6.64C55.616 6.24 54.6827 6.04 53.6694 6.04C52.096 6.04 51.3094 6.33333 51.3094 6.92C51.3094 7.72 52.216 8.24 54.0294 8.48C55.7894 8.66667 57.496 9.17333 59.1494 10C59.9227 10.3733 60.5627 11.0267 61.0694 11.96C61.6027 12.8667 61.8694 14.0133 61.8694 15.4C61.8694 16.7867 61.6027 17.9733 61.0694 18.96C60.5627 19.92 59.8427 20.64 58.9094 21.12C57.2027 21.9467 55.056 22.36 52.4694 22.36C49.9094 22.36 47.4427 21.6133 45.0694 20.12ZM76.7597 3.16C76.9197 1.66667 77.973 0.92 79.9197 0.92C80.9597 0.92 81.733 0.999999 82.2397 1.16C82.7464 1.32 83.093 1.6 83.2797 2C83.493 2.4 83.613 2.76 83.6397 3.08C83.693 3.37333 83.7197 3.82667 83.7197 4.44V18.44C83.7197 19.0533 83.693 19.52 83.6397 19.84C83.613 20.1333 83.5064 20.48 83.3197 20.88C82.9464 21.5733 82.0264 21.92 80.5597 21.92C79.1197 21.92 78.1464 21.7467 77.6397 21.4C77.1597 21.0267 76.8797 20.4933 76.7997 19.8C75.813 21.2133 74.1597 21.92 71.8397 21.92C69.5464 21.92 67.413 20.8667 65.4397 18.76C63.4664 16.6533 62.4797 14.2133 62.4797 11.44C62.4797 8.64 63.4664 6.2 65.4397 4.12C67.4397 2.01333 69.6264 0.959999 71.9997 0.959999C72.9064 0.959999 73.733 1.12 74.4797 1.44C75.2264 1.76 75.7464 2.06667 76.0397 2.36C76.333 2.62667 76.573 2.89333 76.7597 3.16ZM69.4797 11.48C69.4797 12.36 69.8264 13.16 70.5197 13.88C71.213 14.5733 72.053 14.92 73.0397 14.92C74.0264 14.92 74.8397 14.56 75.4797 13.84C76.1464 13.12 76.4797 12.3333 76.4797 11.48C76.4797 10.6 76.1597 9.78667 75.5197 9.04C74.9064 8.29333 74.0664 7.92 72.9997 7.92C71.9597 7.92 71.1064 8.29333 70.4397 9.04C69.7997 9.78667 69.4797 10.6 69.4797 11.48Z" fill="#78D217"/>
<path d="M0.6 65.72V42.36C0.6 41.7467 0.613333 41.2933 0.64 41C0.693333 40.7067 0.813333 40.3733 1 40C1.37333 39.28 2.26667 38.92 3.68 38.92C5.09333 38.92 6.04 39.1067 6.52 39.48C7.02667 39.8267 7.32 40.3467 7.4 41.04C8.41333 39.6533 10 38.96 12.16 38.96C14.3467 38.96 16.4133 39.9867 18.36 42.04C20.3067 44.0933 21.28 46.48 21.28 49.2C21.28 51.92 20.3067 54.3067 18.36 56.36C16.44 58.4133 14.3867 59.44 12.2 59.44C10.0133 59.44 8.42667 58.8267 7.44 57.6V65.68C7.44 66.2933 7.41333 66.7467 7.36 67.04C7.33333 67.3333 7.21333 67.6667 7 68.04C6.81333 68.44 6.48 68.72 6 68.88C5.52 69.04 4.86667 69.12 4.04 69.12C3.21333 69.12 2.54667 69.04 2.04 68.88C1.56 68.72 1.21333 68.4533 1 68.08C0.813333 67.7067 0.693333 67.3733 0.64 67.08C0.613333 66.7867 0.6 66.3333 0.6 65.72ZM8.52 46.88C7.90667 47.6 7.6 48.3867 7.6 49.24C7.6 50.0933 7.90667 50.88 8.52 51.6C9.16 52.2933 9.96 52.64 10.92 52.64C11.9067 52.64 12.7333 52.2933 13.4 51.6C14.0933 50.9067 14.44 50.12 14.44 49.24C14.44 48.36 14.12 47.5733 13.48 46.88C12.84 46.16 12 45.8 10.96 45.8C9.94667 45.8 9.13333 46.16 8.52 46.88ZM36.1613 41.16C36.3213 39.6667 37.3746 38.92 39.3213 38.92C40.3613 38.92 41.1346 39 41.6413 39.16C42.1479 39.32 42.4946 39.6 42.6813 40C42.8946 40.4 43.0146 40.76 43.0413 41.08C43.0946 41.3733 43.1213 41.8267 43.1213 42.44V56.44C43.1213 57.0533 43.0946 57.52 43.0413 57.84C43.0146 58.1333 42.9079 58.48 42.7213 58.88C42.3479 59.5733 41.4279 59.92 39.9613 59.92C38.5213 59.92 37.5479 59.7467 37.0413 59.4C36.5613 59.0267 36.2813 58.4933 36.2013 57.8C35.2146 59.2133 33.5613 59.92 31.2413 59.92C28.9479 59.92 26.8146 58.8667 24.8413 56.76C22.8679 54.6533 21.8813 52.2133 21.8813 49.44C21.8813 46.64 22.8679 44.2 24.8413 42.12C26.8413 40.0133 29.0279 38.96 31.4013 38.96C32.3079 38.96 33.1346 39.12 33.8813 39.44C34.6279 39.76 35.1479 40.0667 35.4413 40.36C35.7346 40.6267 35.9746 40.8933 36.1613 41.16ZM28.8813 49.48C28.8813 50.36 29.2279 51.16 29.9213 51.88C30.6146 52.5733 31.4546 52.92 32.4413 52.92C33.4279 52.92 34.2413 52.56 34.8813 51.84C35.5479 51.12 35.8813 50.3333 35.8813 49.48C35.8813 48.6 35.5613 47.7867 34.9213 47.04C34.3079 46.2933 33.4679 45.92 32.4013 45.92C31.3613 45.92 30.5079 46.2933 29.8413 47.04C29.2013 47.7867 28.8813 48.6 28.8813 49.48ZM44.9094 32.52C44.9094 31.9067 44.9227 31.4533 44.9494 31.16C45.0027 30.84 45.1227 30.48 45.3094 30.08C45.6827 29.36 46.7227 29 48.4294 29C50.056 29 51.0694 29.36 51.4694 30.08C51.6827 30.48 51.8027 30.84 51.8294 31.16C51.8827 31.48 51.9094 31.9467 51.9094 32.56V51.08C51.9094 52.04 51.9894 52.6533 52.1494 52.92C52.3094 53.16 52.656 53.28 53.1894 53.28C53.7494 53.28 54.1227 53.3067 54.3094 53.36C54.496 53.3867 54.7227 53.4933 54.9894 53.68C55.5227 54.0267 55.7894 54.9733 55.7894 56.52C55.7894 58.2 55.5227 59.2267 54.9894 59.6C54.296 60.08 52.6427 60.16 50.0294 59.84C47.976 59.5733 46.6427 58.8933 46.0294 57.8C45.2827 56.4933 44.9094 54.4133 44.9094 51.56V32.52ZM70.2753 41.16C70.4353 39.6667 71.4886 38.92 73.4353 38.92C74.4753 38.92 75.2486 39 75.7553 39.16C76.262 39.32 76.6086 39.6 76.7953 40C77.0086 40.4 77.1286 40.76 77.1553 41.08C77.2086 41.3733 77.2353 41.8267 77.2353 42.44V56.44C77.2353 57.0533 77.2086 57.52 77.1553 57.84C77.1286 58.1333 77.022 58.48 76.8353 58.88C76.462 59.5733 75.542 59.92 74.0753 59.92C72.6353 59.92 71.662 59.7467 71.1553 59.4C70.6753 59.0267 70.3953 58.4933 70.3153 57.8C69.3286 59.2133 67.6753 59.92 65.3553 59.92C63.062 59.92 60.9286 58.8667 58.9553 56.76C56.982 54.6533 55.9953 52.2133 55.9953 49.44C55.9953 46.64 56.982 44.2 58.9553 42.12C60.9553 40.0133 63.142 38.96 65.5153 38.96C66.422 38.96 67.2486 39.12 67.9953 39.44C68.742 39.76 69.262 40.0667 69.5553 40.36C69.8486 40.6267 70.0886 40.8933 70.2753 41.16ZM62.9953 49.48C62.9953 50.36 63.342 51.16 64.0353 51.88C64.7286 52.5733 65.5686 52.92 66.5553 52.92C67.542 52.92 68.3553 52.56 68.9953 51.84C69.662 51.12 69.9953 50.3333 69.9953 49.48C69.9953 48.6 69.6753 47.7867 69.0353 47.04C68.422 46.2933 67.582 45.92 66.5153 45.92C65.4753 45.92 64.622 46.2933 63.9553 47.04C63.3153 47.7867 62.9953 48.6 62.9953 49.48ZM90.5834 38.96C92.9568 38.96 95.1301 40.0133 97.1034 42.12C99.1034 44.2267 100.103 46.68 100.103 49.48C100.103 52.2533 99.1168 54.6933 97.1434 56.8C95.1701 58.88 93.0501 59.92 90.7834 59.92C88.5168 59.92 86.9034 59.28 85.9434 58C85.7301 59.3067 84.5834 59.96 82.5034 59.96C80.8234 59.96 79.7968 59.6 79.4234 58.88C79.2368 58.48 79.1168 58.1333 79.0634 57.84C79.0368 57.52 79.0234 57.0533 79.0234 56.44V32.56C79.0234 31.9467 79.0368 31.4933 79.0634 31.2C79.1168 30.88 79.2368 30.5333 79.4234 30.16C79.7968 29.44 80.8368 29.08 82.5434 29.08C84.2234 29.08 85.2368 29.44 85.5834 30.16C85.7968 30.56 85.9168 30.92 85.9434 31.24C85.9968 31.5333 86.0234 31.9867 86.0234 32.6V40.92C87.0901 39.6133 88.6101 38.96 90.5834 38.96ZM87.0634 51.88C87.7301 52.6 88.5568 52.96 89.5434 52.96C90.5301 52.96 91.3701 52.6 92.0634 51.88C92.7568 51.16 93.1034 50.36 93.1034 49.48C93.1034 48.6 92.7834 47.8 92.1434 47.08C91.5034 46.3333 90.6501 45.96 89.5834 45.96C88.5168 45.96 87.6634 46.3333 87.0234 47.08C86.4101 47.8267 86.1034 48.64 86.1034 49.52C86.1034 50.3733 86.4234 51.16 87.0634 51.88ZM115.615 39.16C116.122 39.32 116.535 39.6 116.855 40C117.202 40.3733 117.375 40.9867 117.375 41.84C117.375 42.6933 117.122 43.6267 116.615 44.64C116.109 45.6533 115.375 46.16 114.415 46.16C113.935 46.16 113.469 46.0533 113.015 45.84C112.589 45.6267 112.015 45.52 111.295 45.52C110.575 45.52 109.895 45.7733 109.255 46.28C108.642 46.7867 108.335 47.4 108.335 48.12V56.52C108.335 57.1333 108.309 57.6 108.255 57.92C108.229 58.2133 108.109 58.56 107.895 58.96C107.495 59.6533 106.455 60 104.775 60C103.495 60 102.575 59.7733 102.015 59.32C101.589 58.9467 101.349 58.3733 101.295 57.6C101.295 57.3333 101.295 56.9467 101.295 56.44V42.4C101.295 41.7867 101.309 41.3333 101.335 41.04C101.389 40.72 101.509 40.3733 101.695 40C102.069 39.28 103.109 38.92 104.815 38.92C106.415 38.92 107.415 39.2267 107.815 39.84C108.109 40.2667 108.255 40.7067 108.255 41.16C108.389 40.9733 108.575 40.7467 108.815 40.48C109.082 40.2133 109.629 39.8533 110.455 39.4C111.282 38.9467 112.002 38.72 112.615 38.72C113.255 38.72 113.789 38.76 114.215 38.84C114.642 38.8933 115.109 39 115.615 39.16ZM130.646 41.16C130.806 39.6667 131.859 38.92 133.806 38.92C134.846 38.92 135.619 39 136.126 39.16C136.632 39.32 136.979 39.6 137.166 40C137.379 40.4 137.499 40.76 137.526 41.08C137.579 41.3733 137.606 41.8267 137.606 42.44V56.44C137.606 57.0533 137.579 57.52 137.526 57.84C137.499 58.1333 137.392 58.48 137.206 58.88C136.832 59.5733 135.912 59.92 134.446 59.92C133.006 59.92 132.032 59.7467 131.526 59.4C131.046 59.0267 130.766 58.4933 130.686 57.8C129.699 59.2133 128.046 59.92 125.726 59.92C123.432 59.92 121.299 58.8667 119.326 56.76C117.352 54.6533 116.366 52.2133 116.366 49.44C116.366 46.64 117.352 44.2 119.326 42.12C121.326 40.0133 123.512 38.96 125.886 38.96C126.792 38.96 127.619 39.12 128.366 39.44C129.112 39.76 129.632 40.0667 129.926 40.36C130.219 40.6267 130.459 40.8933 130.646 41.16ZM123.366 49.48C123.366 50.36 123.712 51.16 124.406 51.88C125.099 52.5733 125.939 52.92 126.926 52.92C127.912 52.92 128.726 52.56 129.366 51.84C130.032 51.12 130.366 50.3333 130.366 49.48C130.366 48.6 130.046 47.7867 129.406 47.04C128.792 46.2933 127.952 45.92 126.886 45.92C125.846 45.92 124.992 46.2933 124.326 47.04C123.686 47.7867 123.366 48.6 123.366 49.48Z" fill="#224D76"/>
</svg>
