<svg width="185" height="181" viewBox="0 0 185 181" fill="none" xmlns="http://www.w3.org/2000/svg">
<path d="M84.4242 3.99414C84.4242 3.28776 84.5495 2.70671 84.8001 2.25098C85.0736 1.79525 85.4381 1.43066 85.8939 1.15723C86.3496 0.861003 86.8509 0.644531 87.3978 0.507812C87.9674 0.371094 88.5485 0.279948 89.1409 0.234375C89.7562 0.166016 90.3486 0.143229 90.9183 0.166016C91.488 0.166016 92.012 0.166016 92.4906 0.166016C93.4248 0.166016 94.359 0.257161 95.2933 0.439453C96.2275 0.621745 97.0478 0.940755 97.7542 1.39648C98.4834 1.85221 99.0758 2.46745 99.5316 3.24219C99.9873 3.99414 100.215 4.93978 100.215 6.0791C100.215 7.08171 100.01 8.08431 99.5999 9.08691C99.2126 10.0667 98.6999 11.0124 98.0618 11.9238C97.4466 12.8125 96.7402 13.6328 95.9427 14.3848C95.1452 15.1139 94.3477 15.7406 93.5501 16.2646C92.7754 16.7887 92.0234 17.1989 91.2943 17.4951C90.5879 17.7913 89.9954 17.9053 89.5169 17.8369C89.2435 18.7256 89.0726 19.6826 89.0042 20.708C88.9587 21.7106 88.9473 22.7018 88.97 23.6816C88.9928 24.6387 89.027 25.5615 89.0726 26.4502C89.1182 27.3161 89.0726 28.068 88.9359 28.7061C88.8219 29.3213 88.5941 29.7884 88.2523 30.1074C87.9105 30.4036 87.3864 30.4948 86.68 30.3809C86.4749 28.763 86.3154 27.1224 86.2015 25.459C86.1103 23.7956 86.0306 22.1436 85.9622 20.5029C85.8939 18.8623 85.8255 17.2673 85.7572 15.7178C85.7116 14.1455 85.6318 12.653 85.5179 11.2402C85.4268 9.82747 85.29 8.50586 85.1077 7.27539C84.9255 6.04492 84.6976 4.95117 84.4242 3.99414ZM92.8665 3.10547C92.5247 3.10547 92.1032 3.11686 91.6019 3.13965C91.1006 3.16243 90.6107 3.24219 90.1322 3.37891C89.6764 3.49284 89.2891 3.70931 88.97 4.02832C88.651 4.32454 88.4915 4.75749 88.4915 5.32715V14.2822C89.4258 14.2822 90.417 14.0316 91.4652 13.5303C92.5133 13.029 93.4704 12.391 94.3363 11.6162C95.2021 10.8415 95.9199 9.96419 96.4896 8.98438C97.0592 8.00456 97.3441 7.03613 97.3441 6.0791C97.3441 5.37272 97.2074 4.82585 96.9339 4.43848C96.6833 4.05111 96.3415 3.75488 95.9085 3.5498C95.4984 3.34473 95.0312 3.2194 94.5072 3.17383C93.9831 3.12826 93.4362 3.10547 92.8665 3.10547Z" fill="#78D217"/>
<path d="M138.035 13.3303C138.369 13.0586 138.66 12.9622 138.907 13.0411C139.173 13.1324 139.449 13.2712 139.735 13.4575C140.175 13.7431 140.473 14.3578 140.629 15.3017C140.816 16.2387 140.885 17.3839 140.835 18.7372C140.785 20.0906 140.643 21.5881 140.409 23.2299C140.195 24.8841 139.922 26.5678 139.589 28.2809C139.287 29.9873 138.948 31.6687 138.57 33.3254C138.192 34.982 137.814 36.4894 137.437 37.8476C137.091 39.199 136.751 40.3502 136.417 41.3013C136.082 42.2525 135.817 42.8819 135.622 43.1896C135.426 43.4973 135.16 43.7457 134.824 43.9349C134.519 44.1172 134.185 44.0904 133.822 43.8545C133.593 43.7055 133.435 43.5078 133.349 43.2614C133.294 43.0082 133.276 42.7386 133.296 42.4525C133.316 42.1665 133.345 41.8866 133.384 41.613C133.423 41.3394 133.453 41.1008 133.474 40.8973C133.532 40.636 133.627 40.1266 133.757 39.369C133.907 38.6238 134.056 37.8374 134.204 37.0097C134.371 36.1944 134.523 35.4238 134.66 34.6978C134.798 33.9718 134.898 33.4528 134.962 33.1407C133.771 32.0407 132.558 30.9538 131.324 29.8799C130.121 28.7991 128.835 27.6783 127.467 26.5175L127.152 26.3126C124.57 28.8465 122.461 30.805 120.827 32.1881C119.211 33.5837 117.989 34.529 117.162 35.0238C116.353 35.5311 115.887 35.6492 115.762 35.378C115.645 35.1384 115.786 34.6188 116.186 33.8191C116.618 33.0126 117.275 31.9995 118.158 30.7799C119.06 29.5727 120.109 28.2839 121.303 26.9136C122.529 25.5365 123.846 24.1231 125.253 22.6735C126.66 21.2238 128.098 19.8754 129.565 18.628C131.052 17.3931 132.513 16.3046 133.949 15.3626C135.416 14.4137 136.778 13.7363 138.035 13.3303ZM130.894 23.0376C130.442 23.7491 130.335 24.427 130.573 25.0712C130.824 25.6962 131.244 26.2678 131.832 26.7861C132.421 27.3045 133.074 27.7838 133.794 28.224C134.532 28.6766 135.159 29.0705 135.675 29.4058C136.164 28.6365 136.565 27.7288 136.879 26.6828C137.205 25.6175 137.458 24.5183 137.638 23.3853C137.818 22.2523 137.951 21.1295 138.037 20.017C138.155 18.8976 138.246 17.8834 138.31 16.9744C137.966 17.0493 137.486 17.2946 136.871 17.7101C136.287 18.1188 135.645 18.5982 134.945 19.1484C134.275 19.6917 133.631 20.2379 133.012 20.7868C132.394 21.3357 131.902 21.7907 131.538 22.1517C131.501 22.2094 131.394 22.357 131.216 22.5946C131.05 22.813 130.943 22.9607 130.894 23.0376Z" fill="#78D217"/>
<path d="M148.332 62.8279C148.875 62.7024 149.396 62.7757 149.894 63.0477C150.422 63.331 150.942 63.6805 151.455 64.0962C151.977 64.5327 152.488 64.9995 152.988 65.4967C153.508 65.9843 154.015 66.4152 154.509 66.7894C155.012 67.1844 155.515 67.4668 156.017 67.6367C156.539 67.797 157.059 67.7577 157.576 67.5188C158.238 67.2131 158.706 66.7834 158.981 66.2297C159.266 65.6968 159.432 65.068 159.479 64.3432C159.537 63.6392 159.504 62.876 159.383 62.0536C159.262 61.2312 159.131 60.3881 158.991 59.5241C158.881 58.6714 158.786 57.8243 158.706 56.9828C158.646 56.1318 158.682 55.3248 158.812 54.5617C158.952 53.8195 159.222 53.1429 159.621 52.5319C160.029 51.9417 160.647 51.4555 161.475 51.0733C162.157 50.758 162.86 50.5969 163.582 50.5898C164.333 50.5939 165.082 50.7002 165.826 50.9087C166.6 51.1283 167.351 51.4342 168.078 51.8263C168.814 52.2391 169.488 52.7061 170.098 53.2274C170.718 53.7694 171.265 54.3448 171.74 54.9537C172.236 55.553 172.615 56.1434 172.877 56.7249L173.032 57.0676C173.055 57.2831 173.064 57.5801 173.06 57.9585C173.055 58.3369 173.047 58.7049 173.033 59.0625C173.04 59.4106 173.029 59.7171 172.998 59.9821C172.989 60.2375 172.974 60.37 172.953 60.3796L172.239 60.7092C172.02 60.3337 171.707 59.8631 171.302 59.2974C170.917 58.7222 170.477 58.1349 169.981 57.5356C169.485 56.9363 168.933 56.3504 168.325 55.7781C167.737 55.1962 167.13 54.7109 166.505 54.3222C165.879 53.9334 165.238 53.6772 164.582 53.5534C163.947 53.4201 163.319 53.4968 162.699 53.7834C161.809 54.1942 161.246 54.8306 161.011 55.6924C160.796 56.5448 160.733 57.5146 160.824 58.602C160.916 59.6894 161.075 60.8455 161.303 62.0703C161.561 63.3064 161.715 64.4777 161.765 65.5842C161.835 66.6811 161.711 67.6796 161.393 68.5797C161.095 69.4702 160.449 70.1448 159.456 70.6034C158.918 70.8518 158.275 70.9484 157.525 70.8931C156.805 70.8491 156.033 70.6909 155.21 70.4185C154.417 70.1573 153.612 69.8138 152.795 69.3881C151.977 68.9624 151.213 68.4873 150.501 67.9627C149.819 67.4494 149.204 66.9178 148.656 66.3679C148.128 65.8084 147.747 65.2691 147.513 64.7499C147.437 64.5838 147.378 64.3977 147.335 64.1917C147.292 63.9857 147.279 63.7909 147.297 63.6073C147.344 63.4349 147.442 63.2642 147.59 63.0952C147.748 62.9469 147.996 62.8578 148.332 62.8279Z" fill="#78D217"/>
<path d="M183.523 102.028C183.91 102.223 184.119 102.449 184.152 102.707C184.181 102.987 184.171 103.297 184.123 103.635C184.05 104.154 183.618 104.679 182.829 105.209C182.06 105.764 181.052 106.297 179.806 106.807C178.56 107.316 177.144 107.801 175.56 108.262C173.972 108.745 172.333 109.186 170.642 109.584C168.971 110.009 167.306 110.389 165.647 110.723C163.988 111.058 162.465 111.331 161.077 111.544C159.708 111.782 158.523 111.944 157.521 112.029C156.519 112.113 155.838 112.129 155.477 112.077C155.116 112.024 154.78 111.883 154.467 111.654C154.174 111.45 154.058 111.134 154.119 110.705C154.157 110.434 154.27 110.209 154.457 110.029C154.663 109.875 154.899 109.748 155.167 109.648C155.434 109.549 155.699 109.461 155.964 109.384C156.228 109.308 156.456 109.237 156.65 109.173C156.91 109.119 157.411 108.996 158.152 108.805C158.889 108.636 159.664 108.449 160.476 108.244C161.284 108.063 162.046 107.886 162.761 107.713C163.476 107.541 163.988 107.42 164.297 107.349C164.792 105.81 165.266 104.255 165.719 102.686C166.192 101.143 166.666 99.5082 167.142 97.7813L167.195 97.4091C163.815 96.0887 161.155 94.9652 159.216 94.0384C157.273 93.1343 155.903 92.4056 155.107 91.8523C154.308 91.3217 154.005 90.9437 154.198 90.7185C154.366 90.5126 154.896 90.4285 155.788 90.4661C156.699 90.5296 157.893 90.7146 159.368 91.0212C160.841 91.3504 162.448 91.7799 164.191 92.3096C165.953 92.8652 167.786 93.4886 169.691 94.1799C171.595 94.8713 173.42 95.6317 175.166 96.4613C176.909 97.3134 178.509 98.2022 179.965 99.1278C181.441 100.079 182.627 101.046 183.523 102.028ZM171.733 99.485C170.898 99.3637 170.24 99.5443 169.757 100.027C169.297 100.512 168.956 101.131 168.734 101.881C168.512 102.632 168.353 103.426 168.257 104.264C168.158 105.125 168.065 105.859 167.978 106.469C168.88 106.6 169.87 106.594 170.949 106.452C172.051 106.312 173.152 106.093 174.254 105.792C175.355 105.492 176.428 105.153 177.471 104.775C178.534 104.423 179.49 104.09 180.34 103.776C180.128 103.492 179.704 103.154 179.069 102.762C178.454 102.396 177.75 102.006 176.957 101.592C176.184 101.203 175.418 100.838 174.661 100.498C173.904 100.158 173.285 99.895 172.805 99.7101C172.738 99.7002 172.559 99.6627 172.269 99.5975C172.002 99.5356 171.823 99.4981 171.733 99.485Z" fill="#78D217"/>
<path d="M164.201 145.291C164.733 145.756 165.088 146.234 165.268 146.725C165.433 147.233 165.47 147.75 165.379 148.277C165.305 148.818 165.142 149.341 164.889 149.847C164.621 150.369 164.311 150.871 163.96 151.35C163.611 151.863 163.243 152.328 162.855 152.745C162.484 153.178 162.143 153.576 161.832 153.939C161.224 154.649 160.548 155.298 159.803 155.887C159.058 156.476 158.284 156.889 157.482 157.125C156.664 157.379 155.816 157.423 154.937 157.258C154.075 157.109 153.216 156.659 152.359 155.908C151.605 155.247 150.984 154.431 150.497 153.458C150.012 152.519 149.634 151.506 149.364 150.421C149.096 149.368 148.938 148.291 148.892 147.19C148.862 146.104 148.91 145.085 149.035 144.134C149.145 143.2 149.325 142.359 149.577 141.61C149.814 140.878 150.114 140.353 150.476 140.035C149.986 139.242 149.377 138.481 148.651 137.753C147.926 137.058 147.188 136.396 146.437 135.768C145.702 135.154 144.986 134.572 144.288 134.021C143.607 133.485 143.071 132.955 142.68 132.43C142.291 131.938 142.088 131.458 142.071 130.988C142.07 130.533 142.343 130.075 142.888 129.614C144.238 130.524 145.576 131.484 146.901 132.494C148.212 133.521 149.506 134.549 150.784 135.579C152.063 136.608 153.307 137.607 154.517 138.577C155.729 139.578 156.903 140.501 158.04 141.346C159.162 142.208 160.245 142.975 161.289 143.647C162.333 144.32 163.304 144.868 164.201 145.291ZM159.377 152.287C159.599 152.028 159.865 151.7 160.174 151.304C160.483 150.909 160.742 150.484 160.95 150.031C161.161 149.61 161.25 149.173 161.218 148.72C161.203 148.283 160.981 147.876 160.552 147.501L153.817 141.599C153.209 142.309 152.753 143.226 152.448 144.353C152.143 145.479 152 146.626 152.019 147.794C152.039 148.963 152.231 150.086 152.598 151.164C152.964 152.242 153.507 153.097 154.227 153.728C154.758 154.193 155.258 154.45 155.728 154.497C156.182 154.562 156.627 154.498 157.063 154.305C157.484 154.128 157.882 153.856 158.258 153.488C158.633 153.12 159.006 152.72 159.377 152.287Z" fill="#224D76"/>
<path d="M121.123 179.275C121.106 179.708 120.987 179.993 120.766 180.13C120.523 180.273 120.237 180.394 119.91 180.491C119.407 180.64 118.752 180.466 117.943 179.969C117.119 179.501 116.217 178.806 115.238 177.885C114.259 176.963 113.232 175.878 112.157 174.628C111.061 173.385 109.981 172.077 108.918 170.705C107.84 169.362 106.805 168.005 105.815 166.635C104.824 165.266 103.944 163.994 103.176 162.819C102.393 161.673 101.755 160.662 101.263 159.786C100.772 158.91 100.475 158.297 100.373 157.947C100.272 157.597 100.261 157.232 100.34 156.852C100.404 156.5 100.644 156.262 101.059 156.139C101.321 156.061 101.572 156.07 101.813 156.164C102.039 156.288 102.252 156.45 102.453 156.652C102.654 156.854 102.844 157.059 103.023 157.267C103.202 157.475 103.361 157.654 103.499 157.803C103.657 158.018 103.976 158.422 104.457 159.016C104.916 159.617 105.406 160.244 105.928 160.897C106.428 161.557 106.904 162.176 107.357 162.754C107.81 163.333 108.132 163.748 108.324 164C109.929 163.809 111.539 163.592 113.154 163.351C114.753 163.137 116.436 162.887 118.203 162.6L118.563 162.493C118.365 158.868 118.286 155.98 118.325 153.829C118.343 151.684 118.439 150.134 118.613 149.179C118.765 148.231 118.983 147.798 119.268 147.88C119.524 147.946 119.82 148.393 120.155 149.221C120.475 150.077 120.801 151.24 121.133 152.71C121.443 154.186 121.718 155.828 121.958 157.635C122.182 159.47 122.374 161.397 122.533 163.418C122.693 165.438 122.757 167.416 122.726 169.351C122.672 171.292 122.526 173.118 122.288 174.829C122.033 176.568 121.645 178.05 121.123 179.275ZM118.554 167.487C118.319 166.678 117.882 166.154 117.244 165.916C116.612 165.699 115.908 165.647 115.134 165.758C114.359 165.869 113.571 166.055 112.769 166.317C111.945 166.586 111.239 166.807 110.649 166.982C110.903 167.858 111.318 168.757 111.895 169.679C112.477 170.623 113.133 171.534 113.862 172.41C114.591 173.287 115.344 174.122 116.119 174.913C116.879 175.734 117.578 176.465 118.216 177.108C118.386 176.796 118.518 176.269 118.611 175.528C118.689 174.816 118.752 174.013 118.801 173.119C118.835 172.253 118.849 171.405 118.846 170.574C118.842 169.743 118.824 169.071 118.794 168.557C118.775 168.492 118.735 168.313 118.674 168.022C118.62 167.753 118.58 167.575 118.554 167.487Z" fill="#224D76"/>
<path d="M78.5653 175.959C78.4382 176.396 78.2136 176.639 77.8915 176.685C77.5476 176.726 77.2009 176.694 76.8514 176.591C76.7858 176.571 76.6689 176.524 76.5005 176.451C76.3102 176.37 76.1933 176.324 76.1496 176.311C76.281 175.613 76.4537 174.773 76.6678 173.791C76.8754 172.83 77.0976 171.779 77.3343 170.637C77.5646 169.517 77.7858 168.347 77.9978 167.126C78.2098 165.906 78.3609 164.691 78.451 163.481C78.5348 162.294 78.5512 161.134 78.5003 160.002C78.4431 158.892 78.2713 157.89 77.9849 156.997C77.9329 156.767 77.879 156.585 77.8234 156.449C77.7396 156.329 77.6636 156.224 77.5953 156.132C77.4988 156.056 77.3881 155.987 77.2634 155.927C77.1324 155.888 76.9685 155.839 76.7719 155.781C75.8764 155.515 74.98 155.415 74.0828 155.481C73.1638 155.541 72.2462 155.637 71.3299 155.769C70.4137 155.901 69.4961 155.997 68.5771 156.057C67.658 156.117 66.7398 156.011 65.8224 155.738C65.6258 155.68 65.3746 155.605 65.0688 155.514C64.7566 155.445 64.4758 155.35 64.2264 155.229C63.977 155.107 63.7794 154.929 63.6336 154.696C63.4878 154.463 63.4658 154.171 63.5674 153.821C63.6628 153.492 64.0625 153.219 64.7666 153C65.4644 152.803 66.3292 152.644 67.361 152.523C68.3865 152.423 69.4993 152.349 70.6995 152.302C71.8779 152.248 73.0108 152.227 74.0982 152.241C75.1637 152.249 76.1042 152.278 76.9196 152.33C77.7286 152.404 78.2532 152.477 78.4935 152.548C79.2799 152.782 79.9026 153.252 80.3618 153.959C80.7927 154.681 81.1073 155.559 81.3055 156.592C81.4755 157.641 81.5451 158.791 81.5141 160.041C81.4769 161.314 81.3723 162.614 81.2003 163.941C81.0284 165.269 80.816 166.572 80.563 167.852C80.3101 169.132 80.0498 170.314 79.7822 171.4C79.5145 172.485 79.2741 173.436 79.0608 174.252C78.8258 175.061 78.6606 175.63 78.5653 175.959Z" fill="#224D76"/>
<path d="M25.165 155.946C24.7676 156.112 24.4616 156.123 24.2471 155.978C24.0178 155.815 23.7919 155.604 23.5695 155.344C23.2285 154.946 23.1161 154.272 23.2322 153.322C23.3164 152.37 23.5731 151.251 24.0023 149.966C24.4316 148.681 24.9893 147.284 25.6756 145.773C26.3471 144.246 27.0837 142.707 27.8853 141.156C28.655 139.603 29.4543 138.085 30.2833 136.601C31.1123 135.117 31.8989 133.776 32.6432 132.579C33.3554 131.379 34.0059 130.37 34.5946 129.551C35.1832 128.732 35.6147 128.203 35.8889 127.962C36.1631 127.722 36.488 127.559 36.8637 127.472C37.2074 127.383 37.5201 127.503 37.8018 127.831C37.9797 128.039 38.0754 128.273 38.0889 128.534C38.0704 128.793 38.0114 129.056 37.9118 129.325C37.8123 129.594 37.7053 129.855 37.5909 130.106C37.4765 130.358 37.3804 130.579 37.3026 130.768C37.1734 131.002 36.9396 131.465 36.601 132.155C36.2477 132.829 35.8834 133.542 35.5083 134.294C35.1184 135.03 34.7553 135.727 34.4191 136.385C34.0829 137.043 33.8404 137.513 33.6918 137.795C34.524 139.186 35.3807 140.571 36.262 141.95C37.1113 143.326 38.0285 144.765 39.0136 146.264L39.2582 146.55C42.4483 144.845 45.0221 143.559 46.9796 142.692C48.9223 141.808 50.3601 141.245 51.2931 141.003C52.2112 140.744 52.6918 140.762 52.7349 141.057C52.7803 141.32 52.4985 141.779 51.8895 142.434C51.2484 143.087 50.3327 143.874 49.1423 144.796C47.9371 145.701 46.5686 146.642 45.0368 147.621C43.473 148.598 41.8122 149.583 40.0544 150.578C38.2965 151.573 36.5382 152.463 34.7794 153.247C33.0058 154.013 31.2979 154.646 29.6558 155.146C27.9817 155.644 26.4848 155.91 25.165 155.946ZM34.7475 148.639C35.3816 148.084 35.6749 147.463 35.6276 146.778C35.5631 146.107 35.3216 145.44 34.9032 144.777C34.4848 144.113 33.9928 143.469 33.4271 142.844C32.8465 142.201 32.3561 141.646 31.9558 141.179C31.2703 141.78 30.6298 142.538 30.0342 143.454C29.4214 144.385 28.8692 145.368 28.3773 146.405C27.8855 147.442 27.4417 148.482 27.0458 149.526C26.6179 150.568 26.2449 151.515 25.9268 152.37C26.2784 152.395 26.8076 152.295 27.5145 152.069C28.1894 151.841 28.9402 151.562 29.7671 151.231C30.562 150.898 31.3334 150.556 32.0815 150.203C32.8296 149.85 33.4292 149.552 33.8804 149.308C33.9318 149.263 34.0763 149.152 34.3139 148.974C34.5344 148.811 34.6789 148.7 34.7475 148.639Z" fill="#224D76"/>
<path d="M6.88918 113.683C5.47518 113.612 4.32225 113.273 3.43038 112.666C2.51597 112.062 1.84644 111.319 1.4218 110.436C0.993945 109.532 0.783567 108.538 0.790665 107.454C0.772006 106.352 0.954638 105.289 1.33856 104.266C1.71928 103.221 2.27548 102.276 3.00717 101.433C3.71631 100.593 4.57994 99.9495 5.59806 99.5021C6.59364 99.058 7.7211 98.8941 8.98047 99.0103C10.2398 99.1265 11.5859 99.6101 13.0188 100.461C13.1965 99.6062 13.3822 98.8078 13.5759 98.0658C13.7696 97.3239 14.047 96.6849 14.4081 96.1488C14.7659 95.5902 15.23 95.1313 15.8004 94.772C16.3707 94.4128 17.1069 94.1676 18.0089 94.0365C18.753 93.9283 19.5615 93.9489 20.4343 94.0983C21.3071 94.2477 22.1847 94.5115 23.067 94.8898C23.9461 95.2455 24.8043 95.6964 25.6414 96.2424C26.4528 96.7692 27.1933 97.3638 27.8629 98.0263C28.5324 98.6888 29.0925 99.3903 29.543 100.131C29.9677 100.852 30.233 101.585 30.3389 102.329C30.4094 102.825 30.1627 103.356 29.5987 103.922C29.0346 104.487 28.2661 105.071 27.2929 105.673C26.3198 106.275 25.1873 106.889 23.8952 107.514C22.6032 108.14 21.2613 108.738 19.8694 109.308C18.4551 109.883 17.0584 110.419 15.6795 110.919C14.278 111.422 12.9845 111.875 11.7989 112.278C10.6101 112.658 9.58562 112.98 8.72544 113.243C7.83951 113.487 7.22742 113.633 6.88918 113.683ZM20.6786 105.53C21.0619 105.474 21.5565 105.31 22.1622 105.038C22.7679 104.765 23.3672 104.448 23.9601 104.085C24.5498 103.7 25.0912 103.299 25.5843 102.882C26.0548 102.468 26.353 102.057 26.4788 101.647C26.6143 101.305 26.5501 100.934 26.2863 100.535C25.9998 100.139 25.6006 99.7598 25.0887 99.3968C24.551 99.0144 23.9602 98.6628 23.3162 98.342C22.6496 98.0245 22.0007 97.7504 21.3695 97.5198C20.7351 97.2667 20.1571 97.0859 19.6353 96.9776C19.0878 96.8499 18.6788 96.8058 18.4082 96.8451C17.8219 96.9304 17.3596 97.0782 17.0213 97.2886C16.6604 97.5022 16.3896 97.7834 16.209 98.132C16.0252 98.458 15.9187 98.8419 15.8895 99.2837C15.857 99.7029 15.876 100.161 15.9466 100.657C16.0268 101.221 16.202 101.806 16.4722 102.411C16.7424 103.017 17.0851 103.565 17.5003 104.058C17.9123 104.527 18.3936 104.918 18.9442 105.229C19.4917 105.518 20.0698 105.618 20.6786 105.53ZM9.48635 109.368C9.89223 109.309 10.4012 109.246 11.0132 109.18C11.6027 109.117 12.2116 109.029 12.8397 108.914C13.4679 108.8 14.0897 108.641 14.705 108.436C15.3204 108.231 15.8327 107.95 16.242 107.591C15.8819 106.515 15.3622 105.612 14.683 104.882C14.0006 104.129 13.252 103.559 12.4374 103.17C11.5969 102.763 10.7322 102.509 9.84326 102.408C8.95431 102.307 8.10876 102.349 7.30661 102.535C6.50125 102.698 5.78438 102.998 5.15601 103.435C4.52443 103.849 4.06995 104.376 3.79255 105.015C3.4926 105.657 3.40197 106.395 3.52064 107.23C3.63932 108.065 4.04622 108.984 4.74136 109.988C4.92176 109.962 5.23905 109.928 5.69325 109.885C6.14423 109.819 6.61937 109.761 7.11867 109.712C7.61475 109.64 8.08829 109.571 8.53927 109.505C8.99026 109.44 9.30595 109.394 9.48635 109.368Z" fill="#224D76"/>
<path d="M9.07499 67.0969C8.9095 67.0205 8.64526 66.8859 8.28228 66.6931C7.88923 66.5116 7.48583 66.3253 7.0721 66.1342C6.63767 65.9336 6.23897 65.7369 5.87598 65.5442C5.48293 65.3627 5.214 65.2384 5.0692 65.1716C4.73793 64.7425 4.58706 64.2462 4.61658 63.6825C4.63479 63.0886 4.73947 62.4969 4.93062 61.9075C5.11046 61.2878 5.33264 60.7128 5.59716 60.1824C5.87106 59.6313 6.08773 59.1792 6.24716 58.8261C6.45348 58.3692 6.71331 57.8492 7.02665 57.2661C7.34937 56.6622 7.70878 56.0878 8.10487 55.5429C8.48965 54.9676 8.9318 54.4314 9.43133 53.9343C9.91016 53.4276 10.4286 53.027 10.9866 52.7325C11.5333 52.4077 12.1158 52.225 12.7342 52.1843C13.3413 52.1133 13.9758 52.2307 14.6378 52.5364C15.4239 52.8995 16.0532 53.416 16.5257 54.086C16.9775 54.7464 17.3561 55.4859 17.6614 56.3046C17.9554 57.0929 18.1903 57.9293 18.366 58.8136C18.551 59.6771 18.7445 60.4943 18.9464 61.2652C19.1577 62.0153 19.4168 62.6871 19.7238 63.2807C20.0308 63.8742 20.4636 64.3 21.0221 64.558C21.0635 64.5771 21.1302 64.5953 21.2224 64.6128C21.3032 64.5999 21.3539 64.5983 21.3746 64.6078C23.2053 62.4917 25.1583 60.5199 27.2336 58.6924C29.3183 56.8442 31.467 55.0758 33.6797 53.387C33.7492 53.3438 33.8601 53.3198 34.0123 53.3148C34.1533 53.2795 34.3206 53.2689 34.5142 53.283C34.6872 53.2876 34.8498 53.2874 35.002 53.2824C35.1543 53.2775 35.2718 53.2941 35.3545 53.3323C35.5407 53.4183 35.6621 53.5371 35.7186 53.6887C35.7545 53.8307 35.7706 53.9888 35.767 54.1628C35.7427 54.3273 35.6978 54.4822 35.6321 54.6276C35.5665 54.7729 35.5102 54.8975 35.4633 55.0014C34.9569 56.1228 34.2126 57.1343 33.2303 58.036C32.2368 58.9074 31.1869 59.7653 30.0805 60.6096C28.9742 61.454 27.9102 62.343 26.8885 63.2766C25.8762 64.1895 25.0887 65.269 24.5261 66.515L24.0759 67.5118C24.9914 67.5331 25.8053 67.5576 26.5178 67.5855C27.2396 67.5926 27.9173 67.642 28.5509 67.7338C29.1938 67.8049 29.8237 67.9326 30.4404 68.1171C31.0459 68.2712 31.6796 68.5011 32.3416 68.8068C32.4864 68.8737 32.6622 68.9549 32.8691 69.0505C33.0552 69.1364 33.2471 69.2376 33.4446 69.3539C33.6421 69.4702 33.8001 69.6185 33.9187 69.7988C34.0373 69.979 34.0761 70.1977 34.035 70.4548C33.154 71.077 32.0416 71.4919 30.6977 71.6995C29.3426 71.8768 27.8802 71.9041 26.3105 71.7815C24.7407 71.6589 23.1211 71.4254 21.4515 71.081C19.7913 70.7159 18.1856 70.3131 16.6344 69.8728C15.0718 69.4021 13.6362 68.9273 12.3274 68.4484C11.0073 67.9391 9.92316 67.4886 9.07499 67.0969ZM12.2397 65.3208C12.5086 65.445 12.8509 65.6282 13.2666 65.8703C13.6709 66.0822 14.1054 66.2828 14.5699 66.4722C15.0137 66.6521 15.4659 66.7856 15.9265 66.8729C16.3758 66.9298 16.8062 66.8902 17.2178 66.7539C17.2572 66.722 17.2863 66.6852 17.3051 66.6437C17.3351 66.6325 17.3689 66.5853 17.4064 66.5023C17.5753 66.1284 17.6631 65.6294 17.67 65.0051C17.6863 64.3601 17.6395 63.6609 17.5298 62.9074C17.42 62.154 17.2538 61.387 17.0312 60.6066C16.7973 59.7958 16.525 59.0425 16.2141 58.3468C15.9033 57.6511 15.5502 57.0488 15.155 56.54C14.7484 56.0009 14.3279 55.631 13.8935 55.4303C13.4797 55.2393 13.0577 55.2326 12.6274 55.4103C12.1765 55.5785 11.7594 55.8377 11.3763 56.1878C10.9932 56.538 10.6524 56.9327 10.3539 57.3722C10.0649 57.7908 9.85468 58.1455 9.72339 58.4363C9.56396 58.7893 9.3764 59.2046 9.1607 59.6823C8.92431 60.1504 8.73964 60.6423 8.60669 61.1582C8.46243 61.6437 8.39898 62.1164 8.41636 62.5762C8.43373 63.036 8.59578 63.4246 8.90249 63.7419C9.02661 63.7992 9.24382 63.8995 9.55413 64.0428C9.86443 64.1862 10.2058 64.3438 10.5781 64.5158C10.9298 64.6782 11.2561 64.8414 11.557 65.0055C11.8673 65.1488 12.0949 65.2539 12.2397 65.3208Z" fill="#224D76"/>
<path d="M40.0312 17.3158C39.9259 16.8952 39.96 16.5877 40.1335 16.3934C40.3261 16.1867 40.5657 15.9902 40.8522 15.804C41.2917 15.5184 41.9683 15.4998 42.8822 15.7483C43.8029 15.9652 44.8615 16.3777 46.058 16.986C47.2544 17.5943 48.5426 18.3469 49.9224 19.2436C51.3213 20.128 52.7221 21.0791 54.1248 22.0968C55.5344 23.083 56.9057 24.0939 58.2389 25.1297C59.5721 26.1655 60.7711 27.1389 61.8361 28.0501C62.908 28.9296 63.8022 29.7208 64.5188 30.4236C65.2354 31.1263 65.6914 31.6316 65.887 31.9393C66.0825 32.247 66.1955 32.5948 66.226 32.9826C66.2634 33.3387 66.1005 33.6348 65.7375 33.8707C65.5083 34.0197 65.2649 34.0828 65.0074 34.0599C64.7567 34.0054 64.5069 33.9096 64.2578 33.7726C64.0088 33.6355 63.7692 33.4923 63.5393 33.3428C63.3093 33.1933 63.1072 33.0665 62.933 32.9623C62.7222 32.8005 62.3031 32.5021 61.6759 32.0674C61.0677 31.6202 60.4221 31.1566 59.7391 30.6766C59.0752 30.1841 58.4453 29.7239 57.8494 29.296C57.2535 28.868 56.8283 28.5601 56.5739 28.3722C55.0898 29.0106 53.6084 29.6745 52.1297 30.3638C50.6578 31.0214 49.1156 31.7383 47.5032 32.5146L47.1879 32.7194C48.3945 36.1474 49.2802 38.9006 49.8452 40.9791C50.4293 43.0452 50.772 44.5616 50.8734 45.5284C50.9939 46.4827 50.9063 46.9608 50.6106 46.9628C50.3462 46.9716 49.9375 46.6258 49.3844 45.9254C48.8382 45.1934 48.2001 44.1679 47.4699 42.849C46.7588 41.5176 46.0351 40.0177 45.2989 38.3494C44.5695 36.6495 43.8452 34.8512 43.1258 32.9545C42.4064 31.0579 41.7906 29.1754 41.2783 27.3072C40.7851 25.4266 40.413 23.6304 40.162 21.9185C39.9179 20.1749 39.8743 18.6407 40.0312 17.3158ZM45.7964 27.9171C46.2486 28.6287 46.814 29.0086 47.4925 29.0567C48.1588 29.0857 48.8473 28.9371 49.558 28.6111C50.2687 28.2851 50.9714 27.8827 51.6661 27.4041C52.3799 26.913 52.9948 26.4998 53.5106 26.1645C53.0218 25.3953 52.3721 24.649 51.5615 23.9258C50.7387 23.1833 49.8551 22.4939 48.9108 21.8576C47.9665 21.2213 47.0119 20.6325 46.0469 20.0911C45.0888 19.5181 44.2144 19.013 43.4237 18.5758C43.3479 18.9239 43.3692 19.4672 43.4875 20.2056C43.6126 20.9123 43.7771 21.7022 43.9809 22.5751C44.1916 23.4165 44.4153 24.2358 44.652 25.0331C44.8887 25.8304 45.0937 26.4716 45.2671 26.9568C45.3038 27.0145 45.392 27.1745 45.5317 27.437C45.6593 27.6802 45.7475 27.8402 45.7964 27.9171Z" fill="#224D76"/>
</svg>
