<svg width="138" height="70" viewBox="0 0 138 70" fill="none" xmlns="http://www.w3.org/2000/svg">
<path d="M18.0344 27.72V4.36C18.0344 3.74667 18.0477 3.29333 18.0744 3C18.1277 2.70667 18.2477 2.37333 18.4344 2C18.8077 1.28 19.701 0.92 21.1144 0.92C22.5277 0.92 23.4744 1.10667 23.9544 1.48C24.461 1.82667 24.7544 2.34667 24.8344 3.04C25.8477 1.65333 27.4344 0.959999 29.5944 0.959999C31.781 0.959999 33.8477 1.98667 35.7944 4.04C37.741 6.09333 38.7144 8.48 38.7144 11.2C38.7144 13.92 37.741 16.3067 35.7944 18.36C33.8744 20.4133 31.821 21.44 29.6344 21.44C27.4477 21.44 25.861 20.8267 24.8744 19.6V27.68C24.8744 28.2933 24.8477 28.7467 24.7944 29.04C24.7677 29.3333 24.6477 29.6667 24.4344 30.04C24.2477 30.44 23.9144 30.72 23.4344 30.88C22.9544 31.04 22.301 31.12 21.4744 31.12C20.6477 31.12 19.981 31.04 19.4744 30.88C18.9944 30.72 18.6477 30.4533 18.4344 30.08C18.2477 29.7067 18.1277 29.3733 18.0744 29.08C18.0477 28.7867 18.0344 28.3333 18.0344 27.72ZM25.9544 8.88C25.341 9.6 25.0344 10.3867 25.0344 11.24C25.0344 12.0933 25.341 12.88 25.9544 13.6C26.5944 14.2933 27.3944 14.64 28.3544 14.64C29.341 14.64 30.1677 14.2933 30.8344 13.6C31.5277 12.9067 31.8744 12.12 31.8744 11.24C31.8744 10.36 31.5544 9.57333 30.9144 8.88C30.2744 8.16 29.4344 7.8 28.3944 7.8C27.381 7.8 26.5677 8.16 25.9544 8.88ZM53.5956 3.16C53.7556 1.66667 54.809 0.92 56.7556 0.92C57.7956 0.92 58.569 0.999999 59.0756 1.16C59.5823 1.32 59.929 1.6 60.1156 2C60.329 2.4 60.449 2.76 60.4756 3.08C60.529 3.37333 60.5556 3.82667 60.5556 4.44V18.44C60.5556 19.0533 60.529 19.52 60.4756 19.84C60.449 20.1333 60.3423 20.48 60.1556 20.88C59.7823 21.5733 58.8623 21.92 57.3956 21.92C55.9556 21.92 54.9823 21.7467 54.4756 21.4C53.9956 21.0267 53.7156 20.4933 53.6356 19.8C52.649 21.2133 50.9956 21.92 48.6756 21.92C46.3823 21.92 44.249 20.8667 42.2756 18.76C40.3023 16.6533 39.3156 14.2133 39.3156 11.44C39.3156 8.64 40.3023 6.2 42.2756 4.12C44.2756 2.01333 46.4623 0.959999 48.8356 0.959999C49.7423 0.959999 50.569 1.12 51.3156 1.44C52.0623 1.76 52.5823 2.06667 52.8756 2.36C53.169 2.62667 53.409 2.89333 53.5956 3.16ZM46.3156 11.48C46.3156 12.36 46.6623 13.16 47.3556 13.88C48.049 14.5733 48.889 14.92 49.8756 14.92C50.8623 14.92 51.6756 14.56 52.3156 13.84C52.9823 13.12 53.3156 12.3333 53.3156 11.48C53.3156 10.6 52.9956 9.78667 52.3556 9.04C51.7423 8.29333 50.9023 7.92 49.8356 7.92C48.7956 7.92 47.9423 8.29333 47.2756 9.04C46.6356 9.78667 46.3156 10.6 46.3156 11.48ZM62.5038 20.12C61.9971 19.8 61.7438 19.2933 61.7438 18.6C61.7438 17.9067 62.2504 16.8533 63.2638 15.44C63.5571 14.9867 64.0238 14.76 64.6638 14.76C65.3304 14.76 66.2238 15.0933 67.3438 15.76C68.4638 16.4 69.4771 16.72 70.3838 16.72C72.0104 16.72 72.8238 16.4 72.8238 15.76C72.8238 15.2533 71.9304 14.88 70.1438 14.64C68.4638 14.4 66.7971 13.7733 65.1438 12.76C64.3704 12.28 63.7304 11.5333 63.2238 10.52C62.7171 9.48 62.4638 8.25333 62.4638 6.84C62.4638 2.62667 65.3571 0.52 71.1438 0.52C73.0371 0.52 74.9838 0.973333 76.9838 1.88C77.9171 2.30667 78.3838 2.84 78.3838 3.48C78.3838 4.12 78.0904 4.90667 77.5038 5.84C76.9171 6.77333 76.3171 7.24 75.7038 7.24C75.3838 7.24 74.7838 7.04 73.9038 6.64C73.0504 6.24 72.1171 6.04 71.1038 6.04C69.5304 6.04 68.7438 6.33333 68.7438 6.92C68.7438 7.72 69.6504 8.24 71.4638 8.48C73.2238 8.66667 74.9304 9.17333 76.5838 10C77.3571 10.3733 77.9971 11.0267 78.5038 11.96C79.0371 12.8667 79.3038 14.0133 79.3038 15.4C79.3038 16.7867 79.0371 17.9733 78.5038 18.96C77.9971 19.92 77.2771 20.64 76.3438 21.12C74.6371 21.9467 72.4904 22.36 69.9038 22.36C67.3438 22.36 64.8771 21.6133 62.5038 20.12ZM94.1941 3.16C94.3541 1.66667 95.4074 0.92 97.3541 0.92C98.3941 0.92 99.1674 0.999999 99.6741 1.16C100.181 1.32 100.527 1.6 100.714 2C100.927 2.4 101.047 2.76 101.074 3.08C101.127 3.37333 101.154 3.82667 101.154 4.44V18.44C101.154 19.0533 101.127 19.52 101.074 19.84C101.047 20.1333 100.941 20.48 100.754 20.88C100.381 21.5733 99.4607 21.92 97.9941 21.92C96.5541 21.92 95.5807 21.7467 95.0741 21.4C94.5941 21.0267 94.3141 20.4933 94.2341 19.8C93.2474 21.2133 91.5941 21.92 89.2741 21.92C86.9807 21.92 84.8474 20.8667 82.8741 18.76C80.9007 16.6533 79.9141 14.2133 79.9141 11.44C79.9141 8.64 80.9007 6.2 82.8741 4.12C84.8741 2.01333 87.0607 0.959999 89.4341 0.959999C90.3407 0.959999 91.1674 1.12 91.9141 1.44C92.6607 1.76 93.1807 2.06667 93.4741 2.36C93.7674 2.62667 94.0074 2.89333 94.1941 3.16ZM86.9141 11.48C86.9141 12.36 87.2607 13.16 87.9541 13.88C88.6474 14.5733 89.4874 14.92 90.4741 14.92C91.4607 14.92 92.2741 14.56 92.9141 13.84C93.5807 13.12 93.9141 12.3333 93.9141 11.48C93.9141 10.6 93.5941 9.78667 92.9541 9.04C92.3407 8.29333 91.5007 7.92 90.4341 7.92C89.3941 7.92 88.5407 8.29333 87.8741 9.04C87.2341 9.78667 86.9141 10.6 86.9141 11.48Z" fill="#78D217"/>
<path d="M0.6 65.72V42.36C0.6 41.7467 0.613333 41.2933 0.64 41C0.693333 40.7067 0.813333 40.3733 1 40C1.37333 39.28 2.26667 38.92 3.68 38.92C5.09333 38.92 6.04 39.1067 6.52 39.48C7.02667 39.8267 7.32 40.3467 7.4 41.04C8.41333 39.6533 10 38.96 12.16 38.96C14.3467 38.96 16.4133 39.9867 18.36 42.04C20.3067 44.0933 21.28 46.48 21.28 49.2C21.28 51.92 20.3067 54.3067 18.36 56.36C16.44 58.4133 14.3867 59.44 12.2 59.44C10.0133 59.44 8.42667 58.8267 7.44 57.6V65.68C7.44 66.2933 7.41333 66.7467 7.36 67.04C7.33333 67.3333 7.21333 67.6667 7 68.04C6.81333 68.44 6.48 68.72 6 68.88C5.52 69.04 4.86667 69.12 4.04 69.12C3.21333 69.12 2.54667 69.04 2.04 68.88C1.56 68.72 1.21333 68.4533 1 68.08C0.813333 67.7067 0.693333 67.3733 0.64 67.08C0.613333 66.7867 0.6 66.3333 0.6 65.72ZM8.52 46.88C7.90667 47.6 7.6 48.3867 7.6 49.24C7.6 50.0933 7.90667 50.88 8.52 51.6C9.16 52.2933 9.96 52.64 10.92 52.64C11.9067 52.64 12.7333 52.2933 13.4 51.6C14.0933 50.9067 14.44 50.12 14.44 49.24C14.44 48.36 14.12 47.5733 13.48 46.88C12.84 46.16 12 45.8 10.96 45.8C9.94667 45.8 9.13333 46.16 8.52 46.88ZM36.1613 41.16C36.3213 39.6667 37.3746 38.92 39.3213 38.92C40.3613 38.92 41.1346 39 41.6413 39.16C42.1479 39.32 42.4946 39.6 42.6813 40C42.8946 40.4 43.0146 40.76 43.0413 41.08C43.0946 41.3733 43.1213 41.8267 43.1213 42.44V56.44C43.1213 57.0533 43.0946 57.52 43.0413 57.84C43.0146 58.1333 42.9079 58.48 42.7213 58.88C42.3479 59.5733 41.4279 59.92 39.9613 59.92C38.5213 59.92 37.5479 59.7467 37.0413 59.4C36.5613 59.0267 36.2813 58.4933 36.2013 57.8C35.2146 59.2133 33.5613 59.92 31.2413 59.92C28.9479 59.92 26.8146 58.8667 24.8413 56.76C22.8679 54.6533 21.8813 52.2133 21.8813 49.44C21.8813 46.64 22.8679 44.2 24.8413 42.12C26.8413 40.0133 29.0279 38.96 31.4013 38.96C32.3079 38.96 33.1346 39.12 33.8813 39.44C34.6279 39.76 35.1479 40.0667 35.4413 40.36C35.7346 40.6267 35.9746 40.8933 36.1613 41.16ZM28.8813 49.48C28.8813 50.36 29.2279 51.16 29.9213 51.88C30.6146 52.5733 31.4546 52.92 32.4413 52.92C33.4279 52.92 34.2413 52.56 34.8813 51.84C35.5479 51.12 35.8813 50.3333 35.8813 49.48C35.8813 48.6 35.5613 47.7867 34.9213 47.04C34.3079 46.2933 33.4679 45.92 32.4013 45.92C31.3613 45.92 30.5079 46.2933 29.8413 47.04C29.2013 47.7867 28.8813 48.6 28.8813 49.48ZM44.9094 32.52C44.9094 31.9067 44.9227 31.4533 44.9494 31.16C45.0027 30.84 45.1227 30.48 45.3094 30.08C45.6827 29.36 46.7227 29 48.4294 29C50.056 29 51.0694 29.36 51.4694 30.08C51.6827 30.48 51.8027 30.84 51.8294 31.16C51.8827 31.48 51.9094 31.9467 51.9094 32.56V51.08C51.9094 52.04 51.9894 52.6533 52.1494 52.92C52.3094 53.16 52.656 53.28 53.1894 53.28C53.7494 53.28 54.1227 53.3067 54.3094 53.36C54.496 53.3867 54.7227 53.4933 54.9894 53.68C55.5227 54.0267 55.7894 54.9733 55.7894 56.52C55.7894 58.2 55.5227 59.2267 54.9894 59.6C54.296 60.08 52.6427 60.16 50.0294 59.84C47.976 59.5733 46.6427 58.8933 46.0294 57.8C45.2827 56.4933 44.9094 54.4133 44.9094 51.56V32.52ZM70.2753 41.16C70.4353 39.6667 71.4886 38.92 73.4353 38.92C74.4753 38.92 75.2486 39 75.7553 39.16C76.262 39.32 76.6086 39.6 76.7953 40C77.0086 40.4 77.1286 40.76 77.1553 41.08C77.2086 41.3733 77.2353 41.8267 77.2353 42.44V56.44C77.2353 57.0533 77.2086 57.52 77.1553 57.84C77.1286 58.1333 77.022 58.48 76.8353 58.88C76.462 59.5733 75.542 59.92 74.0753 59.92C72.6353 59.92 71.662 59.7467 71.1553 59.4C70.6753 59.0267 70.3953 58.4933 70.3153 57.8C69.3286 59.2133 67.6753 59.92 65.3553 59.92C63.062 59.92 60.9286 58.8667 58.9553 56.76C56.982 54.6533 55.9953 52.2133 55.9953 49.44C55.9953 46.64 56.982 44.2 58.9553 42.12C60.9553 40.0133 63.142 38.96 65.5153 38.96C66.422 38.96 67.2486 39.12 67.9953 39.44C68.742 39.76 69.262 40.0667 69.5553 40.36C69.8486 40.6267 70.0886 40.8933 70.2753 41.16ZM62.9953 49.48C62.9953 50.36 63.342 51.16 64.0353 51.88C64.7286 52.5733 65.5686 52.92 66.5553 52.92C67.542 52.92 68.3553 52.56 68.9953 51.84C69.662 51.12 69.9953 50.3333 69.9953 49.48C69.9953 48.6 69.6753 47.7867 69.0353 47.04C68.422 46.2933 67.582 45.92 66.5153 45.92C65.4753 45.92 64.622 46.2933 63.9553 47.04C63.3153 47.7867 62.9953 48.6 62.9953 49.48ZM90.5834 38.96C92.9568 38.96 95.1301 40.0133 97.1034 42.12C99.1034 44.2267 100.103 46.68 100.103 49.48C100.103 52.2533 99.1168 54.6933 97.1434 56.8C95.1701 58.88 93.0501 59.92 90.7834 59.92C88.5168 59.92 86.9034 59.28 85.9434 58C85.7301 59.3067 84.5834 59.96 82.5034 59.96C80.8234 59.96 79.7968 59.6 79.4234 58.88C79.2368 58.48 79.1168 58.1333 79.0634 57.84C79.0368 57.52 79.0234 57.0533 79.0234 56.44V32.56C79.0234 31.9467 79.0368 31.4933 79.0634 31.2C79.1168 30.88 79.2368 30.5333 79.4234 30.16C79.7968 29.44 80.8368 29.08 82.5434 29.08C84.2234 29.08 85.2368 29.44 85.5834 30.16C85.7968 30.56 85.9168 30.92 85.9434 31.24C85.9968 31.5333 86.0234 31.9867 86.0234 32.6V40.92C87.0901 39.6133 88.6101 38.96 90.5834 38.96ZM87.0634 51.88C87.7301 52.6 88.5568 52.96 89.5434 52.96C90.5301 52.96 91.3701 52.6 92.0634 51.88C92.7568 51.16 93.1034 50.36 93.1034 49.48C93.1034 48.6 92.7834 47.8 92.1434 47.08C91.5034 46.3333 90.6501 45.96 89.5834 45.96C88.5168 45.96 87.6634 46.3333 87.0234 47.08C86.4101 47.8267 86.1034 48.64 86.1034 49.52C86.1034 50.3733 86.4234 51.16 87.0634 51.88ZM115.615 39.16C116.122 39.32 116.535 39.6 116.855 40C117.202 40.3733 117.375 40.9867 117.375 41.84C117.375 42.6933 117.122 43.6267 116.615 44.64C116.109 45.6533 115.375 46.16 114.415 46.16C113.935 46.16 113.469 46.0533 113.015 45.84C112.589 45.6267 112.015 45.52 111.295 45.52C110.575 45.52 109.895 45.7733 109.255 46.28C108.642 46.7867 108.335 47.4 108.335 48.12V56.52C108.335 57.1333 108.309 57.6 108.255 57.92C108.229 58.2133 108.109 58.56 107.895 58.96C107.495 59.6533 106.455 60 104.775 60C103.495 60 102.575 59.7733 102.015 59.32C101.589 58.9467 101.349 58.3733 101.295 57.6C101.295 57.3333 101.295 56.9467 101.295 56.44V42.4C101.295 41.7867 101.309 41.3333 101.335 41.04C101.389 40.72 101.509 40.3733 101.695 40C102.069 39.28 103.109 38.92 104.815 38.92C106.415 38.92 107.415 39.2267 107.815 39.84C108.109 40.2667 108.255 40.7067 108.255 41.16C108.389 40.9733 108.575 40.7467 108.815 40.48C109.082 40.2133 109.629 39.8533 110.455 39.4C111.282 38.9467 112.002 38.72 112.615 38.72C113.255 38.72 113.789 38.76 114.215 38.84C114.642 38.8933 115.109 39 115.615 39.16ZM130.646 41.16C130.806 39.6667 131.859 38.92 133.806 38.92C134.846 38.92 135.619 39 136.126 39.16C136.632 39.32 136.979 39.6 137.166 40C137.379 40.4 137.499 40.76 137.526 41.08C137.579 41.3733 137.606 41.8267 137.606 42.44V56.44C137.606 57.0533 137.579 57.52 137.526 57.84C137.499 58.1333 137.392 58.48 137.206 58.88C136.832 59.5733 135.912 59.92 134.446 59.92C133.006 59.92 132.032 59.7467 131.526 59.4C131.046 59.0267 130.766 58.4933 130.686 57.8C129.699 59.2133 128.046 59.92 125.726 59.92C123.432 59.92 121.299 58.8667 119.326 56.76C117.352 54.6533 116.366 52.2133 116.366 49.44C116.366 46.64 117.352 44.2 119.326 42.12C121.326 40.0133 123.512 38.96 125.886 38.96C126.792 38.96 127.619 39.12 128.366 39.44C129.112 39.76 129.632 40.0667 129.926 40.36C130.219 40.6267 130.459 40.8933 130.646 41.16ZM123.366 49.48C123.366 50.36 123.712 51.16 124.406 51.88C125.099 52.5733 125.939 52.92 126.926 52.92C127.912 52.92 128.726 52.56 129.366 51.84C130.032 51.12 130.366 50.3333 130.366 49.48C130.366 48.6 130.046 47.7867 129.406 47.04C128.792 46.2933 127.952 45.92 126.886 45.92C125.846 45.92 124.992 46.2933 124.326 47.04C123.686 47.7867 123.366 48.6 123.366 49.48Z" fill="#224D76"/>
</svg>
