<svg width="152" height="152" viewBox="0 0 152 152" fill="none" xmlns="http://www.w3.org/2000/svg">
<path d="M67.0228 2.84766C67.0228 2.44889 67.057 2.1014 67.1253 1.80518C67.1937 1.50895 67.3247 1.264 67.5184 1.07031C67.7121 0.865234 67.9798 0.711426 68.3216 0.608887C68.6634 0.506348 69.1077 0.455078 69.6546 0.455078L77.2767 0.455078C78.0628 0.455078 78.8433 0.506348 79.618 0.608887C80.3927 0.700033 81.1333 0.859538 81.8397 1.0874C82.5575 1.31527 83.2183 1.61149 83.8221 1.97607C84.4373 2.34066 84.9671 2.79639 85.4115 3.34326C85.8672 3.87874 86.2204 4.51107 86.471 5.24023C86.7331 5.95801 86.8641 6.78971 86.8641 7.73535C86.8641 9.13672 86.6704 10.3216 86.283 11.29C85.9071 12.2471 85.3944 13.0389 84.745 13.6655C84.0955 14.2922 83.3379 14.7707 82.472 15.1011C81.6175 15.4315 80.7174 15.6707 79.7718 15.8188V22.2275C79.7718 22.4896 79.749 22.7801 79.7034 23.0991C79.6579 23.4181 79.5439 23.7201 79.3617 24.0049C79.1794 24.2783 78.9002 24.5119 78.5242 24.7056C78.1483 24.8993 77.6299 24.9961 76.9691 24.9961H69.6546C69.1077 24.9961 68.6634 24.9448 68.3216 24.8423C67.9798 24.7397 67.7121 24.5916 67.5184 24.3979C67.3247 24.2043 67.1937 23.9593 67.1253 23.6631C67.057 23.3669 67.0228 23.0194 67.0228 22.6206V2.84766ZM84.4544 7.9917C84.4544 7.30811 84.3633 6.68148 84.181 6.11182C83.9987 5.53076 83.7196 5.02376 83.3436 4.59082C82.9676 4.15788 82.4834 3.79899 81.8909 3.51416C81.2985 3.22933 80.5921 3.03564 79.7718 2.93311V13.5459C80.5921 13.4206 81.2985 13.1927 81.8909 12.8623C82.4834 12.5319 82.9676 12.1217 83.3436 11.6318C83.7196 11.1419 83.9987 10.5894 84.181 9.97412C84.3633 9.34749 84.4544 8.68669 84.4544 7.9917Z" fill="#78D217"/>
<path d="M117.564 12.8724C117.736 12.9841 117.869 13.1044 117.962 13.2332C118.062 13.3523 118.126 13.4959 118.154 13.6637C118.192 13.8378 118.199 14.0393 118.175 14.2683C118.151 14.4972 118.107 14.7678 118.044 15.0799L113.383 37.038C113.346 37.2036 113.303 37.3455 113.255 37.4637C113.206 37.5819 113.149 37.6939 113.082 37.7997C112.862 38.1459 112.595 38.3324 112.281 38.3593C111.976 38.3923 111.709 38.3344 111.48 38.1854L103.355 32.905C103.107 32.7436 102.915 32.5781 102.78 32.4087C102.66 32.2358 102.57 32.0689 102.511 31.9078C102.451 31.7468 102.418 31.5965 102.413 31.4568C102.416 31.3234 102.433 31.2121 102.463 31.1227L102.626 30.5154L98.5996 27.8985L98.2243 28.266C98.104 28.3917 97.988 28.4997 97.8765 28.5903C97.7711 28.6712 97.6622 28.7363 97.5499 28.7856C97.4437 28.8253 97.3227 28.835 97.1871 28.8148C97.0671 28.7912 96.926 28.7266 96.7636 28.6211L95.2876 27.6619C94.9819 27.4632 94.9055 27.2436 95.0582 27.0032C95.1132 26.9167 95.1917 26.8251 95.2937 26.7283C95.4114 26.6281 95.5508 26.5149 95.712 26.3887L113.297 12.0355C113.727 11.6766 114.104 11.4456 114.426 11.3424C114.748 11.2392 115.082 11.2867 115.429 11.4847L117.564 12.8724ZM100.171 26.4131L103.266 28.4247L105.26 21.7513L100.171 26.4131Z" fill="#78D217"/>
<path d="M137.961 41.8186C139.14 41.4121 140.22 41.2837 141.2 41.4334C142.18 41.5831 143.059 41.9239 143.837 42.4557C144.625 42.9827 145.316 43.655 145.91 44.4723C146.504 45.2897 147.01 46.1605 147.427 47.0846C147.77 47.8426 148.074 48.5994 148.34 49.3549C148.606 50.1104 148.836 50.8136 149.03 51.4644C149.224 52.1153 149.381 52.683 149.499 53.1677C149.618 53.6524 149.704 54.0082 149.756 54.235C149.782 54.3739 149.753 54.4625 149.67 54.5007C149.649 54.5102 149.583 54.5285 149.47 54.5555L148.247 54.8378C148.166 54.8505 148.105 54.8408 148.065 54.8088C148.041 54.7825 148.022 54.7537 148.008 54.7226C147.801 54.2657 147.546 53.9069 147.24 53.6463C146.935 53.3857 146.594 53.2108 146.216 53.1218C145.838 53.0327 145.432 53.0194 144.998 53.082C144.564 53.1445 144.115 53.2577 143.651 53.4216L131.95 57.6963C131.002 58.0336 130.038 58.1965 129.058 58.1849C128.077 58.1733 127.133 57.9634 126.223 57.5551C125.314 57.1469 124.458 56.5256 123.656 55.6912C122.855 54.8567 122.163 53.7958 121.581 52.5082C121.192 51.6464 120.858 50.7966 120.58 49.9588C120.302 49.1211 120.072 48.3489 119.89 47.6421C119.709 46.9354 119.562 46.3194 119.449 45.794C119.352 45.2742 119.282 44.8985 119.24 44.6669C119.215 44.528 119.244 44.4394 119.327 44.4012C119.337 44.3964 119.399 44.3805 119.511 44.3535L120.81 44.0737C120.892 44.0611 120.945 44.0679 120.969 44.0943C121.009 44.1263 121.036 44.1578 121.05 44.189C121.256 44.6459 121.513 45.0353 121.821 45.3574C122.134 45.6899 122.511 45.9299 122.953 46.0773C123.394 46.2247 123.905 46.2772 124.486 46.2349C125.072 46.2028 125.743 46.056 126.5 45.7943L137.961 41.8186Z" fill="#78D217"/>
<path d="M151.573 88.3201C151.544 88.5231 151.491 88.6939 151.414 88.8323C151.348 88.9724 151.245 89.0898 151.105 89.1846C150.963 89.2906 150.784 89.3797 150.567 89.4517C150.349 89.5237 150.086 89.5948 149.777 89.665L127.938 94.4164C127.773 94.4498 127.626 94.4688 127.499 94.4733C127.372 94.4778 127.246 94.4711 127.122 94.4531C126.716 94.394 126.435 94.2265 126.278 93.9505C126.12 93.6858 126.061 93.418 126.099 93.1473L127.463 83.5538C127.505 83.2606 127.574 83.0173 127.67 82.8241C127.777 82.6438 127.89 82.4934 128.011 82.3728C128.132 82.2522 128.254 82.1606 128.378 82.098C128.5 82.0468 128.608 82.0164 128.702 82.007L129.32 81.9069L129.996 77.1525L129.505 76.9603C129.341 76.9018 129.194 76.8402 129.066 76.7754C128.948 76.7123 128.843 76.6395 128.751 76.5571C128.671 76.4763 128.611 76.3697 128.572 76.2375C128.543 76.1181 128.542 75.9625 128.57 75.7708L128.817 74.0281C128.869 73.6671 129.035 73.5071 129.317 73.5481C129.419 73.5629 129.535 73.597 129.665 73.6505C129.805 73.7169 129.966 73.7979 130.149 73.8935L150.537 84.0765C151.043 84.3228 151.41 84.5719 151.639 84.8239C151.868 85.076 151.965 85.401 151.932 85.7991L151.573 88.3201ZM132.001 77.9794L131.482 81.6341L138.361 80.7175L132.001 77.9794Z" fill="#78D217"/>
<path d="M137.19 117.778C137.49 118.041 137.729 118.296 137.907 118.543C138.085 118.79 138.184 119.051 138.204 119.326C138.232 119.608 138.174 119.913 138.028 120.24C137.883 120.567 137.633 120.938 137.277 121.354L132.317 127.142C131.806 127.739 131.259 128.298 130.678 128.818C130.106 129.347 129.504 129.804 128.873 130.19C128.234 130.585 127.582 130.891 126.915 131.11C126.24 131.337 125.553 131.439 124.852 131.416C124.153 131.409 123.448 131.26 122.736 130.97C122.026 130.696 121.315 130.247 120.604 129.624C119.55 128.7 118.785 127.772 118.308 126.84C117.833 125.924 117.571 125.013 117.522 124.107C117.474 123.2 117.607 122.31 117.922 121.434C118.229 120.568 118.635 119.727 119.139 118.911L114.319 114.687C114.122 114.515 113.918 114.306 113.708 114.061C113.497 113.816 113.345 113.531 113.249 113.204C113.162 112.886 113.168 112.52 113.267 112.107C113.366 111.694 113.63 111.236 114.06 110.734L118.819 105.18C119.175 104.765 119.503 104.461 119.802 104.269C120.102 104.077 120.388 103.971 120.659 103.952C120.931 103.933 121.2 103.995 121.468 104.138C121.735 104.281 122.019 104.484 122.318 104.747L137.19 117.778ZM121.979 127.625C122.493 128.076 123.024 128.42 123.571 128.657C124.126 128.901 124.689 129.023 125.259 129.023C125.83 129.023 126.415 128.892 127.014 128.63C127.614 128.367 128.219 127.959 128.83 127.403L120.848 120.409C120.409 121.114 120.121 121.801 119.984 122.469C119.847 123.136 119.84 123.774 119.964 124.383C120.088 124.991 120.322 125.567 120.666 126.111C121.018 126.663 121.456 127.167 121.979 127.625Z" fill="#224D76"/>
<path d="M96.4352 149.719C96.2386 149.777 96.0614 149.8 95.9035 149.787C95.7488 149.786 95.5994 149.741 95.4552 149.653C95.3002 149.568 95.1449 149.442 94.9894 149.274C94.8339 149.107 94.6603 148.897 94.4685 148.645L81.1065 130.756C81.0074 130.619 80.9295 130.494 80.8727 130.38C80.8159 130.266 80.7701 130.149 80.7351 130.029C80.6207 129.635 80.6567 129.309 80.843 129.052C81.0183 128.798 81.2371 128.632 81.4992 128.554L90.7883 125.796C91.0722 125.711 91.322 125.673 91.5377 125.68C91.7456 125.702 91.9294 125.742 92.089 125.802C92.2487 125.861 92.3826 125.934 92.4909 126.021C92.5882 126.111 92.6604 126.197 92.7077 126.278L93.0547 126.799L97.6583 125.432L97.63 124.905C97.6151 124.731 97.6104 124.572 97.616 124.428C97.6247 124.295 97.6476 124.169 97.6845 124.051C97.7246 123.944 97.7968 123.845 97.9011 123.755C97.9976 123.679 98.1387 123.613 98.3244 123.558L100.012 123.057C100.361 122.953 100.576 123.038 100.655 123.312C100.684 123.41 100.701 123.53 100.706 123.671C100.704 123.826 100.697 124.006 100.685 124.212L99.8653 147.007C99.8507 147.569 99.7763 148.007 99.6418 148.321C99.5074 148.634 99.2522 148.858 98.8763 148.994L96.4352 149.719ZM97.7365 127.601L94.1978 128.652L97.8795 134.529L97.7365 127.601Z" fill="#224D76"/>
<path d="M63.4639 149.509C63.3527 149.892 63.2231 150.216 63.0749 150.481C62.9268 150.746 62.7329 150.944 62.4932 151.075C62.2504 151.216 61.9508 151.288 61.5946 151.289C61.2383 151.29 60.7981 151.213 60.2738 151.057L52.9671 148.888C52.3336 148.7 51.88 148.464 51.6064 148.181C51.3218 147.894 51.1553 147.589 51.1068 147.266C51.0443 146.95 51.0536 146.632 51.1348 146.311C51.2128 146.002 51.29 145.716 51.3662 145.453L56.7653 126.858C55.9799 126.744 55.2523 126.635 54.5825 126.531C54.2999 126.483 54.0173 126.434 53.7347 126.386C53.4381 126.346 53.1703 126.308 52.9314 126.272C52.6816 126.234 52.4622 126.193 52.2734 126.148C52.0814 126.115 51.9417 126.085 51.8543 126.06C51.6686 126.004 51.5323 125.922 51.4453 125.813C51.3442 125.712 51.3255 125.552 51.389 125.333L51.8274 123.823C51.8846 123.626 52.026 123.466 52.2515 123.343C52.463 123.228 52.7544 123.225 53.1258 123.335L67.1495 127.499C67.6628 127.652 68.069 127.826 68.3681 128.022C68.6562 128.214 68.8661 128.431 68.9978 128.672C69.1295 128.913 69.1868 129.186 69.1697 129.49C69.1526 129.794 69.0885 130.137 68.9773 130.52L63.4639 149.509Z" fill="#224D76"/>
<path d="M18.5822 125.627C18.4488 125.471 18.3553 125.318 18.3018 125.168C18.2397 125.026 18.2187 124.87 18.2388 124.701C18.2515 124.523 18.3016 124.328 18.3892 124.115C18.4767 123.902 18.5948 123.654 18.7434 123.373L29.3976 103.607C29.4805 103.459 29.5617 103.335 29.6411 103.235C29.7205 103.135 29.8074 103.044 29.9016 102.961C30.2101 102.691 30.5187 102.587 30.8275 102.65C31.1289 102.704 31.3685 102.835 31.5464 103.042L37.8512 110.401C38.044 110.626 38.1814 110.838 38.2634 111.039C38.3294 111.239 38.3684 111.424 38.3802 111.596C38.392 111.767 38.3811 111.921 38.3473 112.056C38.3061 112.183 38.2586 112.286 38.2049 112.363L37.8773 112.9L41.0019 116.547L41.4654 116.299C41.6161 116.213 41.7578 116.142 41.8903 116.086C42.0142 116.038 42.1369 116.006 42.2585 115.991C42.3715 115.983 42.4903 116.007 42.6146 116.065C42.723 116.121 42.8403 116.223 42.9663 116.37L44.1116 117.707C44.3488 117.984 44.3603 118.216 44.1461 118.404C44.069 118.471 43.9679 118.537 43.8428 118.601C43.7018 118.664 43.5362 118.734 43.346 118.81L22.4386 127.633C21.9247 127.856 21.4988 127.972 21.1608 127.98C20.8229 127.988 20.5156 127.848 20.239 127.561L18.5822 125.627ZM39.0763 117.53L36.6744 114.726L32.8831 120.571L39.0763 117.53Z" fill="#224D76"/>
<path d="M4.18166 96.337C3.78705 96.3944 3.43836 96.4106 3.1356 96.3855C2.83283 96.3604 2.57198 96.266 2.35305 96.1021C2.12285 95.9398 1.93295 95.6969 1.78337 95.3733C1.63378 95.0496 1.5205 94.6171 1.44353 94.0757L0.37065 86.5295C0.195846 85.3 0.174029 84.0943 0.305196 82.9124C0.436364 81.7305 0.766369 80.6521 1.29521 79.6772C1.82405 78.7023 2.57506 77.8736 3.54823 77.1909C4.51013 76.51 5.74084 76.0605 7.24037 75.8424C9.33746 75.5375 11.088 75.6284 12.4921 76.115C13.8946 76.5903 14.9514 77.3865 15.6626 78.5035C15.8145 77.6294 16.154 76.9411 16.6809 76.4385C17.1966 75.9375 17.8603 75.6281 18.6721 75.51C19.7206 75.3576 20.5951 75.4779 21.2954 75.8712C21.9941 76.2531 22.5728 76.8022 23.0314 77.5184C23.4787 78.2363 23.8268 79.0664 24.0759 80.0088C24.3121 80.9415 24.4975 81.8816 24.6322 82.8291L25.7292 90.5445C25.8061 91.0859 25.818 91.5332 25.7646 91.8864C25.7112 92.2395 25.6024 92.5259 25.4379 92.7455C25.2735 92.9652 25.0496 93.1301 24.7661 93.2404C24.4825 93.3507 24.1435 93.4346 23.7489 93.492L4.18166 96.337ZM7.85015 78.1888C7.03837 78.3068 6.30707 78.5052 5.65625 78.7841C4.99415 79.0646 4.43025 79.4286 3.96454 79.8763C3.49882 80.3239 3.13854 80.8656 2.8837 81.5013C2.62885 82.137 2.49715 82.87 2.48859 83.7002L15.0711 81.8707C14.8429 81.0749 14.4954 80.4116 14.0287 79.8808C13.5507 79.3517 12.9921 78.9436 12.3529 78.6566C11.7137 78.3696 11.0092 78.19 10.2394 78.1177C9.46962 78.0454 8.6732 78.0691 7.85015 78.1888ZM21.9543 80.8699C21.7424 79.7033 21.3854 78.8918 20.8832 78.4352C20.381 77.9786 19.8311 77.7938 19.2335 77.8806C18.9517 77.9216 18.6786 78.0247 18.4144 78.1897C18.1486 78.3435 17.9278 78.5713 17.7521 78.8732C17.5634 79.1654 17.4263 79.5365 17.3407 79.9864C17.2535 80.4251 17.2354 80.9458 17.2866 81.5485L21.9543 80.8699Z" fill="#224D76"/>
<path d="M27.198 47.1665C27.2371 47.6614 27.2352 48.15 27.1924 48.6322C27.1544 49.104 27.0834 49.5795 26.9796 50.0586L28.1432 50.596C28.4742 50.7489 28.7577 50.9237 28.9938 51.1206C29.2196 51.3127 29.3834 51.5452 29.4851 51.8181C29.5916 52.0806 29.6286 52.3863 29.596 52.7352C29.5682 53.0737 29.4534 53.4662 29.2518 53.9127L26.1359 60.8126C25.9108 61.311 25.6814 61.6945 25.4476 61.963C25.2138 62.2315 24.9692 62.4134 24.7136 62.5087C24.4581 62.604 24.1818 62.6207 23.8847 62.5588C23.5876 62.4969 23.2581 62.3824 22.8961 62.2152L4.94506 53.9248C4.58304 53.7576 4.28164 53.5807 4.04084 53.3942C3.80005 53.2077 3.63159 52.9856 3.53547 52.7279C3.429 52.4654 3.39956 52.1569 3.44714 51.8024C3.49472 51.4479 3.63105 51.0214 3.85613 50.523L6.99315 43.5764C7.33076 42.8288 7.72341 42.1254 8.17108 41.4663C8.62344 40.7968 9.13462 40.2046 9.70461 39.6898C10.269 39.1598 10.9006 38.73 11.5995 38.4002C12.3032 38.0601 13.0802 37.848 13.9308 37.7639C14.7756 37.6647 15.692 37.7114 16.68 37.9042C17.6727 38.0866 18.7483 38.4453 19.9068 38.9803C20.8998 39.4389 21.7715 39.9168 22.522 40.414C23.2725 40.9112 23.9244 41.4193 24.4775 41.9383C25.0307 42.4573 25.4904 42.9896 25.8565 43.5352C26.217 44.0656 26.5042 44.6061 26.7181 45.1566L32.2208 43.9332C32.4125 43.8963 32.5756 43.9089 32.7101 43.971C32.8652 44.0426 32.9739 44.1618 33.0361 44.3286C33.103 44.485 33.1445 44.6422 33.1606 44.8002L33.2816 45.9855C33.2902 46.0773 33.2861 46.1695 33.2692 46.2622C33.2674 46.3492 33.2478 46.4342 33.2103 46.5173C33.1587 46.6315 33.0709 46.729 32.9469 46.8098C32.8229 46.8906 32.6519 46.9371 32.4339 46.9493L27.198 47.1665ZM19.1943 41.3054C18.2634 40.8755 17.3674 40.562 16.5063 40.3651C15.6451 40.1682 14.8372 40.1026 14.0826 40.1682C13.3279 40.2338 12.6321 40.4458 11.9953 40.8042C11.3584 41.1626 10.7987 41.6822 10.3163 42.3629L24.9471 49.1199C25.1192 48.2959 25.11 47.5136 24.9194 46.773C24.7184 46.0276 24.3643 45.3308 23.8571 44.6824C23.3499 44.034 22.7045 43.4285 21.921 42.8659C21.1272 42.2985 20.2183 41.7783 19.1943 41.3054Z" fill="#224D76"/>
<path d="M36.1539 11.8848C36.3259 11.7731 36.4892 11.7009 36.6439 11.6682C36.7926 11.626 36.9483 11.6267 37.111 11.6704C37.2833 11.7079 37.4675 11.7852 37.6634 11.9024C37.8594 12.0196 38.0846 12.1722 38.339 12.3601L56.154 25.769C56.2873 25.8726 56.3971 25.9711 56.4834 26.0644C56.5697 26.1578 56.6465 26.2574 56.7137 26.3631C56.9337 26.7093 56.9906 27.0324 56.8843 27.3325C56.7876 27.6263 56.6246 27.8477 56.3953 27.9967L48.2705 33.2771C48.0221 33.4386 47.7936 33.5463 47.585 33.6004C47.3798 33.6386 47.1924 33.6517 47.0228 33.6397C46.8531 33.6276 46.7043 33.5952 46.5764 33.5425C46.4579 33.4836 46.3647 33.4219 46.2967 33.3574L45.8183 32.955L41.7917 35.5719L41.9664 36.0698C42.0294 36.2327 42.0785 36.3843 42.1136 36.5245C42.1426 36.6551 42.1559 36.7823 42.1536 36.9061C42.1452 37.0203 42.1037 37.1355 42.0292 37.2519C41.9581 37.3525 41.8413 37.4555 41.6789 37.5611L40.203 38.5203C39.8973 38.7189 39.6681 38.6981 39.5153 38.4577C39.4603 38.3712 39.4105 38.2609 39.3658 38.1269C39.3246 37.977 39.2807 37.8017 39.2341 37.601L33.6286 15.4622C33.4847 14.9172 33.4332 14.4751 33.4742 14.1359C33.5151 13.7968 33.6967 13.509 34.0188 13.2724L36.1539 11.8848ZM41.1085 33.5091L44.2036 31.4976L39.0291 26.8916L41.1085 33.5091Z" fill="#224D76"/>
</svg>
