<?xml version="1.0" encoding="UTF-8"?>
<svg xmlns="http://www.w3.org/2000/svg" xmlns:xlink="http://www.w3.org/1999/xlink" width="685.9pt" height="792pt" viewBox="0 0 685.9 792" version="1.1">
<defs>
<clipPath id="clip1">
  <path d="M 0 0 L 685.898438 0 L 685.898438 792 L 0 792 Z M 0 0 "/>
</clipPath>
</defs>
<g id="surface1">
<g clip-path="url(#clip1)" clip-rule="nonzero">
<path style=" stroke:none;fill-rule:evenodd;fill:rgb(10.594177%,9.812927%,9.423828%);fill-opacity:1;" d="M 343 0 L 502.003906 91.800781 L 485.066406 121.132813 L 343 39.113281 L 200.933594 121.132813 L 183.996094 91.800781 Z M 526.945313 106.199219 L 685.945313 198 L 685.945313 381.601563 L 652.074219 381.601563 L 652.074219 217.554688 L 510.007813 135.535156 Z M 685.945313 410.398438 L 685.945313 594 L 526.945313 685.800781 L 510.007813 656.464844 L 652.074219 574.445313 L 652.074219 410.398438 Z M 502.003906 700.199219 L 343 792 L 183.996094 700.199219 L 200.933594 670.867188 L 343 752.886719 L 485.066406 670.867188 Z M 159.054688 685.800781 L 0.0546875 594 L 0.0546875 410.398438 L 33.925781 410.398438 L 33.925781 574.445313 L 175.992188 656.464844 Z M 0.0546875 381.601563 L 0.0546875 198 L 159.054688 106.199219 L 175.992188 135.535156 L 33.925781 217.554688 L 33.925781 381.601563 Z M 320.707031 280.519531 L 254.136719 318.953125 L 254.136719 318.914063 L 133.3125 230.320313 L 182.8125 201.019531 L 173.890625 184.914063 L 72.617188 239.894531 L 75.640625 355.089844 L 94.046875 354.761719 L 94.671875 297.246094 L 231.8125 357.582031 L 231.84375 357.566406 L 231.84375 434.433594 L 231.8125 434.417969 L 94.671875 494.753906 L 94.046875 437.238281 L 75.640625 436.910156 L 72.617188 552.105469 L 173.890625 607.085938 L 182.8125 590.980469 L 133.3125 561.679688 L 254.136719 473.085938 L 254.136719 473.046875 L 320.707031 511.480469 L 320.675781 511.5 L 304.359375 660.4375 L 254.238281 632.21875 L 244.75 647.996094 L 343 708.214844 L 441.25 647.996094 L 431.761719 632.21875 L 381.640625 660.4375 L 365.324219 511.5 L 365.292969 511.480469 L 431.863281 473.046875 L 431.863281 473.085938 L 552.6875 561.679688 L 503.1875 590.980469 L 512.109375 607.085938 L 613.382813 552.105469 L 610.359375 436.910156 L 591.953125 437.238281 L 591.328125 494.753906 L 454.1875 434.417969 L 454.15625 434.433594 L 454.15625 357.566406 L 454.1875 357.582031 L 591.328125 297.246094 L 591.953125 354.761719 L 610.359375 355.089844 L 613.382813 239.894531 L 512.109375 184.914063 L 503.1875 201.019531 L 552.6875 230.320313 L 431.863281 318.914063 L 431.863281 318.953125 L 365.292969 280.519531 L 365.324219 280.5 L 381.640625 131.5625 L 431.761719 159.78125 L 441.25 144.003906 L 343 83.785156 L 244.75 144.003906 L 254.238281 159.78125 L 304.359375 131.5625 L 320.675781 280.5 Z M 320.707031 280.519531 "/>
</g>
</g>
</svg>
