<?xml version="1.0" standalone="no"?>
<!DOCTYPE svg PUBLIC "-//W3C//DTD SVG 20010904//EN"
 "http://www.w3.org/TR/2001/REC-SVG-20010904/DTD/svg10.dtd">
<svg version="1.0" xmlns="http://www.w3.org/2000/svg"
 width="660.000000pt" height="617.000000pt" viewBox="0 0 660.000000 617.000000"
 preserveAspectRatio="xMidYMid meet">

<g transform="translate(0.000000,617.000000) scale(0.100000,-0.100000)"
fill="#000000" stroke="none">
<path d="M3337 5553 c-4 -223 -7 -482 -7 -574 l0 -168 43 -5 c23 -3 80 -8 127
-11 46 -3 85 -7 87 -8 6 -7 -20 -229 -43 -357 -52 -294 -72 -426 -75 -484 l-3
-59 60 -13 c90 -18 214 -69 282 -117 34 -23 95 -76 137 -116 41 -41 81 -71 88
-68 7 3 46 31 87 64 41 33 156 122 255 198 99 76 211 165 250 197 84 71 108
79 135 47 26 -32 150 -250 177 -313 38 -87 39 -85 -110 -143 -277 -108 -662
-266 -671 -274 -6 -5 2 -56 19 -129 25 -108 27 -133 22 -233 -4 -62 -13 -137
-22 -167 -9 -30 -20 -74 -24 -97 l-8 -41 51 -20 c28 -12 132 -54 231 -95 99
-41 260 -107 358 -147 206 -85 195 -66 125 -205 -44 -88 -169 -294 -179 -295
-16 -1 -133 88 -311 236 -233 194 -376 304 -394 304 -7 0 -37 -24 -66 -53
-112 -112 -253 -194 -418 -241 -47 -13 -85 -28 -85 -32 1 -55 22 -213 55 -410
41 -250 67 -460 59 -468 -2 -3 -57 -8 -122 -12 l-117 -7 0 -573 0 -574 59 0
c145 0 429 53 671 125 414 122 718 274 1045 521 347 262 604 570 796 953 387
773 394 1763 19 2611 -176 398 -464 778 -790 1041 -251 202 -555 368 -850 465
-261 86 -644 154 -866 154 l-71 0 -6 -407z m593 104 c311 -74 681 -237 928
-409 206 -144 414 -337 539 -503 103 -136 200 -335 164 -335 -6 0 -29 -13 -53
-28 -24 -16 -60 -39 -80 -51 l-37 -22 -72 108 c-87 132 -163 229 -186 237 -11
5 -30 -6 -57 -32 -23 -21 -56 -50 -74 -65 l-33 -27 -117 96 c-160 132 -280
220 -390 288 -100 61 -343 185 -456 231 -37 16 -70 34 -73 41 -2 6 5 51 16 99
12 47 21 88 21 91 0 21 -146 56 -310 74 -58 6 -119 13 -135 15 l-31 5 8 98 c4
53 10 103 13 111 9 23 285 9 415 -22z m1783 -1484 c3 -10 22 -63 42 -118 89
-246 170 -587 196 -825 18 -167 16 -499 -5 -645 -43 -304 -131 -578 -249 -773
-28 -47 -35 -52 -57 -47 -33 8 -170 86 -170 97 0 4 30 71 66 149 122 263 122
257 4 292 -64 19 -90 32 -90 43 0 9 13 73 29 142 36 157 40 191 51 355 10 164
-4 432 -31 595 -11 68 -18 129 -16 136 3 7 41 21 85 31 44 10 86 21 93 26 24
15 -5 111 -110 362 -22 54 -41 101 -41 103 0 6 173 93 186 93 7 1 14 -7 17
-16z m-282 -2579 c38 -26 73 -52 79 -60 23 -26 -201 -325 -351 -470 -213 -204
-497 -386 -794 -507 -307 -125 -644 -207 -856 -207 l-99 0 0 110 0 110 61 0
c65 0 360 39 371 49 4 3 -2 47 -12 96 -11 50 -19 95 -20 102 0 6 26 17 58 23
114 22 290 85 417 149 208 105 438 265 554 385 l45 46 73 -72 74 -71 40 39
c22 21 90 103 152 182 62 78 118 142 125 142 8 0 45 -21 83 -46z"/>
<path d="M3129 5871 c-41 -42 -124 -130 -184 -196 -145 -160 -210 -228 -272
-288 -29 -27 -53 -57 -53 -65 0 -8 18 -40 39 -72 58 -84 81 -134 97 -209 15
-74 19 -221 5 -221 -5 0 -31 27 -57 59 -77 96 -218 231 -241 231 -12 0 -43
-26 -79 -67 -32 -37 -96 -108 -141 -157 -46 -49 -83 -94 -83 -98 0 -5 64 -73
143 -151 154 -153 219 -231 314 -372 119 -178 199 -350 244 -521 20 -77 23
-113 23 -269 0 -197 -9 -253 -65 -394 -96 -241 -282 -429 -504 -509 -86 -31
-247 -41 -334 -22 -120 26 -268 114 -364 214 -130 137 -234 350 -293 602 -26
111 -28 134 -28 339 -1 250 10 329 75 558 88 313 215 574 432 897 87 128 156
210 302 355 154 154 197 192 327 284 113 80 116 85 41 79 -209 -19 -761 -295
-1053 -527 -141 -112 -324 -298 -475 -485 -327 -402 -510 -835 -592 -1401 -27
-184 -24 -573 5 -762 126 -814 512 -1499 1122 -1993 375 -303 828 -504 1305
-579 114 -18 344 -41 411 -41 l24 0 0 2924 c0 1609 -3 2927 -7 2929 -5 3 -42
-30 -84 -72z"/>
</g>
</svg>
