<svg width="178" height="47" viewBox="0 0 178 47" fill="none" xmlns="http://www.w3.org/2000/svg">
<path d="M11.912 32.288C12.968 32.288 13.832 32.208 14.504 32.048C15.208 31.856 15.768 31.616 16.184 31.328C16.6 31.008 16.888 30.64 17.048 30.224C17.208 29.808 17.288 29.344 17.288 28.832C17.288 27.744 16.776 26.848 15.752 26.144C14.728 25.408 12.968 24.624 10.472 23.792C9.384 23.408 8.296 22.976 7.208 22.496C6.12 21.984 5.144 21.36 4.28 20.624C3.416 19.856 2.712 18.944 2.168 17.888C1.624 16.8 1.352 15.488 1.352 13.952C1.352 12.416 1.64 11.04 2.216 9.824C2.792 8.576 3.608 7.52 4.664 6.656C5.72 5.792 7 5.136 8.504 4.688C10.008 4.208 11.704 3.968 13.592 3.968C15.832 3.968 17.768 4.208 19.4 4.688C21.032 5.168 22.376 5.696 23.432 6.272L21.272 12.176C20.344 11.696 19.304 11.28 18.152 10.928C17.032 10.544 15.672 10.352 14.072 10.352C12.28 10.352 10.984 10.608 10.184 11.12C9.416 11.6 9.032 12.352 9.032 13.376C9.032 13.984 9.176 14.496 9.464 14.912C9.752 15.328 10.152 15.712 10.664 16.064C11.208 16.384 11.816 16.688 12.488 16.976C13.192 17.232 13.96 17.504 14.792 17.792C16.52 18.432 18.024 19.072 19.304 19.712C20.584 20.32 21.64 21.04 22.472 21.872C23.336 22.704 23.976 23.68 24.392 24.8C24.808 25.92 25.016 27.28 25.016 28.88C25.016 31.984 23.928 34.4 21.752 36.128C19.576 37.824 16.296 38.672 11.912 38.672C10.44 38.672 9.112 38.576 7.928 38.384C6.744 38.224 5.688 38.016 4.76 37.76C3.864 37.504 3.08 37.232 2.408 36.944C1.768 36.656 1.224 36.384 0.776 36.128L2.888 30.176C3.88 30.72 5.096 31.216 6.536 31.664C8.008 32.08 9.8 32.288 11.912 32.288ZM37.4495 21.872C38.1535 21.104 38.8735 20.304 39.6095 19.472C40.3775 18.64 41.1135 17.824 41.8175 17.024C42.5215 16.192 43.1775 15.408 43.7855 14.672C44.4255 13.936 44.9695 13.296 45.4175 12.752H53.9135C52.2175 14.704 50.5535 16.576 48.9215 18.368C47.3215 20.128 45.5615 21.952 43.6415 23.84C44.6015 24.704 45.5935 25.744 46.6175 26.96C47.6415 28.144 48.6335 29.376 49.5935 30.656C50.5535 31.936 51.4335 33.216 52.2335 34.496C53.0335 35.776 53.7055 36.944 54.2495 38H46.0415C45.5295 37.168 44.9375 36.256 44.2655 35.264C43.6255 34.24 42.9375 33.232 42.2015 32.24C41.4655 31.216 40.6815 30.24 39.8495 29.312C39.0495 28.384 38.2495 27.6 37.4495 26.96V38H30.2975V1.904L37.4495 0.751999V21.872ZM81.4479 12.752C80.0079 17.616 78.5039 22.176 76.9359 26.432C75.3679 30.688 73.6559 34.816 71.7999 38.816C71.1279 40.256 70.4559 41.472 69.7839 42.464C69.1119 43.488 68.3759 44.32 67.5759 44.96C66.7759 45.632 65.8639 46.112 64.8399 46.4C63.8479 46.72 62.6799 46.88 61.3359 46.88C60.2159 46.88 59.1759 46.768 58.2159 46.544C57.2879 46.352 56.5199 46.128 55.9119 45.872L57.1599 40.16C57.8959 40.416 58.5519 40.592 59.1279 40.688C59.7039 40.784 60.3119 40.832 60.9519 40.832C62.2319 40.832 63.2079 40.48 63.8799 39.776C64.5839 39.104 65.1759 38.16 65.6559 36.944C64.0239 33.744 62.3919 30.16 60.7599 26.192C59.1279 22.192 57.5919 17.712 56.1519 12.752H63.7359C64.0559 14 64.4239 15.36 64.8399 16.832C65.2879 18.272 65.7519 19.744 66.2319 21.248C66.7119 22.72 67.1919 24.16 67.6719 25.568C68.1839 26.976 68.6639 28.256 69.1119 29.408C69.5279 28.256 69.9599 26.976 70.4079 25.568C70.8559 24.16 71.2879 22.72 71.7039 21.248C72.1519 19.744 72.5679 18.272 72.9519 16.832C73.3679 15.36 73.7359 14 74.0559 12.752H81.4479ZM95.3619 38.48C93.2819 38.448 91.5859 38.224 90.2739 37.808C88.9939 37.392 87.9699 36.816 87.2019 36.08C86.4659 35.312 85.9539 34.4 85.6659 33.344C85.4099 32.256 85.2819 31.04 85.2819 29.696V1.904L92.4339 0.751999V28.256C92.4339 28.896 92.4819 29.472 92.5779 29.984C92.6739 30.496 92.8499 30.928 93.1059 31.28C93.3939 31.632 93.7939 31.92 94.3059 32.144C94.8179 32.368 95.5059 32.512 96.3699 32.576L95.3619 38.48ZM105.396 1.184C105.46 1.632 105.508 2.096 105.54 2.576C105.572 3.056 105.588 3.408 105.588 3.632C105.588 5.776 105.204 7.824 104.436 9.776C103.668 11.696 102.724 13.328 101.604 14.672L96.5638 13.52C97.1718 12.144 97.6518 10.592 98.0038 8.864C98.3878 7.136 98.5798 5.488 98.5798 3.92C98.5798 3.856 98.5798 3.728 98.5798 3.536C98.5798 3.312 98.5638 3.072 98.5318 2.816C98.5318 2.528 98.5158 2.24 98.4838 1.952C98.4838 1.664 98.4678 1.408 98.4358 1.184H105.396ZM128.94 38C128.588 36.848 128.188 35.664 127.74 34.448C127.324 33.232 126.908 32.016 126.492 30.8H113.532C113.116 32.016 112.684 33.232 112.236 34.448C111.82 35.664 111.436 36.848 111.084 38H103.308C104.556 34.416 105.74 31.104 106.86 28.064C107.98 25.024 109.068 22.16 110.124 19.472C111.212 16.784 112.268 14.24 113.292 11.84C114.348 9.408 115.436 7.04 116.556 4.736H123.708C124.796 7.04 125.868 9.408 126.924 11.84C127.98 14.24 129.036 16.784 130.092 19.472C131.18 22.16 132.284 25.024 133.404 28.064C134.524 31.104 135.708 34.416 136.956 38H128.94ZM119.964 12.272C119.804 12.752 119.564 13.408 119.244 14.24C118.924 15.072 118.556 16.032 118.14 17.12C117.724 18.208 117.26 19.408 116.748 20.72C116.268 22.032 115.772 23.408 115.26 24.848H124.716C124.204 23.408 123.708 22.032 123.228 20.72C122.748 19.408 122.284 18.208 121.836 17.12C121.42 16.032 121.052 15.072 120.732 14.24C120.412 13.408 120.156 12.752 119.964 12.272ZM155.998 19.088C155.358 18.928 154.606 18.768 153.742 18.608C152.878 18.416 151.95 18.32 150.958 18.32C150.51 18.32 149.966 18.368 149.326 18.464C148.718 18.528 148.254 18.608 147.934 18.704V38H140.782V14.096C142.062 13.648 143.566 13.232 145.294 12.848C147.054 12.432 149.006 12.224 151.15 12.224C151.534 12.224 151.998 12.256 152.542 12.32C153.086 12.352 153.63 12.416 154.174 12.512C154.718 12.576 155.262 12.672 155.806 12.8C156.35 12.896 156.814 13.024 157.198 13.184L155.998 19.088ZM160.792 6.464L167.944 5.312V12.752H176.536V18.704H167.944V27.584C167.944 29.088 168.2 30.288 168.712 31.184C169.256 32.08 170.328 32.528 171.928 32.528C172.696 32.528 173.48 32.464 174.28 32.336C175.112 32.176 175.864 31.968 176.536 31.712L177.544 37.28C176.68 37.632 175.72 37.936 174.664 38.192C173.608 38.448 172.312 38.576 170.776 38.576C168.824 38.576 167.208 38.32 165.928 37.808C164.648 37.264 163.624 36.528 162.856 35.6C162.088 34.64 161.544 33.488 161.224 32.144C160.936 30.8 160.792 29.312 160.792 27.68V6.464Z" fill="white"/>
</svg>
